M48
; DRILL file {KiCad 7.0.7} date Tue Aug 22 17:18:09 2023
; FORMAT={-:-/ absolute / metric / decimal}
; #@! TF.CreationDate,2023-08-22T17:18:09-04:00
; #@! TF.GenerationSoftware,Kicad,Pcbnew,7.0.7
; #@! TF.FileFunction,Plated,1,2,PTH
FMAT,2
METRIC
; #@! TA.AperFunction,Plated,PTH,ComponentDrill
T1C1.000
%
G90
G05
T1
X66.775Y-55.745
X66.775Y-58.285
X66.775Y-60.825
X73.46Y-55.6
X73.46Y-63.22
X73.46Y-65.76
X73.46Y-68.3
X73.46Y-70.84
X73.46Y-73.38
X73.46Y-75.92
X73.46Y-78.46
X73.46Y-81.0
X73.46Y-83.54
X73.46Y-86.08
X73.46Y-88.62
X73.46Y-91.16
X76.0Y-55.6
X76.0Y-63.22
X76.0Y-65.76
X76.0Y-68.3
X76.0Y-70.84
X76.0Y-73.38
X76.0Y-75.92
X76.0Y-78.46
X76.0Y-81.0
X76.0Y-93.7
T0
M30
