M48
; DRILL file {KiCad (6.0.10)} date Tue Jan 17 16:12:40 2023
; FORMAT={-:-/ absolute / metric / decimal}
; #@! TF.CreationDate,2023-01-17T16:12:40-05:00
; #@! TF.GenerationSoftware,Kicad,Pcbnew,(6.0.10)
; #@! TF.FileFunction,Plated,1,2,PTH
FMAT,2
METRIC
; #@! TA.AperFunction,Plated,PTH,ComponentDrill
T1C1.000
%
G90
G05
T1
X70.0Y-56.92
X70.0Y-59.46
X70.0Y-62.0
X70.0Y-64.54
X70.0Y-67.08
X70.0Y-69.62
X70.0Y-72.16
X70.0Y-74.7
X70.0Y-77.24
X70.0Y-79.78
X70.0Y-82.32
X70.0Y-84.86
X70.0Y-87.4
X70.0Y-89.94
X70.0Y-92.48
X70.0Y-95.02
X72.54Y-56.92
X72.54Y-59.46
X72.54Y-62.0
X72.54Y-64.54
X72.54Y-67.08
X72.54Y-69.62
X72.54Y-72.16
X72.54Y-74.7
X72.54Y-77.24
X72.54Y-79.78
X72.54Y-82.32
X72.54Y-84.86
X72.54Y-87.4
X72.54Y-89.94
X72.54Y-92.48
X72.54Y-95.02
T0
M30
