%TF.GenerationSoftware,KiCad,Pcbnew,(6.0.10)*%
%TF.CreationDate,2023-01-17T15:15:00-05:00*%
%TF.ProjectId,dds-sweeper-board,6464732d-7377-4656-9570-65722d626f61,0*%
%TF.SameCoordinates,Original*%
%TF.FileFunction,Copper,L1,Top*%
%TF.FilePolarity,Positive*%
%FSLAX46Y46*%
G04 Gerber Fmt 4.6, Leading zero omitted, Abs format (unit mm)*
G04 Created by KiCad (PCBNEW (6.0.10)) date 2023-01-17 15:15:00*
%MOMM*%
%LPD*%
G01*
G04 APERTURE LIST*
G04 Aperture macros list*
%AMRoundRect*
0 Rectangle with rounded corners*
0 $1 Rounding radius*
0 $2 $3 $4 $5 $6 $7 $8 $9 X,Y pos of 4 corners*
0 Add a 4 corners polygon primitive as box body*
4,1,4,$2,$3,$4,$5,$6,$7,$8,$9,$2,$3,0*
0 Add four circle primitives for the rounded corners*
1,1,$1+$1,$2,$3*
1,1,$1+$1,$4,$5*
1,1,$1+$1,$6,$7*
1,1,$1+$1,$8,$9*
0 Add four rect primitives between the rounded corners*
20,1,$1+$1,$2,$3,$4,$5,0*
20,1,$1+$1,$4,$5,$6,$7,0*
20,1,$1+$1,$6,$7,$8,$9,0*
20,1,$1+$1,$8,$9,$2,$3,0*%
G04 Aperture macros list end*
%TA.AperFunction,SMDPad,CuDef*%
%ADD10R,1.700000X3.500000*%
%TD*%
%TA.AperFunction,SMDPad,CuDef*%
%ADD11R,3.500000X1.700000*%
%TD*%
%TA.AperFunction,SMDPad,CuDef*%
%ADD12R,4.200000X1.350000*%
%TD*%
%TA.AperFunction,SMDPad,CuDef*%
%ADD13R,3.600000X1.270000*%
%TD*%
%TA.AperFunction,SMDPad,CuDef*%
%ADD14RoundRect,0.150000X-0.512500X-0.150000X0.512500X-0.150000X0.512500X0.150000X-0.512500X0.150000X0*%
%TD*%
%TA.AperFunction,ComponentPad*%
%ADD15R,1.700000X1.700000*%
%TD*%
%TA.AperFunction,ComponentPad*%
%ADD16O,1.700000X1.700000*%
%TD*%
%TA.AperFunction,SMDPad,CuDef*%
%ADD17RoundRect,0.250000X-0.475000X0.337500X-0.475000X-0.337500X0.475000X-0.337500X0.475000X0.337500X0*%
%TD*%
%TA.AperFunction,SMDPad,CuDef*%
%ADD18RoundRect,0.250000X0.475000X-0.337500X0.475000X0.337500X-0.475000X0.337500X-0.475000X-0.337500X0*%
%TD*%
%TA.AperFunction,Conductor*%
%ADD19C,0.254000*%
%TD*%
%TA.AperFunction,Conductor*%
%ADD20C,0.500000*%
%TD*%
G04 APERTURE END LIST*
D10*
X50900000Y-85505000D03*
X48360000Y-85505000D03*
X45820000Y-85505000D03*
D11*
X58150000Y-36575000D03*
X58150000Y-39115000D03*
X58150000Y-41655000D03*
X58150000Y-44195000D03*
X58150000Y-46735000D03*
X58150000Y-49275000D03*
X58150000Y-51815000D03*
X58150000Y-54355000D03*
X58150000Y-56895000D03*
X58150000Y-59435000D03*
X58150000Y-61975000D03*
X58150000Y-64515000D03*
X58150000Y-67055000D03*
X58150000Y-69595000D03*
X58150000Y-72135000D03*
X58150000Y-74675000D03*
X58150000Y-77215000D03*
X58150000Y-79755000D03*
X58150000Y-82295000D03*
X58150000Y-84835000D03*
X38570000Y-84835000D03*
X38570000Y-82295000D03*
X38570000Y-79755000D03*
X38570000Y-77215000D03*
X38570000Y-74675000D03*
X38570000Y-72135000D03*
X38570000Y-69595000D03*
X38570000Y-67055000D03*
X38570000Y-64515000D03*
X38570000Y-61975000D03*
X38570000Y-59435000D03*
X38570000Y-56895000D03*
X38570000Y-54355000D03*
X38570000Y-51815000D03*
X38570000Y-49275000D03*
X38570000Y-46735000D03*
X38570000Y-44195000D03*
X38570000Y-41655000D03*
X38570000Y-39115000D03*
X38570000Y-36575000D03*
D12*
X85337500Y-79825000D03*
X85337500Y-74175000D03*
D13*
X85537500Y-77000000D03*
X85537500Y-59000000D03*
D12*
X85337500Y-56175000D03*
X85337500Y-61825000D03*
D13*
X85700000Y-38900000D03*
D12*
X85500000Y-36075000D03*
X85500000Y-41725000D03*
D14*
X72137500Y-38512500D03*
X72137500Y-40412500D03*
X69862500Y-40412500D03*
X69862500Y-39462500D03*
X69862500Y-38512500D03*
D15*
X72540000Y-56920000D03*
D16*
X70000000Y-56920000D03*
X72540000Y-59460000D03*
X70000000Y-59460000D03*
X72540000Y-62000000D03*
X70000000Y-62000000D03*
X72540000Y-64540000D03*
X70000000Y-64540000D03*
X72540000Y-67080000D03*
X70000000Y-67080000D03*
X72540000Y-69620000D03*
X70000000Y-69620000D03*
X72540000Y-72160000D03*
X70000000Y-72160000D03*
X72540000Y-74700000D03*
X70000000Y-74700000D03*
X72540000Y-77240000D03*
X70000000Y-77240000D03*
X72540000Y-79780000D03*
X70000000Y-79780000D03*
X72540000Y-82320000D03*
X70000000Y-82320000D03*
X72540000Y-84860000D03*
X70000000Y-84860000D03*
X72540000Y-87400000D03*
X70000000Y-87400000D03*
X72540000Y-89940000D03*
X70000000Y-89940000D03*
X72540000Y-92480000D03*
X70000000Y-92480000D03*
X72540000Y-95020000D03*
X70000000Y-95020000D03*
D17*
X77000000Y-38500000D03*
X77000000Y-40575000D03*
D18*
X65000000Y-38425000D03*
X65000000Y-40500000D03*
D19*
X39470000Y-84835000D02*
X42165000Y-84835000D01*
X42165000Y-84835000D02*
X44000000Y-83000000D01*
X51000000Y-83000000D02*
X44000000Y-83000000D01*
X55000000Y-79000000D02*
X51000000Y-83000000D01*
X55000000Y-59223000D02*
X55000000Y-79000000D01*
X56097000Y-58126000D02*
X55000000Y-59223000D01*
X56019000Y-65746000D02*
X56019000Y-86066000D01*
X56953000Y-87000000D02*
X60240000Y-87000000D01*
X57250000Y-64515000D02*
X56019000Y-65746000D01*
X56019000Y-86066000D02*
X56953000Y-87000000D01*
X56097000Y-58126000D02*
X68794000Y-58126000D01*
X68794000Y-58126000D02*
X70000000Y-56920000D01*
X84372500Y-77000000D02*
X85537500Y-77000000D01*
X79000000Y-68000000D02*
X79000000Y-71627500D01*
X79000000Y-71627500D02*
X84372500Y-77000000D01*
X74309000Y-63309000D02*
X79000000Y-68000000D01*
X62405000Y-69595000D02*
X68691000Y-63309000D01*
X68691000Y-63309000D02*
X74309000Y-63309000D01*
X57250000Y-69595000D02*
X62405000Y-69595000D01*
X71309000Y-91249000D02*
X70000000Y-89940000D01*
X71309000Y-92911897D02*
X71309000Y-91249000D01*
X70509897Y-93711000D02*
X71309000Y-92911897D01*
X42647160Y-93711000D02*
X70509897Y-93711000D01*
X35423002Y-86486842D02*
X42647160Y-93711000D01*
X35423000Y-71920000D02*
X35423002Y-86486842D01*
X37748000Y-69595000D02*
X35423000Y-71920000D01*
X39470000Y-69595000D02*
X37748000Y-69595000D01*
X42134580Y-92480000D02*
X70000000Y-92480000D01*
X35931001Y-86276421D02*
X42134580Y-92480000D01*
X37748000Y-74675000D02*
X35931000Y-76492000D01*
X35931000Y-76492000D02*
X35931001Y-86276421D01*
X39470000Y-74675000D02*
X37748000Y-74675000D01*
X64684000Y-87636000D02*
X70000000Y-82320000D01*
X36439000Y-86066000D02*
X38009000Y-87636000D01*
X38009000Y-87636000D02*
X64684000Y-87636000D01*
X36439000Y-83604000D02*
X36439000Y-86066000D01*
X39470000Y-82295000D02*
X37748000Y-82295000D01*
X37748000Y-82295000D02*
X36439000Y-83604000D01*
X60240000Y-87000000D02*
X70000000Y-77240000D01*
X57250000Y-84835000D02*
X59865000Y-84835000D01*
X59865000Y-84835000D02*
X70000000Y-74700000D01*
X59865000Y-82295000D02*
X70000000Y-72160000D01*
X57250000Y-82295000D02*
X59865000Y-82295000D01*
X62405000Y-77215000D02*
X70000000Y-69620000D01*
X57250000Y-77215000D02*
X62405000Y-77215000D01*
X62405000Y-74675000D02*
X70000000Y-67080000D01*
X57250000Y-74675000D02*
X62405000Y-74675000D01*
D20*
X77400000Y-38900000D02*
X77000000Y-38500000D01*
X85700000Y-38900000D02*
X77400000Y-38900000D01*
X76987500Y-38512500D02*
X77000000Y-38500000D01*
X72137500Y-38512500D02*
X76987500Y-38512500D01*
X80000000Y-59000000D02*
X85537500Y-59000000D01*
X67735000Y-46735000D02*
X80000000Y-59000000D01*
X57250000Y-46735000D02*
X67735000Y-46735000D01*
X63540000Y-46735000D02*
X69862500Y-40412500D01*
X57250000Y-46735000D02*
X63540000Y-46735000D01*
X65087500Y-38512500D02*
X65000000Y-38425000D01*
X69862500Y-38512500D02*
X65087500Y-38512500D01*
X63150000Y-36575000D02*
X65000000Y-38425000D01*
X57250000Y-36575000D02*
X63150000Y-36575000D01*
%TA.AperFunction,Conductor*%
G36*
X87433621Y-34528502D02*
G01*
X87480114Y-34582158D01*
X87491500Y-34634500D01*
X87491500Y-34766000D01*
X87471498Y-34834121D01*
X87417842Y-34880614D01*
X87365500Y-34892000D01*
X85772115Y-34892000D01*
X85756876Y-34896475D01*
X85755671Y-34897865D01*
X85754000Y-34905548D01*
X85754000Y-37239884D01*
X85758475Y-37255123D01*
X85759865Y-37256328D01*
X85767548Y-37257999D01*
X87365500Y-37257999D01*
X87433621Y-37278001D01*
X87480114Y-37331657D01*
X87491500Y-37383999D01*
X87491500Y-37630500D01*
X87471498Y-37698621D01*
X87417842Y-37745114D01*
X87365500Y-37756500D01*
X83851866Y-37756500D01*
X83789684Y-37763255D01*
X83653295Y-37814385D01*
X83536739Y-37901739D01*
X83449385Y-38018295D01*
X83446233Y-38026703D01*
X83446232Y-38026705D01*
X83433852Y-38059729D01*
X83391211Y-38116494D01*
X83324650Y-38141194D01*
X83315870Y-38141500D01*
X78350153Y-38141500D01*
X78282032Y-38121498D01*
X78235539Y-38067842D01*
X78224826Y-38028502D01*
X78223238Y-38013193D01*
X78223237Y-38013190D01*
X78222526Y-38006334D01*
X78214217Y-37981427D01*
X78168868Y-37845502D01*
X78166550Y-37838554D01*
X78073478Y-37688152D01*
X77948303Y-37563195D01*
X77916550Y-37543622D01*
X77803968Y-37474225D01*
X77803966Y-37474224D01*
X77797738Y-37470385D01*
X77717995Y-37443936D01*
X77636389Y-37416868D01*
X77636387Y-37416868D01*
X77629861Y-37414703D01*
X77623025Y-37414003D01*
X77623022Y-37414002D01*
X77579969Y-37409591D01*
X77525400Y-37404000D01*
X76474600Y-37404000D01*
X76471354Y-37404337D01*
X76471350Y-37404337D01*
X76375692Y-37414262D01*
X76375688Y-37414263D01*
X76368834Y-37414974D01*
X76362298Y-37417155D01*
X76362296Y-37417155D01*
X76235374Y-37459500D01*
X76201054Y-37470950D01*
X76050652Y-37564022D01*
X75925695Y-37689197D01*
X75921854Y-37695428D01*
X75917317Y-37701173D01*
X75915987Y-37700123D01*
X75869893Y-37741608D01*
X75815403Y-37754000D01*
X72933754Y-37754000D01*
X72898602Y-37748997D01*
X72760011Y-37708733D01*
X72760007Y-37708732D01*
X72753831Y-37706938D01*
X72747426Y-37706434D01*
X72747421Y-37706433D01*
X72718958Y-37704193D01*
X72718950Y-37704193D01*
X72716502Y-37704000D01*
X71558498Y-37704000D01*
X71556050Y-37704193D01*
X71556042Y-37704193D01*
X71527579Y-37706433D01*
X71527574Y-37706434D01*
X71521169Y-37706938D01*
X71428027Y-37733998D01*
X71369012Y-37751143D01*
X71369010Y-37751144D01*
X71361399Y-37753355D01*
X71334209Y-37769435D01*
X71225020Y-37834009D01*
X71225017Y-37834011D01*
X71218193Y-37838047D01*
X71100547Y-37955693D01*
X71098294Y-37959502D01*
X71042004Y-38000155D01*
X70971112Y-38004006D01*
X70909391Y-37968918D01*
X70902724Y-37961224D01*
X70899453Y-37955693D01*
X70781807Y-37838047D01*
X70774983Y-37834011D01*
X70774980Y-37834009D01*
X70665791Y-37769435D01*
X70638601Y-37753355D01*
X70630990Y-37751144D01*
X70630988Y-37751143D01*
X70571973Y-37733998D01*
X70478831Y-37706938D01*
X70472426Y-37706434D01*
X70472421Y-37706433D01*
X70443958Y-37704193D01*
X70443950Y-37704193D01*
X70441502Y-37704000D01*
X69283498Y-37704000D01*
X69281050Y-37704193D01*
X69281042Y-37704193D01*
X69252579Y-37706433D01*
X69252574Y-37706434D01*
X69246169Y-37706938D01*
X69239993Y-37708732D01*
X69239989Y-37708733D01*
X69101398Y-37748997D01*
X69066246Y-37754000D01*
X66230840Y-37754000D01*
X66162719Y-37733998D01*
X66123696Y-37694303D01*
X66116689Y-37682979D01*
X66073478Y-37613152D01*
X65948303Y-37488195D01*
X65919410Y-37470385D01*
X65803968Y-37399225D01*
X65803966Y-37399224D01*
X65797738Y-37395385D01*
X65650779Y-37346641D01*
X65636389Y-37341868D01*
X65636387Y-37341868D01*
X65629861Y-37339703D01*
X65623025Y-37339003D01*
X65623022Y-37339002D01*
X65579969Y-37334591D01*
X65525400Y-37329000D01*
X65028871Y-37329000D01*
X64960750Y-37308998D01*
X64939776Y-37292095D01*
X64442350Y-36794669D01*
X82892001Y-36794669D01*
X82892371Y-36801490D01*
X82897895Y-36852352D01*
X82901521Y-36867604D01*
X82946676Y-36988054D01*
X82955214Y-37003649D01*
X83031715Y-37105724D01*
X83044276Y-37118285D01*
X83146351Y-37194786D01*
X83161946Y-37203324D01*
X83282394Y-37248478D01*
X83297649Y-37252105D01*
X83348514Y-37257631D01*
X83355328Y-37258000D01*
X85227885Y-37258000D01*
X85243124Y-37253525D01*
X85244329Y-37252135D01*
X85246000Y-37244452D01*
X85246000Y-36347115D01*
X85241525Y-36331876D01*
X85240135Y-36330671D01*
X85232452Y-36329000D01*
X82910116Y-36329000D01*
X82894877Y-36333475D01*
X82893672Y-36334865D01*
X82892001Y-36342548D01*
X82892001Y-36794669D01*
X64442350Y-36794669D01*
X63733770Y-36086089D01*
X63721384Y-36071677D01*
X63712851Y-36060082D01*
X63712846Y-36060077D01*
X63708508Y-36054182D01*
X63702930Y-36049443D01*
X63702927Y-36049440D01*
X63668232Y-36019965D01*
X63660716Y-36013035D01*
X63655021Y-36007340D01*
X63648880Y-36002482D01*
X63632749Y-35989719D01*
X63629345Y-35986928D01*
X63579297Y-35944409D01*
X63579295Y-35944408D01*
X63573715Y-35939667D01*
X63567199Y-35936339D01*
X63562150Y-35932972D01*
X63557021Y-35929805D01*
X63551284Y-35925266D01*
X63485125Y-35894345D01*
X63481225Y-35892439D01*
X63416192Y-35859231D01*
X63409084Y-35857492D01*
X63403441Y-35855393D01*
X63397678Y-35853476D01*
X63391050Y-35850378D01*
X63319583Y-35835513D01*
X63315299Y-35834543D01*
X63253123Y-35819329D01*
X63244390Y-35817192D01*
X63238788Y-35816844D01*
X63238785Y-35816844D01*
X63233236Y-35816500D01*
X63233238Y-35816464D01*
X63229245Y-35816225D01*
X63225053Y-35815851D01*
X63217885Y-35814360D01*
X63173379Y-35815564D01*
X63140479Y-35816454D01*
X63137072Y-35816500D01*
X60534500Y-35816500D01*
X60488131Y-35802885D01*
X82892000Y-35802885D01*
X82896475Y-35818124D01*
X82897865Y-35819329D01*
X82905548Y-35821000D01*
X85227885Y-35821000D01*
X85243124Y-35816525D01*
X85244329Y-35815135D01*
X85246000Y-35807452D01*
X85246000Y-34910116D01*
X85241525Y-34894877D01*
X85240135Y-34893672D01*
X85232452Y-34892001D01*
X83355331Y-34892001D01*
X83348510Y-34892371D01*
X83297648Y-34897895D01*
X83282396Y-34901521D01*
X83161946Y-34946676D01*
X83146351Y-34955214D01*
X83044276Y-35031715D01*
X83031715Y-35044276D01*
X82955214Y-35146351D01*
X82946676Y-35161946D01*
X82901522Y-35282394D01*
X82897895Y-35297649D01*
X82892369Y-35348514D01*
X82892000Y-35355328D01*
X82892000Y-35802885D01*
X60488131Y-35802885D01*
X60466379Y-35796498D01*
X60419886Y-35742842D01*
X60408500Y-35690500D01*
X60408500Y-35676866D01*
X60401745Y-35614684D01*
X60350615Y-35478295D01*
X60263261Y-35361739D01*
X60146705Y-35274385D01*
X60010316Y-35223255D01*
X59948134Y-35216500D01*
X56351866Y-35216500D01*
X56289684Y-35223255D01*
X56153295Y-35274385D01*
X56036739Y-35361739D01*
X55949385Y-35478295D01*
X55898255Y-35614684D01*
X55891500Y-35676866D01*
X55891500Y-37473134D01*
X55898255Y-37535316D01*
X55949385Y-37671705D01*
X56013212Y-37756869D01*
X56022630Y-37769435D01*
X56047478Y-37835941D01*
X56032425Y-37905324D01*
X56022632Y-37920562D01*
X55949385Y-38018295D01*
X55898255Y-38154684D01*
X55891500Y-38216866D01*
X55891500Y-40013134D01*
X55898255Y-40075316D01*
X55949385Y-40211705D01*
X55975088Y-40246000D01*
X56022942Y-40309852D01*
X56047790Y-40376358D01*
X56032737Y-40445741D01*
X56022942Y-40460982D01*
X55955214Y-40551351D01*
X55946676Y-40566946D01*
X55901522Y-40687394D01*
X55897895Y-40702649D01*
X55892369Y-40753514D01*
X55892000Y-40760328D01*
X55892000Y-41382885D01*
X55896475Y-41398124D01*
X55897865Y-41399329D01*
X55905548Y-41401000D01*
X60389884Y-41401000D01*
X60405123Y-41396525D01*
X60406328Y-41395135D01*
X60407999Y-41387452D01*
X60407999Y-40884595D01*
X63767001Y-40884595D01*
X63767338Y-40891114D01*
X63777257Y-40986706D01*
X63780149Y-41000100D01*
X63831588Y-41154284D01*
X63837761Y-41167462D01*
X63923063Y-41305307D01*
X63932099Y-41316708D01*
X64046829Y-41431239D01*
X64058240Y-41440251D01*
X64196243Y-41525316D01*
X64209424Y-41531463D01*
X64363710Y-41582638D01*
X64377086Y-41585505D01*
X64471438Y-41595172D01*
X64477854Y-41595500D01*
X64727885Y-41595500D01*
X64743124Y-41591025D01*
X64744329Y-41589635D01*
X64746000Y-41581952D01*
X64746000Y-41577384D01*
X65254000Y-41577384D01*
X65258475Y-41592623D01*
X65259865Y-41593828D01*
X65267548Y-41595499D01*
X65522095Y-41595499D01*
X65528614Y-41595162D01*
X65624206Y-41585243D01*
X65637600Y-41582351D01*
X65791784Y-41530912D01*
X65804962Y-41524739D01*
X65942807Y-41439437D01*
X65954208Y-41430401D01*
X66068739Y-41315671D01*
X66077751Y-41304260D01*
X66162816Y-41166257D01*
X66168963Y-41153076D01*
X66220138Y-40998790D01*
X66223005Y-40985414D01*
X66232672Y-40891062D01*
X66233000Y-40884646D01*
X66233000Y-40772115D01*
X66228525Y-40756876D01*
X66227135Y-40755671D01*
X66219452Y-40754000D01*
X65272115Y-40754000D01*
X65256876Y-40758475D01*
X65255671Y-40759865D01*
X65254000Y-40767548D01*
X65254000Y-41577384D01*
X64746000Y-41577384D01*
X64746000Y-40772115D01*
X64741525Y-40756876D01*
X64740135Y-40755671D01*
X64732452Y-40754000D01*
X63785116Y-40754000D01*
X63769877Y-40758475D01*
X63768672Y-40759865D01*
X63767001Y-40767548D01*
X63767001Y-40884595D01*
X60407999Y-40884595D01*
X60407999Y-40760331D01*
X60407629Y-40753510D01*
X60402105Y-40702648D01*
X60398479Y-40687396D01*
X60353324Y-40566946D01*
X60344786Y-40551351D01*
X60277058Y-40460982D01*
X60252210Y-40394475D01*
X60267263Y-40325093D01*
X60277058Y-40309852D01*
X60324912Y-40246000D01*
X60350615Y-40211705D01*
X60401745Y-40075316D01*
X60408500Y-40013134D01*
X60408500Y-38216866D01*
X60401745Y-38154684D01*
X60350615Y-38018295D01*
X60277370Y-37920564D01*
X60252522Y-37854059D01*
X60267575Y-37784676D01*
X60277370Y-37769435D01*
X60286788Y-37756869D01*
X60350615Y-37671705D01*
X60401745Y-37535316D01*
X60408500Y-37473134D01*
X60408500Y-37459500D01*
X60428502Y-37391379D01*
X60482158Y-37344886D01*
X60534500Y-37333500D01*
X62783629Y-37333500D01*
X62851750Y-37353502D01*
X62872724Y-37370405D01*
X63729595Y-38227276D01*
X63763621Y-38289588D01*
X63766500Y-38316371D01*
X63766500Y-38812900D01*
X63777474Y-38918666D01*
X63779655Y-38925202D01*
X63779655Y-38925204D01*
X63780412Y-38927473D01*
X63833450Y-39086446D01*
X63926522Y-39236848D01*
X64051697Y-39361805D01*
X64056235Y-39364602D01*
X64096824Y-39421853D01*
X64100054Y-39492776D01*
X64064428Y-39554187D01*
X64055932Y-39561562D01*
X64045793Y-39569598D01*
X63931261Y-39684329D01*
X63922249Y-39695740D01*
X63837184Y-39833743D01*
X63831037Y-39846924D01*
X63779862Y-40001210D01*
X63776995Y-40014586D01*
X63767328Y-40108938D01*
X63767000Y-40115355D01*
X63767000Y-40227885D01*
X63771475Y-40243124D01*
X63772865Y-40244329D01*
X63780548Y-40246000D01*
X66214884Y-40246000D01*
X66230123Y-40241525D01*
X66231328Y-40240135D01*
X66232999Y-40232452D01*
X66232999Y-40115405D01*
X66232662Y-40108886D01*
X66222743Y-40013294D01*
X66219851Y-39999900D01*
X66168412Y-39845716D01*
X66162239Y-39832538D01*
X66076937Y-39694693D01*
X66067901Y-39683292D01*
X65953172Y-39568762D01*
X65944238Y-39561706D01*
X65903177Y-39503788D01*
X65899947Y-39432865D01*
X65935574Y-39371454D01*
X65943407Y-39364654D01*
X65949348Y-39360978D01*
X65954521Y-39355796D01*
X66002252Y-39307982D01*
X66064535Y-39273903D01*
X66091425Y-39271000D01*
X69066246Y-39271000D01*
X69101398Y-39276003D01*
X69239989Y-39316267D01*
X69239993Y-39316268D01*
X69246169Y-39318062D01*
X69252574Y-39318566D01*
X69252579Y-39318567D01*
X69281042Y-39320807D01*
X69281050Y-39320807D01*
X69283498Y-39321000D01*
X70441502Y-39321000D01*
X70443950Y-39320807D01*
X70443958Y-39320807D01*
X70472421Y-39318567D01*
X70472426Y-39318566D01*
X70478831Y-39318062D01*
X70623601Y-39276003D01*
X70630988Y-39273857D01*
X70630990Y-39273856D01*
X70638601Y-39271645D01*
X70715703Y-39226047D01*
X70779842Y-39208500D01*
X71011878Y-39208500D01*
X71027116Y-39204026D01*
X71035268Y-39194618D01*
X71094994Y-39156234D01*
X71165990Y-39156234D01*
X71207720Y-39177571D01*
X71212585Y-39181345D01*
X71218193Y-39186953D01*
X71225017Y-39190989D01*
X71225020Y-39190991D01*
X71311308Y-39242021D01*
X71361399Y-39271645D01*
X71369010Y-39273856D01*
X71369012Y-39273857D01*
X71376399Y-39276003D01*
X71521169Y-39318062D01*
X71527574Y-39318566D01*
X71527579Y-39318567D01*
X71556042Y-39320807D01*
X71556050Y-39320807D01*
X71558498Y-39321000D01*
X72716502Y-39321000D01*
X72718950Y-39320807D01*
X72718958Y-39320807D01*
X72747421Y-39318567D01*
X72747426Y-39318566D01*
X72753831Y-39318062D01*
X72760007Y-39316268D01*
X72760011Y-39316267D01*
X72898602Y-39276003D01*
X72933754Y-39271000D01*
X75834317Y-39271000D01*
X75902438Y-39291002D01*
X75926016Y-39312355D01*
X75926522Y-39311848D01*
X76051697Y-39436805D01*
X76056235Y-39439602D01*
X76096824Y-39496853D01*
X76100054Y-39567776D01*
X76064428Y-39629187D01*
X76055932Y-39636562D01*
X76045793Y-39644598D01*
X75931261Y-39759329D01*
X75922249Y-39770740D01*
X75837184Y-39908743D01*
X75831037Y-39921924D01*
X75779862Y-40076210D01*
X75776995Y-40089586D01*
X75767328Y-40183938D01*
X75767000Y-40190355D01*
X75767000Y-40302885D01*
X75771475Y-40318124D01*
X75772865Y-40319329D01*
X75780548Y-40321000D01*
X78214884Y-40321000D01*
X78230123Y-40316525D01*
X78231328Y-40315135D01*
X78232999Y-40307452D01*
X78232999Y-40190405D01*
X78232662Y-40183886D01*
X78222743Y-40088294D01*
X78219851Y-40074900D01*
X78168412Y-39920716D01*
X78162238Y-39907537D01*
X78127130Y-39850803D01*
X78108292Y-39782351D01*
X78129453Y-39714581D01*
X78183894Y-39669010D01*
X78234274Y-39658500D01*
X83315870Y-39658500D01*
X83383991Y-39678502D01*
X83430484Y-39732158D01*
X83433852Y-39740271D01*
X83440997Y-39759329D01*
X83449385Y-39781705D01*
X83536739Y-39898261D01*
X83653295Y-39985615D01*
X83789684Y-40036745D01*
X83851866Y-40043500D01*
X87365500Y-40043500D01*
X87433621Y-40063502D01*
X87480114Y-40117158D01*
X87491500Y-40169500D01*
X87491500Y-40416000D01*
X87471498Y-40484121D01*
X87417842Y-40530614D01*
X87365500Y-40542000D01*
X85772115Y-40542000D01*
X85756876Y-40546475D01*
X85755671Y-40547865D01*
X85754000Y-40555548D01*
X85754000Y-42889884D01*
X85758475Y-42905123D01*
X85759865Y-42906328D01*
X85767548Y-42907999D01*
X87365500Y-42907999D01*
X87433621Y-42928001D01*
X87480114Y-42981657D01*
X87491500Y-43033999D01*
X87491500Y-54866000D01*
X87471498Y-54934121D01*
X87417842Y-54980614D01*
X87365500Y-54992000D01*
X85609615Y-54992000D01*
X85594376Y-54996475D01*
X85593171Y-54997865D01*
X85591500Y-55005548D01*
X85591500Y-57339884D01*
X85595975Y-57355123D01*
X85597365Y-57356328D01*
X85605048Y-57357999D01*
X87365500Y-57357999D01*
X87433621Y-57378001D01*
X87480114Y-57431657D01*
X87491500Y-57483999D01*
X87491500Y-57730500D01*
X87471498Y-57798621D01*
X87417842Y-57845114D01*
X87365500Y-57856500D01*
X83689366Y-57856500D01*
X83627184Y-57863255D01*
X83490795Y-57914385D01*
X83374239Y-58001739D01*
X83286885Y-58118295D01*
X83283733Y-58126704D01*
X83283732Y-58126705D01*
X83271352Y-58159729D01*
X83228711Y-58216494D01*
X83162150Y-58241194D01*
X83153370Y-58241500D01*
X80366371Y-58241500D01*
X80298250Y-58221498D01*
X80277276Y-58204595D01*
X78967350Y-56894669D01*
X82729501Y-56894669D01*
X82729871Y-56901490D01*
X82735395Y-56952352D01*
X82739021Y-56967604D01*
X82784176Y-57088054D01*
X82792714Y-57103649D01*
X82869215Y-57205724D01*
X82881776Y-57218285D01*
X82983851Y-57294786D01*
X82999446Y-57303324D01*
X83119894Y-57348478D01*
X83135149Y-57352105D01*
X83186014Y-57357631D01*
X83192828Y-57358000D01*
X85065385Y-57358000D01*
X85080624Y-57353525D01*
X85081829Y-57352135D01*
X85083500Y-57344452D01*
X85083500Y-56447115D01*
X85079025Y-56431876D01*
X85077635Y-56430671D01*
X85069952Y-56429000D01*
X82747616Y-56429000D01*
X82732377Y-56433475D01*
X82731172Y-56434865D01*
X82729501Y-56442548D01*
X82729501Y-56894669D01*
X78967350Y-56894669D01*
X77975566Y-55902885D01*
X82729500Y-55902885D01*
X82733975Y-55918124D01*
X82735365Y-55919329D01*
X82743048Y-55921000D01*
X85065385Y-55921000D01*
X85080624Y-55916525D01*
X85081829Y-55915135D01*
X85083500Y-55907452D01*
X85083500Y-55010116D01*
X85079025Y-54994877D01*
X85077635Y-54993672D01*
X85069952Y-54992001D01*
X83192831Y-54992001D01*
X83186010Y-54992371D01*
X83135148Y-54997895D01*
X83119896Y-55001521D01*
X82999446Y-55046676D01*
X82983851Y-55055214D01*
X82881776Y-55131715D01*
X82869215Y-55144276D01*
X82792714Y-55246351D01*
X82784176Y-55261946D01*
X82739022Y-55382394D01*
X82735395Y-55397649D01*
X82729869Y-55448514D01*
X82729500Y-55455328D01*
X82729500Y-55902885D01*
X77975566Y-55902885D01*
X68318770Y-46246089D01*
X68306384Y-46231677D01*
X68297851Y-46220082D01*
X68297846Y-46220077D01*
X68293508Y-46214182D01*
X68287930Y-46209443D01*
X68287927Y-46209440D01*
X68253232Y-46179965D01*
X68245716Y-46173035D01*
X68240021Y-46167340D01*
X68233880Y-46162482D01*
X68217749Y-46149719D01*
X68214345Y-46146928D01*
X68164297Y-46104409D01*
X68164295Y-46104408D01*
X68158715Y-46099667D01*
X68152199Y-46096339D01*
X68147150Y-46092972D01*
X68142021Y-46089805D01*
X68136284Y-46085266D01*
X68070125Y-46054345D01*
X68066225Y-46052439D01*
X68001192Y-46019231D01*
X67994084Y-46017492D01*
X67988441Y-46015393D01*
X67982678Y-46013476D01*
X67976050Y-46010378D01*
X67904583Y-45995513D01*
X67900299Y-45994543D01*
X67829390Y-45977192D01*
X67823788Y-45976844D01*
X67823785Y-45976844D01*
X67818236Y-45976500D01*
X67818238Y-45976464D01*
X67814245Y-45976225D01*
X67810053Y-45975851D01*
X67802885Y-45974360D01*
X67736675Y-45976151D01*
X67725479Y-45976454D01*
X67722072Y-45976500D01*
X65675371Y-45976500D01*
X65607250Y-45956498D01*
X65560757Y-45902842D01*
X65550653Y-45832568D01*
X65580147Y-45767988D01*
X65586276Y-45761405D01*
X68903012Y-42444669D01*
X82892001Y-42444669D01*
X82892371Y-42451490D01*
X82897895Y-42502352D01*
X82901521Y-42517604D01*
X82946676Y-42638054D01*
X82955214Y-42653649D01*
X83031715Y-42755724D01*
X83044276Y-42768285D01*
X83146351Y-42844786D01*
X83161946Y-42853324D01*
X83282394Y-42898478D01*
X83297649Y-42902105D01*
X83348514Y-42907631D01*
X83355328Y-42908000D01*
X85227885Y-42908000D01*
X85243124Y-42903525D01*
X85244329Y-42902135D01*
X85246000Y-42894452D01*
X85246000Y-41997115D01*
X85241525Y-41981876D01*
X85240135Y-41980671D01*
X85232452Y-41979000D01*
X82910116Y-41979000D01*
X82894877Y-41983475D01*
X82893672Y-41984865D01*
X82892001Y-41992548D01*
X82892001Y-42444669D01*
X68903012Y-42444669D01*
X70089776Y-41257905D01*
X70152088Y-41223879D01*
X70178871Y-41221000D01*
X70441502Y-41221000D01*
X70443950Y-41220807D01*
X70443958Y-41220807D01*
X70472421Y-41218567D01*
X70472426Y-41218566D01*
X70478831Y-41218062D01*
X70578769Y-41189028D01*
X70630988Y-41173857D01*
X70630990Y-41173856D01*
X70638601Y-41171645D01*
X70669999Y-41153076D01*
X70774980Y-41090991D01*
X70774983Y-41090989D01*
X70781807Y-41086953D01*
X70899453Y-40969307D01*
X70901706Y-40965498D01*
X70957996Y-40924845D01*
X71028888Y-40920994D01*
X71090609Y-40956082D01*
X71097276Y-40963776D01*
X71100547Y-40969307D01*
X71218193Y-41086953D01*
X71225017Y-41090989D01*
X71225020Y-41090991D01*
X71330001Y-41153076D01*
X71361399Y-41171645D01*
X71369010Y-41173856D01*
X71369012Y-41173857D01*
X71421231Y-41189028D01*
X71521169Y-41218062D01*
X71527574Y-41218566D01*
X71527579Y-41218567D01*
X71556042Y-41220807D01*
X71556050Y-41220807D01*
X71558498Y-41221000D01*
X72716502Y-41221000D01*
X72718950Y-41220807D01*
X72718958Y-41220807D01*
X72747421Y-41218567D01*
X72747426Y-41218566D01*
X72753831Y-41218062D01*
X72853769Y-41189028D01*
X72905988Y-41173857D01*
X72905990Y-41173856D01*
X72913601Y-41171645D01*
X72944999Y-41153076D01*
X73049980Y-41090991D01*
X73049983Y-41090989D01*
X73056807Y-41086953D01*
X73174453Y-40969307D01*
X73178489Y-40962483D01*
X73178491Y-40962480D01*
X73180197Y-40959595D01*
X75767001Y-40959595D01*
X75767338Y-40966114D01*
X75777257Y-41061706D01*
X75780149Y-41075100D01*
X75831588Y-41229284D01*
X75837761Y-41242462D01*
X75923063Y-41380307D01*
X75932099Y-41391708D01*
X76046829Y-41506239D01*
X76058240Y-41515251D01*
X76196243Y-41600316D01*
X76209424Y-41606463D01*
X76363710Y-41657638D01*
X76377086Y-41660505D01*
X76471438Y-41670172D01*
X76477854Y-41670500D01*
X76727885Y-41670500D01*
X76743124Y-41666025D01*
X76744329Y-41664635D01*
X76746000Y-41656952D01*
X76746000Y-41652384D01*
X77254000Y-41652384D01*
X77258475Y-41667623D01*
X77259865Y-41668828D01*
X77267548Y-41670499D01*
X77522095Y-41670499D01*
X77528614Y-41670162D01*
X77624206Y-41660243D01*
X77637600Y-41657351D01*
X77791784Y-41605912D01*
X77804962Y-41599739D01*
X77942807Y-41514437D01*
X77954208Y-41505401D01*
X78006633Y-41452885D01*
X82892000Y-41452885D01*
X82896475Y-41468124D01*
X82897865Y-41469329D01*
X82905548Y-41471000D01*
X85227885Y-41471000D01*
X85243124Y-41466525D01*
X85244329Y-41465135D01*
X85246000Y-41457452D01*
X85246000Y-40560116D01*
X85241525Y-40544877D01*
X85240135Y-40543672D01*
X85232452Y-40542001D01*
X83355331Y-40542001D01*
X83348510Y-40542371D01*
X83297648Y-40547895D01*
X83282396Y-40551521D01*
X83161946Y-40596676D01*
X83146351Y-40605214D01*
X83044276Y-40681715D01*
X83031715Y-40694276D01*
X82955214Y-40796351D01*
X82946676Y-40811946D01*
X82901522Y-40932394D01*
X82897895Y-40947649D01*
X82892369Y-40998514D01*
X82892000Y-41005328D01*
X82892000Y-41452885D01*
X78006633Y-41452885D01*
X78068739Y-41390671D01*
X78077751Y-41379260D01*
X78162816Y-41241257D01*
X78168963Y-41228076D01*
X78220138Y-41073790D01*
X78223005Y-41060414D01*
X78232672Y-40966062D01*
X78233000Y-40959646D01*
X78233000Y-40847115D01*
X78228525Y-40831876D01*
X78227135Y-40830671D01*
X78219452Y-40829000D01*
X77272115Y-40829000D01*
X77256876Y-40833475D01*
X77255671Y-40834865D01*
X77254000Y-40842548D01*
X77254000Y-41652384D01*
X76746000Y-41652384D01*
X76746000Y-40847115D01*
X76741525Y-40831876D01*
X76740135Y-40830671D01*
X76732452Y-40829000D01*
X75785116Y-40829000D01*
X75769877Y-40833475D01*
X75768672Y-40834865D01*
X75767001Y-40842548D01*
X75767001Y-40959595D01*
X73180197Y-40959595D01*
X73255108Y-40832927D01*
X73259145Y-40826101D01*
X73263258Y-40811946D01*
X73278792Y-40758475D01*
X73305562Y-40666331D01*
X73308500Y-40629002D01*
X73308500Y-40195998D01*
X73306616Y-40172061D01*
X73306067Y-40165079D01*
X73306066Y-40165074D01*
X73305562Y-40158669D01*
X73272103Y-40043500D01*
X73261357Y-40006512D01*
X73261356Y-40006510D01*
X73259145Y-39998899D01*
X73242107Y-39970089D01*
X73178491Y-39862520D01*
X73178489Y-39862517D01*
X73174453Y-39855693D01*
X73056807Y-39738047D01*
X73049983Y-39734011D01*
X73049980Y-39734009D01*
X72922301Y-39658500D01*
X72913601Y-39653355D01*
X72905990Y-39651144D01*
X72905988Y-39651143D01*
X72814700Y-39624622D01*
X72753831Y-39606938D01*
X72747426Y-39606434D01*
X72747421Y-39606433D01*
X72718958Y-39604193D01*
X72718950Y-39604193D01*
X72716502Y-39604000D01*
X71558498Y-39604000D01*
X71556050Y-39604193D01*
X71556042Y-39604193D01*
X71527579Y-39606433D01*
X71527574Y-39606434D01*
X71521169Y-39606938D01*
X71460300Y-39624622D01*
X71369012Y-39651143D01*
X71369010Y-39651144D01*
X71361399Y-39653355D01*
X71218193Y-39738047D01*
X71212584Y-39743656D01*
X71207114Y-39747899D01*
X71141029Y-39773846D01*
X71071406Y-39759945D01*
X71029884Y-39722054D01*
X71017630Y-39716500D01*
X70779842Y-39716500D01*
X70715703Y-39698953D01*
X70647301Y-39658500D01*
X70638601Y-39653355D01*
X70630990Y-39651144D01*
X70630988Y-39651143D01*
X70539700Y-39624622D01*
X70478831Y-39606938D01*
X70472426Y-39606434D01*
X70472421Y-39606433D01*
X70443958Y-39604193D01*
X70443950Y-39604193D01*
X70441502Y-39604000D01*
X69283498Y-39604000D01*
X69281050Y-39604193D01*
X69281042Y-39604193D01*
X69252579Y-39606433D01*
X69252574Y-39606434D01*
X69246169Y-39606938D01*
X69185300Y-39624622D01*
X69094012Y-39651143D01*
X69094010Y-39651144D01*
X69086399Y-39653355D01*
X69077699Y-39658500D01*
X69009297Y-39698953D01*
X68945158Y-39716500D01*
X68713122Y-39716500D01*
X68699591Y-39720473D01*
X68698456Y-39728371D01*
X68739107Y-39868290D01*
X68747128Y-39886826D01*
X68755824Y-39957288D01*
X68747128Y-39986904D01*
X68744889Y-39992077D01*
X68740855Y-39998899D01*
X68738644Y-40006510D01*
X68738643Y-40006512D01*
X68727897Y-40043500D01*
X68694438Y-40158669D01*
X68693934Y-40165074D01*
X68693933Y-40165079D01*
X68693384Y-40172061D01*
X68691500Y-40195998D01*
X68691500Y-40458629D01*
X68671498Y-40526750D01*
X68654595Y-40547724D01*
X63262724Y-45939595D01*
X63200412Y-45973621D01*
X63173629Y-45976500D01*
X60534500Y-45976500D01*
X60466379Y-45956498D01*
X60419886Y-45902842D01*
X60408500Y-45850500D01*
X60408500Y-45836866D01*
X60401745Y-45774684D01*
X60350615Y-45638295D01*
X60277370Y-45540564D01*
X60252522Y-45474059D01*
X60267575Y-45404676D01*
X60277370Y-45389435D01*
X60345229Y-45298891D01*
X60350615Y-45291705D01*
X60401745Y-45155316D01*
X60408500Y-45093134D01*
X60408500Y-43296866D01*
X60401745Y-43234684D01*
X60350615Y-43098295D01*
X60277058Y-43000148D01*
X60252210Y-42933642D01*
X60267263Y-42864259D01*
X60277058Y-42849018D01*
X60344786Y-42758649D01*
X60353324Y-42743054D01*
X60398478Y-42622606D01*
X60402105Y-42607351D01*
X60407631Y-42556486D01*
X60408000Y-42549672D01*
X60408000Y-41927115D01*
X60403525Y-41911876D01*
X60402135Y-41910671D01*
X60394452Y-41909000D01*
X55910116Y-41909000D01*
X55894877Y-41913475D01*
X55893672Y-41914865D01*
X55892001Y-41922548D01*
X55892001Y-42549669D01*
X55892371Y-42556490D01*
X55897895Y-42607352D01*
X55901521Y-42622604D01*
X55946676Y-42743054D01*
X55955214Y-42758649D01*
X56022942Y-42849018D01*
X56047790Y-42915525D01*
X56032737Y-42984907D01*
X56022942Y-43000148D01*
X55949385Y-43098295D01*
X55898255Y-43234684D01*
X55891500Y-43296866D01*
X55891500Y-45093134D01*
X55898255Y-45155316D01*
X55949385Y-45291705D01*
X55954771Y-45298891D01*
X56022630Y-45389435D01*
X56047478Y-45455941D01*
X56032425Y-45525324D01*
X56022632Y-45540562D01*
X55949385Y-45638295D01*
X55898255Y-45774684D01*
X55891500Y-45836866D01*
X55891500Y-47633134D01*
X55898255Y-47695316D01*
X55949385Y-47831705D01*
X55954771Y-47838891D01*
X56022630Y-47929435D01*
X56047478Y-47995941D01*
X56032425Y-48065324D01*
X56022632Y-48080562D01*
X55949385Y-48178295D01*
X55898255Y-48314684D01*
X55891500Y-48376866D01*
X55891500Y-50173134D01*
X55898255Y-50235316D01*
X55949385Y-50371705D01*
X55954771Y-50378891D01*
X56022630Y-50469435D01*
X56047478Y-50535941D01*
X56032425Y-50605324D01*
X56022632Y-50620562D01*
X55949385Y-50718295D01*
X55898255Y-50854684D01*
X55891500Y-50916866D01*
X55891500Y-52713134D01*
X55898255Y-52775316D01*
X55949385Y-52911705D01*
X55954771Y-52918891D01*
X56022630Y-53009435D01*
X56047478Y-53075941D01*
X56032425Y-53145324D01*
X56022632Y-53160562D01*
X55949385Y-53258295D01*
X55898255Y-53394684D01*
X55891500Y-53456866D01*
X55891500Y-55253134D01*
X55898255Y-55315316D01*
X55949385Y-55451705D01*
X56017998Y-55543255D01*
X56022630Y-55549435D01*
X56047478Y-55615941D01*
X56032425Y-55685324D01*
X56022632Y-55700562D01*
X55949385Y-55798295D01*
X55898255Y-55934684D01*
X55891500Y-55996866D01*
X55891500Y-57437347D01*
X55871498Y-57505468D01*
X55829643Y-57545798D01*
X55825087Y-57548492D01*
X55807341Y-57557187D01*
X55788412Y-57564681D01*
X55781996Y-57569342D01*
X55781995Y-57569343D01*
X55752519Y-57590759D01*
X55742595Y-57597278D01*
X55711224Y-57615830D01*
X55711219Y-57615834D01*
X55704401Y-57619866D01*
X55690014Y-57634253D01*
X55674980Y-57647094D01*
X55658513Y-57659058D01*
X55653460Y-57665166D01*
X55630228Y-57693249D01*
X55622238Y-57702029D01*
X54606517Y-58717750D01*
X54598191Y-58725326D01*
X54591697Y-58729447D01*
X54586274Y-58735222D01*
X54544915Y-58779265D01*
X54542160Y-58782107D01*
X54522361Y-58801906D01*
X54519937Y-58805031D01*
X54519929Y-58805040D01*
X54519863Y-58805126D01*
X54512155Y-58814151D01*
X54481783Y-58846494D01*
X54477965Y-58853438D01*
X54477964Y-58853440D01*
X54471978Y-58864329D01*
X54461127Y-58880847D01*
X54448650Y-58896933D01*
X54431024Y-58937666D01*
X54425807Y-58948314D01*
X54404431Y-58987197D01*
X54402460Y-58994872D01*
X54402458Y-58994878D01*
X54399369Y-59006911D01*
X54392966Y-59025613D01*
X54384883Y-59044292D01*
X54383644Y-59052117D01*
X54377940Y-59088127D01*
X54375535Y-59099740D01*
X54364500Y-59142718D01*
X54364500Y-59163065D01*
X54362949Y-59182776D01*
X54359765Y-59202879D01*
X54360511Y-59210771D01*
X54363941Y-59247056D01*
X54364500Y-59258914D01*
X54364500Y-78684577D01*
X54344498Y-78752698D01*
X54327595Y-78773672D01*
X50773672Y-82327595D01*
X50711360Y-82361621D01*
X50684577Y-82364500D01*
X44079032Y-82364500D01*
X44067793Y-82363970D01*
X44060281Y-82362291D01*
X44052356Y-82362540D01*
X44052355Y-82362540D01*
X43991970Y-82364438D01*
X43988012Y-82364500D01*
X43960017Y-82364500D01*
X43956083Y-82364997D01*
X43956081Y-82364997D01*
X43955994Y-82365008D01*
X43944160Y-82365940D01*
X43899795Y-82367335D01*
X43892182Y-82369547D01*
X43892181Y-82369547D01*
X43880252Y-82373013D01*
X43860888Y-82377023D01*
X43848560Y-82378580D01*
X43848558Y-82378580D01*
X43840701Y-82379573D01*
X43833337Y-82382489D01*
X43833332Y-82382490D01*
X43799444Y-82395907D01*
X43788215Y-82399752D01*
X43771535Y-82404598D01*
X43745607Y-82412131D01*
X43738780Y-82416169D01*
X43738777Y-82416170D01*
X43728094Y-82422488D01*
X43710336Y-82431188D01*
X43698785Y-82435761D01*
X43698779Y-82435765D01*
X43691412Y-82438681D01*
X43685001Y-82443339D01*
X43684999Y-82443340D01*
X43655512Y-82464764D01*
X43645590Y-82471281D01*
X43614232Y-82489826D01*
X43614228Y-82489829D01*
X43607402Y-82493866D01*
X43593018Y-82508250D01*
X43577984Y-82521091D01*
X43561513Y-82533058D01*
X43556460Y-82539166D01*
X43533223Y-82567255D01*
X43525233Y-82576035D01*
X41938672Y-84162595D01*
X41876360Y-84196621D01*
X41849577Y-84199500D01*
X40954500Y-84199500D01*
X40886379Y-84179498D01*
X40839886Y-84125842D01*
X40828500Y-84073500D01*
X40828500Y-83936866D01*
X40821745Y-83874684D01*
X40770615Y-83738295D01*
X40697370Y-83640564D01*
X40672522Y-83574059D01*
X40687575Y-83504676D01*
X40697370Y-83489435D01*
X40697723Y-83488964D01*
X40770615Y-83391705D01*
X40821745Y-83255316D01*
X40828500Y-83193134D01*
X40828500Y-81396866D01*
X40821745Y-81334684D01*
X40770615Y-81198295D01*
X40697058Y-81100148D01*
X40672210Y-81033642D01*
X40687263Y-80964259D01*
X40697058Y-80949018D01*
X40764786Y-80858649D01*
X40773324Y-80843054D01*
X40818478Y-80722606D01*
X40822105Y-80707351D01*
X40827631Y-80656486D01*
X40828000Y-80649672D01*
X40828000Y-80027115D01*
X40823525Y-80011876D01*
X40822135Y-80010671D01*
X40814452Y-80009000D01*
X38442000Y-80009000D01*
X38373879Y-79988998D01*
X38327386Y-79935342D01*
X38316000Y-79883000D01*
X38316000Y-79627000D01*
X38336002Y-79558879D01*
X38389658Y-79512386D01*
X38442000Y-79501000D01*
X40809884Y-79501000D01*
X40825123Y-79496525D01*
X40826328Y-79495135D01*
X40827999Y-79487452D01*
X40827999Y-78860331D01*
X40827629Y-78853510D01*
X40822105Y-78802648D01*
X40818479Y-78787396D01*
X40773324Y-78666946D01*
X40764786Y-78651351D01*
X40697058Y-78560982D01*
X40672210Y-78494475D01*
X40687263Y-78425093D01*
X40697058Y-78409852D01*
X40765229Y-78318891D01*
X40770615Y-78311705D01*
X40821745Y-78175316D01*
X40828500Y-78113134D01*
X40828500Y-76316866D01*
X40821745Y-76254684D01*
X40770615Y-76118295D01*
X40697370Y-76020564D01*
X40672522Y-75954059D01*
X40687575Y-75884676D01*
X40697370Y-75869435D01*
X40697723Y-75868964D01*
X40770615Y-75771705D01*
X40821745Y-75635316D01*
X40828500Y-75573134D01*
X40828500Y-73776866D01*
X40821745Y-73714684D01*
X40770615Y-73578295D01*
X40697370Y-73480564D01*
X40672522Y-73414059D01*
X40687575Y-73344676D01*
X40697370Y-73329435D01*
X40697723Y-73328964D01*
X40770615Y-73231705D01*
X40821745Y-73095316D01*
X40828500Y-73033134D01*
X40828500Y-71236866D01*
X40821745Y-71174684D01*
X40770615Y-71038295D01*
X40697370Y-70940564D01*
X40672522Y-70874059D01*
X40687575Y-70804676D01*
X40697370Y-70789435D01*
X40697723Y-70788964D01*
X40770615Y-70691705D01*
X40821745Y-70555316D01*
X40828500Y-70493134D01*
X40828500Y-68696866D01*
X40821745Y-68634684D01*
X40770615Y-68498295D01*
X40705464Y-68411364D01*
X40697058Y-68400148D01*
X40672210Y-68333642D01*
X40687263Y-68264259D01*
X40697058Y-68249018D01*
X40764786Y-68158649D01*
X40773324Y-68143054D01*
X40818478Y-68022606D01*
X40822105Y-68007351D01*
X40827631Y-67956486D01*
X40828000Y-67949672D01*
X40828000Y-67327115D01*
X40823525Y-67311876D01*
X40822135Y-67310671D01*
X40814452Y-67309000D01*
X36330116Y-67309000D01*
X36314877Y-67313475D01*
X36313672Y-67314865D01*
X36312001Y-67322548D01*
X36312001Y-67949669D01*
X36312371Y-67956490D01*
X36317895Y-68007352D01*
X36321521Y-68022604D01*
X36366676Y-68143054D01*
X36375214Y-68158649D01*
X36442942Y-68249018D01*
X36467790Y-68315525D01*
X36452737Y-68384907D01*
X36442942Y-68400148D01*
X36434536Y-68411364D01*
X36369385Y-68498295D01*
X36318255Y-68634684D01*
X36311500Y-68696866D01*
X36311500Y-70080577D01*
X36291498Y-70148698D01*
X36274595Y-70169672D01*
X35029517Y-71414750D01*
X35021191Y-71422326D01*
X35014697Y-71426447D01*
X35009274Y-71432222D01*
X34967915Y-71476265D01*
X34965160Y-71479107D01*
X34945361Y-71498906D01*
X34942937Y-71502031D01*
X34942929Y-71502040D01*
X34942863Y-71502126D01*
X34935155Y-71511151D01*
X34904783Y-71543494D01*
X34900965Y-71550438D01*
X34900964Y-71550440D01*
X34894978Y-71561329D01*
X34884127Y-71577847D01*
X34871650Y-71593933D01*
X34854024Y-71634666D01*
X34848807Y-71645314D01*
X34827431Y-71684197D01*
X34825460Y-71691872D01*
X34825458Y-71691878D01*
X34822369Y-71703911D01*
X34815966Y-71722613D01*
X34807883Y-71741292D01*
X34806644Y-71749117D01*
X34800940Y-71785127D01*
X34798535Y-71796740D01*
X34787500Y-71839718D01*
X34787500Y-71860065D01*
X34785949Y-71879776D01*
X34782765Y-71899879D01*
X34783511Y-71907771D01*
X34786941Y-71944056D01*
X34787500Y-71955914D01*
X34787502Y-86407822D01*
X34786972Y-86419056D01*
X34785294Y-86426561D01*
X34785543Y-86434480D01*
X34787440Y-86494854D01*
X34787502Y-86498811D01*
X34787502Y-86526825D01*
X34787998Y-86530750D01*
X34787998Y-86530751D01*
X34788010Y-86530846D01*
X34788943Y-86542691D01*
X34790337Y-86587047D01*
X34792549Y-86594659D01*
X34796015Y-86606590D01*
X34800025Y-86625954D01*
X34802575Y-86646141D01*
X34805491Y-86653505D01*
X34805492Y-86653510D01*
X34818909Y-86687398D01*
X34822754Y-86698627D01*
X34827600Y-86715307D01*
X34835133Y-86741235D01*
X34839171Y-86748062D01*
X34839172Y-86748065D01*
X34845490Y-86758748D01*
X34854190Y-86776506D01*
X34858763Y-86788057D01*
X34858767Y-86788063D01*
X34861683Y-86795430D01*
X34866341Y-86801841D01*
X34866342Y-86801843D01*
X34887766Y-86831330D01*
X34894283Y-86841252D01*
X34912828Y-86872610D01*
X34912831Y-86872614D01*
X34916868Y-86879440D01*
X34931252Y-86893824D01*
X34944093Y-86908858D01*
X34956060Y-86925329D01*
X34962168Y-86930382D01*
X34990257Y-86953619D01*
X34999037Y-86961609D01*
X42141905Y-94104477D01*
X42149482Y-94112803D01*
X42153607Y-94119303D01*
X42159385Y-94124729D01*
X42159386Y-94124730D01*
X42203441Y-94166100D01*
X42206283Y-94168855D01*
X42226066Y-94188638D01*
X42229274Y-94191126D01*
X42238303Y-94198837D01*
X42270654Y-94229217D01*
X42277603Y-94233037D01*
X42288489Y-94239022D01*
X42305013Y-94249876D01*
X42321093Y-94262349D01*
X42328370Y-94265498D01*
X42361810Y-94279969D01*
X42372471Y-94285192D01*
X42404407Y-94302749D01*
X42404412Y-94302751D01*
X42411357Y-94306569D01*
X42419031Y-94308539D01*
X42419038Y-94308542D01*
X42431073Y-94311632D01*
X42449778Y-94318036D01*
X42454488Y-94320074D01*
X42468452Y-94326117D01*
X42495502Y-94330401D01*
X42512287Y-94333060D01*
X42523900Y-94335465D01*
X42566878Y-94346500D01*
X42587225Y-94346500D01*
X42606937Y-94348051D01*
X42627039Y-94351235D01*
X42634931Y-94350489D01*
X42671216Y-94347059D01*
X42683074Y-94346500D01*
X68617427Y-94346500D01*
X68685548Y-94366502D01*
X68732041Y-94420158D01*
X68742145Y-94490432D01*
X68731714Y-94525550D01*
X68720688Y-94549305D01*
X68660989Y-94764570D01*
X68637251Y-94986695D01*
X68650110Y-95209715D01*
X68651247Y-95214761D01*
X68651248Y-95214767D01*
X68664597Y-95274000D01*
X68699222Y-95427639D01*
X68783266Y-95634616D01*
X68899987Y-95825088D01*
X69046250Y-95993938D01*
X69218126Y-96136632D01*
X69411000Y-96249338D01*
X69619692Y-96329030D01*
X69624760Y-96330061D01*
X69624763Y-96330062D01*
X69719862Y-96349410D01*
X69838597Y-96373567D01*
X69843772Y-96373757D01*
X69843774Y-96373757D01*
X70056673Y-96381564D01*
X70056677Y-96381564D01*
X70061837Y-96381753D01*
X70066957Y-96381097D01*
X70066959Y-96381097D01*
X70278288Y-96354025D01*
X70278289Y-96354025D01*
X70283416Y-96353368D01*
X70288366Y-96351883D01*
X70492429Y-96290661D01*
X70492434Y-96290659D01*
X70497384Y-96289174D01*
X70697994Y-96190896D01*
X70879860Y-96061173D01*
X71038096Y-95903489D01*
X71097594Y-95820689D01*
X71168453Y-95722077D01*
X71169640Y-95722930D01*
X71216960Y-95679362D01*
X71286897Y-95667145D01*
X71352338Y-95694678D01*
X71380166Y-95726511D01*
X71437694Y-95820388D01*
X71443777Y-95828699D01*
X71583213Y-95989667D01*
X71590580Y-95996883D01*
X71754434Y-96132916D01*
X71762881Y-96138831D01*
X71946756Y-96246279D01*
X71956042Y-96250729D01*
X72155001Y-96326703D01*
X72164899Y-96329579D01*
X72268250Y-96350606D01*
X72282299Y-96349410D01*
X72286000Y-96339065D01*
X72286000Y-96338517D01*
X72794000Y-96338517D01*
X72798064Y-96352359D01*
X72811478Y-96354393D01*
X72818184Y-96353534D01*
X72828262Y-96351392D01*
X73032255Y-96290191D01*
X73041842Y-96286433D01*
X73233095Y-96192739D01*
X73241945Y-96187464D01*
X73415328Y-96063792D01*
X73423200Y-96057139D01*
X73574052Y-95906812D01*
X73580730Y-95898965D01*
X73705003Y-95726020D01*
X73710313Y-95717183D01*
X73804670Y-95526267D01*
X73808469Y-95516672D01*
X73870377Y-95312910D01*
X73872555Y-95302837D01*
X73873986Y-95291962D01*
X73871775Y-95277778D01*
X73858617Y-95274000D01*
X72812115Y-95274000D01*
X72796876Y-95278475D01*
X72795671Y-95279865D01*
X72794000Y-95287548D01*
X72794000Y-96338517D01*
X72286000Y-96338517D01*
X72286000Y-94747885D01*
X72794000Y-94747885D01*
X72798475Y-94763124D01*
X72799865Y-94764329D01*
X72807548Y-94766000D01*
X73858344Y-94766000D01*
X73871875Y-94762027D01*
X73873180Y-94752947D01*
X73831214Y-94585875D01*
X73827894Y-94576124D01*
X73742972Y-94380814D01*
X73738105Y-94371739D01*
X73622426Y-94192926D01*
X73616136Y-94184757D01*
X73472806Y-94027240D01*
X73465273Y-94020215D01*
X73298139Y-93888222D01*
X73289552Y-93882517D01*
X73252116Y-93861851D01*
X73202146Y-93811419D01*
X73187374Y-93741976D01*
X73212490Y-93675571D01*
X73239842Y-93648964D01*
X73415327Y-93523792D01*
X73423200Y-93517139D01*
X73574052Y-93366812D01*
X73580730Y-93358965D01*
X73705003Y-93186020D01*
X73710313Y-93177183D01*
X73804670Y-92986267D01*
X73808469Y-92976672D01*
X73870377Y-92772910D01*
X73872555Y-92762837D01*
X73873986Y-92751962D01*
X73871775Y-92737778D01*
X73858617Y-92734000D01*
X72812115Y-92734000D01*
X72796876Y-92738475D01*
X72795671Y-92739865D01*
X72794000Y-92747548D01*
X72794000Y-94747885D01*
X72286000Y-94747885D01*
X72286000Y-92207885D01*
X72794000Y-92207885D01*
X72798475Y-92223124D01*
X72799865Y-92224329D01*
X72807548Y-92226000D01*
X73858344Y-92226000D01*
X73871875Y-92222027D01*
X73873180Y-92212947D01*
X73831214Y-92045875D01*
X73827894Y-92036124D01*
X73742972Y-91840814D01*
X73738105Y-91831739D01*
X73622426Y-91652926D01*
X73616136Y-91644757D01*
X73472806Y-91487240D01*
X73465273Y-91480215D01*
X73298139Y-91348222D01*
X73289552Y-91342517D01*
X73252116Y-91321851D01*
X73202146Y-91271419D01*
X73187374Y-91201976D01*
X73212490Y-91135571D01*
X73239842Y-91108964D01*
X73415327Y-90983792D01*
X73423200Y-90977139D01*
X73574052Y-90826812D01*
X73580730Y-90818965D01*
X73705003Y-90646020D01*
X73710313Y-90637183D01*
X73804670Y-90446267D01*
X73808469Y-90436672D01*
X73870377Y-90232910D01*
X73872555Y-90222837D01*
X73873986Y-90211962D01*
X73871775Y-90197778D01*
X73858617Y-90194000D01*
X72812115Y-90194000D01*
X72796876Y-90198475D01*
X72795671Y-90199865D01*
X72794000Y-90207548D01*
X72794000Y-92207885D01*
X72286000Y-92207885D01*
X72286000Y-89667885D01*
X72794000Y-89667885D01*
X72798475Y-89683124D01*
X72799865Y-89684329D01*
X72807548Y-89686000D01*
X73858344Y-89686000D01*
X73871875Y-89682027D01*
X73873180Y-89672947D01*
X73831214Y-89505875D01*
X73827894Y-89496124D01*
X73742972Y-89300814D01*
X73738105Y-89291739D01*
X73622426Y-89112926D01*
X73616136Y-89104757D01*
X73472806Y-88947240D01*
X73465273Y-88940215D01*
X73298139Y-88808222D01*
X73289552Y-88802517D01*
X73252116Y-88781851D01*
X73202146Y-88731419D01*
X73187374Y-88661976D01*
X73212490Y-88595571D01*
X73239842Y-88568964D01*
X73415327Y-88443792D01*
X73423200Y-88437139D01*
X73574052Y-88286812D01*
X73580730Y-88278965D01*
X73705003Y-88106020D01*
X73710313Y-88097183D01*
X73804670Y-87906267D01*
X73808469Y-87896672D01*
X73870377Y-87692910D01*
X73872555Y-87682837D01*
X73873986Y-87671962D01*
X73871775Y-87657778D01*
X73858617Y-87654000D01*
X72812115Y-87654000D01*
X72796876Y-87658475D01*
X72795671Y-87659865D01*
X72794000Y-87667548D01*
X72794000Y-89667885D01*
X72286000Y-89667885D01*
X72286000Y-87127885D01*
X72794000Y-87127885D01*
X72798475Y-87143124D01*
X72799865Y-87144329D01*
X72807548Y-87146000D01*
X73858344Y-87146000D01*
X73871875Y-87142027D01*
X73873180Y-87132947D01*
X73831214Y-86965875D01*
X73827894Y-86956124D01*
X73742972Y-86760814D01*
X73738105Y-86751739D01*
X73622426Y-86572926D01*
X73616136Y-86564757D01*
X73472806Y-86407240D01*
X73465273Y-86400215D01*
X73298139Y-86268222D01*
X73289552Y-86262517D01*
X73252116Y-86241851D01*
X73202146Y-86191419D01*
X73187374Y-86121976D01*
X73212490Y-86055571D01*
X73239842Y-86028964D01*
X73415327Y-85903792D01*
X73423200Y-85897139D01*
X73574052Y-85746812D01*
X73580730Y-85738965D01*
X73705003Y-85566020D01*
X73710313Y-85557183D01*
X73804670Y-85366267D01*
X73808469Y-85356672D01*
X73870377Y-85152910D01*
X73872555Y-85142837D01*
X73873986Y-85131962D01*
X73871775Y-85117778D01*
X73858617Y-85114000D01*
X72812115Y-85114000D01*
X72796876Y-85118475D01*
X72795671Y-85119865D01*
X72794000Y-85127548D01*
X72794000Y-87127885D01*
X72286000Y-87127885D01*
X72286000Y-84587885D01*
X72794000Y-84587885D01*
X72798475Y-84603124D01*
X72799865Y-84604329D01*
X72807548Y-84606000D01*
X73858344Y-84606000D01*
X73871875Y-84602027D01*
X73873180Y-84592947D01*
X73831214Y-84425875D01*
X73827894Y-84416124D01*
X73742972Y-84220814D01*
X73738105Y-84211739D01*
X73622426Y-84032926D01*
X73616136Y-84024757D01*
X73472806Y-83867240D01*
X73465273Y-83860215D01*
X73298139Y-83728222D01*
X73289552Y-83722517D01*
X73252116Y-83701851D01*
X73202146Y-83651419D01*
X73187374Y-83581976D01*
X73212490Y-83515571D01*
X73239842Y-83488964D01*
X73415327Y-83363792D01*
X73423200Y-83357139D01*
X73574052Y-83206812D01*
X73580730Y-83198965D01*
X73705003Y-83026020D01*
X73710313Y-83017183D01*
X73804670Y-82826267D01*
X73808469Y-82816672D01*
X73870377Y-82612910D01*
X73872555Y-82602837D01*
X73873986Y-82591962D01*
X73871775Y-82577778D01*
X73858617Y-82574000D01*
X72812115Y-82574000D01*
X72796876Y-82578475D01*
X72795671Y-82579865D01*
X72794000Y-82587548D01*
X72794000Y-84587885D01*
X72286000Y-84587885D01*
X72286000Y-82047885D01*
X72794000Y-82047885D01*
X72798475Y-82063124D01*
X72799865Y-82064329D01*
X72807548Y-82066000D01*
X73858344Y-82066000D01*
X73871875Y-82062027D01*
X73873180Y-82052947D01*
X73831214Y-81885875D01*
X73827894Y-81876124D01*
X73742972Y-81680814D01*
X73738105Y-81671739D01*
X73622426Y-81492926D01*
X73616136Y-81484757D01*
X73472806Y-81327240D01*
X73465273Y-81320215D01*
X73298139Y-81188222D01*
X73289552Y-81182517D01*
X73252116Y-81161851D01*
X73202146Y-81111419D01*
X73187374Y-81041976D01*
X73212490Y-80975571D01*
X73239842Y-80948964D01*
X73415327Y-80823792D01*
X73423200Y-80817139D01*
X73574052Y-80666812D01*
X73580730Y-80658965D01*
X73662860Y-80544669D01*
X82729501Y-80544669D01*
X82729871Y-80551490D01*
X82735395Y-80602352D01*
X82739021Y-80617604D01*
X82784176Y-80738054D01*
X82792714Y-80753649D01*
X82869215Y-80855724D01*
X82881776Y-80868285D01*
X82983851Y-80944786D01*
X82999446Y-80953324D01*
X83119894Y-80998478D01*
X83135149Y-81002105D01*
X83186014Y-81007631D01*
X83192828Y-81008000D01*
X85065385Y-81008000D01*
X85080624Y-81003525D01*
X85081829Y-81002135D01*
X85083500Y-80994452D01*
X85083500Y-80097115D01*
X85079025Y-80081876D01*
X85077635Y-80080671D01*
X85069952Y-80079000D01*
X82747616Y-80079000D01*
X82732377Y-80083475D01*
X82731172Y-80084865D01*
X82729501Y-80092548D01*
X82729501Y-80544669D01*
X73662860Y-80544669D01*
X73705003Y-80486020D01*
X73710313Y-80477183D01*
X73804670Y-80286267D01*
X73808469Y-80276672D01*
X73870377Y-80072910D01*
X73872555Y-80062837D01*
X73873986Y-80051962D01*
X73871775Y-80037778D01*
X73858617Y-80034000D01*
X72812115Y-80034000D01*
X72796876Y-80038475D01*
X72795671Y-80039865D01*
X72794000Y-80047548D01*
X72794000Y-82047885D01*
X72286000Y-82047885D01*
X72286000Y-80052115D01*
X72281525Y-80036876D01*
X72280135Y-80035671D01*
X72272452Y-80034000D01*
X68683225Y-80034000D01*
X68669694Y-80037973D01*
X68668257Y-80047966D01*
X68698565Y-80182446D01*
X68701645Y-80192275D01*
X68781770Y-80389603D01*
X68786413Y-80398794D01*
X68897694Y-80580388D01*
X68903777Y-80588699D01*
X69043213Y-80749667D01*
X69050580Y-80756883D01*
X69214434Y-80892916D01*
X69222881Y-80898831D01*
X69291969Y-80939203D01*
X69340693Y-80990842D01*
X69353764Y-81060625D01*
X69327033Y-81126396D01*
X69286584Y-81159752D01*
X69273607Y-81166507D01*
X69269474Y-81169610D01*
X69269471Y-81169612D01*
X69099100Y-81297530D01*
X69094965Y-81300635D01*
X68940629Y-81462138D01*
X68814743Y-81646680D01*
X68720688Y-81849305D01*
X68660989Y-82064570D01*
X68637251Y-82286695D01*
X68637548Y-82291848D01*
X68637548Y-82291851D01*
X68645372Y-82427539D01*
X68650110Y-82509715D01*
X68651247Y-82514761D01*
X68651248Y-82514767D01*
X68682933Y-82655360D01*
X68678397Y-82726212D01*
X68649111Y-82772156D01*
X64457672Y-86963595D01*
X64395360Y-86997621D01*
X64368577Y-87000500D01*
X61442422Y-87000500D01*
X61374301Y-86980498D01*
X61327808Y-86926842D01*
X61317704Y-86856568D01*
X61347198Y-86791988D01*
X61353327Y-86785405D01*
X68575827Y-79562905D01*
X68594177Y-79552885D01*
X82729500Y-79552885D01*
X82733975Y-79568124D01*
X82735365Y-79569329D01*
X82743048Y-79571000D01*
X85065385Y-79571000D01*
X85080624Y-79566525D01*
X85081829Y-79565135D01*
X85083500Y-79557452D01*
X85083500Y-78660116D01*
X85079025Y-78644877D01*
X85077635Y-78643672D01*
X85069952Y-78642001D01*
X83192831Y-78642001D01*
X83186010Y-78642371D01*
X83135148Y-78647895D01*
X83119896Y-78651521D01*
X82999446Y-78696676D01*
X82983851Y-78705214D01*
X82881776Y-78781715D01*
X82869215Y-78794276D01*
X82792714Y-78896351D01*
X82784176Y-78911946D01*
X82739022Y-79032394D01*
X82735395Y-79047649D01*
X82729869Y-79098514D01*
X82729500Y-79105328D01*
X82729500Y-79552885D01*
X68594177Y-79552885D01*
X68638139Y-79528879D01*
X68664922Y-79526000D01*
X72267885Y-79526000D01*
X72283124Y-79521525D01*
X72284329Y-79520135D01*
X72286000Y-79512452D01*
X72286000Y-79507885D01*
X72794000Y-79507885D01*
X72798475Y-79523124D01*
X72799865Y-79524329D01*
X72807548Y-79526000D01*
X73858344Y-79526000D01*
X73871875Y-79522027D01*
X73873180Y-79512947D01*
X73831214Y-79345875D01*
X73827894Y-79336124D01*
X73742972Y-79140814D01*
X73738105Y-79131739D01*
X73622426Y-78952926D01*
X73616136Y-78944757D01*
X73472806Y-78787240D01*
X73465273Y-78780215D01*
X73298139Y-78648222D01*
X73289552Y-78642517D01*
X73252116Y-78621851D01*
X73202146Y-78571419D01*
X73187374Y-78501976D01*
X73212490Y-78435571D01*
X73239842Y-78408964D01*
X73415327Y-78283792D01*
X73423200Y-78277139D01*
X73574052Y-78126812D01*
X73580730Y-78118965D01*
X73705003Y-77946020D01*
X73710313Y-77937183D01*
X73804670Y-77746267D01*
X73808469Y-77736672D01*
X73870377Y-77532910D01*
X73872555Y-77522837D01*
X73873986Y-77511962D01*
X73871775Y-77497778D01*
X73858617Y-77494000D01*
X72812115Y-77494000D01*
X72796876Y-77498475D01*
X72795671Y-77499865D01*
X72794000Y-77507548D01*
X72794000Y-79507885D01*
X72286000Y-79507885D01*
X72286000Y-76967885D01*
X72794000Y-76967885D01*
X72798475Y-76983124D01*
X72799865Y-76984329D01*
X72807548Y-76986000D01*
X73858344Y-76986000D01*
X73871875Y-76982027D01*
X73873180Y-76972947D01*
X73831214Y-76805875D01*
X73827894Y-76796124D01*
X73742972Y-76600814D01*
X73738105Y-76591739D01*
X73622426Y-76412926D01*
X73616136Y-76404757D01*
X73472806Y-76247240D01*
X73465273Y-76240215D01*
X73298139Y-76108222D01*
X73289552Y-76102517D01*
X73252116Y-76081851D01*
X73202146Y-76031419D01*
X73187374Y-75961976D01*
X73212490Y-75895571D01*
X73239842Y-75868964D01*
X73415327Y-75743792D01*
X73423200Y-75737139D01*
X73574052Y-75586812D01*
X73580730Y-75578965D01*
X73705003Y-75406020D01*
X73710313Y-75397183D01*
X73804670Y-75206267D01*
X73808469Y-75196672D01*
X73870377Y-74992910D01*
X73872555Y-74982837D01*
X73873986Y-74971962D01*
X73871775Y-74957778D01*
X73858617Y-74954000D01*
X72812115Y-74954000D01*
X72796876Y-74958475D01*
X72795671Y-74959865D01*
X72794000Y-74967548D01*
X72794000Y-76967885D01*
X72286000Y-76967885D01*
X72286000Y-74427885D01*
X72794000Y-74427885D01*
X72798475Y-74443124D01*
X72799865Y-74444329D01*
X72807548Y-74446000D01*
X73858344Y-74446000D01*
X73871875Y-74442027D01*
X73873180Y-74432947D01*
X73831214Y-74265875D01*
X73827894Y-74256124D01*
X73742972Y-74060814D01*
X73738105Y-74051739D01*
X73622426Y-73872926D01*
X73616136Y-73864757D01*
X73472806Y-73707240D01*
X73465273Y-73700215D01*
X73298139Y-73568222D01*
X73289552Y-73562517D01*
X73252116Y-73541851D01*
X73202146Y-73491419D01*
X73187374Y-73421976D01*
X73212490Y-73355571D01*
X73239842Y-73328964D01*
X73415327Y-73203792D01*
X73423200Y-73197139D01*
X73574052Y-73046812D01*
X73580730Y-73038965D01*
X73705003Y-72866020D01*
X73710313Y-72857183D01*
X73804670Y-72666267D01*
X73808469Y-72656672D01*
X73870377Y-72452910D01*
X73872555Y-72442837D01*
X73873986Y-72431962D01*
X73871775Y-72417778D01*
X73858617Y-72414000D01*
X72812115Y-72414000D01*
X72796876Y-72418475D01*
X72795671Y-72419865D01*
X72794000Y-72427548D01*
X72794000Y-74427885D01*
X72286000Y-74427885D01*
X72286000Y-71887885D01*
X72794000Y-71887885D01*
X72798475Y-71903124D01*
X72799865Y-71904329D01*
X72807548Y-71906000D01*
X73858344Y-71906000D01*
X73871875Y-71902027D01*
X73873180Y-71892947D01*
X73831214Y-71725875D01*
X73827894Y-71716124D01*
X73742972Y-71520814D01*
X73738105Y-71511739D01*
X73622426Y-71332926D01*
X73616136Y-71324757D01*
X73472806Y-71167240D01*
X73465273Y-71160215D01*
X73298139Y-71028222D01*
X73289552Y-71022517D01*
X73252116Y-71001851D01*
X73202146Y-70951419D01*
X73187374Y-70881976D01*
X73212490Y-70815571D01*
X73239842Y-70788964D01*
X73415327Y-70663792D01*
X73423200Y-70657139D01*
X73574052Y-70506812D01*
X73580730Y-70498965D01*
X73705003Y-70326020D01*
X73710313Y-70317183D01*
X73804670Y-70126267D01*
X73808469Y-70116672D01*
X73870377Y-69912910D01*
X73872555Y-69902837D01*
X73873986Y-69891962D01*
X73871775Y-69877778D01*
X73858617Y-69874000D01*
X72812115Y-69874000D01*
X72796876Y-69878475D01*
X72795671Y-69879865D01*
X72794000Y-69887548D01*
X72794000Y-71887885D01*
X72286000Y-71887885D01*
X72286000Y-69347885D01*
X72794000Y-69347885D01*
X72798475Y-69363124D01*
X72799865Y-69364329D01*
X72807548Y-69366000D01*
X73858344Y-69366000D01*
X73871875Y-69362027D01*
X73873180Y-69352947D01*
X73831214Y-69185875D01*
X73827894Y-69176124D01*
X73742972Y-68980814D01*
X73738105Y-68971739D01*
X73622426Y-68792926D01*
X73616136Y-68784757D01*
X73472806Y-68627240D01*
X73465273Y-68620215D01*
X73298139Y-68488222D01*
X73289552Y-68482517D01*
X73252116Y-68461851D01*
X73202146Y-68411419D01*
X73187374Y-68341976D01*
X73212490Y-68275571D01*
X73239842Y-68248964D01*
X73415327Y-68123792D01*
X73423200Y-68117139D01*
X73574052Y-67966812D01*
X73580730Y-67958965D01*
X73705003Y-67786020D01*
X73710313Y-67777183D01*
X73804670Y-67586267D01*
X73808469Y-67576672D01*
X73870377Y-67372910D01*
X73872555Y-67362837D01*
X73873986Y-67351962D01*
X73871775Y-67337778D01*
X73858617Y-67334000D01*
X72812115Y-67334000D01*
X72796876Y-67338475D01*
X72795671Y-67339865D01*
X72794000Y-67347548D01*
X72794000Y-69347885D01*
X72286000Y-69347885D01*
X72286000Y-66952000D01*
X72306002Y-66883879D01*
X72359658Y-66837386D01*
X72412000Y-66826000D01*
X73858344Y-66826000D01*
X73871875Y-66822027D01*
X73873180Y-66812947D01*
X73831214Y-66645875D01*
X73827894Y-66636124D01*
X73742972Y-66440814D01*
X73738105Y-66431739D01*
X73622426Y-66252926D01*
X73616136Y-66244757D01*
X73472806Y-66087240D01*
X73465273Y-66080215D01*
X73298139Y-65948222D01*
X73289556Y-65942520D01*
X73252602Y-65922120D01*
X73202631Y-65871687D01*
X73187859Y-65802245D01*
X73212975Y-65735839D01*
X73240327Y-65709232D01*
X73263797Y-65692491D01*
X73419860Y-65581173D01*
X73578096Y-65423489D01*
X73637594Y-65340689D01*
X73705435Y-65246277D01*
X73708453Y-65242077D01*
X73729320Y-65199857D01*
X73805136Y-65046453D01*
X73805137Y-65046451D01*
X73807430Y-65041811D01*
X73872370Y-64828069D01*
X73901529Y-64606590D01*
X73903156Y-64540000D01*
X73884852Y-64317361D01*
X73830555Y-64101196D01*
X73833359Y-64030254D01*
X73874072Y-63972091D01*
X73939767Y-63945172D01*
X73952759Y-63944500D01*
X73993578Y-63944500D01*
X74061699Y-63964502D01*
X74082673Y-63981405D01*
X78327595Y-68226328D01*
X78361621Y-68288640D01*
X78364500Y-68315423D01*
X78364500Y-71548480D01*
X78363970Y-71559714D01*
X78362292Y-71567219D01*
X78363360Y-71601209D01*
X78364438Y-71635512D01*
X78364500Y-71639469D01*
X78364500Y-71667483D01*
X78364996Y-71671408D01*
X78364996Y-71671409D01*
X78365008Y-71671504D01*
X78365941Y-71683349D01*
X78367335Y-71727705D01*
X78369547Y-71735317D01*
X78373013Y-71747248D01*
X78377023Y-71766612D01*
X78379573Y-71786799D01*
X78382489Y-71794163D01*
X78382490Y-71794168D01*
X78395907Y-71828056D01*
X78399752Y-71839285D01*
X78412131Y-71881893D01*
X78416169Y-71888720D01*
X78416170Y-71888723D01*
X78422488Y-71899406D01*
X78431188Y-71917164D01*
X78435761Y-71928715D01*
X78435765Y-71928721D01*
X78438681Y-71936088D01*
X78443339Y-71942499D01*
X78443340Y-71942501D01*
X78464764Y-71971988D01*
X78471281Y-71981910D01*
X78489826Y-72013268D01*
X78489829Y-72013272D01*
X78493866Y-72020098D01*
X78508250Y-72034482D01*
X78521091Y-72049516D01*
X78533058Y-72065987D01*
X78539166Y-72071040D01*
X78567255Y-72094277D01*
X78576035Y-72102267D01*
X83192095Y-76718327D01*
X83226121Y-76780639D01*
X83229000Y-76807422D01*
X83229000Y-77683134D01*
X83235755Y-77745316D01*
X83286885Y-77881705D01*
X83374239Y-77998261D01*
X83490795Y-78085615D01*
X83627184Y-78136745D01*
X83689366Y-78143500D01*
X87365500Y-78143500D01*
X87433621Y-78163502D01*
X87480114Y-78217158D01*
X87491500Y-78269500D01*
X87491500Y-78516000D01*
X87471498Y-78584121D01*
X87417842Y-78630614D01*
X87365500Y-78642000D01*
X85609615Y-78642000D01*
X85594376Y-78646475D01*
X85593171Y-78647865D01*
X85591500Y-78655548D01*
X85591500Y-80989884D01*
X85595975Y-81005123D01*
X85597365Y-81006328D01*
X85605048Y-81007999D01*
X87365500Y-81007999D01*
X87433621Y-81028001D01*
X87480114Y-81081657D01*
X87491500Y-81133999D01*
X87491500Y-98365500D01*
X87471498Y-98433621D01*
X87417842Y-98480114D01*
X87365500Y-98491500D01*
X32634500Y-98491500D01*
X32566379Y-98471498D01*
X32519886Y-98417842D01*
X32508500Y-98365500D01*
X32508500Y-65413134D01*
X36311500Y-65413134D01*
X36318255Y-65475316D01*
X36369385Y-65611705D01*
X36374771Y-65618891D01*
X36442942Y-65709852D01*
X36467790Y-65776358D01*
X36452737Y-65845741D01*
X36442942Y-65860982D01*
X36375214Y-65951351D01*
X36366676Y-65966946D01*
X36321522Y-66087394D01*
X36317895Y-66102649D01*
X36312369Y-66153514D01*
X36312000Y-66160328D01*
X36312000Y-66782885D01*
X36316475Y-66798124D01*
X36317865Y-66799329D01*
X36325548Y-66801000D01*
X40809884Y-66801000D01*
X40825123Y-66796525D01*
X40826328Y-66795135D01*
X40827999Y-66787452D01*
X40827999Y-66160331D01*
X40827629Y-66153510D01*
X40822105Y-66102648D01*
X40818479Y-66087396D01*
X40773324Y-65966946D01*
X40764786Y-65951351D01*
X40697058Y-65860982D01*
X40672210Y-65794475D01*
X40687263Y-65725093D01*
X40697058Y-65709852D01*
X40765229Y-65618891D01*
X40770615Y-65611705D01*
X40821745Y-65475316D01*
X40828500Y-65413134D01*
X40828500Y-63616866D01*
X40821745Y-63554684D01*
X40770615Y-63418295D01*
X40697370Y-63320564D01*
X40672522Y-63254059D01*
X40687575Y-63184676D01*
X40697370Y-63169435D01*
X40765229Y-63078891D01*
X40770615Y-63071705D01*
X40821745Y-62935316D01*
X40828500Y-62873134D01*
X40828500Y-61076866D01*
X40821745Y-61014684D01*
X40770615Y-60878295D01*
X40697370Y-60780564D01*
X40672522Y-60714059D01*
X40687575Y-60644676D01*
X40697370Y-60629435D01*
X40770615Y-60531705D01*
X40821745Y-60395316D01*
X40828500Y-60333134D01*
X40828500Y-58536866D01*
X40821745Y-58474684D01*
X40770615Y-58338295D01*
X40697370Y-58240564D01*
X40672522Y-58174059D01*
X40687575Y-58104676D01*
X40697370Y-58089435D01*
X40770615Y-57991705D01*
X40821745Y-57855316D01*
X40828500Y-57793134D01*
X40828500Y-55996866D01*
X40821745Y-55934684D01*
X40770615Y-55798295D01*
X40698232Y-55701715D01*
X40697058Y-55700148D01*
X40672210Y-55633642D01*
X40687263Y-55564259D01*
X40697058Y-55549018D01*
X40764786Y-55458649D01*
X40773324Y-55443054D01*
X40818478Y-55322606D01*
X40822105Y-55307351D01*
X40827631Y-55256486D01*
X40828000Y-55249672D01*
X40828000Y-54627115D01*
X40823525Y-54611876D01*
X40822135Y-54610671D01*
X40814452Y-54609000D01*
X36330116Y-54609000D01*
X36314877Y-54613475D01*
X36313672Y-54614865D01*
X36312001Y-54622548D01*
X36312001Y-55249669D01*
X36312371Y-55256490D01*
X36317895Y-55307352D01*
X36321521Y-55322604D01*
X36366676Y-55443054D01*
X36375214Y-55458649D01*
X36442942Y-55549018D01*
X36467790Y-55615525D01*
X36452737Y-55684907D01*
X36442942Y-55700148D01*
X36441768Y-55701715D01*
X36369385Y-55798295D01*
X36318255Y-55934684D01*
X36311500Y-55996866D01*
X36311500Y-57793134D01*
X36318255Y-57855316D01*
X36369385Y-57991705D01*
X36442630Y-58089435D01*
X36467478Y-58155941D01*
X36452425Y-58225324D01*
X36442632Y-58240562D01*
X36369385Y-58338295D01*
X36318255Y-58474684D01*
X36311500Y-58536866D01*
X36311500Y-60333134D01*
X36318255Y-60395316D01*
X36369385Y-60531705D01*
X36442630Y-60629435D01*
X36467478Y-60695941D01*
X36452425Y-60765324D01*
X36442632Y-60780562D01*
X36369385Y-60878295D01*
X36318255Y-61014684D01*
X36311500Y-61076866D01*
X36311500Y-62873134D01*
X36318255Y-62935316D01*
X36369385Y-63071705D01*
X36374771Y-63078891D01*
X36442630Y-63169435D01*
X36467478Y-63235941D01*
X36452425Y-63305324D01*
X36442632Y-63320562D01*
X36369385Y-63418295D01*
X36318255Y-63554684D01*
X36311500Y-63616866D01*
X36311500Y-65413134D01*
X32508500Y-65413134D01*
X32508500Y-52713134D01*
X36311500Y-52713134D01*
X36318255Y-52775316D01*
X36369385Y-52911705D01*
X36374771Y-52918891D01*
X36442942Y-53009852D01*
X36467790Y-53076358D01*
X36452737Y-53145741D01*
X36442942Y-53160982D01*
X36375214Y-53251351D01*
X36366676Y-53266946D01*
X36321522Y-53387394D01*
X36317895Y-53402649D01*
X36312369Y-53453514D01*
X36312000Y-53460328D01*
X36312000Y-54082885D01*
X36316475Y-54098124D01*
X36317865Y-54099329D01*
X36325548Y-54101000D01*
X40809884Y-54101000D01*
X40825123Y-54096525D01*
X40826328Y-54095135D01*
X40827999Y-54087452D01*
X40827999Y-53460331D01*
X40827629Y-53453510D01*
X40822105Y-53402648D01*
X40818479Y-53387396D01*
X40773324Y-53266946D01*
X40764786Y-53251351D01*
X40697058Y-53160982D01*
X40672210Y-53094475D01*
X40687263Y-53025093D01*
X40697058Y-53009852D01*
X40765229Y-52918891D01*
X40770615Y-52911705D01*
X40821745Y-52775316D01*
X40828500Y-52713134D01*
X40828500Y-50916866D01*
X40821745Y-50854684D01*
X40770615Y-50718295D01*
X40697370Y-50620564D01*
X40672522Y-50554059D01*
X40687575Y-50484676D01*
X40697370Y-50469435D01*
X40765229Y-50378891D01*
X40770615Y-50371705D01*
X40821745Y-50235316D01*
X40828500Y-50173134D01*
X40828500Y-48376866D01*
X40821745Y-48314684D01*
X40770615Y-48178295D01*
X40697370Y-48080564D01*
X40672522Y-48014059D01*
X40687575Y-47944676D01*
X40697370Y-47929435D01*
X40765229Y-47838891D01*
X40770615Y-47831705D01*
X40821745Y-47695316D01*
X40828500Y-47633134D01*
X40828500Y-45836866D01*
X40821745Y-45774684D01*
X40770615Y-45638295D01*
X40697370Y-45540564D01*
X40672522Y-45474059D01*
X40687575Y-45404676D01*
X40697370Y-45389435D01*
X40765229Y-45298891D01*
X40770615Y-45291705D01*
X40821745Y-45155316D01*
X40828500Y-45093134D01*
X40828500Y-43296866D01*
X40821745Y-43234684D01*
X40770615Y-43098295D01*
X40697058Y-43000148D01*
X40672210Y-42933642D01*
X40687263Y-42864259D01*
X40697058Y-42849018D01*
X40764786Y-42758649D01*
X40773324Y-42743054D01*
X40818478Y-42622606D01*
X40822105Y-42607351D01*
X40827631Y-42556486D01*
X40828000Y-42549672D01*
X40828000Y-41927115D01*
X40823525Y-41911876D01*
X40822135Y-41910671D01*
X40814452Y-41909000D01*
X36330116Y-41909000D01*
X36314877Y-41913475D01*
X36313672Y-41914865D01*
X36312001Y-41922548D01*
X36312001Y-42549669D01*
X36312371Y-42556490D01*
X36317895Y-42607352D01*
X36321521Y-42622604D01*
X36366676Y-42743054D01*
X36375214Y-42758649D01*
X36442942Y-42849018D01*
X36467790Y-42915525D01*
X36452737Y-42984907D01*
X36442942Y-43000148D01*
X36369385Y-43098295D01*
X36318255Y-43234684D01*
X36311500Y-43296866D01*
X36311500Y-45093134D01*
X36318255Y-45155316D01*
X36369385Y-45291705D01*
X36374771Y-45298891D01*
X36442630Y-45389435D01*
X36467478Y-45455941D01*
X36452425Y-45525324D01*
X36442632Y-45540562D01*
X36369385Y-45638295D01*
X36318255Y-45774684D01*
X36311500Y-45836866D01*
X36311500Y-47633134D01*
X36318255Y-47695316D01*
X36369385Y-47831705D01*
X36374771Y-47838891D01*
X36442630Y-47929435D01*
X36467478Y-47995941D01*
X36452425Y-48065324D01*
X36442632Y-48080562D01*
X36369385Y-48178295D01*
X36318255Y-48314684D01*
X36311500Y-48376866D01*
X36311500Y-50173134D01*
X36318255Y-50235316D01*
X36369385Y-50371705D01*
X36374771Y-50378891D01*
X36442630Y-50469435D01*
X36467478Y-50535941D01*
X36452425Y-50605324D01*
X36442632Y-50620562D01*
X36369385Y-50718295D01*
X36318255Y-50854684D01*
X36311500Y-50916866D01*
X36311500Y-52713134D01*
X32508500Y-52713134D01*
X32508500Y-40013134D01*
X36311500Y-40013134D01*
X36318255Y-40075316D01*
X36369385Y-40211705D01*
X36395088Y-40246000D01*
X36442942Y-40309852D01*
X36467790Y-40376358D01*
X36452737Y-40445741D01*
X36442942Y-40460982D01*
X36375214Y-40551351D01*
X36366676Y-40566946D01*
X36321522Y-40687394D01*
X36317895Y-40702649D01*
X36312369Y-40753514D01*
X36312000Y-40760328D01*
X36312000Y-41382885D01*
X36316475Y-41398124D01*
X36317865Y-41399329D01*
X36325548Y-41401000D01*
X40809884Y-41401000D01*
X40825123Y-41396525D01*
X40826328Y-41395135D01*
X40827999Y-41387452D01*
X40827999Y-40760331D01*
X40827629Y-40753510D01*
X40822105Y-40702648D01*
X40818479Y-40687396D01*
X40773324Y-40566946D01*
X40764786Y-40551351D01*
X40697058Y-40460982D01*
X40672210Y-40394475D01*
X40687263Y-40325093D01*
X40697058Y-40309852D01*
X40744912Y-40246000D01*
X40770615Y-40211705D01*
X40821745Y-40075316D01*
X40828500Y-40013134D01*
X40828500Y-39735000D01*
X44671693Y-39735000D01*
X44690885Y-39954371D01*
X44747880Y-40167076D01*
X44764770Y-40203297D01*
X44838618Y-40361666D01*
X44838621Y-40361671D01*
X44840944Y-40366653D01*
X44844100Y-40371160D01*
X44844101Y-40371162D01*
X44955751Y-40530614D01*
X44967251Y-40547038D01*
X45122962Y-40702749D01*
X45303346Y-40829056D01*
X45502924Y-40922120D01*
X45715629Y-40979115D01*
X45935000Y-40998307D01*
X46154371Y-40979115D01*
X46367076Y-40922120D01*
X46566654Y-40829056D01*
X46747038Y-40702749D01*
X46902749Y-40547038D01*
X46914250Y-40530614D01*
X47025899Y-40371162D01*
X47025900Y-40371160D01*
X47029056Y-40366653D01*
X47031379Y-40361671D01*
X47031382Y-40361666D01*
X47105230Y-40203297D01*
X47122120Y-40167076D01*
X47179115Y-39954371D01*
X47198307Y-39735000D01*
X49521693Y-39735000D01*
X49540885Y-39954371D01*
X49597880Y-40167076D01*
X49614770Y-40203297D01*
X49688618Y-40361666D01*
X49688621Y-40361671D01*
X49690944Y-40366653D01*
X49694100Y-40371160D01*
X49694101Y-40371162D01*
X49805751Y-40530614D01*
X49817251Y-40547038D01*
X49972962Y-40702749D01*
X50153346Y-40829056D01*
X50352924Y-40922120D01*
X50565629Y-40979115D01*
X50785000Y-40998307D01*
X51004371Y-40979115D01*
X51217076Y-40922120D01*
X51416654Y-40829056D01*
X51597038Y-40702749D01*
X51752749Y-40547038D01*
X51764250Y-40530614D01*
X51875899Y-40371162D01*
X51875900Y-40371160D01*
X51879056Y-40366653D01*
X51881379Y-40361671D01*
X51881382Y-40361666D01*
X51955230Y-40203297D01*
X51972120Y-40167076D01*
X52029115Y-39954371D01*
X52048307Y-39735000D01*
X52029115Y-39515629D01*
X51972120Y-39302924D01*
X51928585Y-39209562D01*
X51881382Y-39108334D01*
X51881379Y-39108329D01*
X51879056Y-39103347D01*
X51752749Y-38922962D01*
X51597038Y-38767251D01*
X51416654Y-38640944D01*
X51217076Y-38547880D01*
X51004371Y-38490885D01*
X50785000Y-38471693D01*
X50565629Y-38490885D01*
X50352924Y-38547880D01*
X50259562Y-38591415D01*
X50158334Y-38638618D01*
X50158329Y-38638621D01*
X50153347Y-38640944D01*
X50148840Y-38644100D01*
X50148838Y-38644101D01*
X49977473Y-38764092D01*
X49977470Y-38764094D01*
X49972962Y-38767251D01*
X49817251Y-38922962D01*
X49690944Y-39103347D01*
X49688621Y-39108329D01*
X49688618Y-39108334D01*
X49641415Y-39209562D01*
X49597880Y-39302924D01*
X49540885Y-39515629D01*
X49521693Y-39735000D01*
X47198307Y-39735000D01*
X47179115Y-39515629D01*
X47122120Y-39302924D01*
X47078585Y-39209562D01*
X47031382Y-39108334D01*
X47031379Y-39108329D01*
X47029056Y-39103347D01*
X46902749Y-38922962D01*
X46747038Y-38767251D01*
X46566654Y-38640944D01*
X46367076Y-38547880D01*
X46154371Y-38490885D01*
X45935000Y-38471693D01*
X45715629Y-38490885D01*
X45502924Y-38547880D01*
X45409562Y-38591415D01*
X45308334Y-38638618D01*
X45308329Y-38638621D01*
X45303347Y-38640944D01*
X45298840Y-38644100D01*
X45298838Y-38644101D01*
X45127473Y-38764092D01*
X45127470Y-38764094D01*
X45122962Y-38767251D01*
X44967251Y-38922962D01*
X44840944Y-39103347D01*
X44838621Y-39108329D01*
X44838618Y-39108334D01*
X44791415Y-39209562D01*
X44747880Y-39302924D01*
X44690885Y-39515629D01*
X44671693Y-39735000D01*
X40828500Y-39735000D01*
X40828500Y-38216866D01*
X40821745Y-38154684D01*
X40770615Y-38018295D01*
X40697370Y-37920564D01*
X40672522Y-37854059D01*
X40687575Y-37784676D01*
X40697370Y-37769435D01*
X40706788Y-37756869D01*
X40770615Y-37671705D01*
X40821745Y-37535316D01*
X40828500Y-37473134D01*
X40828500Y-36670469D01*
X44222095Y-36670469D01*
X44222392Y-36675622D01*
X44222392Y-36675625D01*
X44228067Y-36774041D01*
X44235427Y-36901697D01*
X44236564Y-36906743D01*
X44236565Y-36906749D01*
X44268741Y-37049523D01*
X44286346Y-37127642D01*
X44288288Y-37132424D01*
X44288289Y-37132428D01*
X44338600Y-37256328D01*
X44373484Y-37342237D01*
X44494501Y-37539719D01*
X44646147Y-37714784D01*
X44824349Y-37862730D01*
X45024322Y-37979584D01*
X45240694Y-38062209D01*
X45245760Y-38063240D01*
X45245761Y-38063240D01*
X45268381Y-38067842D01*
X45467656Y-38108385D01*
X45598324Y-38113176D01*
X45693949Y-38116683D01*
X45693953Y-38116683D01*
X45699113Y-38116872D01*
X45704233Y-38116216D01*
X45704235Y-38116216D01*
X45777270Y-38106860D01*
X45928847Y-38087442D01*
X45933795Y-38085957D01*
X45933802Y-38085956D01*
X46145747Y-38022369D01*
X46150690Y-38020886D01*
X46155979Y-38018295D01*
X46354049Y-37921262D01*
X46354052Y-37921260D01*
X46358684Y-37918991D01*
X46547243Y-37784494D01*
X46711303Y-37621005D01*
X46846458Y-37432917D01*
X46855807Y-37414002D01*
X46946784Y-37229922D01*
X46946785Y-37229920D01*
X46949078Y-37225280D01*
X47016408Y-37003671D01*
X47046640Y-36774041D01*
X47048327Y-36705000D01*
X47045488Y-36670469D01*
X49672095Y-36670469D01*
X49672392Y-36675622D01*
X49672392Y-36675625D01*
X49678067Y-36774041D01*
X49685427Y-36901697D01*
X49686564Y-36906743D01*
X49686565Y-36906749D01*
X49718741Y-37049523D01*
X49736346Y-37127642D01*
X49738288Y-37132424D01*
X49738289Y-37132428D01*
X49788600Y-37256328D01*
X49823484Y-37342237D01*
X49944501Y-37539719D01*
X50096147Y-37714784D01*
X50274349Y-37862730D01*
X50474322Y-37979584D01*
X50690694Y-38062209D01*
X50695760Y-38063240D01*
X50695761Y-38063240D01*
X50718381Y-38067842D01*
X50917656Y-38108385D01*
X51048324Y-38113176D01*
X51143949Y-38116683D01*
X51143953Y-38116683D01*
X51149113Y-38116872D01*
X51154233Y-38116216D01*
X51154235Y-38116216D01*
X51227270Y-38106860D01*
X51378847Y-38087442D01*
X51383795Y-38085957D01*
X51383802Y-38085956D01*
X51595747Y-38022369D01*
X51600690Y-38020886D01*
X51605979Y-38018295D01*
X51804049Y-37921262D01*
X51804052Y-37921260D01*
X51808684Y-37918991D01*
X51997243Y-37784494D01*
X52161303Y-37621005D01*
X52296458Y-37432917D01*
X52305807Y-37414002D01*
X52396784Y-37229922D01*
X52396785Y-37229920D01*
X52399078Y-37225280D01*
X52466408Y-37003671D01*
X52496640Y-36774041D01*
X52498327Y-36705000D01*
X52492032Y-36628434D01*
X52479773Y-36479318D01*
X52479772Y-36479312D01*
X52479349Y-36474167D01*
X52422925Y-36249533D01*
X52420866Y-36244797D01*
X52332630Y-36041868D01*
X52332628Y-36041865D01*
X52330570Y-36037131D01*
X52204764Y-35842665D01*
X52185051Y-35821000D01*
X52113932Y-35742842D01*
X52048887Y-35671358D01*
X52044836Y-35668159D01*
X52044832Y-35668155D01*
X51871177Y-35531011D01*
X51871172Y-35531008D01*
X51867123Y-35527810D01*
X51862607Y-35525317D01*
X51862604Y-35525315D01*
X51668879Y-35418373D01*
X51668875Y-35418371D01*
X51664355Y-35415876D01*
X51659486Y-35414152D01*
X51659482Y-35414150D01*
X51450903Y-35340288D01*
X51450899Y-35340287D01*
X51446028Y-35338562D01*
X51440935Y-35337655D01*
X51440932Y-35337654D01*
X51223095Y-35298851D01*
X51223089Y-35298850D01*
X51218006Y-35297945D01*
X51145096Y-35297054D01*
X50991581Y-35295179D01*
X50991579Y-35295179D01*
X50986411Y-35295116D01*
X50757464Y-35330150D01*
X50537314Y-35402106D01*
X50532726Y-35404494D01*
X50532722Y-35404496D01*
X50374804Y-35486703D01*
X50331872Y-35509052D01*
X50327739Y-35512155D01*
X50327736Y-35512157D01*
X50180720Y-35622540D01*
X50146655Y-35648117D01*
X49986639Y-35815564D01*
X49983725Y-35819836D01*
X49983724Y-35819837D01*
X49968152Y-35842665D01*
X49856119Y-36006899D01*
X49758602Y-36216981D01*
X49696707Y-36440169D01*
X49672095Y-36670469D01*
X47045488Y-36670469D01*
X47042032Y-36628434D01*
X47029773Y-36479318D01*
X47029772Y-36479312D01*
X47029349Y-36474167D01*
X46972925Y-36249533D01*
X46970866Y-36244797D01*
X46882630Y-36041868D01*
X46882628Y-36041865D01*
X46880570Y-36037131D01*
X46754764Y-35842665D01*
X46735051Y-35821000D01*
X46663932Y-35742842D01*
X46598887Y-35671358D01*
X46594836Y-35668159D01*
X46594832Y-35668155D01*
X46421177Y-35531011D01*
X46421172Y-35531008D01*
X46417123Y-35527810D01*
X46412607Y-35525317D01*
X46412604Y-35525315D01*
X46218879Y-35418373D01*
X46218875Y-35418371D01*
X46214355Y-35415876D01*
X46209486Y-35414152D01*
X46209482Y-35414150D01*
X46000903Y-35340288D01*
X46000899Y-35340287D01*
X45996028Y-35338562D01*
X45990935Y-35337655D01*
X45990932Y-35337654D01*
X45773095Y-35298851D01*
X45773089Y-35298850D01*
X45768006Y-35297945D01*
X45695096Y-35297054D01*
X45541581Y-35295179D01*
X45541579Y-35295179D01*
X45536411Y-35295116D01*
X45307464Y-35330150D01*
X45087314Y-35402106D01*
X45082726Y-35404494D01*
X45082722Y-35404496D01*
X44924804Y-35486703D01*
X44881872Y-35509052D01*
X44877739Y-35512155D01*
X44877736Y-35512157D01*
X44730720Y-35622540D01*
X44696655Y-35648117D01*
X44536639Y-35815564D01*
X44533725Y-35819836D01*
X44533724Y-35819837D01*
X44518152Y-35842665D01*
X44406119Y-36006899D01*
X44308602Y-36216981D01*
X44246707Y-36440169D01*
X44222095Y-36670469D01*
X40828500Y-36670469D01*
X40828500Y-35676866D01*
X40821745Y-35614684D01*
X40770615Y-35478295D01*
X40683261Y-35361739D01*
X40566705Y-35274385D01*
X40430316Y-35223255D01*
X40368134Y-35216500D01*
X36771866Y-35216500D01*
X36709684Y-35223255D01*
X36573295Y-35274385D01*
X36456739Y-35361739D01*
X36369385Y-35478295D01*
X36318255Y-35614684D01*
X36311500Y-35676866D01*
X36311500Y-37473134D01*
X36318255Y-37535316D01*
X36369385Y-37671705D01*
X36433212Y-37756869D01*
X36442630Y-37769435D01*
X36467478Y-37835941D01*
X36452425Y-37905324D01*
X36442632Y-37920562D01*
X36369385Y-38018295D01*
X36318255Y-38154684D01*
X36311500Y-38216866D01*
X36311500Y-40013134D01*
X32508500Y-40013134D01*
X32508500Y-34634500D01*
X32528502Y-34566379D01*
X32582158Y-34519886D01*
X32634500Y-34508500D01*
X87365500Y-34508500D01*
X87433621Y-34528502D01*
G37*
%TD.AperFunction*%
%TA.AperFunction,Conductor*%
G36*
X63491880Y-47494933D02*
G01*
X63506115Y-47497099D01*
X63506119Y-47497099D01*
X63513349Y-47498199D01*
X63520641Y-47497606D01*
X63520644Y-47497606D01*
X63566018Y-47493915D01*
X63576233Y-47493500D01*
X67368629Y-47493500D01*
X67436750Y-47513502D01*
X67457724Y-47530405D01*
X79416230Y-59488911D01*
X79428616Y-59503323D01*
X79437149Y-59514918D01*
X79437154Y-59514923D01*
X79441492Y-59520818D01*
X79447070Y-59525557D01*
X79447073Y-59525560D01*
X79481768Y-59555035D01*
X79489284Y-59561965D01*
X79494979Y-59567660D01*
X79497861Y-59569940D01*
X79517251Y-59585281D01*
X79520655Y-59588072D01*
X79570703Y-59630591D01*
X79576285Y-59635333D01*
X79582801Y-59638661D01*
X79587850Y-59642028D01*
X79592979Y-59645195D01*
X79598716Y-59649734D01*
X79664875Y-59680655D01*
X79668769Y-59682558D01*
X79733808Y-59715769D01*
X79740916Y-59717508D01*
X79746559Y-59719607D01*
X79752322Y-59721524D01*
X79758950Y-59724622D01*
X79766112Y-59726112D01*
X79766113Y-59726112D01*
X79830412Y-59739486D01*
X79834696Y-59740456D01*
X79905610Y-59757808D01*
X79911212Y-59758156D01*
X79911215Y-59758156D01*
X79916764Y-59758500D01*
X79916762Y-59758536D01*
X79920755Y-59758775D01*
X79924947Y-59759149D01*
X79932115Y-59760640D01*
X80009520Y-59758546D01*
X80012928Y-59758500D01*
X83153370Y-59758500D01*
X83221491Y-59778502D01*
X83267984Y-59832158D01*
X83271351Y-59840269D01*
X83286885Y-59881705D01*
X83374239Y-59998261D01*
X83490795Y-60085615D01*
X83627184Y-60136745D01*
X83689366Y-60143500D01*
X87365500Y-60143500D01*
X87433621Y-60163502D01*
X87480114Y-60217158D01*
X87491500Y-60269500D01*
X87491500Y-60516000D01*
X87471498Y-60584121D01*
X87417842Y-60630614D01*
X87365500Y-60642000D01*
X85609615Y-60642000D01*
X85594376Y-60646475D01*
X85593171Y-60647865D01*
X85591500Y-60655548D01*
X85591500Y-62989884D01*
X85595975Y-63005123D01*
X85597365Y-63006328D01*
X85605048Y-63007999D01*
X87365500Y-63007999D01*
X87433621Y-63028001D01*
X87480114Y-63081657D01*
X87491500Y-63133999D01*
X87491500Y-72866000D01*
X87471498Y-72934121D01*
X87417842Y-72980614D01*
X87365500Y-72992000D01*
X85609615Y-72992000D01*
X85594376Y-72996475D01*
X85593171Y-72997865D01*
X85591500Y-73005548D01*
X85591500Y-75339884D01*
X85595975Y-75355123D01*
X85597365Y-75356328D01*
X85605048Y-75357999D01*
X87365500Y-75357999D01*
X87433621Y-75378001D01*
X87480114Y-75431657D01*
X87491500Y-75483999D01*
X87491500Y-75730500D01*
X87471498Y-75798621D01*
X87417842Y-75845114D01*
X87365500Y-75856500D01*
X84179923Y-75856500D01*
X84111802Y-75836498D01*
X84090828Y-75819595D01*
X83844328Y-75573095D01*
X83810302Y-75510783D01*
X83815367Y-75439968D01*
X83857914Y-75383132D01*
X83924434Y-75358321D01*
X83933423Y-75358000D01*
X85065385Y-75358000D01*
X85080624Y-75353525D01*
X85081829Y-75352135D01*
X85083500Y-75344452D01*
X85083500Y-74447115D01*
X85079025Y-74431876D01*
X85077635Y-74430671D01*
X85069952Y-74429000D01*
X82752423Y-74429000D01*
X82684302Y-74408998D01*
X82663328Y-74392095D01*
X82174118Y-73902885D01*
X82729500Y-73902885D01*
X82733975Y-73918124D01*
X82735365Y-73919329D01*
X82743048Y-73921000D01*
X85065385Y-73921000D01*
X85080624Y-73916525D01*
X85081829Y-73915135D01*
X85083500Y-73907452D01*
X85083500Y-73010116D01*
X85079025Y-72994877D01*
X85077635Y-72993672D01*
X85069952Y-72992001D01*
X83192831Y-72992001D01*
X83186010Y-72992371D01*
X83135148Y-72997895D01*
X83119896Y-73001521D01*
X82999446Y-73046676D01*
X82983851Y-73055214D01*
X82881776Y-73131715D01*
X82869215Y-73144276D01*
X82792714Y-73246351D01*
X82784176Y-73261946D01*
X82739022Y-73382394D01*
X82735395Y-73397649D01*
X82729869Y-73448514D01*
X82729500Y-73455328D01*
X82729500Y-73902885D01*
X82174118Y-73902885D01*
X79672405Y-71401172D01*
X79638379Y-71338860D01*
X79635500Y-71312077D01*
X79635500Y-68079032D01*
X79636030Y-68067793D01*
X79637709Y-68060281D01*
X79637376Y-68049667D01*
X79635562Y-67991970D01*
X79635500Y-67988012D01*
X79635500Y-67960017D01*
X79634992Y-67955994D01*
X79634059Y-67944152D01*
X79632914Y-67907720D01*
X79632665Y-67899795D01*
X79626987Y-67880251D01*
X79622977Y-67860888D01*
X79621420Y-67848560D01*
X79621420Y-67848558D01*
X79620427Y-67840701D01*
X79617511Y-67833337D01*
X79617510Y-67833332D01*
X79604093Y-67799444D01*
X79600248Y-67788215D01*
X79590081Y-67753222D01*
X79587869Y-67745607D01*
X79583830Y-67738777D01*
X79577512Y-67728094D01*
X79568812Y-67710336D01*
X79564239Y-67698785D01*
X79564235Y-67698779D01*
X79561319Y-67691412D01*
X79535234Y-67655509D01*
X79528719Y-67645590D01*
X79510174Y-67614232D01*
X79510171Y-67614228D01*
X79506134Y-67607402D01*
X79491750Y-67593018D01*
X79478909Y-67577984D01*
X79471602Y-67567927D01*
X79466942Y-67561513D01*
X79432744Y-67533222D01*
X79423965Y-67525233D01*
X74814250Y-62915517D01*
X74806674Y-62907191D01*
X74802553Y-62900697D01*
X74752734Y-62853914D01*
X74749893Y-62851160D01*
X74730094Y-62831361D01*
X74726969Y-62828937D01*
X74726960Y-62828929D01*
X74726874Y-62828863D01*
X74717849Y-62821155D01*
X74691285Y-62796210D01*
X74685506Y-62790783D01*
X74667669Y-62780977D01*
X74651153Y-62770127D01*
X74635067Y-62757650D01*
X74594334Y-62740024D01*
X74583686Y-62734807D01*
X74554791Y-62718922D01*
X74544803Y-62713431D01*
X74537128Y-62711460D01*
X74537122Y-62711458D01*
X74525089Y-62708369D01*
X74506387Y-62701966D01*
X74487708Y-62693883D01*
X74447913Y-62687580D01*
X74443873Y-62686940D01*
X74432260Y-62684535D01*
X74389282Y-62673500D01*
X74368935Y-62673500D01*
X74349224Y-62671949D01*
X74336950Y-62670005D01*
X74329121Y-62668765D01*
X74321229Y-62669511D01*
X74284944Y-62672941D01*
X74273086Y-62673500D01*
X73924401Y-62673500D01*
X73856280Y-62653498D01*
X73809787Y-62599842D01*
X73801854Y-62544669D01*
X82729501Y-62544669D01*
X82729871Y-62551490D01*
X82735395Y-62602352D01*
X82739021Y-62617604D01*
X82784176Y-62738054D01*
X82792714Y-62753649D01*
X82869215Y-62855724D01*
X82881776Y-62868285D01*
X82983851Y-62944786D01*
X82999446Y-62953324D01*
X83119894Y-62998478D01*
X83135149Y-63002105D01*
X83186014Y-63007631D01*
X83192828Y-63008000D01*
X85065385Y-63008000D01*
X85080624Y-63003525D01*
X85081829Y-63002135D01*
X85083500Y-62994452D01*
X85083500Y-62097115D01*
X85079025Y-62081876D01*
X85077635Y-62080671D01*
X85069952Y-62079000D01*
X82747616Y-62079000D01*
X82732377Y-62083475D01*
X82731172Y-62084865D01*
X82729501Y-62092548D01*
X82729501Y-62544669D01*
X73801854Y-62544669D01*
X73799683Y-62529568D01*
X73806639Y-62503411D01*
X73807430Y-62501811D01*
X73872370Y-62288069D01*
X73901529Y-62066590D01*
X73903156Y-62000000D01*
X73884852Y-61777361D01*
X73830431Y-61560702D01*
X73827032Y-61552885D01*
X82729500Y-61552885D01*
X82733975Y-61568124D01*
X82735365Y-61569329D01*
X82743048Y-61571000D01*
X85065385Y-61571000D01*
X85080624Y-61566525D01*
X85081829Y-61565135D01*
X85083500Y-61557452D01*
X85083500Y-60660116D01*
X85079025Y-60644877D01*
X85077635Y-60643672D01*
X85069952Y-60642001D01*
X83192831Y-60642001D01*
X83186010Y-60642371D01*
X83135148Y-60647895D01*
X83119896Y-60651521D01*
X82999446Y-60696676D01*
X82983851Y-60705214D01*
X82881776Y-60781715D01*
X82869215Y-60794276D01*
X82792714Y-60896351D01*
X82784176Y-60911946D01*
X82739022Y-61032394D01*
X82735395Y-61047649D01*
X82729869Y-61098514D01*
X82729500Y-61105328D01*
X82729500Y-61552885D01*
X73827032Y-61552885D01*
X73741354Y-61355840D01*
X73620014Y-61168277D01*
X73469670Y-61003051D01*
X73465619Y-60999852D01*
X73465615Y-60999848D01*
X73298414Y-60867800D01*
X73298410Y-60867798D01*
X73294359Y-60864598D01*
X73253053Y-60841796D01*
X73203084Y-60791364D01*
X73188312Y-60721921D01*
X73213428Y-60655516D01*
X73240780Y-60628909D01*
X73284603Y-60597650D01*
X73419860Y-60501173D01*
X73578096Y-60343489D01*
X73637594Y-60260689D01*
X73705435Y-60166277D01*
X73708453Y-60162077D01*
X73717635Y-60143500D01*
X73805136Y-59966453D01*
X73805137Y-59966451D01*
X73807430Y-59961811D01*
X73872370Y-59748069D01*
X73901529Y-59526590D01*
X73901814Y-59514918D01*
X73903074Y-59463365D01*
X73903074Y-59463361D01*
X73903156Y-59460000D01*
X73884852Y-59237361D01*
X73830431Y-59020702D01*
X73741354Y-58815840D01*
X73620014Y-58628277D01*
X73616538Y-58624457D01*
X73616533Y-58624450D01*
X73472435Y-58466088D01*
X73441383Y-58402242D01*
X73449779Y-58331744D01*
X73494956Y-58276976D01*
X73521400Y-58263307D01*
X73628052Y-58223325D01*
X73643649Y-58214786D01*
X73745724Y-58138285D01*
X73758285Y-58125724D01*
X73834786Y-58023649D01*
X73843324Y-58008054D01*
X73888478Y-57887606D01*
X73892105Y-57872351D01*
X73897631Y-57821486D01*
X73898000Y-57814672D01*
X73898000Y-57192115D01*
X73893525Y-57176876D01*
X73892135Y-57175671D01*
X73884452Y-57174000D01*
X72412000Y-57174000D01*
X72343879Y-57153998D01*
X72297386Y-57100342D01*
X72286000Y-57048000D01*
X72286000Y-56647885D01*
X72794000Y-56647885D01*
X72798475Y-56663124D01*
X72799865Y-56664329D01*
X72807548Y-56666000D01*
X73879884Y-56666000D01*
X73895123Y-56661525D01*
X73896328Y-56660135D01*
X73897999Y-56652452D01*
X73897999Y-56025331D01*
X73897629Y-56018510D01*
X73892105Y-55967648D01*
X73888479Y-55952396D01*
X73843324Y-55831946D01*
X73834786Y-55816351D01*
X73758285Y-55714276D01*
X73745724Y-55701715D01*
X73643649Y-55625214D01*
X73628054Y-55616676D01*
X73507606Y-55571522D01*
X73492351Y-55567895D01*
X73441486Y-55562369D01*
X73434672Y-55562000D01*
X72812115Y-55562000D01*
X72796876Y-55566475D01*
X72795671Y-55567865D01*
X72794000Y-55575548D01*
X72794000Y-56647885D01*
X72286000Y-56647885D01*
X72286000Y-55580116D01*
X72281525Y-55564877D01*
X72280135Y-55563672D01*
X72272452Y-55562001D01*
X71645331Y-55562001D01*
X71638510Y-55562371D01*
X71587648Y-55567895D01*
X71572396Y-55571521D01*
X71451946Y-55616676D01*
X71436351Y-55625214D01*
X71334276Y-55701715D01*
X71321715Y-55714276D01*
X71245214Y-55816351D01*
X71236676Y-55831946D01*
X71195297Y-55942322D01*
X71152655Y-55999087D01*
X71086093Y-56023786D01*
X71016744Y-56008578D01*
X70984121Y-55982891D01*
X70933151Y-55926876D01*
X70933148Y-55926873D01*
X70929670Y-55923051D01*
X70925619Y-55919852D01*
X70925615Y-55919848D01*
X70758414Y-55787800D01*
X70758410Y-55787798D01*
X70754359Y-55784598D01*
X70558789Y-55676638D01*
X70553920Y-55674914D01*
X70553916Y-55674912D01*
X70353087Y-55603795D01*
X70353083Y-55603794D01*
X70348212Y-55602069D01*
X70343119Y-55601162D01*
X70343116Y-55601161D01*
X70133373Y-55563800D01*
X70133367Y-55563799D01*
X70128284Y-55562894D01*
X70054452Y-55561992D01*
X69910081Y-55560228D01*
X69910079Y-55560228D01*
X69904911Y-55560165D01*
X69684091Y-55593955D01*
X69471756Y-55663357D01*
X69273607Y-55766507D01*
X69269474Y-55769610D01*
X69269471Y-55769612D01*
X69186450Y-55831946D01*
X69094965Y-55900635D01*
X68940629Y-56062138D01*
X68814743Y-56246680D01*
X68767716Y-56347992D01*
X68727391Y-56434865D01*
X68720688Y-56449305D01*
X68660989Y-56664570D01*
X68637251Y-56886695D01*
X68637548Y-56891848D01*
X68637548Y-56891851D01*
X68641916Y-56967604D01*
X68650110Y-57109715D01*
X68651247Y-57114761D01*
X68651248Y-57114767D01*
X68682933Y-57255360D01*
X68678397Y-57326212D01*
X68649111Y-57372156D01*
X68567672Y-57453595D01*
X68505360Y-57487621D01*
X68478577Y-57490500D01*
X60534500Y-57490500D01*
X60466379Y-57470498D01*
X60419886Y-57416842D01*
X60408500Y-57364500D01*
X60408500Y-55996866D01*
X60401745Y-55934684D01*
X60350615Y-55798295D01*
X60277370Y-55700564D01*
X60252522Y-55634059D01*
X60267575Y-55564676D01*
X60277370Y-55549435D01*
X60282002Y-55543255D01*
X60350615Y-55451705D01*
X60401745Y-55315316D01*
X60408500Y-55253134D01*
X60408500Y-53456866D01*
X60401745Y-53394684D01*
X60350615Y-53258295D01*
X60277370Y-53160564D01*
X60252522Y-53094059D01*
X60267575Y-53024676D01*
X60277370Y-53009435D01*
X60345229Y-52918891D01*
X60350615Y-52911705D01*
X60401745Y-52775316D01*
X60408500Y-52713134D01*
X60408500Y-50916866D01*
X60401745Y-50854684D01*
X60350615Y-50718295D01*
X60277370Y-50620564D01*
X60252522Y-50554059D01*
X60267575Y-50484676D01*
X60277370Y-50469435D01*
X60345229Y-50378891D01*
X60350615Y-50371705D01*
X60401745Y-50235316D01*
X60408500Y-50173134D01*
X60408500Y-48376866D01*
X60401745Y-48314684D01*
X60350615Y-48178295D01*
X60277370Y-48080564D01*
X60252522Y-48014059D01*
X60267575Y-47944676D01*
X60277370Y-47929435D01*
X60345229Y-47838891D01*
X60350615Y-47831705D01*
X60401745Y-47695316D01*
X60408500Y-47633134D01*
X60408500Y-47619500D01*
X60428502Y-47551379D01*
X60482158Y-47504886D01*
X60534500Y-47493500D01*
X63472930Y-47493500D01*
X63491880Y-47494933D01*
G37*
%TD.AperFunction*%
M02*
