%TF.GenerationSoftware,KiCad,Pcbnew,(6.0.10)*%
%TF.CreationDate,2023-04-12T11:10:30-04:00*%
%TF.ProjectId,dds-sweeper-board,6464732d-7377-4656-9570-65722d626f61,0*%
%TF.SameCoordinates,Original*%
%TF.FileFunction,Copper,L1,Top*%
%TF.FilePolarity,Positive*%
%FSLAX46Y46*%
G04 Gerber Fmt 4.6, Leading zero omitted, Abs format (unit mm)*
G04 Created by KiCad (PCBNEW (6.0.10)) date 2023-04-12 11:10:30*
%MOMM*%
%LPD*%
G01*
G04 APERTURE LIST*
G04 Aperture macros list*
%AMRoundRect*
0 Rectangle with rounded corners*
0 $1 Rounding radius*
0 $2 $3 $4 $5 $6 $7 $8 $9 X,Y pos of 4 corners*
0 Add a 4 corners polygon primitive as box body*
4,1,4,$2,$3,$4,$5,$6,$7,$8,$9,$2,$3,0*
0 Add four circle primitives for the rounded corners*
1,1,$1+$1,$2,$3*
1,1,$1+$1,$4,$5*
1,1,$1+$1,$6,$7*
1,1,$1+$1,$8,$9*
0 Add four rect primitives between the rounded corners*
20,1,$1+$1,$2,$3,$4,$5,0*
20,1,$1+$1,$4,$5,$6,$7,0*
20,1,$1+$1,$6,$7,$8,$9,0*
20,1,$1+$1,$8,$9,$2,$3,0*%
G04 Aperture macros list end*
%TA.AperFunction,SMDPad,CuDef*%
%ADD10RoundRect,0.250000X-0.475000X0.337500X-0.475000X-0.337500X0.475000X-0.337500X0.475000X0.337500X0*%
%TD*%
%TA.AperFunction,SMDPad,CuDef*%
%ADD11R,3.600000X1.270000*%
%TD*%
%TA.AperFunction,SMDPad,CuDef*%
%ADD12R,4.200000X1.350000*%
%TD*%
%TA.AperFunction,SMDPad,CuDef*%
%ADD13RoundRect,0.150000X-0.512500X-0.150000X0.512500X-0.150000X0.512500X0.150000X-0.512500X0.150000X0*%
%TD*%
%TA.AperFunction,ComponentPad*%
%ADD14R,1.700000X1.700000*%
%TD*%
%TA.AperFunction,ComponentPad*%
%ADD15O,1.700000X1.700000*%
%TD*%
%TA.AperFunction,SMDPad,CuDef*%
%ADD16RoundRect,0.250000X0.475000X-0.337500X0.475000X0.337500X-0.475000X0.337500X-0.475000X-0.337500X0*%
%TD*%
%TA.AperFunction,SMDPad,CuDef*%
%ADD17R,3.500000X1.700000*%
%TD*%
%TA.AperFunction,SMDPad,CuDef*%
%ADD18R,0.001000X0.001000*%
%TD*%
%TA.AperFunction,SMDPad,CuDef*%
%ADD19R,1.700000X3.500000*%
%TD*%
%TA.AperFunction,ComponentPad*%
%ADD20O,1.000000X1.000000*%
%TD*%
%TA.AperFunction,Conductor*%
%ADD21C,0.400000*%
%TD*%
%TA.AperFunction,Conductor*%
%ADD22C,0.300000*%
%TD*%
%TA.AperFunction,Conductor*%
%ADD23C,0.600000*%
%TD*%
G04 APERTURE END LIST*
D10*
X78000000Y-38437500D03*
X78000000Y-40512500D03*
D11*
X85530000Y-56220000D03*
D12*
X85330000Y-59045000D03*
X85330000Y-53395000D03*
D11*
X85550000Y-38050000D03*
D12*
X85350000Y-35225000D03*
X85350000Y-40875000D03*
D13*
X70862500Y-38450000D03*
X70862500Y-39400000D03*
X70862500Y-40350000D03*
X73137500Y-40350000D03*
X73137500Y-38450000D03*
D14*
X66775000Y-60825000D03*
D15*
X66775000Y-58285000D03*
X66775000Y-55745000D03*
D16*
X66000000Y-40437500D03*
X66000000Y-38362500D03*
D11*
X85550000Y-94960000D03*
D12*
X85350000Y-92135000D03*
X85350000Y-97785000D03*
D11*
X85590000Y-75690000D03*
D12*
X85390000Y-78515000D03*
X85390000Y-72865000D03*
D17*
X39810000Y-36470000D03*
X39810000Y-39010000D03*
X39810000Y-41550000D03*
X39810000Y-44090000D03*
X39810000Y-46630000D03*
X39810000Y-49170000D03*
X39810000Y-51710000D03*
X39810000Y-54250000D03*
X39810000Y-56790000D03*
X39810000Y-59330000D03*
X39810000Y-61870000D03*
X39810000Y-64410000D03*
X39810000Y-66950000D03*
X39810000Y-69490000D03*
X39810000Y-72030000D03*
X39810000Y-74570000D03*
X39810000Y-77110000D03*
X39810000Y-79650000D03*
X39810000Y-82190000D03*
X39810000Y-84730000D03*
X59390000Y-84730000D03*
X59390000Y-82190000D03*
X59390000Y-79650000D03*
X59390000Y-77110000D03*
X59390000Y-74570000D03*
X59390000Y-72030000D03*
X59390000Y-69490000D03*
X59390000Y-66950000D03*
X59390000Y-64410000D03*
X59390000Y-61870000D03*
X59390000Y-59330000D03*
X59390000Y-56790000D03*
D18*
X59390000Y-54250000D03*
D17*
X59390000Y-51710000D03*
X59390000Y-49170000D03*
X59390000Y-46630000D03*
X59390000Y-44090000D03*
X59390000Y-41550000D03*
X59390000Y-39010000D03*
X59390000Y-36470000D03*
D19*
X47060000Y-85400000D03*
X49600000Y-85400000D03*
X52140000Y-85400000D03*
D15*
X73460000Y-55600000D03*
D20*
X73460000Y-58140000D03*
X73460000Y-60680000D03*
D15*
X73460000Y-63220000D03*
X73460000Y-65760000D03*
X73460000Y-68300000D03*
X73460000Y-70840000D03*
X73460000Y-73380000D03*
X73460000Y-75920000D03*
X73460000Y-78460000D03*
X73460000Y-81000000D03*
X73460000Y-83540000D03*
X73460000Y-86080000D03*
X73460000Y-88620000D03*
X73460000Y-91160000D03*
D20*
X73460000Y-93700000D03*
D15*
X76000000Y-93700000D03*
D20*
X76000000Y-91160000D03*
X76000000Y-88620000D03*
X76000000Y-86080000D03*
X76000000Y-83540000D03*
D15*
X76000000Y-81000000D03*
X76000000Y-78460000D03*
X76000000Y-75920000D03*
X76000000Y-73380000D03*
X76000000Y-70840000D03*
X76000000Y-68300000D03*
X76000000Y-65760000D03*
X76000000Y-63220000D03*
D20*
X76000000Y-60680000D03*
X76000000Y-58140000D03*
D14*
X76000000Y-55600000D03*
D21*
X71020000Y-53160000D02*
X73460000Y-55600000D01*
X55840000Y-53160000D02*
X71020000Y-53160000D01*
X50500000Y-58500000D02*
X55840000Y-53160000D01*
X42470000Y-84730000D02*
X50500000Y-76700000D01*
X40710000Y-84730000D02*
X42470000Y-84730000D01*
X50500000Y-76700000D02*
X50500000Y-58500000D01*
X83390000Y-75690000D02*
X85590000Y-75690000D01*
X79800000Y-72100000D02*
X83390000Y-75690000D01*
X79800000Y-62400000D02*
X79800000Y-72100000D01*
X76800000Y-59400000D02*
X79800000Y-62400000D01*
X72800000Y-59400000D02*
X76800000Y-59400000D01*
X62710000Y-69490000D02*
X72800000Y-59400000D01*
X58490000Y-69490000D02*
X62710000Y-69490000D01*
X64650000Y-74570000D02*
X73460000Y-65760000D01*
X58490000Y-74570000D02*
X64650000Y-74570000D01*
X64650000Y-77110000D02*
X73460000Y-68300000D01*
X58490000Y-77110000D02*
X64650000Y-77110000D01*
X62110000Y-82190000D02*
X73460000Y-70840000D01*
X58490000Y-82190000D02*
X62110000Y-82190000D01*
X62110000Y-84730000D02*
X73460000Y-73380000D01*
X58490000Y-84730000D02*
X62110000Y-84730000D01*
X61280000Y-88100000D02*
X73460000Y-75920000D01*
X55500000Y-86000000D02*
X57600000Y-88100000D01*
X55500000Y-66100000D02*
X55500000Y-86000000D01*
X57600000Y-88100000D02*
X61280000Y-88100000D01*
X57190000Y-64410000D02*
X55500000Y-66100000D01*
X58490000Y-64410000D02*
X57190000Y-64410000D01*
X64760000Y-89700000D02*
X73460000Y-81000000D01*
X39500000Y-89700000D02*
X64760000Y-89700000D01*
X36100000Y-86300000D02*
X39500000Y-89700000D01*
X36100000Y-84640000D02*
X36100000Y-86300000D01*
X38550000Y-82190000D02*
X36100000Y-84640000D01*
X40710000Y-82190000D02*
X38550000Y-82190000D01*
X39160000Y-91160000D02*
X73460000Y-91160000D01*
X35300000Y-77820000D02*
X35300000Y-87300000D01*
X38550000Y-74570000D02*
X35300000Y-77820000D01*
X35300000Y-87300000D02*
X39160000Y-91160000D01*
X40710000Y-74570000D02*
X38550000Y-74570000D01*
D22*
X73950001Y-92649999D02*
X72849999Y-92649999D01*
D21*
X59750001Y-92649999D02*
X72849999Y-92649999D01*
X38749999Y-92649999D02*
X59750001Y-92649999D01*
X34500000Y-73540000D02*
X34500000Y-88400000D01*
X38550000Y-69490000D02*
X34500000Y-73540000D01*
D22*
X59750001Y-92649999D02*
X59550001Y-92649999D01*
D21*
X40710000Y-69490000D02*
X38550000Y-69490000D01*
X34500000Y-88400000D02*
X38749999Y-92649999D01*
D22*
X59550001Y-92649999D02*
X59500000Y-92700000D01*
X74200000Y-92400000D02*
X73950001Y-92649999D01*
X74949999Y-91650001D02*
X74200000Y-92400000D01*
X74949999Y-90109999D02*
X74949999Y-91650001D01*
X73460000Y-88620000D02*
X74949999Y-90109999D01*
D21*
X74720000Y-84800000D02*
X73460000Y-83540000D01*
X76275637Y-84800000D02*
X74720000Y-84800000D01*
X78200000Y-95900000D02*
X78200000Y-86724363D01*
X33700000Y-94600000D02*
X36200000Y-97100000D01*
X35790000Y-64410000D02*
X33700000Y-66500000D01*
X33700000Y-66500000D02*
X33700000Y-94600000D01*
X77000000Y-97100000D02*
X78200000Y-95900000D01*
X40710000Y-64410000D02*
X35790000Y-64410000D01*
X36200000Y-97100000D02*
X77000000Y-97100000D01*
X78200000Y-86724363D02*
X76275637Y-84800000D01*
X35530000Y-61870000D02*
X40710000Y-61870000D01*
X32900000Y-64500000D02*
X35530000Y-61870000D01*
X32900000Y-95200000D02*
X32900000Y-64500000D01*
X35600000Y-97900000D02*
X32900000Y-95200000D01*
X81840000Y-94960000D02*
X78900000Y-97900000D01*
X85550000Y-94960000D02*
X81840000Y-94960000D01*
X78900000Y-97900000D02*
X35600000Y-97900000D01*
X63475000Y-60825000D02*
X66775000Y-60825000D01*
X62370000Y-61870000D02*
X62400000Y-61900000D01*
X62400000Y-61900000D02*
X63475000Y-60825000D01*
X58490000Y-61870000D02*
X62370000Y-61870000D01*
X78387500Y-38050000D02*
X85550000Y-38050000D01*
D23*
X73137500Y-38450000D02*
X77987500Y-38450000D01*
X58490000Y-46630000D02*
X64632500Y-46630000D01*
X64632500Y-46630000D02*
X70862500Y-40400000D01*
X81220000Y-56220000D02*
X85530000Y-56220000D01*
X71630000Y-46630000D02*
X81220000Y-56220000D01*
X58490000Y-46630000D02*
X71630000Y-46630000D01*
X66037500Y-38400000D02*
X70862500Y-38400000D01*
X66000000Y-38362500D02*
X66037500Y-38400000D01*
X64107500Y-36470000D02*
X66000000Y-38362500D01*
X58490000Y-36470000D02*
X64107500Y-36470000D01*
%TA.AperFunction,Conductor*%
G36*
X83215247Y-95688502D02*
G01*
X83261740Y-95742158D01*
X83265108Y-95750271D01*
X83287676Y-95810470D01*
X83299385Y-95841705D01*
X83386739Y-95958261D01*
X83503295Y-96045615D01*
X83639684Y-96096745D01*
X83701866Y-96103500D01*
X87365500Y-96103500D01*
X87433621Y-96123502D01*
X87480114Y-96177158D01*
X87491500Y-96229500D01*
X87491500Y-96476000D01*
X87471498Y-96544121D01*
X87417842Y-96590614D01*
X87365500Y-96602000D01*
X85622115Y-96602000D01*
X85606876Y-96606475D01*
X85605671Y-96607865D01*
X85604000Y-96615548D01*
X85604000Y-97913000D01*
X85583998Y-97981121D01*
X85530342Y-98027614D01*
X85478000Y-98039000D01*
X82760116Y-98039000D01*
X82744877Y-98043475D01*
X82743672Y-98044865D01*
X82742001Y-98052548D01*
X82742001Y-98365500D01*
X82721999Y-98433621D01*
X82668343Y-98480114D01*
X82616001Y-98491500D01*
X79614660Y-98491500D01*
X79546539Y-98471498D01*
X79500046Y-98417842D01*
X79489942Y-98347568D01*
X79519436Y-98282988D01*
X79525565Y-98276405D01*
X80289085Y-97512885D01*
X82742000Y-97512885D01*
X82746475Y-97528124D01*
X82747865Y-97529329D01*
X82755548Y-97531000D01*
X85077885Y-97531000D01*
X85093124Y-97526525D01*
X85094329Y-97525135D01*
X85096000Y-97517452D01*
X85096000Y-96620116D01*
X85091525Y-96604877D01*
X85090135Y-96603672D01*
X85082452Y-96602001D01*
X83205331Y-96602001D01*
X83198510Y-96602371D01*
X83147648Y-96607895D01*
X83132396Y-96611521D01*
X83011946Y-96656676D01*
X82996351Y-96665214D01*
X82894276Y-96741715D01*
X82881715Y-96754276D01*
X82805214Y-96856351D01*
X82796676Y-96871946D01*
X82751522Y-96992394D01*
X82747895Y-97007649D01*
X82742369Y-97058514D01*
X82742000Y-97065328D01*
X82742000Y-97512885D01*
X80289085Y-97512885D01*
X82096565Y-95705405D01*
X82158877Y-95671379D01*
X82185660Y-95668500D01*
X83147126Y-95668500D01*
X83215247Y-95688502D01*
G37*
%TD.AperFunction*%
%TA.AperFunction,Conductor*%
G36*
X77205320Y-60807290D02*
G01*
X79054595Y-62656565D01*
X79088621Y-62718877D01*
X79091500Y-62745660D01*
X79091500Y-72071088D01*
X79091208Y-72079658D01*
X79089687Y-72101976D01*
X79087275Y-72137352D01*
X79095887Y-72186694D01*
X79098261Y-72200299D01*
X79099223Y-72206821D01*
X79106898Y-72270242D01*
X79109581Y-72277343D01*
X79110222Y-72279952D01*
X79114685Y-72296262D01*
X79115450Y-72298798D01*
X79116757Y-72306284D01*
X79119811Y-72313241D01*
X79142442Y-72364795D01*
X79144933Y-72370899D01*
X79167513Y-72430656D01*
X79171817Y-72436919D01*
X79173054Y-72439285D01*
X79181299Y-72454097D01*
X79182632Y-72456351D01*
X79185685Y-72463305D01*
X79190307Y-72469328D01*
X79224579Y-72513991D01*
X79228459Y-72519332D01*
X79260339Y-72565720D01*
X79260344Y-72565725D01*
X79264643Y-72571981D01*
X79270313Y-72577032D01*
X79270314Y-72577034D01*
X79311170Y-72613435D01*
X79316446Y-72618416D01*
X82868550Y-76170520D01*
X82874404Y-76176785D01*
X82912439Y-76220385D01*
X82918657Y-76224755D01*
X82964697Y-76257112D01*
X82969993Y-76261045D01*
X83020282Y-76300477D01*
X83027204Y-76303602D01*
X83029452Y-76304964D01*
X83044185Y-76313368D01*
X83046524Y-76314622D01*
X83052739Y-76318990D01*
X83059815Y-76321749D01*
X83059819Y-76321751D01*
X83112269Y-76342200D01*
X83118334Y-76344749D01*
X83176573Y-76371045D01*
X83184038Y-76372429D01*
X83186582Y-76373226D01*
X83202844Y-76377858D01*
X83205427Y-76378521D01*
X83212509Y-76381282D01*
X83212648Y-76381300D01*
X83270922Y-76415985D01*
X83296566Y-76457486D01*
X83339385Y-76571705D01*
X83426739Y-76688261D01*
X83543295Y-76775615D01*
X83679684Y-76826745D01*
X83741866Y-76833500D01*
X87365500Y-76833500D01*
X87433621Y-76853502D01*
X87480114Y-76907158D01*
X87491500Y-76959500D01*
X87491500Y-77206000D01*
X87471498Y-77274121D01*
X87417842Y-77320614D01*
X87365500Y-77332000D01*
X85662115Y-77332000D01*
X85646876Y-77336475D01*
X85645671Y-77337865D01*
X85644000Y-77345548D01*
X85644000Y-79679884D01*
X85648475Y-79695123D01*
X85649865Y-79696328D01*
X85657548Y-79697999D01*
X87365500Y-79697999D01*
X87433621Y-79718001D01*
X87480114Y-79771657D01*
X87491500Y-79823999D01*
X87491500Y-90826000D01*
X87471498Y-90894121D01*
X87417842Y-90940614D01*
X87365500Y-90952000D01*
X85622115Y-90952000D01*
X85606876Y-90956475D01*
X85605671Y-90957865D01*
X85604000Y-90965548D01*
X85604000Y-93299884D01*
X85608475Y-93315123D01*
X85609865Y-93316328D01*
X85617548Y-93317999D01*
X87365500Y-93317999D01*
X87433621Y-93338001D01*
X87480114Y-93391657D01*
X87491500Y-93443999D01*
X87491500Y-93690500D01*
X87471498Y-93758621D01*
X87417842Y-93805114D01*
X87365500Y-93816500D01*
X83701866Y-93816500D01*
X83639684Y-93823255D01*
X83503295Y-93874385D01*
X83386739Y-93961739D01*
X83299385Y-94078295D01*
X83296233Y-94086704D01*
X83296232Y-94086705D01*
X83265108Y-94169729D01*
X83222467Y-94226494D01*
X83155905Y-94251194D01*
X83147126Y-94251500D01*
X81868927Y-94251500D01*
X81860358Y-94251208D01*
X81810225Y-94247790D01*
X81810221Y-94247790D01*
X81802648Y-94247274D01*
X81739681Y-94258264D01*
X81733169Y-94259224D01*
X81669758Y-94266898D01*
X81662657Y-94269581D01*
X81660048Y-94270222D01*
X81643715Y-94274691D01*
X81641195Y-94275452D01*
X81633717Y-94276757D01*
X81626765Y-94279809D01*
X81626764Y-94279809D01*
X81575204Y-94302441D01*
X81569099Y-94304932D01*
X81516456Y-94324825D01*
X81516452Y-94324827D01*
X81509344Y-94327513D01*
X81503083Y-94331816D01*
X81500717Y-94333053D01*
X81485937Y-94341280D01*
X81483652Y-94342631D01*
X81476695Y-94345685D01*
X81470675Y-94350305D01*
X81470669Y-94350308D01*
X81439542Y-94374194D01*
X81425998Y-94384587D01*
X81420668Y-94388459D01*
X81374280Y-94420339D01*
X81374275Y-94420344D01*
X81368019Y-94424643D01*
X81362968Y-94430313D01*
X81362966Y-94430314D01*
X81326565Y-94471170D01*
X81321584Y-94476446D01*
X78643435Y-97154595D01*
X78581123Y-97188621D01*
X78554340Y-97191500D01*
X78214661Y-97191500D01*
X78146540Y-97171498D01*
X78100047Y-97117842D01*
X78089943Y-97047568D01*
X78119437Y-96982988D01*
X78125566Y-96976404D01*
X78347695Y-96754276D01*
X78680536Y-96421435D01*
X78686801Y-96415582D01*
X78724664Y-96382552D01*
X78724665Y-96382551D01*
X78730385Y-96377561D01*
X78767136Y-96325271D01*
X78771028Y-96320029D01*
X78810476Y-96269718D01*
X78813600Y-96262799D01*
X78814988Y-96260507D01*
X78823357Y-96245835D01*
X78824622Y-96243475D01*
X78828990Y-96237261D01*
X78852203Y-96177723D01*
X78854759Y-96171642D01*
X78877918Y-96120352D01*
X78881045Y-96113427D01*
X78882430Y-96105954D01*
X78883234Y-96103388D01*
X78887855Y-96087165D01*
X78888520Y-96084573D01*
X78891282Y-96077491D01*
X78899622Y-96014139D01*
X78900654Y-96007623D01*
X78910911Y-95952281D01*
X78912295Y-95944814D01*
X78908709Y-95882620D01*
X78908500Y-95875367D01*
X78908500Y-92854669D01*
X82742001Y-92854669D01*
X82742371Y-92861490D01*
X82747895Y-92912352D01*
X82751521Y-92927604D01*
X82796676Y-93048054D01*
X82805214Y-93063649D01*
X82881715Y-93165724D01*
X82894276Y-93178285D01*
X82996351Y-93254786D01*
X83011946Y-93263324D01*
X83132394Y-93308478D01*
X83147649Y-93312105D01*
X83198514Y-93317631D01*
X83205328Y-93318000D01*
X85077885Y-93318000D01*
X85093124Y-93313525D01*
X85094329Y-93312135D01*
X85096000Y-93304452D01*
X85096000Y-92407115D01*
X85091525Y-92391876D01*
X85090135Y-92390671D01*
X85082452Y-92389000D01*
X82760116Y-92389000D01*
X82744877Y-92393475D01*
X82743672Y-92394865D01*
X82742001Y-92402548D01*
X82742001Y-92854669D01*
X78908500Y-92854669D01*
X78908500Y-91862885D01*
X82742000Y-91862885D01*
X82746475Y-91878124D01*
X82747865Y-91879329D01*
X82755548Y-91881000D01*
X85077885Y-91881000D01*
X85093124Y-91876525D01*
X85094329Y-91875135D01*
X85096000Y-91867452D01*
X85096000Y-90970116D01*
X85091525Y-90954877D01*
X85090135Y-90953672D01*
X85082452Y-90952001D01*
X83205331Y-90952001D01*
X83198510Y-90952371D01*
X83147648Y-90957895D01*
X83132396Y-90961521D01*
X83011946Y-91006676D01*
X82996351Y-91015214D01*
X82894276Y-91091715D01*
X82881715Y-91104276D01*
X82805214Y-91206351D01*
X82796676Y-91221946D01*
X82751522Y-91342394D01*
X82747895Y-91357649D01*
X82742369Y-91408514D01*
X82742000Y-91415328D01*
X82742000Y-91862885D01*
X78908500Y-91862885D01*
X78908500Y-86753275D01*
X78908792Y-86744705D01*
X78912209Y-86694587D01*
X78912209Y-86694583D01*
X78912725Y-86687011D01*
X78901739Y-86624066D01*
X78900777Y-86617545D01*
X78893102Y-86554121D01*
X78890416Y-86547013D01*
X78889779Y-86544419D01*
X78885318Y-86528113D01*
X78884548Y-86525562D01*
X78883242Y-86518079D01*
X78857561Y-86459575D01*
X78855069Y-86453468D01*
X78835173Y-86400815D01*
X78835173Y-86400814D01*
X78832487Y-86393707D01*
X78828184Y-86387446D01*
X78826947Y-86385080D01*
X78818720Y-86370300D01*
X78817369Y-86368015D01*
X78814315Y-86361058D01*
X78809695Y-86355038D01*
X78809692Y-86355032D01*
X78775421Y-86310372D01*
X78771541Y-86305031D01*
X78739661Y-86258643D01*
X78739656Y-86258638D01*
X78735357Y-86252382D01*
X78688829Y-86210927D01*
X78683554Y-86205947D01*
X76806018Y-84328411D01*
X76771992Y-84266099D01*
X76777057Y-84195284D01*
X76799731Y-84156986D01*
X76812351Y-84142365D01*
X76828078Y-84124145D01*
X76925769Y-83952179D01*
X76988197Y-83764513D01*
X77012985Y-83568295D01*
X77013380Y-83540000D01*
X76994080Y-83343167D01*
X76936916Y-83153831D01*
X76844066Y-82979204D01*
X76757646Y-82873243D01*
X76722960Y-82830713D01*
X76722957Y-82830710D01*
X76719065Y-82825938D01*
X76708196Y-82816946D01*
X76571425Y-82703799D01*
X76571421Y-82703797D01*
X76566675Y-82699870D01*
X76392701Y-82605802D01*
X76286055Y-82572790D01*
X76226896Y-82533539D01*
X76198348Y-82468535D01*
X76209476Y-82398416D01*
X76256747Y-82345444D01*
X76287106Y-82331739D01*
X76492255Y-82270191D01*
X76501842Y-82266433D01*
X76693095Y-82172739D01*
X76701945Y-82167464D01*
X76875328Y-82043792D01*
X76883200Y-82037139D01*
X77034052Y-81886812D01*
X77040730Y-81878965D01*
X77165003Y-81706020D01*
X77170313Y-81697183D01*
X77264670Y-81506267D01*
X77268469Y-81496672D01*
X77330377Y-81292910D01*
X77332555Y-81282837D01*
X77333986Y-81271962D01*
X77331775Y-81257778D01*
X77318617Y-81254000D01*
X75872000Y-81254000D01*
X75803879Y-81233998D01*
X75757386Y-81180342D01*
X75746000Y-81128000D01*
X75746000Y-80727885D01*
X76254000Y-80727885D01*
X76258475Y-80743124D01*
X76259865Y-80744329D01*
X76267548Y-80746000D01*
X77318344Y-80746000D01*
X77331875Y-80742027D01*
X77333180Y-80732947D01*
X77291214Y-80565875D01*
X77287894Y-80556124D01*
X77202972Y-80360814D01*
X77198105Y-80351739D01*
X77082426Y-80172926D01*
X77076136Y-80164757D01*
X76932806Y-80007240D01*
X76925273Y-80000215D01*
X76758139Y-79868222D01*
X76749552Y-79862517D01*
X76712116Y-79841851D01*
X76662146Y-79791419D01*
X76647374Y-79721976D01*
X76672490Y-79655571D01*
X76699842Y-79628964D01*
X76875327Y-79503792D01*
X76883200Y-79497139D01*
X77034052Y-79346812D01*
X77040730Y-79338965D01*
X77115674Y-79234669D01*
X82782001Y-79234669D01*
X82782371Y-79241490D01*
X82787895Y-79292352D01*
X82791521Y-79307604D01*
X82836676Y-79428054D01*
X82845214Y-79443649D01*
X82921715Y-79545724D01*
X82934276Y-79558285D01*
X83036351Y-79634786D01*
X83051946Y-79643324D01*
X83172394Y-79688478D01*
X83187649Y-79692105D01*
X83238514Y-79697631D01*
X83245328Y-79698000D01*
X85117885Y-79698000D01*
X85133124Y-79693525D01*
X85134329Y-79692135D01*
X85136000Y-79684452D01*
X85136000Y-78787115D01*
X85131525Y-78771876D01*
X85130135Y-78770671D01*
X85122452Y-78769000D01*
X82800116Y-78769000D01*
X82784877Y-78773475D01*
X82783672Y-78774865D01*
X82782001Y-78782548D01*
X82782001Y-79234669D01*
X77115674Y-79234669D01*
X77165003Y-79166020D01*
X77170313Y-79157183D01*
X77264670Y-78966267D01*
X77268469Y-78956672D01*
X77330377Y-78752910D01*
X77332555Y-78742837D01*
X77333986Y-78731962D01*
X77331775Y-78717778D01*
X77318617Y-78714000D01*
X76272115Y-78714000D01*
X76256876Y-78718475D01*
X76255671Y-78719865D01*
X76254000Y-78727548D01*
X76254000Y-80727885D01*
X75746000Y-80727885D01*
X75746000Y-78732115D01*
X75741525Y-78716876D01*
X75740135Y-78715671D01*
X75732452Y-78714000D01*
X73332000Y-78714000D01*
X73263879Y-78693998D01*
X73217386Y-78640342D01*
X73206000Y-78588000D01*
X73206000Y-78332000D01*
X73226002Y-78263879D01*
X73250230Y-78242885D01*
X82782000Y-78242885D01*
X82786475Y-78258124D01*
X82787865Y-78259329D01*
X82795548Y-78261000D01*
X85117885Y-78261000D01*
X85133124Y-78256525D01*
X85134329Y-78255135D01*
X85136000Y-78247452D01*
X85136000Y-77350116D01*
X85131525Y-77334877D01*
X85130135Y-77333672D01*
X85122452Y-77332001D01*
X83245331Y-77332001D01*
X83238510Y-77332371D01*
X83187648Y-77337895D01*
X83172396Y-77341521D01*
X83051946Y-77386676D01*
X83036351Y-77395214D01*
X82934276Y-77471715D01*
X82921715Y-77484276D01*
X82845214Y-77586351D01*
X82836676Y-77601946D01*
X82791522Y-77722394D01*
X82787895Y-77737649D01*
X82782369Y-77788514D01*
X82782000Y-77795328D01*
X82782000Y-78242885D01*
X73250230Y-78242885D01*
X73279658Y-78217386D01*
X73332000Y-78206000D01*
X75727885Y-78206000D01*
X75743124Y-78201525D01*
X75744329Y-78200135D01*
X75746000Y-78192452D01*
X75746000Y-78187885D01*
X76254000Y-78187885D01*
X76258475Y-78203124D01*
X76259865Y-78204329D01*
X76267548Y-78206000D01*
X77318344Y-78206000D01*
X77331875Y-78202027D01*
X77333180Y-78192947D01*
X77291214Y-78025875D01*
X77287894Y-78016124D01*
X77202972Y-77820814D01*
X77198105Y-77811739D01*
X77082426Y-77632926D01*
X77076136Y-77624757D01*
X76932806Y-77467240D01*
X76925273Y-77460215D01*
X76758139Y-77328222D01*
X76749552Y-77322517D01*
X76712116Y-77301851D01*
X76662146Y-77251419D01*
X76647374Y-77181976D01*
X76672490Y-77115571D01*
X76699842Y-77088964D01*
X76875327Y-76963792D01*
X76883200Y-76957139D01*
X77034052Y-76806812D01*
X77040730Y-76798965D01*
X77165003Y-76626020D01*
X77170313Y-76617183D01*
X77264670Y-76426267D01*
X77268469Y-76416672D01*
X77330377Y-76212910D01*
X77332555Y-76202837D01*
X77333986Y-76191962D01*
X77331775Y-76177778D01*
X77318617Y-76174000D01*
X76272115Y-76174000D01*
X76256876Y-76178475D01*
X76255671Y-76179865D01*
X76254000Y-76187548D01*
X76254000Y-78187885D01*
X75746000Y-78187885D01*
X75746000Y-75647885D01*
X76254000Y-75647885D01*
X76258475Y-75663124D01*
X76259865Y-75664329D01*
X76267548Y-75666000D01*
X77318344Y-75666000D01*
X77331875Y-75662027D01*
X77333180Y-75652947D01*
X77291214Y-75485875D01*
X77287894Y-75476124D01*
X77202972Y-75280814D01*
X77198105Y-75271739D01*
X77082426Y-75092926D01*
X77076136Y-75084757D01*
X76932806Y-74927240D01*
X76925273Y-74920215D01*
X76758139Y-74788222D01*
X76749552Y-74782517D01*
X76712116Y-74761851D01*
X76662146Y-74711419D01*
X76647374Y-74641976D01*
X76672490Y-74575571D01*
X76699842Y-74548964D01*
X76875327Y-74423792D01*
X76883200Y-74417139D01*
X77034052Y-74266812D01*
X77040730Y-74258965D01*
X77165003Y-74086020D01*
X77170313Y-74077183D01*
X77264670Y-73886267D01*
X77268469Y-73876672D01*
X77330377Y-73672910D01*
X77332555Y-73662837D01*
X77333986Y-73651962D01*
X77331775Y-73637778D01*
X77318617Y-73634000D01*
X76272115Y-73634000D01*
X76256876Y-73638475D01*
X76255671Y-73639865D01*
X76254000Y-73647548D01*
X76254000Y-75647885D01*
X75746000Y-75647885D01*
X75746000Y-73107885D01*
X76254000Y-73107885D01*
X76258475Y-73123124D01*
X76259865Y-73124329D01*
X76267548Y-73126000D01*
X77318344Y-73126000D01*
X77331875Y-73122027D01*
X77333180Y-73112947D01*
X77291214Y-72945875D01*
X77287894Y-72936124D01*
X77202972Y-72740814D01*
X77198105Y-72731739D01*
X77082426Y-72552926D01*
X77076136Y-72544757D01*
X76932806Y-72387240D01*
X76925273Y-72380215D01*
X76758139Y-72248222D01*
X76749552Y-72242517D01*
X76712116Y-72221851D01*
X76662146Y-72171419D01*
X76647374Y-72101976D01*
X76672490Y-72035571D01*
X76699842Y-72008964D01*
X76875327Y-71883792D01*
X76883200Y-71877139D01*
X77034052Y-71726812D01*
X77040730Y-71718965D01*
X77165003Y-71546020D01*
X77170313Y-71537183D01*
X77264670Y-71346267D01*
X77268469Y-71336672D01*
X77330377Y-71132910D01*
X77332555Y-71122837D01*
X77333986Y-71111962D01*
X77331775Y-71097778D01*
X77318617Y-71094000D01*
X76272115Y-71094000D01*
X76256876Y-71098475D01*
X76255671Y-71099865D01*
X76254000Y-71107548D01*
X76254000Y-73107885D01*
X75746000Y-73107885D01*
X75746000Y-70567885D01*
X76254000Y-70567885D01*
X76258475Y-70583124D01*
X76259865Y-70584329D01*
X76267548Y-70586000D01*
X77318344Y-70586000D01*
X77331875Y-70582027D01*
X77333180Y-70572947D01*
X77291214Y-70405875D01*
X77287894Y-70396124D01*
X77202972Y-70200814D01*
X77198105Y-70191739D01*
X77082426Y-70012926D01*
X77076136Y-70004757D01*
X76932806Y-69847240D01*
X76925273Y-69840215D01*
X76758139Y-69708222D01*
X76749552Y-69702517D01*
X76712116Y-69681851D01*
X76662146Y-69631419D01*
X76647374Y-69561976D01*
X76672490Y-69495571D01*
X76699842Y-69468964D01*
X76875327Y-69343792D01*
X76883200Y-69337139D01*
X77034052Y-69186812D01*
X77040730Y-69178965D01*
X77165003Y-69006020D01*
X77170313Y-68997183D01*
X77264670Y-68806267D01*
X77268469Y-68796672D01*
X77330377Y-68592910D01*
X77332555Y-68582837D01*
X77333986Y-68571962D01*
X77331775Y-68557778D01*
X77318617Y-68554000D01*
X76272115Y-68554000D01*
X76256876Y-68558475D01*
X76255671Y-68559865D01*
X76254000Y-68567548D01*
X76254000Y-70567885D01*
X75746000Y-70567885D01*
X75746000Y-68027885D01*
X76254000Y-68027885D01*
X76258475Y-68043124D01*
X76259865Y-68044329D01*
X76267548Y-68046000D01*
X77318344Y-68046000D01*
X77331875Y-68042027D01*
X77333180Y-68032947D01*
X77291214Y-67865875D01*
X77287894Y-67856124D01*
X77202972Y-67660814D01*
X77198105Y-67651739D01*
X77082426Y-67472926D01*
X77076136Y-67464757D01*
X76932806Y-67307240D01*
X76925273Y-67300215D01*
X76758139Y-67168222D01*
X76749552Y-67162517D01*
X76712116Y-67141851D01*
X76662146Y-67091419D01*
X76647374Y-67021976D01*
X76672490Y-66955571D01*
X76699842Y-66928964D01*
X76875327Y-66803792D01*
X76883200Y-66797139D01*
X77034052Y-66646812D01*
X77040730Y-66638965D01*
X77165003Y-66466020D01*
X77170313Y-66457183D01*
X77264670Y-66266267D01*
X77268469Y-66256672D01*
X77330377Y-66052910D01*
X77332555Y-66042837D01*
X77333986Y-66031962D01*
X77331775Y-66017778D01*
X77318617Y-66014000D01*
X76272115Y-66014000D01*
X76256876Y-66018475D01*
X76255671Y-66019865D01*
X76254000Y-66027548D01*
X76254000Y-68027885D01*
X75746000Y-68027885D01*
X75746000Y-65632000D01*
X75766002Y-65563879D01*
X75819658Y-65517386D01*
X75872000Y-65506000D01*
X77318344Y-65506000D01*
X77331875Y-65502027D01*
X77333180Y-65492947D01*
X77291214Y-65325875D01*
X77287894Y-65316124D01*
X77202972Y-65120814D01*
X77198105Y-65111739D01*
X77082426Y-64932926D01*
X77076136Y-64924757D01*
X76932806Y-64767240D01*
X76925273Y-64760215D01*
X76758139Y-64628222D01*
X76749556Y-64622520D01*
X76712602Y-64602120D01*
X76662631Y-64551687D01*
X76647859Y-64482245D01*
X76672975Y-64415839D01*
X76700327Y-64389232D01*
X76723797Y-64372491D01*
X76879860Y-64261173D01*
X77038096Y-64103489D01*
X77097594Y-64020689D01*
X77165435Y-63926277D01*
X77168453Y-63922077D01*
X77189094Y-63880314D01*
X77265136Y-63726453D01*
X77265137Y-63726451D01*
X77267430Y-63721811D01*
X77332370Y-63508069D01*
X77361529Y-63286590D01*
X77363156Y-63220000D01*
X77344852Y-62997361D01*
X77290431Y-62780702D01*
X77201354Y-62575840D01*
X77106312Y-62428927D01*
X77082822Y-62392617D01*
X77082820Y-62392614D01*
X77080014Y-62388277D01*
X76929670Y-62223051D01*
X76925619Y-62219852D01*
X76925615Y-62219848D01*
X76758414Y-62087800D01*
X76758410Y-62087798D01*
X76754359Y-62084598D01*
X76558789Y-61976638D01*
X76553920Y-61974914D01*
X76553916Y-61974912D01*
X76353087Y-61903795D01*
X76353083Y-61903794D01*
X76348212Y-61902069D01*
X76296872Y-61892924D01*
X76233315Y-61861286D01*
X76196952Y-61800308D01*
X76199329Y-61729352D01*
X76239690Y-61670944D01*
X76285080Y-61647520D01*
X76366463Y-61624798D01*
X76371967Y-61622018D01*
X76371969Y-61622017D01*
X76537495Y-61538404D01*
X76537497Y-61538403D01*
X76542996Y-61535625D01*
X76698847Y-61413861D01*
X76828078Y-61264145D01*
X76925769Y-61092179D01*
X76988197Y-60904513D01*
X76991219Y-60880592D01*
X77019601Y-60815516D01*
X77078661Y-60776115D01*
X77149648Y-60774899D01*
X77205320Y-60807290D01*
G37*
%TD.AperFunction*%
%TA.AperFunction,Conductor*%
G36*
X58875553Y-53888502D02*
G01*
X58922046Y-53942158D01*
X58932150Y-54012432D01*
X58925415Y-54038726D01*
X58887755Y-54139184D01*
X58881000Y-54201366D01*
X58881000Y-54298634D01*
X58887755Y-54360816D01*
X58938885Y-54497205D01*
X59026239Y-54613761D01*
X59142795Y-54701115D01*
X59279184Y-54752245D01*
X59341366Y-54759000D01*
X59438634Y-54759000D01*
X59500816Y-54752245D01*
X59637205Y-54701115D01*
X59753761Y-54613761D01*
X59841115Y-54497205D01*
X59892245Y-54360816D01*
X59899000Y-54298634D01*
X59899000Y-54201366D01*
X59892245Y-54139184D01*
X59854586Y-54038729D01*
X59849403Y-53967923D01*
X59883324Y-53905554D01*
X59945579Y-53871424D01*
X59972568Y-53868500D01*
X70674340Y-53868500D01*
X70742461Y-53888502D01*
X70763435Y-53905405D01*
X72087251Y-55229222D01*
X72121277Y-55291534D01*
X72121915Y-55341231D01*
X72120989Y-55344570D01*
X72097251Y-55566695D01*
X72097548Y-55571848D01*
X72097548Y-55571851D01*
X72105611Y-55711695D01*
X72110110Y-55789715D01*
X72111247Y-55794761D01*
X72111248Y-55794767D01*
X72128680Y-55872115D01*
X72159222Y-56007639D01*
X72243266Y-56214616D01*
X72245965Y-56219020D01*
X72334821Y-56364020D01*
X72359987Y-56405088D01*
X72506250Y-56573938D01*
X72678126Y-56716632D01*
X72871000Y-56829338D01*
X73079692Y-56909030D01*
X73084760Y-56910061D01*
X73084763Y-56910062D01*
X73168413Y-56927081D01*
X73231178Y-56960263D01*
X73266040Y-57022110D01*
X73261931Y-57092988D01*
X73220154Y-57150392D01*
X73178867Y-57171424D01*
X73119853Y-57188793D01*
X73086296Y-57198669D01*
X73086295Y-57198670D01*
X73080381Y-57200410D01*
X73074923Y-57203263D01*
X73074919Y-57203265D01*
X72984147Y-57250720D01*
X72905110Y-57292040D01*
X72750975Y-57415968D01*
X72623846Y-57567474D01*
X72620879Y-57572872D01*
X72620875Y-57572877D01*
X72542095Y-57716180D01*
X72528567Y-57740787D01*
X72526706Y-57746654D01*
X72526705Y-57746656D01*
X72485818Y-57875548D01*
X72468765Y-57929306D01*
X72446719Y-58125851D01*
X72463268Y-58322934D01*
X72482248Y-58389124D01*
X72503365Y-58462767D01*
X72517783Y-58513050D01*
X72535523Y-58547568D01*
X72554887Y-58585246D01*
X72568234Y-58654977D01*
X72541764Y-58720854D01*
X72487358Y-58760706D01*
X72469344Y-58767513D01*
X72463083Y-58771816D01*
X72460717Y-58773053D01*
X72445937Y-58781280D01*
X72443652Y-58782631D01*
X72436695Y-58785685D01*
X72430675Y-58790305D01*
X72430669Y-58790308D01*
X72399542Y-58814194D01*
X72385998Y-58824587D01*
X72380668Y-58828459D01*
X72334280Y-58860339D01*
X72334275Y-58860344D01*
X72328019Y-58864643D01*
X72322968Y-58870313D01*
X72322966Y-58870314D01*
X72286565Y-58911170D01*
X72281584Y-58916446D01*
X62453435Y-68744595D01*
X62391123Y-68778621D01*
X62364340Y-68781500D01*
X61774500Y-68781500D01*
X61706379Y-68761498D01*
X61659886Y-68707842D01*
X61648500Y-68655500D01*
X61648500Y-68591866D01*
X61641745Y-68529684D01*
X61590615Y-68393295D01*
X61517058Y-68295148D01*
X61492210Y-68228642D01*
X61507263Y-68159259D01*
X61517058Y-68144018D01*
X61584786Y-68053649D01*
X61593324Y-68038054D01*
X61638478Y-67917606D01*
X61642105Y-67902351D01*
X61647631Y-67851486D01*
X61648000Y-67844672D01*
X61648000Y-67222115D01*
X61643525Y-67206876D01*
X61642135Y-67205671D01*
X61634452Y-67204000D01*
X59262000Y-67204000D01*
X59193879Y-67183998D01*
X59147386Y-67130342D01*
X59136000Y-67078000D01*
X59136000Y-66822000D01*
X59156002Y-66753879D01*
X59209658Y-66707386D01*
X59262000Y-66696000D01*
X61629884Y-66696000D01*
X61645123Y-66691525D01*
X61646328Y-66690135D01*
X61647999Y-66682452D01*
X61647999Y-66055331D01*
X61647629Y-66048510D01*
X61642105Y-65997648D01*
X61638479Y-65982396D01*
X61593324Y-65861946D01*
X61584786Y-65846351D01*
X61517058Y-65755982D01*
X61492210Y-65689475D01*
X61507263Y-65620093D01*
X61517058Y-65604852D01*
X61547765Y-65563879D01*
X61590615Y-65506705D01*
X61641745Y-65370316D01*
X61648500Y-65308134D01*
X61648500Y-63511866D01*
X61641745Y-63449684D01*
X61590615Y-63313295D01*
X61517370Y-63215564D01*
X61492522Y-63149059D01*
X61507575Y-63079676D01*
X61517370Y-63064435D01*
X61590615Y-62966705D01*
X61641745Y-62830316D01*
X61648500Y-62768134D01*
X61648500Y-62704500D01*
X61668502Y-62636379D01*
X61722158Y-62589886D01*
X61774500Y-62578500D01*
X62162223Y-62578500D01*
X62186360Y-62582193D01*
X62186573Y-62581045D01*
X62205479Y-62584549D01*
X62219253Y-62587102D01*
X62234598Y-62590956D01*
X62259028Y-62598753D01*
X62259032Y-62598754D01*
X62266265Y-62601062D01*
X62273844Y-62601579D01*
X62273846Y-62601579D01*
X62303802Y-62603621D01*
X62318193Y-62605439D01*
X62347718Y-62610911D01*
X62355186Y-62612295D01*
X62362765Y-62611858D01*
X62362766Y-62611858D01*
X62368166Y-62611546D01*
X62388376Y-62610381D01*
X62404189Y-62610464D01*
X62437352Y-62612725D01*
X62444828Y-62611420D01*
X62444834Y-62611420D01*
X62474417Y-62606257D01*
X62488824Y-62604590D01*
X62498992Y-62604004D01*
X62526385Y-62602424D01*
X62558149Y-62592652D01*
X62573537Y-62588958D01*
X62598800Y-62584549D01*
X62598799Y-62584549D01*
X62606284Y-62583243D01*
X62613238Y-62580190D01*
X62613246Y-62580188D01*
X62640742Y-62568118D01*
X62654338Y-62563061D01*
X62690289Y-62552001D01*
X62696809Y-62548099D01*
X62718803Y-62534936D01*
X62732863Y-62527679D01*
X62756345Y-62517371D01*
X62756350Y-62517368D01*
X62763305Y-62514315D01*
X62793169Y-62491400D01*
X62805143Y-62483262D01*
X62837434Y-62463936D01*
X62846548Y-62454917D01*
X62865955Y-62435712D01*
X62866953Y-62434782D01*
X62867959Y-62434011D01*
X62894649Y-62407321D01*
X62895116Y-62406855D01*
X62956202Y-62346406D01*
X62956206Y-62346401D01*
X62959325Y-62343315D01*
X62960138Y-62341988D01*
X62961413Y-62340557D01*
X63731565Y-61570405D01*
X63793877Y-61536379D01*
X63820660Y-61533500D01*
X65290500Y-61533500D01*
X65358621Y-61553502D01*
X65405114Y-61607158D01*
X65416500Y-61659500D01*
X65416500Y-61723134D01*
X65423255Y-61785316D01*
X65474385Y-61921705D01*
X65561739Y-62038261D01*
X65678295Y-62125615D01*
X65814684Y-62176745D01*
X65876866Y-62183500D01*
X67673134Y-62183500D01*
X67735316Y-62176745D01*
X67871705Y-62125615D01*
X67988261Y-62038261D01*
X68075615Y-61921705D01*
X68126745Y-61785316D01*
X68133500Y-61723134D01*
X68133500Y-59926866D01*
X68126745Y-59864684D01*
X68075615Y-59728295D01*
X67988261Y-59611739D01*
X67871705Y-59524385D01*
X67752687Y-59479767D01*
X67695923Y-59437125D01*
X67671223Y-59370564D01*
X67686430Y-59301215D01*
X67707977Y-59272535D01*
X67809052Y-59171812D01*
X67815730Y-59163965D01*
X67940003Y-58991020D01*
X67945313Y-58982183D01*
X68039670Y-58791267D01*
X68043469Y-58781672D01*
X68105377Y-58577910D01*
X68107555Y-58567837D01*
X68108986Y-58556962D01*
X68106775Y-58542778D01*
X68093617Y-58539000D01*
X65458225Y-58539000D01*
X65444694Y-58542973D01*
X65443257Y-58552966D01*
X65473565Y-58687446D01*
X65476645Y-58697275D01*
X65556770Y-58894603D01*
X65561413Y-58903794D01*
X65672694Y-59085388D01*
X65678777Y-59093699D01*
X65818213Y-59254667D01*
X65825577Y-59261879D01*
X65830522Y-59265985D01*
X65870156Y-59324889D01*
X65871653Y-59395870D01*
X65834537Y-59456392D01*
X65794264Y-59480910D01*
X65686705Y-59521232D01*
X65686704Y-59521233D01*
X65678295Y-59524385D01*
X65561739Y-59611739D01*
X65474385Y-59728295D01*
X65423255Y-59864684D01*
X65416500Y-59926866D01*
X65416500Y-59990500D01*
X65396498Y-60058621D01*
X65342842Y-60105114D01*
X65290500Y-60116500D01*
X63503927Y-60116500D01*
X63495358Y-60116208D01*
X63445225Y-60112790D01*
X63445221Y-60112790D01*
X63437648Y-60112274D01*
X63374681Y-60123264D01*
X63368169Y-60124224D01*
X63304758Y-60131898D01*
X63297657Y-60134581D01*
X63295048Y-60135222D01*
X63278728Y-60139687D01*
X63276195Y-60140452D01*
X63268717Y-60141757D01*
X63210190Y-60167448D01*
X63204108Y-60169930D01*
X63183753Y-60177622D01*
X63151449Y-60189828D01*
X63151447Y-60189829D01*
X63144344Y-60192513D01*
X63138085Y-60196814D01*
X63135720Y-60198051D01*
X63120948Y-60206273D01*
X63118656Y-60207628D01*
X63111695Y-60210684D01*
X63105668Y-60215309D01*
X63105664Y-60215311D01*
X63060987Y-60249593D01*
X63055662Y-60253462D01*
X63027035Y-60273137D01*
X63011038Y-60284132D01*
X63003019Y-60289643D01*
X62997968Y-60295312D01*
X62997966Y-60295314D01*
X62961572Y-60336163D01*
X62956590Y-60341440D01*
X62173435Y-61124595D01*
X62111123Y-61158621D01*
X62084340Y-61161500D01*
X61774500Y-61161500D01*
X61706379Y-61141498D01*
X61659886Y-61087842D01*
X61648500Y-61035500D01*
X61648500Y-60971866D01*
X61641745Y-60909684D01*
X61590615Y-60773295D01*
X61517370Y-60675564D01*
X61492522Y-60609059D01*
X61507575Y-60539676D01*
X61517370Y-60524435D01*
X61590615Y-60426705D01*
X61641745Y-60290316D01*
X61648500Y-60228134D01*
X61648500Y-58431866D01*
X61641745Y-58369684D01*
X61590615Y-58233295D01*
X61517370Y-58135564D01*
X61492522Y-58069059D01*
X61507575Y-57999676D01*
X61517370Y-57984435D01*
X61590615Y-57886705D01*
X61641745Y-57750316D01*
X61648500Y-57688134D01*
X61648500Y-55891866D01*
X61641745Y-55829684D01*
X61597513Y-55711695D01*
X65412251Y-55711695D01*
X65412548Y-55716848D01*
X65412548Y-55716851D01*
X65422639Y-55891866D01*
X65425110Y-55934715D01*
X65426247Y-55939761D01*
X65426248Y-55939767D01*
X65440408Y-56002596D01*
X65474222Y-56152639D01*
X65558266Y-56359616D01*
X65674987Y-56550088D01*
X65821250Y-56718938D01*
X65993126Y-56861632D01*
X66020189Y-56877446D01*
X66066955Y-56904774D01*
X66115679Y-56956412D01*
X66128750Y-57026195D01*
X66102019Y-57091967D01*
X66061562Y-57125327D01*
X66053457Y-57129546D01*
X66044738Y-57135036D01*
X65874433Y-57262905D01*
X65866726Y-57269748D01*
X65719590Y-57423717D01*
X65713104Y-57431727D01*
X65593098Y-57607649D01*
X65588000Y-57616623D01*
X65498338Y-57809783D01*
X65494775Y-57819470D01*
X65439389Y-58019183D01*
X65440912Y-58027607D01*
X65453292Y-58031000D01*
X68093344Y-58031000D01*
X68106875Y-58027027D01*
X68108180Y-58017947D01*
X68066214Y-57850875D01*
X68062894Y-57841124D01*
X67977972Y-57645814D01*
X67973105Y-57636739D01*
X67857426Y-57457926D01*
X67851136Y-57449757D01*
X67707806Y-57292240D01*
X67700273Y-57285215D01*
X67533139Y-57153222D01*
X67524556Y-57147520D01*
X67487602Y-57127120D01*
X67437631Y-57076687D01*
X67422859Y-57007245D01*
X67447975Y-56940839D01*
X67475327Y-56914232D01*
X67531750Y-56873986D01*
X67654860Y-56786173D01*
X67670191Y-56770896D01*
X67797359Y-56644171D01*
X67813096Y-56628489D01*
X67872594Y-56545689D01*
X67940435Y-56451277D01*
X67943453Y-56447077D01*
X68042430Y-56246811D01*
X68107370Y-56033069D01*
X68136529Y-55811590D01*
X68136940Y-55794767D01*
X68138074Y-55748365D01*
X68138074Y-55748361D01*
X68138156Y-55745000D01*
X68119852Y-55522361D01*
X68065431Y-55305702D01*
X67976354Y-55100840D01*
X67855014Y-54913277D01*
X67704670Y-54748051D01*
X67700619Y-54744852D01*
X67700615Y-54744848D01*
X67533414Y-54612800D01*
X67533410Y-54612798D01*
X67529359Y-54609598D01*
X67333789Y-54501638D01*
X67328920Y-54499914D01*
X67328916Y-54499912D01*
X67128087Y-54428795D01*
X67128083Y-54428794D01*
X67123212Y-54427069D01*
X67118119Y-54426162D01*
X67118116Y-54426161D01*
X66908373Y-54388800D01*
X66908367Y-54388799D01*
X66903284Y-54387894D01*
X66829452Y-54386992D01*
X66685081Y-54385228D01*
X66685079Y-54385228D01*
X66679911Y-54385165D01*
X66459091Y-54418955D01*
X66246756Y-54488357D01*
X66216706Y-54504000D01*
X66074554Y-54578000D01*
X66048607Y-54591507D01*
X66044474Y-54594610D01*
X66044471Y-54594612D01*
X65897007Y-54705331D01*
X65869965Y-54725635D01*
X65715629Y-54887138D01*
X65589743Y-55071680D01*
X65552697Y-55151490D01*
X65522008Y-55217604D01*
X65495688Y-55274305D01*
X65435989Y-55489570D01*
X65412251Y-55711695D01*
X61597513Y-55711695D01*
X61590615Y-55693295D01*
X61503261Y-55576739D01*
X61386705Y-55489385D01*
X61250316Y-55438255D01*
X61188134Y-55431500D01*
X57591866Y-55431500D01*
X57529684Y-55438255D01*
X57393295Y-55489385D01*
X57276739Y-55576739D01*
X57189385Y-55693295D01*
X57138255Y-55829684D01*
X57131500Y-55891866D01*
X57131500Y-57688134D01*
X57138255Y-57750316D01*
X57189385Y-57886705D01*
X57262630Y-57984435D01*
X57287478Y-58050941D01*
X57272425Y-58120324D01*
X57262632Y-58135562D01*
X57189385Y-58233295D01*
X57138255Y-58369684D01*
X57131500Y-58431866D01*
X57131500Y-60228134D01*
X57138255Y-60290316D01*
X57189385Y-60426705D01*
X57262630Y-60524435D01*
X57287478Y-60590941D01*
X57272425Y-60660324D01*
X57262632Y-60675562D01*
X57189385Y-60773295D01*
X57138255Y-60909684D01*
X57131500Y-60971866D01*
X57131500Y-62768134D01*
X57138255Y-62830316D01*
X57189385Y-62966705D01*
X57262630Y-63064435D01*
X57287478Y-63130941D01*
X57272425Y-63200324D01*
X57262632Y-63215562D01*
X57189385Y-63313295D01*
X57138255Y-63449684D01*
X57131500Y-63511866D01*
X57131500Y-63591705D01*
X57111498Y-63659826D01*
X57057842Y-63706319D01*
X57034367Y-63712922D01*
X57034674Y-63714174D01*
X57027298Y-63715986D01*
X57019758Y-63716898D01*
X57012657Y-63719581D01*
X57010048Y-63720222D01*
X56993715Y-63724691D01*
X56991195Y-63725452D01*
X56983717Y-63726757D01*
X56976765Y-63729809D01*
X56976764Y-63729809D01*
X56925204Y-63752441D01*
X56919099Y-63754932D01*
X56866456Y-63774825D01*
X56866452Y-63774827D01*
X56859344Y-63777513D01*
X56853083Y-63781816D01*
X56850717Y-63783053D01*
X56835937Y-63791280D01*
X56833652Y-63792631D01*
X56826695Y-63795685D01*
X56820675Y-63800305D01*
X56820669Y-63800308D01*
X56789542Y-63824194D01*
X56775998Y-63834587D01*
X56770668Y-63838459D01*
X56724280Y-63870339D01*
X56724275Y-63870344D01*
X56718019Y-63874643D01*
X56712968Y-63880313D01*
X56712966Y-63880314D01*
X56676565Y-63921170D01*
X56671584Y-63926446D01*
X55019480Y-65578550D01*
X55013215Y-65584404D01*
X54969615Y-65622439D01*
X54935234Y-65671358D01*
X54932872Y-65674719D01*
X54928939Y-65680014D01*
X54889524Y-65730282D01*
X54886401Y-65737198D01*
X54885017Y-65739484D01*
X54876643Y-65754165D01*
X54875378Y-65756525D01*
X54871010Y-65762739D01*
X54868250Y-65769818D01*
X54868249Y-65769820D01*
X54847798Y-65822275D01*
X54845247Y-65828344D01*
X54818955Y-65886573D01*
X54817571Y-65894040D01*
X54816770Y-65896595D01*
X54812141Y-65912848D01*
X54811478Y-65915428D01*
X54808718Y-65922509D01*
X54807727Y-65930040D01*
X54807726Y-65930042D01*
X54800379Y-65985852D01*
X54799348Y-65992359D01*
X54787704Y-66055186D01*
X54788141Y-66062766D01*
X54788141Y-66062767D01*
X54791291Y-66117392D01*
X54791500Y-66124646D01*
X54791500Y-85971088D01*
X54791208Y-85979658D01*
X54787275Y-86037352D01*
X54788580Y-86044829D01*
X54788580Y-86044830D01*
X54798261Y-86100299D01*
X54799223Y-86106821D01*
X54806898Y-86170242D01*
X54809581Y-86177343D01*
X54810222Y-86179952D01*
X54814685Y-86196262D01*
X54815450Y-86198798D01*
X54816757Y-86206284D01*
X54819811Y-86213241D01*
X54842442Y-86264795D01*
X54844933Y-86270899D01*
X54867513Y-86330656D01*
X54871817Y-86336919D01*
X54873054Y-86339285D01*
X54881299Y-86354097D01*
X54882632Y-86356351D01*
X54885685Y-86363305D01*
X54890912Y-86370116D01*
X54924579Y-86413991D01*
X54928459Y-86419332D01*
X54960339Y-86465720D01*
X54960344Y-86465725D01*
X54964643Y-86471981D01*
X54970313Y-86477032D01*
X54970314Y-86477034D01*
X55011170Y-86513435D01*
X55016446Y-86518416D01*
X57078557Y-88580528D01*
X57084411Y-88586793D01*
X57113380Y-88620000D01*
X57122439Y-88630385D01*
X57174729Y-88667136D01*
X57179971Y-88671028D01*
X57230282Y-88710476D01*
X57237201Y-88713600D01*
X57239493Y-88714988D01*
X57254165Y-88723357D01*
X57256525Y-88724622D01*
X57262739Y-88728990D01*
X57269818Y-88731750D01*
X57269820Y-88731751D01*
X57311771Y-88748107D01*
X57367973Y-88791487D01*
X57391800Y-88858366D01*
X57375687Y-88927510D01*
X57324749Y-88976966D01*
X57266002Y-88991500D01*
X39845660Y-88991500D01*
X39777539Y-88971498D01*
X39756565Y-88954595D01*
X38000104Y-87198134D01*
X45701500Y-87198134D01*
X45708255Y-87260316D01*
X45759385Y-87396705D01*
X45846739Y-87513261D01*
X45963295Y-87600615D01*
X46099684Y-87651745D01*
X46161866Y-87658500D01*
X47958134Y-87658500D01*
X48020316Y-87651745D01*
X48156705Y-87600615D01*
X48254436Y-87527370D01*
X48320941Y-87502522D01*
X48390324Y-87517575D01*
X48405562Y-87527368D01*
X48503295Y-87600615D01*
X48639684Y-87651745D01*
X48701866Y-87658500D01*
X50498134Y-87658500D01*
X50560316Y-87651745D01*
X50696705Y-87600615D01*
X50794436Y-87527370D01*
X50860941Y-87502522D01*
X50930324Y-87517575D01*
X50945562Y-87527368D01*
X51043295Y-87600615D01*
X51179684Y-87651745D01*
X51241866Y-87658500D01*
X53038134Y-87658500D01*
X53100316Y-87651745D01*
X53236705Y-87600615D01*
X53353261Y-87513261D01*
X53440615Y-87396705D01*
X53491745Y-87260316D01*
X53498500Y-87198134D01*
X53498500Y-83601866D01*
X53491745Y-83539684D01*
X53440615Y-83403295D01*
X53353261Y-83286739D01*
X53236705Y-83199385D01*
X53100316Y-83148255D01*
X53038134Y-83141500D01*
X51241866Y-83141500D01*
X51179684Y-83148255D01*
X51043295Y-83199385D01*
X50945565Y-83272630D01*
X50879059Y-83297478D01*
X50809676Y-83282425D01*
X50794435Y-83272630D01*
X50696705Y-83199385D01*
X50560316Y-83148255D01*
X50498134Y-83141500D01*
X48701866Y-83141500D01*
X48639684Y-83148255D01*
X48503295Y-83199385D01*
X48405565Y-83272630D01*
X48339059Y-83297478D01*
X48269676Y-83282425D01*
X48254435Y-83272630D01*
X48156705Y-83199385D01*
X48020316Y-83148255D01*
X47958134Y-83141500D01*
X46161866Y-83141500D01*
X46099684Y-83148255D01*
X45963295Y-83199385D01*
X45846739Y-83286739D01*
X45759385Y-83403295D01*
X45708255Y-83539684D01*
X45701500Y-83601866D01*
X45701500Y-87198134D01*
X38000104Y-87198134D01*
X36845405Y-86043435D01*
X36811379Y-85981123D01*
X36808500Y-85954340D01*
X36808500Y-84985660D01*
X36828502Y-84917539D01*
X36845405Y-84896565D01*
X37336405Y-84405565D01*
X37398717Y-84371539D01*
X37469532Y-84376604D01*
X37526368Y-84419151D01*
X37551179Y-84485671D01*
X37551500Y-84494660D01*
X37551500Y-85628134D01*
X37558255Y-85690316D01*
X37609385Y-85826705D01*
X37696739Y-85943261D01*
X37813295Y-86030615D01*
X37949684Y-86081745D01*
X38011866Y-86088500D01*
X41608134Y-86088500D01*
X41670316Y-86081745D01*
X41806705Y-86030615D01*
X41923261Y-85943261D01*
X42010615Y-85826705D01*
X42061745Y-85690316D01*
X42068500Y-85628134D01*
X42068500Y-85564500D01*
X42088502Y-85496379D01*
X42142158Y-85449886D01*
X42194500Y-85438500D01*
X42441088Y-85438500D01*
X42449658Y-85438792D01*
X42499776Y-85442209D01*
X42499780Y-85442209D01*
X42507352Y-85442725D01*
X42514829Y-85441420D01*
X42514830Y-85441420D01*
X42541308Y-85436799D01*
X42570303Y-85431738D01*
X42576821Y-85430777D01*
X42640242Y-85423102D01*
X42647343Y-85420419D01*
X42649952Y-85419778D01*
X42666262Y-85415315D01*
X42668798Y-85414550D01*
X42676284Y-85413243D01*
X42734800Y-85387556D01*
X42740904Y-85385065D01*
X42793548Y-85365173D01*
X42793549Y-85365172D01*
X42800656Y-85362487D01*
X42806919Y-85358183D01*
X42809285Y-85356946D01*
X42824097Y-85348701D01*
X42826351Y-85347368D01*
X42833305Y-85344315D01*
X42884002Y-85305413D01*
X42889332Y-85301541D01*
X42935720Y-85269661D01*
X42935725Y-85269656D01*
X42941981Y-85265357D01*
X42983436Y-85218829D01*
X42988416Y-85213554D01*
X50980520Y-77221450D01*
X50986785Y-77215596D01*
X51003605Y-77200923D01*
X51030385Y-77177561D01*
X51067129Y-77125280D01*
X51071061Y-77119986D01*
X51105791Y-77075693D01*
X51110476Y-77069718D01*
X51113599Y-77062802D01*
X51114983Y-77060516D01*
X51123357Y-77045835D01*
X51124622Y-77043475D01*
X51128990Y-77037261D01*
X51152203Y-76977723D01*
X51154759Y-76971642D01*
X51158133Y-76964171D01*
X51181045Y-76913427D01*
X51182429Y-76905960D01*
X51183230Y-76903405D01*
X51187859Y-76887152D01*
X51188522Y-76884572D01*
X51191282Y-76877491D01*
X51199622Y-76814139D01*
X51200653Y-76807632D01*
X51202260Y-76798965D01*
X51212296Y-76744814D01*
X51208709Y-76682608D01*
X51208500Y-76675354D01*
X51208500Y-58845660D01*
X51228502Y-58777539D01*
X51245405Y-58756565D01*
X56096566Y-53905405D01*
X56158878Y-53871379D01*
X56185661Y-53868500D01*
X58807432Y-53868500D01*
X58875553Y-53888502D01*
G37*
%TD.AperFunction*%
%TA.AperFunction,Conductor*%
G36*
X43931776Y-34528502D02*
G01*
X43978269Y-34582158D01*
X43989655Y-34634346D01*
X43998446Y-41804000D01*
X44004769Y-46961105D01*
X44018157Y-46961154D01*
X44018158Y-46961154D01*
X51750049Y-46989270D01*
X55004769Y-47001105D01*
X54989651Y-34634653D01*
X55009570Y-34566509D01*
X55063169Y-34519950D01*
X55115651Y-34508500D01*
X82616000Y-34508500D01*
X82684121Y-34528502D01*
X82730614Y-34582158D01*
X82742000Y-34634500D01*
X82742000Y-34952885D01*
X82746475Y-34968124D01*
X82747865Y-34969329D01*
X82755548Y-34971000D01*
X85478000Y-34971000D01*
X85546121Y-34991002D01*
X85592614Y-35044658D01*
X85604000Y-35097000D01*
X85604000Y-36389884D01*
X85608475Y-36405123D01*
X85609865Y-36406328D01*
X85617548Y-36407999D01*
X87365500Y-36407999D01*
X87433621Y-36428001D01*
X87480114Y-36481657D01*
X87491500Y-36533999D01*
X87491500Y-36780500D01*
X87471498Y-36848621D01*
X87417842Y-36895114D01*
X87365500Y-36906500D01*
X83701866Y-36906500D01*
X83639684Y-36913255D01*
X83503295Y-36964385D01*
X83386739Y-37051739D01*
X83299385Y-37168295D01*
X83296233Y-37176704D01*
X83296232Y-37176705D01*
X83265108Y-37259729D01*
X83222467Y-37316494D01*
X83155905Y-37341194D01*
X83147126Y-37341500D01*
X77474600Y-37341500D01*
X77471354Y-37341837D01*
X77471350Y-37341837D01*
X77375692Y-37351762D01*
X77375688Y-37351763D01*
X77368834Y-37352474D01*
X77362298Y-37354655D01*
X77362296Y-37354655D01*
X77230194Y-37398728D01*
X77201054Y-37408450D01*
X77050652Y-37501522D01*
X77045479Y-37506704D01*
X76947835Y-37604518D01*
X76885552Y-37638597D01*
X76858662Y-37641500D01*
X72558498Y-37641500D01*
X72556050Y-37641693D01*
X72556042Y-37641693D01*
X72527579Y-37643933D01*
X72527574Y-37643934D01*
X72521169Y-37644438D01*
X72421231Y-37673472D01*
X72369012Y-37688643D01*
X72369010Y-37688644D01*
X72361399Y-37690855D01*
X72354572Y-37694892D01*
X72354573Y-37694892D01*
X72225020Y-37771509D01*
X72225017Y-37771511D01*
X72218193Y-37775547D01*
X72100547Y-37893193D01*
X72098294Y-37897002D01*
X72042004Y-37937655D01*
X71971112Y-37941506D01*
X71909391Y-37906418D01*
X71902724Y-37898724D01*
X71899453Y-37893193D01*
X71781807Y-37775547D01*
X71774983Y-37771511D01*
X71774980Y-37771509D01*
X71645427Y-37694892D01*
X71645428Y-37694892D01*
X71638601Y-37690855D01*
X71630990Y-37688644D01*
X71630988Y-37688643D01*
X71578769Y-37673472D01*
X71478831Y-37644438D01*
X71472426Y-37643934D01*
X71472421Y-37643933D01*
X71443958Y-37641693D01*
X71443950Y-37641693D01*
X71441502Y-37641500D01*
X71164783Y-37641500D01*
X71121688Y-37633901D01*
X71060434Y-37611606D01*
X71060433Y-37611606D01*
X71053815Y-37609197D01*
X70913731Y-37591500D01*
X67165683Y-37591500D01*
X67097562Y-37571498D01*
X67073984Y-37550145D01*
X67073478Y-37550652D01*
X66953483Y-37430866D01*
X66948303Y-37425695D01*
X66916566Y-37406132D01*
X66803968Y-37336725D01*
X66803966Y-37336724D01*
X66797738Y-37332885D01*
X66653079Y-37284904D01*
X66636389Y-37279368D01*
X66636387Y-37279368D01*
X66629861Y-37277203D01*
X66623025Y-37276503D01*
X66623022Y-37276502D01*
X66579969Y-37272091D01*
X66525400Y-37266500D01*
X66099582Y-37266500D01*
X66031461Y-37246498D01*
X66010487Y-37229595D01*
X64725561Y-35944669D01*
X82742001Y-35944669D01*
X82742371Y-35951490D01*
X82747895Y-36002352D01*
X82751521Y-36017604D01*
X82796676Y-36138054D01*
X82805214Y-36153649D01*
X82881715Y-36255724D01*
X82894276Y-36268285D01*
X82996351Y-36344786D01*
X83011946Y-36353324D01*
X83132394Y-36398478D01*
X83147649Y-36402105D01*
X83198514Y-36407631D01*
X83205328Y-36408000D01*
X85077885Y-36408000D01*
X85093124Y-36403525D01*
X85094329Y-36402135D01*
X85096000Y-36394452D01*
X85096000Y-35497115D01*
X85091525Y-35481876D01*
X85090135Y-35480671D01*
X85082452Y-35479000D01*
X82760116Y-35479000D01*
X82744877Y-35483475D01*
X82743672Y-35484865D01*
X82742001Y-35492548D01*
X82742001Y-35944669D01*
X64725561Y-35944669D01*
X64685734Y-35904842D01*
X64684806Y-35903905D01*
X64626657Y-35844525D01*
X64626656Y-35844524D01*
X64621729Y-35839493D01*
X64585279Y-35816002D01*
X64574954Y-35808583D01*
X64541057Y-35781524D01*
X64510862Y-35766927D01*
X64497445Y-35759398D01*
X64469262Y-35741235D01*
X64462645Y-35738827D01*
X64462640Y-35738824D01*
X64428527Y-35726408D01*
X64416784Y-35721447D01*
X64384097Y-35705646D01*
X64384092Y-35705644D01*
X64377751Y-35702579D01*
X64370893Y-35700996D01*
X64370891Y-35700995D01*
X64345074Y-35695035D01*
X64330331Y-35690668D01*
X64298815Y-35679197D01*
X64291825Y-35678314D01*
X64291817Y-35678312D01*
X64255799Y-35673762D01*
X64243247Y-35671526D01*
X64207886Y-35663362D01*
X64207883Y-35663362D01*
X64201015Y-35661776D01*
X64193969Y-35661751D01*
X64193966Y-35661751D01*
X64160444Y-35661634D01*
X64159562Y-35661605D01*
X64158731Y-35661500D01*
X64122081Y-35661500D01*
X64121641Y-35661499D01*
X64023157Y-35661155D01*
X64023152Y-35661155D01*
X64019630Y-35661143D01*
X64018430Y-35661411D01*
X64016793Y-35661500D01*
X61771291Y-35661500D01*
X61703170Y-35641498D01*
X61656677Y-35587842D01*
X61646028Y-35549108D01*
X61642598Y-35517540D01*
X61641745Y-35509684D01*
X61590615Y-35373295D01*
X61503261Y-35256739D01*
X61386705Y-35169385D01*
X61250316Y-35118255D01*
X61188134Y-35111500D01*
X57591866Y-35111500D01*
X57529684Y-35118255D01*
X57393295Y-35169385D01*
X57276739Y-35256739D01*
X57189385Y-35373295D01*
X57138255Y-35509684D01*
X57131500Y-35571866D01*
X57131500Y-37368134D01*
X57138255Y-37430316D01*
X57189385Y-37566705D01*
X57247643Y-37644438D01*
X57262630Y-37664435D01*
X57287478Y-37730941D01*
X57272425Y-37800324D01*
X57262632Y-37815562D01*
X57189385Y-37913295D01*
X57138255Y-38049684D01*
X57131500Y-38111866D01*
X57131500Y-39908134D01*
X57138255Y-39970316D01*
X57189385Y-40106705D01*
X57220719Y-40148514D01*
X57262942Y-40204852D01*
X57287790Y-40271358D01*
X57272737Y-40340741D01*
X57262942Y-40355982D01*
X57195214Y-40446351D01*
X57186676Y-40461946D01*
X57141522Y-40582394D01*
X57137895Y-40597649D01*
X57132369Y-40648514D01*
X57132000Y-40655328D01*
X57132000Y-41277885D01*
X57136475Y-41293124D01*
X57137865Y-41294329D01*
X57145548Y-41296000D01*
X61629884Y-41296000D01*
X61645123Y-41291525D01*
X61646328Y-41290135D01*
X61647999Y-41282452D01*
X61647999Y-40822095D01*
X64767001Y-40822095D01*
X64767338Y-40828614D01*
X64777257Y-40924206D01*
X64780149Y-40937600D01*
X64831588Y-41091784D01*
X64837761Y-41104962D01*
X64923063Y-41242807D01*
X64932099Y-41254208D01*
X65046829Y-41368739D01*
X65058240Y-41377751D01*
X65196243Y-41462816D01*
X65209424Y-41468963D01*
X65363710Y-41520138D01*
X65377086Y-41523005D01*
X65471438Y-41532672D01*
X65477854Y-41533000D01*
X65727885Y-41533000D01*
X65743124Y-41528525D01*
X65744329Y-41527135D01*
X65746000Y-41519452D01*
X65746000Y-41514884D01*
X66254000Y-41514884D01*
X66258475Y-41530123D01*
X66259865Y-41531328D01*
X66267548Y-41532999D01*
X66522095Y-41532999D01*
X66528614Y-41532662D01*
X66624206Y-41522743D01*
X66637600Y-41519851D01*
X66791784Y-41468412D01*
X66804962Y-41462239D01*
X66942807Y-41376937D01*
X66954208Y-41367901D01*
X67068739Y-41253171D01*
X67077751Y-41241760D01*
X67162816Y-41103757D01*
X67168963Y-41090576D01*
X67220138Y-40936290D01*
X67223005Y-40922914D01*
X67232672Y-40828562D01*
X67233000Y-40822146D01*
X67233000Y-40709615D01*
X67228525Y-40694376D01*
X67227135Y-40693171D01*
X67219452Y-40691500D01*
X66272115Y-40691500D01*
X66256876Y-40695975D01*
X66255671Y-40697365D01*
X66254000Y-40705048D01*
X66254000Y-41514884D01*
X65746000Y-41514884D01*
X65746000Y-40709615D01*
X65741525Y-40694376D01*
X65740135Y-40693171D01*
X65732452Y-40691500D01*
X64785116Y-40691500D01*
X64769877Y-40695975D01*
X64768672Y-40697365D01*
X64767001Y-40705048D01*
X64767001Y-40822095D01*
X61647999Y-40822095D01*
X61647999Y-40655331D01*
X61647629Y-40648510D01*
X61642105Y-40597648D01*
X61638479Y-40582396D01*
X61593324Y-40461946D01*
X61584786Y-40446351D01*
X61517058Y-40355982D01*
X61492210Y-40289475D01*
X61507263Y-40220093D01*
X61517058Y-40204852D01*
X61559281Y-40148514D01*
X61590615Y-40106705D01*
X61641745Y-39970316D01*
X61648500Y-39908134D01*
X61648500Y-38111866D01*
X61641745Y-38049684D01*
X61590615Y-37913295D01*
X61517370Y-37815564D01*
X61492522Y-37749059D01*
X61507575Y-37679676D01*
X61517370Y-37664435D01*
X61532357Y-37644438D01*
X61590615Y-37566705D01*
X61641745Y-37430316D01*
X61646028Y-37390892D01*
X61673270Y-37325330D01*
X61731634Y-37284904D01*
X61771291Y-37278500D01*
X63720418Y-37278500D01*
X63788539Y-37298502D01*
X63809513Y-37315405D01*
X64729595Y-38235487D01*
X64763621Y-38297799D01*
X64766500Y-38324582D01*
X64766500Y-38750400D01*
X64766837Y-38753646D01*
X64766837Y-38753650D01*
X64775825Y-38840271D01*
X64777474Y-38856166D01*
X64779655Y-38862702D01*
X64779655Y-38862704D01*
X64805073Y-38938891D01*
X64833450Y-39023946D01*
X64926522Y-39174348D01*
X65051697Y-39299305D01*
X65056235Y-39302102D01*
X65096824Y-39359353D01*
X65100054Y-39430276D01*
X65064428Y-39491687D01*
X65055932Y-39499062D01*
X65045793Y-39507098D01*
X64931261Y-39621829D01*
X64922249Y-39633240D01*
X64837184Y-39771243D01*
X64831037Y-39784424D01*
X64779862Y-39938710D01*
X64776995Y-39952086D01*
X64767328Y-40046438D01*
X64767000Y-40052855D01*
X64767000Y-40165385D01*
X64771475Y-40180624D01*
X64772865Y-40181829D01*
X64780548Y-40183500D01*
X67214884Y-40183500D01*
X67230123Y-40179025D01*
X67231328Y-40177635D01*
X67232999Y-40169952D01*
X67232999Y-40052905D01*
X67232662Y-40046386D01*
X67222743Y-39950794D01*
X67219851Y-39937400D01*
X67168412Y-39783216D01*
X67162239Y-39770038D01*
X67076937Y-39632193D01*
X67067901Y-39620792D01*
X66953172Y-39506262D01*
X66944238Y-39499206D01*
X66903177Y-39441288D01*
X66899947Y-39370365D01*
X66935574Y-39308954D01*
X66943407Y-39302154D01*
X66949348Y-39298478D01*
X66969289Y-39278502D01*
X67002252Y-39245482D01*
X67064535Y-39211403D01*
X67091425Y-39208500D01*
X70066246Y-39208500D01*
X70101398Y-39213503D01*
X70239989Y-39253767D01*
X70239993Y-39253768D01*
X70246169Y-39255562D01*
X70252574Y-39256066D01*
X70252579Y-39256067D01*
X70281042Y-39258307D01*
X70281050Y-39258307D01*
X70283498Y-39258500D01*
X71441502Y-39258500D01*
X71443950Y-39258307D01*
X71443958Y-39258307D01*
X71472421Y-39256067D01*
X71472426Y-39256066D01*
X71478831Y-39255562D01*
X71623601Y-39213503D01*
X71630988Y-39211357D01*
X71630990Y-39211356D01*
X71638601Y-39209145D01*
X71715703Y-39163547D01*
X71779842Y-39146000D01*
X72011878Y-39146000D01*
X72027116Y-39141526D01*
X72035268Y-39132118D01*
X72094994Y-39093734D01*
X72165990Y-39093734D01*
X72207720Y-39115071D01*
X72212585Y-39118845D01*
X72218193Y-39124453D01*
X72225017Y-39128489D01*
X72225020Y-39128491D01*
X72303756Y-39175055D01*
X72361399Y-39209145D01*
X72369010Y-39211356D01*
X72369012Y-39211357D01*
X72376399Y-39213503D01*
X72521169Y-39255562D01*
X72527574Y-39256066D01*
X72527579Y-39256067D01*
X72556042Y-39258307D01*
X72556050Y-39258307D01*
X72558498Y-39258500D01*
X76883563Y-39258500D01*
X76951684Y-39278502D01*
X76972581Y-39295327D01*
X77051697Y-39374305D01*
X77056235Y-39377102D01*
X77096824Y-39434353D01*
X77100054Y-39505276D01*
X77064428Y-39566687D01*
X77055932Y-39574062D01*
X77045793Y-39582098D01*
X76931261Y-39696829D01*
X76922249Y-39708240D01*
X76837184Y-39846243D01*
X76831037Y-39859424D01*
X76779862Y-40013710D01*
X76776995Y-40027086D01*
X76767328Y-40121438D01*
X76767000Y-40127855D01*
X76767000Y-40240385D01*
X76771475Y-40255624D01*
X76772865Y-40256829D01*
X76780548Y-40258500D01*
X79214884Y-40258500D01*
X79230123Y-40254025D01*
X79231328Y-40252635D01*
X79232999Y-40244952D01*
X79232999Y-40127905D01*
X79232662Y-40121386D01*
X79222743Y-40025794D01*
X79219851Y-40012400D01*
X79168412Y-39858216D01*
X79162239Y-39845038D01*
X79076937Y-39707193D01*
X79067901Y-39695792D01*
X78953172Y-39581262D01*
X78944238Y-39574206D01*
X78903177Y-39516288D01*
X78899947Y-39445365D01*
X78935574Y-39383954D01*
X78943407Y-39377154D01*
X78949348Y-39373478D01*
X79074305Y-39248303D01*
X79097079Y-39211357D01*
X79163275Y-39103968D01*
X79163276Y-39103966D01*
X79167115Y-39097738D01*
X79222797Y-38929861D01*
X79228761Y-38871656D01*
X79255603Y-38805929D01*
X79313718Y-38765148D01*
X79354105Y-38758500D01*
X83147126Y-38758500D01*
X83215247Y-38778502D01*
X83261740Y-38832158D01*
X83265107Y-38840268D01*
X83299385Y-38931705D01*
X83386739Y-39048261D01*
X83503295Y-39135615D01*
X83639684Y-39186745D01*
X83701866Y-39193500D01*
X87365500Y-39193500D01*
X87433621Y-39213502D01*
X87480114Y-39267158D01*
X87491500Y-39319500D01*
X87491500Y-39566000D01*
X87471498Y-39634121D01*
X87417842Y-39680614D01*
X87365500Y-39692000D01*
X85622115Y-39692000D01*
X85606876Y-39696475D01*
X85605671Y-39697865D01*
X85604000Y-39705548D01*
X85604000Y-42039884D01*
X85608475Y-42055123D01*
X85609865Y-42056328D01*
X85617548Y-42057999D01*
X87365500Y-42057999D01*
X87433621Y-42078001D01*
X87480114Y-42131657D01*
X87491500Y-42183999D01*
X87491500Y-52086000D01*
X87471498Y-52154121D01*
X87417842Y-52200614D01*
X87365500Y-52212000D01*
X85602115Y-52212000D01*
X85586876Y-52216475D01*
X85585671Y-52217865D01*
X85584000Y-52225548D01*
X85584000Y-54559884D01*
X85588475Y-54575123D01*
X85589865Y-54576328D01*
X85597548Y-54577999D01*
X87365500Y-54577999D01*
X87433621Y-54598001D01*
X87480114Y-54651657D01*
X87491500Y-54703999D01*
X87491500Y-54950500D01*
X87471498Y-55018621D01*
X87417842Y-55065114D01*
X87365500Y-55076500D01*
X83681866Y-55076500D01*
X83619684Y-55083255D01*
X83483295Y-55134385D01*
X83366739Y-55221739D01*
X83279385Y-55338295D01*
X83276422Y-55346198D01*
X83226356Y-55396154D01*
X83166093Y-55411500D01*
X81607082Y-55411500D01*
X81538961Y-55391498D01*
X81517987Y-55374595D01*
X80258061Y-54114669D01*
X82722001Y-54114669D01*
X82722371Y-54121490D01*
X82727895Y-54172352D01*
X82731521Y-54187604D01*
X82776676Y-54308054D01*
X82785214Y-54323649D01*
X82861715Y-54425724D01*
X82874276Y-54438285D01*
X82976351Y-54514786D01*
X82991946Y-54523324D01*
X83112394Y-54568478D01*
X83127649Y-54572105D01*
X83178514Y-54577631D01*
X83185328Y-54578000D01*
X85057885Y-54578000D01*
X85073124Y-54573525D01*
X85074329Y-54572135D01*
X85076000Y-54564452D01*
X85076000Y-53667115D01*
X85071525Y-53651876D01*
X85070135Y-53650671D01*
X85062452Y-53649000D01*
X82740116Y-53649000D01*
X82724877Y-53653475D01*
X82723672Y-53654865D01*
X82722001Y-53662548D01*
X82722001Y-54114669D01*
X80258061Y-54114669D01*
X79266277Y-53122885D01*
X82722000Y-53122885D01*
X82726475Y-53138124D01*
X82727865Y-53139329D01*
X82735548Y-53141000D01*
X85057885Y-53141000D01*
X85073124Y-53136525D01*
X85074329Y-53135135D01*
X85076000Y-53127452D01*
X85076000Y-52230116D01*
X85071525Y-52214877D01*
X85070135Y-52213672D01*
X85062452Y-52212001D01*
X83185331Y-52212001D01*
X83178510Y-52212371D01*
X83127648Y-52217895D01*
X83112396Y-52221521D01*
X82991946Y-52266676D01*
X82976351Y-52275214D01*
X82874276Y-52351715D01*
X82861715Y-52364276D01*
X82785214Y-52466351D01*
X82776676Y-52481946D01*
X82731522Y-52602394D01*
X82727895Y-52617649D01*
X82722369Y-52668514D01*
X82722000Y-52675328D01*
X82722000Y-53122885D01*
X79266277Y-53122885D01*
X72208234Y-46064842D01*
X72207306Y-46063905D01*
X72149157Y-46004525D01*
X72149156Y-46004524D01*
X72144229Y-45999493D01*
X72107779Y-45976002D01*
X72097454Y-45968583D01*
X72063557Y-45941524D01*
X72033362Y-45926927D01*
X72019945Y-45919398D01*
X71991762Y-45901235D01*
X71985145Y-45898827D01*
X71985140Y-45898824D01*
X71951027Y-45886408D01*
X71939284Y-45881447D01*
X71906597Y-45865646D01*
X71906592Y-45865644D01*
X71900251Y-45862579D01*
X71893393Y-45860996D01*
X71893391Y-45860995D01*
X71867574Y-45855035D01*
X71852831Y-45850668D01*
X71821315Y-45839197D01*
X71814325Y-45838314D01*
X71814317Y-45838312D01*
X71778299Y-45833762D01*
X71765747Y-45831526D01*
X71730386Y-45823362D01*
X71730383Y-45823362D01*
X71723515Y-45821776D01*
X71716469Y-45821751D01*
X71716466Y-45821751D01*
X71682944Y-45821634D01*
X71682062Y-45821605D01*
X71681231Y-45821500D01*
X71644581Y-45821500D01*
X71644141Y-45821499D01*
X71545657Y-45821155D01*
X71545652Y-45821155D01*
X71542130Y-45821143D01*
X71540930Y-45821411D01*
X71539293Y-45821500D01*
X66888582Y-45821500D01*
X66820461Y-45801498D01*
X66773968Y-45747842D01*
X66763864Y-45677568D01*
X66793358Y-45612988D01*
X66799487Y-45606405D01*
X71210487Y-41195405D01*
X71272799Y-41161379D01*
X71299582Y-41158500D01*
X71441502Y-41158500D01*
X71443950Y-41158307D01*
X71443958Y-41158307D01*
X71472421Y-41156067D01*
X71472426Y-41156066D01*
X71478831Y-41155562D01*
X71578769Y-41126528D01*
X71630988Y-41111357D01*
X71630990Y-41111356D01*
X71638601Y-41109145D01*
X71669999Y-41090576D01*
X71774980Y-41028491D01*
X71774983Y-41028489D01*
X71781807Y-41024453D01*
X71899453Y-40906807D01*
X71901706Y-40902998D01*
X71957996Y-40862345D01*
X72028888Y-40858494D01*
X72090609Y-40893582D01*
X72097276Y-40901276D01*
X72100547Y-40906807D01*
X72218193Y-41024453D01*
X72225017Y-41028489D01*
X72225020Y-41028491D01*
X72330001Y-41090576D01*
X72361399Y-41109145D01*
X72369010Y-41111356D01*
X72369012Y-41111357D01*
X72421231Y-41126528D01*
X72521169Y-41155562D01*
X72527574Y-41156066D01*
X72527579Y-41156067D01*
X72556042Y-41158307D01*
X72556050Y-41158307D01*
X72558498Y-41158500D01*
X73716502Y-41158500D01*
X73718950Y-41158307D01*
X73718958Y-41158307D01*
X73747421Y-41156067D01*
X73747426Y-41156066D01*
X73753831Y-41155562D01*
X73853769Y-41126528D01*
X73905988Y-41111357D01*
X73905990Y-41111356D01*
X73913601Y-41109145D01*
X73944999Y-41090576D01*
X74049980Y-41028491D01*
X74049983Y-41028489D01*
X74056807Y-41024453D01*
X74174453Y-40906807D01*
X74178489Y-40899983D01*
X74178491Y-40899980D01*
X74180197Y-40897095D01*
X76767001Y-40897095D01*
X76767338Y-40903614D01*
X76777257Y-40999206D01*
X76780149Y-41012600D01*
X76831588Y-41166784D01*
X76837761Y-41179962D01*
X76923063Y-41317807D01*
X76932099Y-41329208D01*
X77046829Y-41443739D01*
X77058240Y-41452751D01*
X77196243Y-41537816D01*
X77209424Y-41543963D01*
X77363710Y-41595138D01*
X77377086Y-41598005D01*
X77471438Y-41607672D01*
X77477854Y-41608000D01*
X77727885Y-41608000D01*
X77743124Y-41603525D01*
X77744329Y-41602135D01*
X77746000Y-41594452D01*
X77746000Y-41589884D01*
X78254000Y-41589884D01*
X78258475Y-41605123D01*
X78259865Y-41606328D01*
X78267548Y-41607999D01*
X78522095Y-41607999D01*
X78528614Y-41607662D01*
X78624206Y-41597743D01*
X78637600Y-41594851D01*
X78638146Y-41594669D01*
X82742001Y-41594669D01*
X82742371Y-41601490D01*
X82747895Y-41652352D01*
X82751521Y-41667604D01*
X82796676Y-41788054D01*
X82805214Y-41803649D01*
X82881715Y-41905724D01*
X82894276Y-41918285D01*
X82996351Y-41994786D01*
X83011946Y-42003324D01*
X83132394Y-42048478D01*
X83147649Y-42052105D01*
X83198514Y-42057631D01*
X83205328Y-42058000D01*
X85077885Y-42058000D01*
X85093124Y-42053525D01*
X85094329Y-42052135D01*
X85096000Y-42044452D01*
X85096000Y-41147115D01*
X85091525Y-41131876D01*
X85090135Y-41130671D01*
X85082452Y-41129000D01*
X82760116Y-41129000D01*
X82744877Y-41133475D01*
X82743672Y-41134865D01*
X82742001Y-41142548D01*
X82742001Y-41594669D01*
X78638146Y-41594669D01*
X78791784Y-41543412D01*
X78804962Y-41537239D01*
X78942807Y-41451937D01*
X78954208Y-41442901D01*
X79068739Y-41328171D01*
X79077751Y-41316760D01*
X79162816Y-41178757D01*
X79168963Y-41165576D01*
X79220138Y-41011290D01*
X79223005Y-40997914D01*
X79232672Y-40903562D01*
X79233000Y-40897146D01*
X79233000Y-40784615D01*
X79228525Y-40769376D01*
X79227135Y-40768171D01*
X79219452Y-40766500D01*
X78272115Y-40766500D01*
X78256876Y-40770975D01*
X78255671Y-40772365D01*
X78254000Y-40780048D01*
X78254000Y-41589884D01*
X77746000Y-41589884D01*
X77746000Y-40784615D01*
X77741525Y-40769376D01*
X77740135Y-40768171D01*
X77732452Y-40766500D01*
X76785116Y-40766500D01*
X76769877Y-40770975D01*
X76768672Y-40772365D01*
X76767001Y-40780048D01*
X76767001Y-40897095D01*
X74180197Y-40897095D01*
X74255108Y-40770427D01*
X74259145Y-40763601D01*
X74305562Y-40603831D01*
X74305636Y-40602885D01*
X82742000Y-40602885D01*
X82746475Y-40618124D01*
X82747865Y-40619329D01*
X82755548Y-40621000D01*
X85077885Y-40621000D01*
X85093124Y-40616525D01*
X85094329Y-40615135D01*
X85096000Y-40607452D01*
X85096000Y-39710116D01*
X85091525Y-39694877D01*
X85090135Y-39693672D01*
X85082452Y-39692001D01*
X83205331Y-39692001D01*
X83198510Y-39692371D01*
X83147648Y-39697895D01*
X83132396Y-39701521D01*
X83011946Y-39746676D01*
X82996351Y-39755214D01*
X82894276Y-39831715D01*
X82881715Y-39844276D01*
X82805214Y-39946351D01*
X82796676Y-39961946D01*
X82751522Y-40082394D01*
X82747895Y-40097649D01*
X82742369Y-40148514D01*
X82742000Y-40155328D01*
X82742000Y-40602885D01*
X74305636Y-40602885D01*
X74307250Y-40582394D01*
X74308307Y-40568958D01*
X74308307Y-40568950D01*
X74308500Y-40566502D01*
X74308500Y-40133498D01*
X74306957Y-40113891D01*
X74306067Y-40102579D01*
X74306066Y-40102574D01*
X74305562Y-40096169D01*
X74266567Y-39961946D01*
X74261357Y-39944012D01*
X74261356Y-39944010D01*
X74259145Y-39936399D01*
X74205114Y-39845038D01*
X74178491Y-39800020D01*
X74178489Y-39800017D01*
X74174453Y-39793193D01*
X74056807Y-39675547D01*
X74049983Y-39671511D01*
X74049980Y-39671509D01*
X73920427Y-39594892D01*
X73920428Y-39594892D01*
X73913601Y-39590855D01*
X73905990Y-39588644D01*
X73905988Y-39588643D01*
X73830413Y-39566687D01*
X73753831Y-39544438D01*
X73747426Y-39543934D01*
X73747421Y-39543933D01*
X73718958Y-39541693D01*
X73718950Y-39541693D01*
X73716502Y-39541500D01*
X72558498Y-39541500D01*
X72556050Y-39541693D01*
X72556042Y-39541693D01*
X72527579Y-39543933D01*
X72527574Y-39543934D01*
X72521169Y-39544438D01*
X72444587Y-39566687D01*
X72369012Y-39588643D01*
X72369010Y-39588644D01*
X72361399Y-39590855D01*
X72218193Y-39675547D01*
X72212584Y-39681156D01*
X72207114Y-39685399D01*
X72141029Y-39711346D01*
X72071406Y-39697445D01*
X72029884Y-39659554D01*
X72017630Y-39654000D01*
X71779842Y-39654000D01*
X71715703Y-39636453D01*
X71645427Y-39594892D01*
X71645428Y-39594892D01*
X71638601Y-39590855D01*
X71630990Y-39588644D01*
X71630988Y-39588643D01*
X71555413Y-39566687D01*
X71478831Y-39544438D01*
X71472426Y-39543934D01*
X71472421Y-39543933D01*
X71443958Y-39541693D01*
X71443950Y-39541693D01*
X71441502Y-39541500D01*
X70283498Y-39541500D01*
X70281050Y-39541693D01*
X70281042Y-39541693D01*
X70252579Y-39543933D01*
X70252574Y-39543934D01*
X70246169Y-39544438D01*
X70169587Y-39566687D01*
X70094012Y-39588643D01*
X70094010Y-39588644D01*
X70086399Y-39590855D01*
X70079572Y-39594892D01*
X70079573Y-39594892D01*
X70009297Y-39636453D01*
X69945158Y-39654000D01*
X69713122Y-39654000D01*
X69699591Y-39657973D01*
X69698456Y-39665871D01*
X69739107Y-39805790D01*
X69747128Y-39824326D01*
X69755824Y-39894788D01*
X69747128Y-39924404D01*
X69744889Y-39929577D01*
X69740855Y-39936399D01*
X69738644Y-39944010D01*
X69738643Y-39944012D01*
X69733433Y-39961946D01*
X69694438Y-40096169D01*
X69693934Y-40102574D01*
X69693933Y-40102579D01*
X69693043Y-40113891D01*
X69691500Y-40133498D01*
X69691500Y-40375419D01*
X69671498Y-40443540D01*
X69654595Y-40464514D01*
X64334513Y-45784595D01*
X64272201Y-45818621D01*
X64245418Y-45821500D01*
X61771291Y-45821500D01*
X61703170Y-45801498D01*
X61656677Y-45747842D01*
X61646028Y-45709108D01*
X61642598Y-45677540D01*
X61641745Y-45669684D01*
X61590615Y-45533295D01*
X61517370Y-45435564D01*
X61492522Y-45369059D01*
X61507575Y-45299676D01*
X61517370Y-45284435D01*
X61585229Y-45193891D01*
X61590615Y-45186705D01*
X61641745Y-45050316D01*
X61648500Y-44988134D01*
X61648500Y-43191866D01*
X61641745Y-43129684D01*
X61590615Y-42993295D01*
X61517058Y-42895148D01*
X61492210Y-42828642D01*
X61507263Y-42759259D01*
X61517058Y-42744018D01*
X61584786Y-42653649D01*
X61593324Y-42638054D01*
X61638478Y-42517606D01*
X61642105Y-42502351D01*
X61647631Y-42451486D01*
X61648000Y-42444672D01*
X61648000Y-41822115D01*
X61643525Y-41806876D01*
X61642135Y-41805671D01*
X61634452Y-41804000D01*
X57150116Y-41804000D01*
X57134877Y-41808475D01*
X57133672Y-41809865D01*
X57132001Y-41817548D01*
X57132001Y-42444669D01*
X57132371Y-42451490D01*
X57137895Y-42502352D01*
X57141521Y-42517604D01*
X57186676Y-42638054D01*
X57195214Y-42653649D01*
X57262942Y-42744018D01*
X57287790Y-42810525D01*
X57272737Y-42879907D01*
X57262942Y-42895148D01*
X57189385Y-42993295D01*
X57138255Y-43129684D01*
X57131500Y-43191866D01*
X57131500Y-44988134D01*
X57138255Y-45050316D01*
X57189385Y-45186705D01*
X57194771Y-45193891D01*
X57262630Y-45284435D01*
X57287478Y-45350941D01*
X57272425Y-45420324D01*
X57262632Y-45435562D01*
X57189385Y-45533295D01*
X57138255Y-45669684D01*
X57131500Y-45731866D01*
X57131500Y-47528134D01*
X57138255Y-47590316D01*
X57189385Y-47726705D01*
X57194771Y-47733891D01*
X57262630Y-47824435D01*
X57287478Y-47890941D01*
X57272425Y-47960324D01*
X57262632Y-47975562D01*
X57189385Y-48073295D01*
X57138255Y-48209684D01*
X57131500Y-48271866D01*
X57131500Y-50068134D01*
X57138255Y-50130316D01*
X57189385Y-50266705D01*
X57194771Y-50273891D01*
X57262630Y-50364435D01*
X57287478Y-50430941D01*
X57272425Y-50500324D01*
X57262632Y-50515562D01*
X57189385Y-50613295D01*
X57138255Y-50749684D01*
X57131500Y-50811866D01*
X57131500Y-52325500D01*
X57111498Y-52393621D01*
X57057842Y-52440114D01*
X57005500Y-52451500D01*
X55868911Y-52451500D01*
X55860342Y-52451208D01*
X55810223Y-52447791D01*
X55810219Y-52447791D01*
X55802647Y-52447275D01*
X55739685Y-52458264D01*
X55733195Y-52459221D01*
X55669758Y-52466898D01*
X55662649Y-52469584D01*
X55660078Y-52470216D01*
X55643772Y-52474676D01*
X55641204Y-52475451D01*
X55633716Y-52476758D01*
X55598722Y-52492119D01*
X55575212Y-52502439D01*
X55569105Y-52504931D01*
X55561518Y-52507798D01*
X55509344Y-52527513D01*
X55503083Y-52531816D01*
X55500717Y-52533053D01*
X55485937Y-52541280D01*
X55483652Y-52542631D01*
X55476695Y-52545685D01*
X55470675Y-52550305D01*
X55470669Y-52550308D01*
X55439542Y-52574194D01*
X55425998Y-52584587D01*
X55420668Y-52588459D01*
X55374280Y-52620339D01*
X55374275Y-52620344D01*
X55368019Y-52624643D01*
X55362968Y-52630313D01*
X55362966Y-52630314D01*
X55326565Y-52671170D01*
X55321584Y-52676446D01*
X50019480Y-57978550D01*
X50013215Y-57984404D01*
X49969615Y-58022439D01*
X49943217Y-58060000D01*
X49932872Y-58074719D01*
X49928939Y-58080014D01*
X49889524Y-58130282D01*
X49886401Y-58137198D01*
X49885017Y-58139484D01*
X49876643Y-58154165D01*
X49875378Y-58156525D01*
X49871010Y-58162739D01*
X49868250Y-58169818D01*
X49868249Y-58169820D01*
X49847798Y-58222275D01*
X49845247Y-58228344D01*
X49818955Y-58286573D01*
X49817571Y-58294040D01*
X49816770Y-58296595D01*
X49812141Y-58312848D01*
X49811478Y-58315428D01*
X49808718Y-58322509D01*
X49807727Y-58330040D01*
X49807726Y-58330042D01*
X49800379Y-58385852D01*
X49799348Y-58392359D01*
X49787704Y-58455186D01*
X49788141Y-58462766D01*
X49788141Y-58462767D01*
X49791291Y-58517392D01*
X49791500Y-58524646D01*
X49791500Y-76354340D01*
X49771498Y-76422461D01*
X49754595Y-76443435D01*
X42283260Y-83914770D01*
X42220948Y-83948796D01*
X42150133Y-83943731D01*
X42093297Y-83901184D01*
X42068500Y-83832907D01*
X42068500Y-83831866D01*
X42061745Y-83769684D01*
X42010615Y-83633295D01*
X41937370Y-83535564D01*
X41912522Y-83469059D01*
X41927575Y-83399676D01*
X41937370Y-83384435D01*
X41953850Y-83362446D01*
X42010615Y-83286705D01*
X42061745Y-83150316D01*
X42068500Y-83088134D01*
X42068500Y-81291866D01*
X42061745Y-81229684D01*
X42010615Y-81093295D01*
X41940694Y-81000000D01*
X41937058Y-80995148D01*
X41912210Y-80928642D01*
X41927263Y-80859259D01*
X41937058Y-80844018D01*
X42004786Y-80753649D01*
X42013324Y-80738054D01*
X42058478Y-80617606D01*
X42062105Y-80602351D01*
X42067631Y-80551486D01*
X42068000Y-80544672D01*
X42068000Y-79922115D01*
X42063525Y-79906876D01*
X42062135Y-79905671D01*
X42054452Y-79904000D01*
X38226000Y-79904000D01*
X38157879Y-79883998D01*
X38111386Y-79830342D01*
X38100000Y-79778000D01*
X38100000Y-79522000D01*
X38120002Y-79453879D01*
X38173658Y-79407386D01*
X38226000Y-79396000D01*
X42049884Y-79396000D01*
X42065123Y-79391525D01*
X42066328Y-79390135D01*
X42067999Y-79382452D01*
X42067999Y-78755331D01*
X42067629Y-78748510D01*
X42062105Y-78697648D01*
X42058479Y-78682396D01*
X42013324Y-78561946D01*
X42004786Y-78546351D01*
X41937058Y-78455982D01*
X41912210Y-78389475D01*
X41927263Y-78320093D01*
X41937058Y-78304852D01*
X41971175Y-78259329D01*
X42010615Y-78206705D01*
X42061745Y-78070316D01*
X42068500Y-78008134D01*
X42068500Y-76211866D01*
X42061745Y-76149684D01*
X42010615Y-76013295D01*
X41937370Y-75915564D01*
X41912522Y-75849059D01*
X41927575Y-75779676D01*
X41937370Y-75764435D01*
X41964878Y-75727731D01*
X42010615Y-75666705D01*
X42061745Y-75530316D01*
X42068500Y-75468134D01*
X42068500Y-73671866D01*
X42061745Y-73609684D01*
X42010615Y-73473295D01*
X41937370Y-73375564D01*
X41912522Y-73309059D01*
X41927575Y-73239676D01*
X41937370Y-73224435D01*
X41964878Y-73187731D01*
X42010615Y-73126705D01*
X42061745Y-72990316D01*
X42068500Y-72928134D01*
X42068500Y-71131866D01*
X42061745Y-71069684D01*
X42010615Y-70933295D01*
X41937370Y-70835564D01*
X41912522Y-70769059D01*
X41927575Y-70699676D01*
X41937370Y-70684435D01*
X42010615Y-70586705D01*
X42061745Y-70450316D01*
X42068500Y-70388134D01*
X42068500Y-68591866D01*
X42061745Y-68529684D01*
X42010615Y-68393295D01*
X41937058Y-68295148D01*
X41912210Y-68228642D01*
X41927263Y-68159259D01*
X41937058Y-68144018D01*
X42004786Y-68053649D01*
X42013324Y-68038054D01*
X42058478Y-67917606D01*
X42062105Y-67902351D01*
X42067631Y-67851486D01*
X42068000Y-67844672D01*
X42068000Y-67222115D01*
X42063525Y-67206876D01*
X42062135Y-67205671D01*
X42054452Y-67204000D01*
X38226000Y-67204000D01*
X38157879Y-67183998D01*
X38111386Y-67130342D01*
X38100000Y-67078000D01*
X38100000Y-66822000D01*
X38120002Y-66753879D01*
X38173658Y-66707386D01*
X38226000Y-66696000D01*
X42049884Y-66696000D01*
X42065123Y-66691525D01*
X42066328Y-66690135D01*
X42067999Y-66682452D01*
X42067999Y-66055331D01*
X42067629Y-66048510D01*
X42062105Y-65997648D01*
X42058479Y-65982396D01*
X42013324Y-65861946D01*
X42004786Y-65846351D01*
X41937058Y-65755982D01*
X41912210Y-65689475D01*
X41927263Y-65620093D01*
X41937058Y-65604852D01*
X41967765Y-65563879D01*
X42010615Y-65506705D01*
X42061745Y-65370316D01*
X42068500Y-65308134D01*
X42068500Y-63511866D01*
X42061745Y-63449684D01*
X42010615Y-63313295D01*
X41937370Y-63215564D01*
X41912522Y-63149059D01*
X41927575Y-63079676D01*
X41937370Y-63064435D01*
X42010615Y-62966705D01*
X42061745Y-62830316D01*
X42068500Y-62768134D01*
X42068500Y-60971866D01*
X42061745Y-60909684D01*
X42010615Y-60773295D01*
X41937370Y-60675564D01*
X41912522Y-60609059D01*
X41927575Y-60539676D01*
X41937370Y-60524435D01*
X42010615Y-60426705D01*
X42061745Y-60290316D01*
X42068500Y-60228134D01*
X42068500Y-58431866D01*
X42061745Y-58369684D01*
X42010615Y-58233295D01*
X41937370Y-58135564D01*
X41912522Y-58069059D01*
X41927575Y-57999676D01*
X41937370Y-57984435D01*
X42010615Y-57886705D01*
X42061745Y-57750316D01*
X42068500Y-57688134D01*
X42068500Y-55891866D01*
X42061745Y-55829684D01*
X42010615Y-55693295D01*
X41937058Y-55595148D01*
X41912210Y-55528642D01*
X41927263Y-55459259D01*
X41937058Y-55444018D01*
X42004786Y-55353649D01*
X42013324Y-55338054D01*
X42058478Y-55217606D01*
X42062105Y-55202351D01*
X42067631Y-55151486D01*
X42068000Y-55144672D01*
X42068000Y-54522115D01*
X42063525Y-54506876D01*
X42062135Y-54505671D01*
X42054452Y-54504000D01*
X37570116Y-54504000D01*
X37554877Y-54508475D01*
X37553672Y-54509865D01*
X37552001Y-54517548D01*
X37552001Y-55144669D01*
X37552371Y-55151490D01*
X37557895Y-55202352D01*
X37561521Y-55217604D01*
X37606676Y-55338054D01*
X37615214Y-55353649D01*
X37682942Y-55444018D01*
X37707790Y-55510525D01*
X37692737Y-55579907D01*
X37682942Y-55595148D01*
X37609385Y-55693295D01*
X37558255Y-55829684D01*
X37551500Y-55891866D01*
X37551500Y-57688134D01*
X37558255Y-57750316D01*
X37609385Y-57886705D01*
X37682630Y-57984435D01*
X37707478Y-58050941D01*
X37692425Y-58120324D01*
X37682632Y-58135562D01*
X37609385Y-58233295D01*
X37558255Y-58369684D01*
X37551500Y-58431866D01*
X37551500Y-60228134D01*
X37558255Y-60290316D01*
X37609385Y-60426705D01*
X37682630Y-60524435D01*
X37707478Y-60590941D01*
X37692425Y-60660324D01*
X37682632Y-60675562D01*
X37609385Y-60773295D01*
X37558255Y-60909684D01*
X37551500Y-60971866D01*
X37551500Y-61035500D01*
X37531498Y-61103621D01*
X37477842Y-61150114D01*
X37425500Y-61161500D01*
X35558927Y-61161500D01*
X35550358Y-61161208D01*
X35500225Y-61157790D01*
X35500221Y-61157790D01*
X35492648Y-61157274D01*
X35429681Y-61168264D01*
X35423169Y-61169224D01*
X35359758Y-61176898D01*
X35352657Y-61179581D01*
X35350048Y-61180222D01*
X35333728Y-61184687D01*
X35331195Y-61185452D01*
X35323717Y-61186757D01*
X35265190Y-61212448D01*
X35259108Y-61214930D01*
X35238753Y-61222622D01*
X35206449Y-61234828D01*
X35206447Y-61234829D01*
X35199344Y-61237513D01*
X35193085Y-61241814D01*
X35190720Y-61243051D01*
X35175948Y-61251273D01*
X35173656Y-61252628D01*
X35166695Y-61255684D01*
X35160668Y-61260309D01*
X35160664Y-61260311D01*
X35115987Y-61294593D01*
X35110662Y-61298462D01*
X35058019Y-61334643D01*
X35052967Y-61340313D01*
X35052966Y-61340314D01*
X35016573Y-61381161D01*
X35011592Y-61386437D01*
X33761651Y-62636379D01*
X32723595Y-63674435D01*
X32661283Y-63708460D01*
X32590468Y-63703396D01*
X32533632Y-63660849D01*
X32508821Y-63594329D01*
X32508500Y-63585340D01*
X32508500Y-52608134D01*
X37551500Y-52608134D01*
X37558255Y-52670316D01*
X37609385Y-52806705D01*
X37614771Y-52813891D01*
X37682942Y-52904852D01*
X37707790Y-52971358D01*
X37692737Y-53040741D01*
X37682942Y-53055982D01*
X37615214Y-53146351D01*
X37606676Y-53161946D01*
X37561522Y-53282394D01*
X37557895Y-53297649D01*
X37552369Y-53348514D01*
X37552000Y-53355328D01*
X37552000Y-53977885D01*
X37556475Y-53993124D01*
X37557865Y-53994329D01*
X37565548Y-53996000D01*
X42049884Y-53996000D01*
X42065123Y-53991525D01*
X42066328Y-53990135D01*
X42067999Y-53982452D01*
X42067999Y-53355331D01*
X42067629Y-53348510D01*
X42062105Y-53297648D01*
X42058479Y-53282396D01*
X42013324Y-53161946D01*
X42004786Y-53146351D01*
X41937058Y-53055982D01*
X41912210Y-52989475D01*
X41927263Y-52920093D01*
X41937058Y-52904852D01*
X42005229Y-52813891D01*
X42010615Y-52806705D01*
X42061745Y-52670316D01*
X42068500Y-52608134D01*
X42068500Y-50811866D01*
X42061745Y-50749684D01*
X42010615Y-50613295D01*
X41937370Y-50515564D01*
X41912522Y-50449059D01*
X41927575Y-50379676D01*
X41937370Y-50364435D01*
X42005229Y-50273891D01*
X42010615Y-50266705D01*
X42061745Y-50130316D01*
X42068500Y-50068134D01*
X42068500Y-48271866D01*
X42061745Y-48209684D01*
X42010615Y-48073295D01*
X41937370Y-47975564D01*
X41912522Y-47909059D01*
X41927575Y-47839676D01*
X41937370Y-47824435D01*
X42005229Y-47733891D01*
X42010615Y-47726705D01*
X42061745Y-47590316D01*
X42068500Y-47528134D01*
X42068500Y-45731866D01*
X42061745Y-45669684D01*
X42010615Y-45533295D01*
X41937370Y-45435564D01*
X41912522Y-45369059D01*
X41927575Y-45299676D01*
X41937370Y-45284435D01*
X42005229Y-45193891D01*
X42010615Y-45186705D01*
X42061745Y-45050316D01*
X42068500Y-44988134D01*
X42068500Y-43191866D01*
X42061745Y-43129684D01*
X42010615Y-42993295D01*
X41937058Y-42895148D01*
X41912210Y-42828642D01*
X41927263Y-42759259D01*
X41937058Y-42744018D01*
X42004786Y-42653649D01*
X42013324Y-42638054D01*
X42058478Y-42517606D01*
X42062105Y-42502351D01*
X42067631Y-42451486D01*
X42068000Y-42444672D01*
X42068000Y-41822115D01*
X42063525Y-41806876D01*
X42062135Y-41805671D01*
X42054452Y-41804000D01*
X37570116Y-41804000D01*
X37554877Y-41808475D01*
X37553672Y-41809865D01*
X37552001Y-41817548D01*
X37552001Y-42444669D01*
X37552371Y-42451490D01*
X37557895Y-42502352D01*
X37561521Y-42517604D01*
X37606676Y-42638054D01*
X37615214Y-42653649D01*
X37682942Y-42744018D01*
X37707790Y-42810525D01*
X37692737Y-42879907D01*
X37682942Y-42895148D01*
X37609385Y-42993295D01*
X37558255Y-43129684D01*
X37551500Y-43191866D01*
X37551500Y-44988134D01*
X37558255Y-45050316D01*
X37609385Y-45186705D01*
X37614771Y-45193891D01*
X37682630Y-45284435D01*
X37707478Y-45350941D01*
X37692425Y-45420324D01*
X37682632Y-45435562D01*
X37609385Y-45533295D01*
X37558255Y-45669684D01*
X37551500Y-45731866D01*
X37551500Y-47528134D01*
X37558255Y-47590316D01*
X37609385Y-47726705D01*
X37614771Y-47733891D01*
X37682630Y-47824435D01*
X37707478Y-47890941D01*
X37692425Y-47960324D01*
X37682632Y-47975562D01*
X37609385Y-48073295D01*
X37558255Y-48209684D01*
X37551500Y-48271866D01*
X37551500Y-50068134D01*
X37558255Y-50130316D01*
X37609385Y-50266705D01*
X37614771Y-50273891D01*
X37682630Y-50364435D01*
X37707478Y-50430941D01*
X37692425Y-50500324D01*
X37682632Y-50515562D01*
X37609385Y-50613295D01*
X37558255Y-50749684D01*
X37551500Y-50811866D01*
X37551500Y-52608134D01*
X32508500Y-52608134D01*
X32508500Y-39908134D01*
X37551500Y-39908134D01*
X37558255Y-39970316D01*
X37609385Y-40106705D01*
X37640719Y-40148514D01*
X37682942Y-40204852D01*
X37707790Y-40271358D01*
X37692737Y-40340741D01*
X37682942Y-40355982D01*
X37615214Y-40446351D01*
X37606676Y-40461946D01*
X37561522Y-40582394D01*
X37557895Y-40597649D01*
X37552369Y-40648514D01*
X37552000Y-40655328D01*
X37552000Y-41277885D01*
X37556475Y-41293124D01*
X37557865Y-41294329D01*
X37565548Y-41296000D01*
X42049884Y-41296000D01*
X42065123Y-41291525D01*
X42066328Y-41290135D01*
X42067999Y-41282452D01*
X42067999Y-40655331D01*
X42067629Y-40648510D01*
X42062105Y-40597648D01*
X42058479Y-40582396D01*
X42013324Y-40461946D01*
X42004786Y-40446351D01*
X41937058Y-40355982D01*
X41912210Y-40289475D01*
X41927263Y-40220093D01*
X41937058Y-40204852D01*
X41979281Y-40148514D01*
X42010615Y-40106705D01*
X42061745Y-39970316D01*
X42068500Y-39908134D01*
X42068500Y-38111866D01*
X42061745Y-38049684D01*
X42010615Y-37913295D01*
X41937370Y-37815564D01*
X41912522Y-37749059D01*
X41927575Y-37679676D01*
X41937370Y-37664435D01*
X41952357Y-37644438D01*
X42010615Y-37566705D01*
X42061745Y-37430316D01*
X42068500Y-37368134D01*
X42068500Y-35571866D01*
X42061745Y-35509684D01*
X42010615Y-35373295D01*
X41923261Y-35256739D01*
X41806705Y-35169385D01*
X41670316Y-35118255D01*
X41608134Y-35111500D01*
X38011866Y-35111500D01*
X37949684Y-35118255D01*
X37813295Y-35169385D01*
X37696739Y-35256739D01*
X37609385Y-35373295D01*
X37558255Y-35509684D01*
X37551500Y-35571866D01*
X37551500Y-37368134D01*
X37558255Y-37430316D01*
X37609385Y-37566705D01*
X37667643Y-37644438D01*
X37682630Y-37664435D01*
X37707478Y-37730941D01*
X37692425Y-37800324D01*
X37682632Y-37815562D01*
X37609385Y-37913295D01*
X37558255Y-38049684D01*
X37551500Y-38111866D01*
X37551500Y-39908134D01*
X32508500Y-39908134D01*
X32508500Y-34634500D01*
X32528502Y-34566379D01*
X32582158Y-34519886D01*
X32634500Y-34508500D01*
X43863655Y-34508500D01*
X43931776Y-34528502D01*
G37*
%TD.AperFunction*%
%TA.AperFunction,Conductor*%
G36*
X64624606Y-47438507D02*
G01*
X64714721Y-47439451D01*
X64718025Y-47438737D01*
X64722695Y-47438500D01*
X71242918Y-47438500D01*
X71311039Y-47458502D01*
X71332013Y-47475405D01*
X80641766Y-56785158D01*
X80642694Y-56786095D01*
X80686846Y-56831181D01*
X80705771Y-56850507D01*
X80742221Y-56873998D01*
X80752546Y-56881417D01*
X80786443Y-56908476D01*
X80792784Y-56911541D01*
X80792785Y-56911542D01*
X80816637Y-56923072D01*
X80830054Y-56930601D01*
X80858238Y-56948765D01*
X80864855Y-56951173D01*
X80864860Y-56951176D01*
X80898973Y-56963592D01*
X80910716Y-56968553D01*
X80943403Y-56984354D01*
X80943408Y-56984356D01*
X80949749Y-56987421D01*
X80956607Y-56989004D01*
X80956609Y-56989005D01*
X80982426Y-56994965D01*
X80997169Y-56999332D01*
X81028685Y-57010803D01*
X81035675Y-57011686D01*
X81035683Y-57011688D01*
X81071701Y-57016238D01*
X81084253Y-57018474D01*
X81119614Y-57026638D01*
X81119617Y-57026638D01*
X81126485Y-57028224D01*
X81133531Y-57028249D01*
X81133534Y-57028249D01*
X81167056Y-57028366D01*
X81167938Y-57028395D01*
X81168769Y-57028500D01*
X81205419Y-57028500D01*
X81205859Y-57028501D01*
X81304343Y-57028845D01*
X81304348Y-57028845D01*
X81307870Y-57028857D01*
X81309070Y-57028589D01*
X81310707Y-57028500D01*
X83166093Y-57028500D01*
X83234214Y-57048502D01*
X83276413Y-57093778D01*
X83279385Y-57101705D01*
X83284769Y-57108888D01*
X83284769Y-57108889D01*
X83300251Y-57129546D01*
X83366739Y-57218261D01*
X83483295Y-57305615D01*
X83619684Y-57356745D01*
X83681866Y-57363500D01*
X87365500Y-57363500D01*
X87433621Y-57383502D01*
X87480114Y-57437158D01*
X87491500Y-57489500D01*
X87491500Y-57736000D01*
X87471498Y-57804121D01*
X87417842Y-57850614D01*
X87365500Y-57862000D01*
X85602115Y-57862000D01*
X85586876Y-57866475D01*
X85585671Y-57867865D01*
X85584000Y-57875548D01*
X85584000Y-60209884D01*
X85588475Y-60225123D01*
X85589865Y-60226328D01*
X85597548Y-60227999D01*
X87365500Y-60227999D01*
X87433621Y-60248001D01*
X87480114Y-60301657D01*
X87491500Y-60353999D01*
X87491500Y-71556000D01*
X87471498Y-71624121D01*
X87417842Y-71670614D01*
X87365500Y-71682000D01*
X85662115Y-71682000D01*
X85646876Y-71686475D01*
X85645671Y-71687865D01*
X85644000Y-71695548D01*
X85644000Y-74029884D01*
X85648475Y-74045123D01*
X85649865Y-74046328D01*
X85657548Y-74047999D01*
X87365500Y-74047999D01*
X87433621Y-74068001D01*
X87480114Y-74121657D01*
X87491500Y-74173999D01*
X87491500Y-74420500D01*
X87471498Y-74488621D01*
X87417842Y-74535114D01*
X87365500Y-74546500D01*
X83741866Y-74546500D01*
X83679684Y-74553255D01*
X83543295Y-74604385D01*
X83495274Y-74640375D01*
X83428768Y-74665223D01*
X83359385Y-74650170D01*
X83330614Y-74628644D01*
X82885917Y-74183947D01*
X82851891Y-74121635D01*
X82856956Y-74050820D01*
X82899503Y-73993984D01*
X82966023Y-73969173D01*
X83035521Y-73984332D01*
X83051942Y-73993323D01*
X83172394Y-74038478D01*
X83187649Y-74042105D01*
X83238514Y-74047631D01*
X83245328Y-74048000D01*
X85117885Y-74048000D01*
X85133124Y-74043525D01*
X85134329Y-74042135D01*
X85136000Y-74034452D01*
X85136000Y-73137115D01*
X85131525Y-73121876D01*
X85130135Y-73120671D01*
X85122452Y-73119000D01*
X82800116Y-73119000D01*
X82784877Y-73123475D01*
X82783672Y-73124865D01*
X82782001Y-73132548D01*
X82782001Y-73584669D01*
X82782371Y-73591490D01*
X82787895Y-73642352D01*
X82791521Y-73657604D01*
X82836677Y-73778058D01*
X82845668Y-73794479D01*
X82860837Y-73863836D01*
X82836101Y-73930384D01*
X82779313Y-73972994D01*
X82708503Y-73978138D01*
X82646053Y-73944083D01*
X81294855Y-72592885D01*
X82782000Y-72592885D01*
X82786475Y-72608124D01*
X82787865Y-72609329D01*
X82795548Y-72611000D01*
X85117885Y-72611000D01*
X85133124Y-72606525D01*
X85134329Y-72605135D01*
X85136000Y-72597452D01*
X85136000Y-71700116D01*
X85131525Y-71684877D01*
X85130135Y-71683672D01*
X85122452Y-71682001D01*
X83245331Y-71682001D01*
X83238510Y-71682371D01*
X83187648Y-71687895D01*
X83172396Y-71691521D01*
X83051946Y-71736676D01*
X83036351Y-71745214D01*
X82934276Y-71821715D01*
X82921715Y-71834276D01*
X82845214Y-71936351D01*
X82836676Y-71951946D01*
X82791522Y-72072394D01*
X82787895Y-72087649D01*
X82782369Y-72138514D01*
X82782000Y-72145328D01*
X82782000Y-72592885D01*
X81294855Y-72592885D01*
X80545405Y-71843435D01*
X80511379Y-71781123D01*
X80508500Y-71754340D01*
X80508500Y-62428927D01*
X80508792Y-62420358D01*
X80512210Y-62370225D01*
X80512210Y-62370221D01*
X80512726Y-62362648D01*
X80501736Y-62299681D01*
X80500775Y-62293165D01*
X80494014Y-62237298D01*
X80493102Y-62229758D01*
X80490419Y-62222657D01*
X80489778Y-62220048D01*
X80485313Y-62203728D01*
X80484548Y-62201195D01*
X80483243Y-62193717D01*
X80457552Y-62135190D01*
X80455067Y-62129102D01*
X80454941Y-62128767D01*
X80438251Y-62084598D01*
X80435172Y-62076449D01*
X80435171Y-62076447D01*
X80432487Y-62069344D01*
X80428186Y-62063085D01*
X80426949Y-62060720D01*
X80418727Y-62045948D01*
X80417372Y-62043656D01*
X80414316Y-62036695D01*
X80409691Y-62030668D01*
X80409689Y-62030664D01*
X80375407Y-61985987D01*
X80371529Y-61980650D01*
X80370490Y-61979137D01*
X80335357Y-61928019D01*
X80328271Y-61921705D01*
X80288839Y-61886573D01*
X80283563Y-61881592D01*
X78166640Y-59764669D01*
X82722001Y-59764669D01*
X82722371Y-59771490D01*
X82727895Y-59822352D01*
X82731521Y-59837604D01*
X82776676Y-59958054D01*
X82785214Y-59973649D01*
X82861715Y-60075724D01*
X82874276Y-60088285D01*
X82976351Y-60164786D01*
X82991946Y-60173324D01*
X83112394Y-60218478D01*
X83127649Y-60222105D01*
X83178514Y-60227631D01*
X83185328Y-60228000D01*
X85057885Y-60228000D01*
X85073124Y-60223525D01*
X85074329Y-60222135D01*
X85076000Y-60214452D01*
X85076000Y-59317115D01*
X85071525Y-59301876D01*
X85070135Y-59300671D01*
X85062452Y-59299000D01*
X82740116Y-59299000D01*
X82724877Y-59303475D01*
X82723672Y-59304865D01*
X82722001Y-59312548D01*
X82722001Y-59764669D01*
X78166640Y-59764669D01*
X77321448Y-58919477D01*
X77315595Y-58913213D01*
X77282553Y-58875337D01*
X77282552Y-58875336D01*
X77277561Y-58869615D01*
X77225280Y-58832871D01*
X77219986Y-58828939D01*
X77175693Y-58794209D01*
X77169718Y-58789524D01*
X77162802Y-58786401D01*
X77160516Y-58785017D01*
X77145835Y-58776643D01*
X77143475Y-58775378D01*
X77139928Y-58772885D01*
X82722000Y-58772885D01*
X82726475Y-58788124D01*
X82727865Y-58789329D01*
X82735548Y-58791000D01*
X85057885Y-58791000D01*
X85073124Y-58786525D01*
X85074329Y-58785135D01*
X85076000Y-58777452D01*
X85076000Y-57880116D01*
X85071525Y-57864877D01*
X85070135Y-57863672D01*
X85062452Y-57862001D01*
X83185331Y-57862001D01*
X83178510Y-57862371D01*
X83127648Y-57867895D01*
X83112396Y-57871521D01*
X82991946Y-57916676D01*
X82976351Y-57925214D01*
X82874276Y-58001715D01*
X82861715Y-58014276D01*
X82785214Y-58116351D01*
X82776676Y-58131946D01*
X82731522Y-58252394D01*
X82727895Y-58267649D01*
X82722369Y-58318514D01*
X82722000Y-58325328D01*
X82722000Y-58772885D01*
X77139928Y-58772885D01*
X77137261Y-58771010D01*
X77130182Y-58768250D01*
X77130180Y-58768249D01*
X77077725Y-58747798D01*
X77071656Y-58745247D01*
X77013427Y-58718955D01*
X77005966Y-58717572D01*
X77005331Y-58717373D01*
X76946311Y-58677913D01*
X76917994Y-58612808D01*
X76926922Y-58552562D01*
X76925769Y-58552179D01*
X76934928Y-58524646D01*
X76988197Y-58364513D01*
X77012985Y-58168295D01*
X77013380Y-58140000D01*
X76994080Y-57943167D01*
X76936916Y-57753831D01*
X76844066Y-57579204D01*
X76745154Y-57457926D01*
X76722960Y-57430713D01*
X76722957Y-57430710D01*
X76719065Y-57425938D01*
X76712724Y-57420692D01*
X76571425Y-57303799D01*
X76571421Y-57303797D01*
X76566675Y-57299870D01*
X76392701Y-57205802D01*
X76386813Y-57203979D01*
X76381136Y-57201593D01*
X76381734Y-57200170D01*
X76328894Y-57165110D01*
X76300349Y-57100105D01*
X76311479Y-57029986D01*
X76358752Y-56977016D01*
X76425315Y-56957999D01*
X76894669Y-56957999D01*
X76901490Y-56957629D01*
X76952352Y-56952105D01*
X76967604Y-56948479D01*
X77088054Y-56903324D01*
X77103649Y-56894786D01*
X77205724Y-56818285D01*
X77218285Y-56805724D01*
X77294786Y-56703649D01*
X77303324Y-56688054D01*
X77348478Y-56567606D01*
X77352105Y-56552351D01*
X77357631Y-56501486D01*
X77358000Y-56494672D01*
X77358000Y-55872115D01*
X77353525Y-55856876D01*
X77352135Y-55855671D01*
X77344452Y-55854000D01*
X75872000Y-55854000D01*
X75803879Y-55833998D01*
X75757386Y-55780342D01*
X75746000Y-55728000D01*
X75746000Y-55327885D01*
X76254000Y-55327885D01*
X76258475Y-55343124D01*
X76259865Y-55344329D01*
X76267548Y-55346000D01*
X77339884Y-55346000D01*
X77355123Y-55341525D01*
X77356328Y-55340135D01*
X77357999Y-55332452D01*
X77357999Y-54705331D01*
X77357629Y-54698510D01*
X77352105Y-54647648D01*
X77348479Y-54632396D01*
X77303324Y-54511946D01*
X77294786Y-54496351D01*
X77218285Y-54394276D01*
X77205724Y-54381715D01*
X77103649Y-54305214D01*
X77088054Y-54296676D01*
X76967606Y-54251522D01*
X76952351Y-54247895D01*
X76901486Y-54242369D01*
X76894672Y-54242000D01*
X76272115Y-54242000D01*
X76256876Y-54246475D01*
X76255671Y-54247865D01*
X76254000Y-54255548D01*
X76254000Y-55327885D01*
X75746000Y-55327885D01*
X75746000Y-54260116D01*
X75741525Y-54244877D01*
X75740135Y-54243672D01*
X75732452Y-54242001D01*
X75105331Y-54242001D01*
X75098510Y-54242371D01*
X75047648Y-54247895D01*
X75032396Y-54251521D01*
X74911946Y-54296676D01*
X74896351Y-54305214D01*
X74794276Y-54381715D01*
X74781715Y-54394276D01*
X74705214Y-54496351D01*
X74696676Y-54511946D01*
X74655297Y-54622322D01*
X74612655Y-54679087D01*
X74546093Y-54703786D01*
X74476744Y-54688578D01*
X74444121Y-54662891D01*
X74393151Y-54606876D01*
X74393148Y-54606873D01*
X74389670Y-54603051D01*
X74385619Y-54599852D01*
X74385615Y-54599848D01*
X74218414Y-54467800D01*
X74218410Y-54467798D01*
X74214359Y-54464598D01*
X74018789Y-54356638D01*
X74013920Y-54354914D01*
X74013916Y-54354912D01*
X73813087Y-54283795D01*
X73813083Y-54283794D01*
X73808212Y-54282069D01*
X73803119Y-54281162D01*
X73803116Y-54281161D01*
X73593373Y-54243800D01*
X73593367Y-54243799D01*
X73588284Y-54242894D01*
X73514452Y-54241992D01*
X73370081Y-54240228D01*
X73370079Y-54240228D01*
X73364911Y-54240165D01*
X73200059Y-54265391D01*
X73129698Y-54255923D01*
X73091906Y-54229936D01*
X71541450Y-52679480D01*
X71535596Y-52673215D01*
X71526214Y-52662460D01*
X71497561Y-52629615D01*
X71445280Y-52592871D01*
X71439986Y-52588939D01*
X71395693Y-52554209D01*
X71389718Y-52549524D01*
X71382802Y-52546401D01*
X71380516Y-52545017D01*
X71365835Y-52536643D01*
X71363475Y-52535378D01*
X71357261Y-52531010D01*
X71350182Y-52528250D01*
X71350180Y-52528249D01*
X71297725Y-52507798D01*
X71291656Y-52505247D01*
X71233427Y-52478955D01*
X71225960Y-52477571D01*
X71223405Y-52476770D01*
X71207152Y-52472141D01*
X71204572Y-52471478D01*
X71197491Y-52468718D01*
X71189960Y-52467727D01*
X71189958Y-52467726D01*
X71160339Y-52463827D01*
X71134139Y-52460378D01*
X71127641Y-52459348D01*
X71064814Y-52447704D01*
X71057234Y-52448141D01*
X71057233Y-52448141D01*
X71002608Y-52451291D01*
X70995354Y-52451500D01*
X61774500Y-52451500D01*
X61706379Y-52431498D01*
X61659886Y-52377842D01*
X61648500Y-52325500D01*
X61648500Y-50811866D01*
X61641745Y-50749684D01*
X61590615Y-50613295D01*
X61517370Y-50515564D01*
X61492522Y-50449059D01*
X61507575Y-50379676D01*
X61517370Y-50364435D01*
X61585229Y-50273891D01*
X61590615Y-50266705D01*
X61641745Y-50130316D01*
X61648500Y-50068134D01*
X61648500Y-48271866D01*
X61641745Y-48209684D01*
X61590615Y-48073295D01*
X61517370Y-47975564D01*
X61492522Y-47909059D01*
X61507575Y-47839676D01*
X61517370Y-47824435D01*
X61585229Y-47733891D01*
X61590615Y-47726705D01*
X61641745Y-47590316D01*
X61646028Y-47550892D01*
X61673270Y-47485330D01*
X61731634Y-47444904D01*
X61771291Y-47438500D01*
X64623286Y-47438500D01*
X64624606Y-47438507D01*
G37*
%TD.AperFunction*%
M02*
