%TF.GenerationSoftware,KiCad,Pcbnew,7.0.7*%
%TF.CreationDate,2023-08-22T17:17:33-04:00*%
%TF.ProjectId,dds-sweeper-board,6464732d-7377-4656-9570-65722d626f61,0*%
%TF.SameCoordinates,Original*%
%TF.FileFunction,Copper,L1,Top*%
%TF.FilePolarity,Positive*%
%FSLAX46Y46*%
G04 Gerber Fmt 4.6, Leading zero omitted, Abs format (unit mm)*
G04 Created by KiCad (PCBNEW 7.0.7) date 2023-08-22 17:17:33*
%MOMM*%
%LPD*%
G01*
G04 APERTURE LIST*
G04 Aperture macros list*
%AMRoundRect*
0 Rectangle with rounded corners*
0 $1 Rounding radius*
0 $2 $3 $4 $5 $6 $7 $8 $9 X,Y pos of 4 corners*
0 Add a 4 corners polygon primitive as box body*
4,1,4,$2,$3,$4,$5,$6,$7,$8,$9,$2,$3,0*
0 Add four circle primitives for the rounded corners*
1,1,$1+$1,$2,$3*
1,1,$1+$1,$4,$5*
1,1,$1+$1,$6,$7*
1,1,$1+$1,$8,$9*
0 Add four rect primitives between the rounded corners*
20,1,$1+$1,$2,$3,$4,$5,0*
20,1,$1+$1,$4,$5,$6,$7,0*
20,1,$1+$1,$6,$7,$8,$9,0*
20,1,$1+$1,$8,$9,$2,$3,0*%
G04 Aperture macros list end*
%TA.AperFunction,ComponentPad*%
%ADD10O,1.700000X1.700000*%
%TD*%
%TA.AperFunction,ComponentPad*%
%ADD11R,1.700000X1.700000*%
%TD*%
%TA.AperFunction,SMDPad,CuDef*%
%ADD12R,3.600000X1.270000*%
%TD*%
%TA.AperFunction,SMDPad,CuDef*%
%ADD13R,4.200000X1.350000*%
%TD*%
%TA.AperFunction,SMDPad,CuDef*%
%ADD14R,3.500000X1.700000*%
%TD*%
%TA.AperFunction,SMDPad,CuDef*%
%ADD15R,0.001000X0.001000*%
%TD*%
%TA.AperFunction,SMDPad,CuDef*%
%ADD16R,1.700000X3.500000*%
%TD*%
%TA.AperFunction,SMDPad,CuDef*%
%ADD17RoundRect,0.150000X-0.512500X-0.150000X0.512500X-0.150000X0.512500X0.150000X-0.512500X0.150000X0*%
%TD*%
%TA.AperFunction,SMDPad,CuDef*%
%ADD18RoundRect,0.250000X0.475000X-0.337500X0.475000X0.337500X-0.475000X0.337500X-0.475000X-0.337500X0*%
%TD*%
%TA.AperFunction,SMDPad,CuDef*%
%ADD19RoundRect,0.250000X-0.475000X0.337500X-0.475000X-0.337500X0.475000X-0.337500X0.475000X0.337500X0*%
%TD*%
%TA.AperFunction,Conductor*%
%ADD20C,0.400000*%
%TD*%
%TA.AperFunction,Conductor*%
%ADD21C,0.600000*%
%TD*%
%TA.AperFunction,Conductor*%
%ADD22C,0.300000*%
%TD*%
G04 APERTURE END LIST*
D10*
X73460000Y-55600000D03*
X73460000Y-63220000D03*
X73460000Y-65760000D03*
X73460000Y-68300000D03*
X73460000Y-70840000D03*
X73460000Y-73380000D03*
X73460000Y-75920000D03*
X73460000Y-78460000D03*
X73460000Y-81000000D03*
X73460000Y-83540000D03*
X73460000Y-86080000D03*
X73460000Y-88620000D03*
X73460000Y-91160000D03*
X76000000Y-93700000D03*
X76000000Y-81000000D03*
X76000000Y-78460000D03*
X76000000Y-75920000D03*
X76000000Y-73380000D03*
X76000000Y-70840000D03*
X76000000Y-68300000D03*
X76000000Y-65760000D03*
X76000000Y-63220000D03*
D11*
X76000000Y-55600000D03*
D12*
X85550000Y-94960000D03*
D13*
X85350000Y-92135000D03*
X85350000Y-97785000D03*
D12*
X85590000Y-75690000D03*
D13*
X85390000Y-72865000D03*
X85390000Y-78515000D03*
D12*
X85530000Y-56220000D03*
D13*
X85330000Y-53395000D03*
X85330000Y-59045000D03*
D12*
X85550000Y-38050000D03*
D13*
X85350000Y-35225000D03*
X85350000Y-40875000D03*
D14*
X39810000Y-36470000D03*
X39810000Y-39010000D03*
X39810000Y-41550000D03*
X39810000Y-44090000D03*
X39810000Y-46630000D03*
X39810000Y-49170000D03*
X39810000Y-51710000D03*
X39810000Y-54250000D03*
X39810000Y-56790000D03*
X39810000Y-59330000D03*
X39810000Y-61870000D03*
X39810000Y-64410000D03*
X39810000Y-66950000D03*
X39810000Y-69490000D03*
X39810000Y-72030000D03*
X39810000Y-74570000D03*
X39810000Y-77110000D03*
X39810000Y-79650000D03*
X39810000Y-82190000D03*
X39810000Y-84730000D03*
X59390000Y-84730000D03*
X59390000Y-82190000D03*
X59390000Y-79650000D03*
X59390000Y-77110000D03*
X59390000Y-74570000D03*
X59390000Y-72030000D03*
X59390000Y-69490000D03*
X59390000Y-66950000D03*
X59390000Y-64410000D03*
X59390000Y-61870000D03*
X59390000Y-59330000D03*
X59390000Y-56790000D03*
D15*
X59390000Y-54250000D03*
D14*
X59390000Y-51710000D03*
X59390000Y-49170000D03*
X59390000Y-46630000D03*
X59390000Y-44090000D03*
X59390000Y-41550000D03*
X59390000Y-39010000D03*
X59390000Y-36470000D03*
D16*
X47060000Y-85400000D03*
X49600000Y-85400000D03*
X52140000Y-85400000D03*
D17*
X70862500Y-38450000D03*
X70862500Y-39400000D03*
X70862500Y-40350000D03*
X73137500Y-40350000D03*
X73137500Y-38450000D03*
D11*
X66775000Y-60825000D03*
D10*
X66775000Y-58285000D03*
X66775000Y-55745000D03*
D18*
X66000000Y-40437500D03*
X66000000Y-38362500D03*
D19*
X78000000Y-38437500D03*
X78000000Y-40512500D03*
D20*
X74720000Y-84800000D02*
X73460000Y-83540000D01*
X76275637Y-84800000D02*
X74720000Y-84800000D01*
X40300000Y-96000000D02*
X78100000Y-96000000D01*
X78200000Y-95900000D02*
X78200000Y-86724363D01*
X78200000Y-86724363D02*
X76275637Y-84800000D01*
X34400000Y-90100000D02*
X40300000Y-96000000D01*
X34400000Y-65800000D02*
X34400000Y-90100000D01*
X78100000Y-96000000D02*
X78200000Y-95900000D01*
X35790000Y-64410000D02*
X34400000Y-65800000D01*
X40710000Y-64410000D02*
X35790000Y-64410000D01*
X33500000Y-63900000D02*
X35530000Y-61870000D01*
X40000000Y-97400000D02*
X33500000Y-90900000D01*
X33500000Y-90900000D02*
X33500000Y-63900000D01*
X81840000Y-94960000D02*
X79400000Y-97400000D01*
X79400000Y-97400000D02*
X40000000Y-97400000D01*
X85550000Y-94960000D02*
X81840000Y-94960000D01*
X35530000Y-61870000D02*
X40710000Y-61870000D01*
X35300000Y-89200000D02*
X38749999Y-92649999D01*
X35300000Y-72740000D02*
X35300000Y-89200000D01*
X38550000Y-69490000D02*
X35300000Y-72740000D01*
X40710000Y-69490000D02*
X38550000Y-69490000D01*
X38749999Y-92649999D02*
X72849999Y-92649999D01*
X39160000Y-91160000D02*
X73460000Y-91160000D01*
X38550000Y-74570000D02*
X36300000Y-76820000D01*
X40710000Y-74570000D02*
X38550000Y-74570000D01*
X36300000Y-76820000D02*
X36300000Y-88300000D01*
X36300000Y-88300000D02*
X39160000Y-91160000D01*
X39500000Y-89700000D02*
X64760000Y-89700000D01*
X64760000Y-89700000D02*
X73460000Y-81000000D01*
X37200000Y-87400000D02*
X39500000Y-89700000D01*
X37200000Y-83540000D02*
X37200000Y-87400000D01*
X38550000Y-82190000D02*
X37200000Y-83540000D01*
X40710000Y-82190000D02*
X38550000Y-82190000D01*
D21*
X78387500Y-38050000D02*
X78000000Y-38437500D01*
X85550000Y-38050000D02*
X78387500Y-38050000D01*
X66037500Y-38400000D02*
X70862500Y-38400000D01*
D20*
X66087500Y-38450000D02*
X66000000Y-38362500D01*
X42470000Y-84730000D02*
X50500000Y-76700000D01*
X55840000Y-53160000D02*
X71020000Y-53160000D01*
X50500000Y-76700000D02*
X50500000Y-58500000D01*
X40710000Y-84730000D02*
X42470000Y-84730000D01*
X71020000Y-53160000D02*
X73460000Y-55600000D01*
X50500000Y-58500000D02*
X55840000Y-53160000D01*
X58490000Y-74570000D02*
X64650000Y-74570000D01*
X64650000Y-74570000D02*
X73460000Y-65760000D01*
X58490000Y-77110000D02*
X64650000Y-77110000D01*
X64650000Y-77110000D02*
X73460000Y-68300000D01*
X62110000Y-82190000D02*
X73460000Y-70840000D01*
X58490000Y-82190000D02*
X62110000Y-82190000D01*
X62110000Y-84730000D02*
X73460000Y-73380000D01*
X58490000Y-84730000D02*
X62110000Y-84730000D01*
X61280000Y-88100000D02*
X73460000Y-75920000D01*
X58490000Y-64410000D02*
X57190000Y-64410000D01*
X55500000Y-66100000D02*
X55500000Y-86000000D01*
X57600000Y-88100000D02*
X61280000Y-88100000D01*
X57190000Y-64410000D02*
X55500000Y-66100000D01*
X55500000Y-86000000D02*
X57600000Y-88100000D01*
D22*
X73950001Y-92649999D02*
X72849999Y-92649999D01*
X73950001Y-92649999D02*
X74949999Y-91650001D01*
X73460000Y-88620000D02*
X74949999Y-90109999D01*
X74949999Y-90109999D02*
X74949999Y-91650001D01*
D21*
X58490000Y-36470000D02*
X64107500Y-36470000D01*
X64107500Y-36470000D02*
X66000000Y-38362500D01*
X66000000Y-38362500D02*
X66037500Y-38400000D01*
X73137500Y-38450000D02*
X77987500Y-38450000D01*
D20*
X72800000Y-59400000D02*
X76800000Y-59400000D01*
X62710000Y-69490000D02*
X72800000Y-59400000D01*
X76800000Y-59400000D02*
X79800000Y-62400000D01*
X79800000Y-62400000D02*
X79800000Y-72100000D01*
X83390000Y-75690000D02*
X85590000Y-75690000D01*
X58490000Y-69490000D02*
X62710000Y-69490000D01*
X79800000Y-72100000D02*
X83390000Y-75690000D01*
D21*
X58490000Y-46630000D02*
X71630000Y-46630000D01*
X64632500Y-46630000D02*
X70862500Y-40400000D01*
X58490000Y-46630000D02*
X64632500Y-46630000D01*
X71630000Y-46630000D02*
X81220000Y-56220000D01*
X81220000Y-56220000D02*
X85530000Y-56220000D01*
D20*
X58490000Y-61870000D02*
X62370000Y-61870000D01*
X63475000Y-60825000D02*
X66775000Y-60825000D01*
X62370000Y-61870000D02*
X62400000Y-61900000D01*
X62400000Y-61900000D02*
X63475000Y-60825000D01*
%TA.AperFunction,Conductor*%
G36*
X43931153Y-34020502D02*
G01*
X43977646Y-34074158D01*
X43989032Y-34126346D01*
X44004769Y-46961104D01*
X44004769Y-46961105D01*
X55004768Y-47001105D01*
X55004767Y-47001104D01*
X55004769Y-47001105D01*
X54989030Y-34126653D01*
X55008949Y-34058509D01*
X55062548Y-34011950D01*
X55115030Y-34000500D01*
X82775064Y-34000500D01*
X82843185Y-34020502D01*
X82889678Y-34074158D01*
X82899782Y-34144432D01*
X82875932Y-34202009D01*
X82799555Y-34304034D01*
X82799555Y-34304035D01*
X82748505Y-34440906D01*
X82742000Y-34501402D01*
X82742000Y-34971000D01*
X85478000Y-34971000D01*
X85546121Y-34991002D01*
X85592614Y-35044658D01*
X85604000Y-35097000D01*
X85604000Y-36408000D01*
X87498585Y-36408000D01*
X87498597Y-36407999D01*
X87559093Y-36401494D01*
X87695964Y-36350444D01*
X87695965Y-36350444D01*
X87797991Y-36274068D01*
X87864511Y-36249257D01*
X87933885Y-36264348D01*
X87984087Y-36314550D01*
X87999500Y-36374936D01*
X87999500Y-37055539D01*
X87979498Y-37123660D01*
X87925842Y-37170153D01*
X87855568Y-37180257D01*
X87790988Y-37150763D01*
X87772632Y-37131049D01*
X87760917Y-37115400D01*
X87713261Y-37051739D01*
X87713259Y-37051738D01*
X87713259Y-37051737D01*
X87596207Y-36964112D01*
X87596202Y-36964110D01*
X87459204Y-36913011D01*
X87459196Y-36913009D01*
X87398649Y-36906500D01*
X87398638Y-36906500D01*
X83701362Y-36906500D01*
X83701350Y-36906500D01*
X83640803Y-36913009D01*
X83640795Y-36913011D01*
X83503797Y-36964110D01*
X83503792Y-36964112D01*
X83386738Y-37051738D01*
X83299113Y-37168792D01*
X83295244Y-37175879D01*
X83245044Y-37226084D01*
X83184653Y-37241500D01*
X78296399Y-37241500D01*
X78255312Y-37250878D01*
X78248344Y-37252062D01*
X78206462Y-37256781D01*
X78206450Y-37256783D01*
X78166666Y-37270704D01*
X78159878Y-37272659D01*
X78148486Y-37275260D01*
X78118777Y-37282041D01*
X78118774Y-37282043D01*
X78080805Y-37300327D01*
X78074276Y-37303032D01*
X78034488Y-37316955D01*
X78034480Y-37316959D01*
X78026155Y-37322190D01*
X77959124Y-37341500D01*
X77474455Y-37341500D01*
X77370574Y-37352112D01*
X77202261Y-37407885D01*
X77051347Y-37500970D01*
X77051341Y-37500975D01*
X76947722Y-37604595D01*
X76885410Y-37638621D01*
X76858627Y-37641500D01*
X72558494Y-37641500D01*
X72521170Y-37644437D01*
X72361394Y-37690856D01*
X72218196Y-37775544D01*
X72218189Y-37775549D01*
X72100545Y-37893193D01*
X72099556Y-37894469D01*
X72098526Y-37895212D01*
X72094941Y-37898798D01*
X72094362Y-37898219D01*
X72041998Y-37936034D01*
X71971106Y-37939881D01*
X71909387Y-37904791D01*
X71900444Y-37894469D01*
X71899454Y-37893193D01*
X71781810Y-37775549D01*
X71781803Y-37775544D01*
X71638605Y-37690856D01*
X71478829Y-37644437D01*
X71441506Y-37641500D01*
X71441502Y-37641500D01*
X71164170Y-37641500D01*
X71122555Y-37634429D01*
X71043547Y-37606783D01*
X70907906Y-37591500D01*
X67166373Y-37591500D01*
X67098252Y-37571498D01*
X67077278Y-37554595D01*
X66948658Y-37425975D01*
X66948652Y-37425970D01*
X66919332Y-37407885D01*
X66797738Y-37332885D01*
X66693975Y-37298502D01*
X66629427Y-37277113D01*
X66629420Y-37277112D01*
X66525553Y-37266500D01*
X66525545Y-37266500D01*
X66099582Y-37266500D01*
X66031461Y-37246498D01*
X66010487Y-37229595D01*
X64664813Y-35883921D01*
X64664809Y-35883915D01*
X64614781Y-35833889D01*
X64579091Y-35811463D01*
X64573325Y-35807372D01*
X64540371Y-35781092D01*
X64540367Y-35781089D01*
X64502390Y-35762800D01*
X64496202Y-35759380D01*
X64460515Y-35736957D01*
X64460514Y-35736957D01*
X64420726Y-35723034D01*
X64414198Y-35720330D01*
X64376224Y-35702042D01*
X64376217Y-35702040D01*
X64335120Y-35692659D01*
X64328330Y-35690702D01*
X64288552Y-35676784D01*
X64288546Y-35676782D01*
X64246656Y-35672062D01*
X64239687Y-35670878D01*
X64198599Y-35661500D01*
X64198597Y-35661500D01*
X64152906Y-35661500D01*
X61771371Y-35661500D01*
X61703250Y-35641498D01*
X61656757Y-35587842D01*
X61646093Y-35548968D01*
X61641990Y-35510803D01*
X61641988Y-35510795D01*
X61630129Y-35479000D01*
X82742000Y-35479000D01*
X82742000Y-35948597D01*
X82748505Y-36009093D01*
X82799555Y-36145964D01*
X82799555Y-36145965D01*
X82887095Y-36262904D01*
X83004034Y-36350444D01*
X83140906Y-36401494D01*
X83201402Y-36407999D01*
X83201415Y-36408000D01*
X85096000Y-36408000D01*
X85096000Y-35479000D01*
X82742000Y-35479000D01*
X61630129Y-35479000D01*
X61590889Y-35373797D01*
X61590887Y-35373792D01*
X61503261Y-35256738D01*
X61386207Y-35169112D01*
X61386202Y-35169110D01*
X61249204Y-35118011D01*
X61249196Y-35118009D01*
X61188649Y-35111500D01*
X61188638Y-35111500D01*
X57591362Y-35111500D01*
X57591350Y-35111500D01*
X57530803Y-35118009D01*
X57530795Y-35118011D01*
X57393797Y-35169110D01*
X57393792Y-35169112D01*
X57276738Y-35256738D01*
X57189112Y-35373792D01*
X57189110Y-35373797D01*
X57138011Y-35510795D01*
X57138009Y-35510803D01*
X57131500Y-35571350D01*
X57131500Y-37368649D01*
X57138009Y-37429196D01*
X57138011Y-37429204D01*
X57189110Y-37566202D01*
X57189112Y-37566207D01*
X57262687Y-37664491D01*
X57287498Y-37731011D01*
X57272407Y-37800385D01*
X57262687Y-37815509D01*
X57189112Y-37913792D01*
X57189110Y-37913797D01*
X57138011Y-38050795D01*
X57138009Y-38050803D01*
X57131500Y-38111350D01*
X57131500Y-39908649D01*
X57138009Y-39969196D01*
X57138011Y-39969204D01*
X57189110Y-40106202D01*
X57189112Y-40106207D01*
X57262999Y-40204907D01*
X57287810Y-40271427D01*
X57272719Y-40340801D01*
X57263000Y-40355924D01*
X57189555Y-40454035D01*
X57138505Y-40590906D01*
X57132000Y-40651402D01*
X57132000Y-41296000D01*
X61648000Y-41296000D01*
X61648000Y-40691500D01*
X64767000Y-40691500D01*
X64767000Y-40825516D01*
X64777605Y-40929318D01*
X64777606Y-40929321D01*
X64833342Y-41097525D01*
X64926365Y-41248339D01*
X64926370Y-41248345D01*
X65051654Y-41373629D01*
X65051660Y-41373634D01*
X65202474Y-41466657D01*
X65370678Y-41522393D01*
X65370681Y-41522394D01*
X65474483Y-41532999D01*
X65474483Y-41533000D01*
X65746000Y-41533000D01*
X65746000Y-40691500D01*
X66254000Y-40691500D01*
X66254000Y-41533000D01*
X66525517Y-41533000D01*
X66525516Y-41532999D01*
X66629318Y-41522394D01*
X66629321Y-41522393D01*
X66797525Y-41466657D01*
X66948339Y-41373634D01*
X66948345Y-41373629D01*
X67073629Y-41248345D01*
X67073634Y-41248339D01*
X67166657Y-41097525D01*
X67222393Y-40929321D01*
X67222394Y-40929318D01*
X67232999Y-40825516D01*
X67233000Y-40825516D01*
X67233000Y-40691500D01*
X66254000Y-40691500D01*
X65746000Y-40691500D01*
X64767000Y-40691500D01*
X61648000Y-40691500D01*
X61648000Y-40651414D01*
X61647999Y-40651402D01*
X61641494Y-40590906D01*
X61590444Y-40454035D01*
X61590444Y-40454034D01*
X61517000Y-40355925D01*
X61492189Y-40289405D01*
X61507280Y-40220031D01*
X61516998Y-40204909D01*
X61590889Y-40106204D01*
X61641989Y-39969201D01*
X61643620Y-39954035D01*
X61648499Y-39908649D01*
X61648500Y-39908632D01*
X61648500Y-38111367D01*
X61648499Y-38111350D01*
X61641990Y-38050803D01*
X61641988Y-38050795D01*
X61590889Y-37913797D01*
X61590889Y-37913796D01*
X61584148Y-37904791D01*
X61517311Y-37815507D01*
X61492501Y-37748989D01*
X61507592Y-37679615D01*
X61517306Y-37664497D01*
X61590889Y-37566204D01*
X61641989Y-37429201D01*
X61642336Y-37425975D01*
X61646093Y-37391032D01*
X61673262Y-37325439D01*
X61731580Y-37284948D01*
X61771371Y-37278500D01*
X63720418Y-37278500D01*
X63788539Y-37298502D01*
X63809513Y-37315405D01*
X64729595Y-38235487D01*
X64763621Y-38297799D01*
X64766500Y-38324582D01*
X64766500Y-38750544D01*
X64777112Y-38854425D01*
X64832885Y-39022738D01*
X64925970Y-39173652D01*
X64925975Y-39173658D01*
X65051345Y-39299028D01*
X65054450Y-39301483D01*
X65056027Y-39303710D01*
X65056537Y-39304220D01*
X65056449Y-39304307D01*
X65095481Y-39359422D01*
X65098673Y-39430347D01*
X65063014Y-39491739D01*
X65054454Y-39499157D01*
X65051654Y-39501370D01*
X64926370Y-39626654D01*
X64926365Y-39626660D01*
X64833342Y-39777474D01*
X64777606Y-39945678D01*
X64777605Y-39945681D01*
X64767000Y-40049483D01*
X64767000Y-40183500D01*
X67233000Y-40183500D01*
X67233000Y-40049483D01*
X67222394Y-39945681D01*
X67222393Y-39945678D01*
X67166657Y-39777474D01*
X67073634Y-39626660D01*
X67073629Y-39626654D01*
X66948344Y-39501369D01*
X66945551Y-39499161D01*
X66944131Y-39497156D01*
X66943150Y-39496175D01*
X66943317Y-39496007D01*
X66904519Y-39441222D01*
X66901325Y-39370298D01*
X66936983Y-39308905D01*
X66945554Y-39301478D01*
X66948640Y-39299037D01*
X66948652Y-39299030D01*
X67002278Y-39245403D01*
X67064588Y-39211380D01*
X67091372Y-39208500D01*
X70066246Y-39208500D01*
X70101398Y-39213503D01*
X70174921Y-39234863D01*
X70246169Y-39255562D01*
X70253634Y-39256149D01*
X70283494Y-39258500D01*
X70283498Y-39258500D01*
X71441506Y-39258500D01*
X71466388Y-39256541D01*
X71478831Y-39255562D01*
X71638601Y-39209145D01*
X71715703Y-39163546D01*
X71779842Y-39146000D01*
X72029992Y-39146000D01*
X72032756Y-39142318D01*
X72089652Y-39099851D01*
X72160475Y-39094886D01*
X72210058Y-39122007D01*
X72211930Y-39119595D01*
X72218196Y-39124455D01*
X72361394Y-39209143D01*
X72361397Y-39209143D01*
X72361399Y-39209145D01*
X72521169Y-39255562D01*
X72528634Y-39256149D01*
X72558494Y-39258500D01*
X72558498Y-39258500D01*
X73092094Y-39258500D01*
X76883628Y-39258500D01*
X76951749Y-39278502D01*
X76972718Y-39295400D01*
X77036740Y-39359422D01*
X77051350Y-39374032D01*
X77054450Y-39376483D01*
X77056024Y-39378706D01*
X77056538Y-39379220D01*
X77056450Y-39379307D01*
X77095481Y-39434422D01*
X77098673Y-39505347D01*
X77063014Y-39566739D01*
X77054454Y-39574157D01*
X77051654Y-39576370D01*
X76926370Y-39701654D01*
X76926365Y-39701660D01*
X76833342Y-39852474D01*
X76777606Y-40020678D01*
X76777605Y-40020681D01*
X76767000Y-40124483D01*
X76767000Y-40258500D01*
X79233000Y-40258500D01*
X79233000Y-40124483D01*
X79222394Y-40020681D01*
X79222393Y-40020678D01*
X79166657Y-39852474D01*
X79073634Y-39701660D01*
X79073629Y-39701654D01*
X78948344Y-39576369D01*
X78945551Y-39574161D01*
X78944131Y-39572156D01*
X78943150Y-39571175D01*
X78943317Y-39571007D01*
X78904519Y-39516222D01*
X78901325Y-39445298D01*
X78936983Y-39383905D01*
X78945554Y-39376478D01*
X78948639Y-39374037D01*
X78948652Y-39374030D01*
X79074030Y-39248652D01*
X79167115Y-39097738D01*
X79217771Y-38944864D01*
X79258183Y-38886496D01*
X79323739Y-38859240D01*
X79337374Y-38858500D01*
X83184653Y-38858500D01*
X83252774Y-38878502D01*
X83295244Y-38924121D01*
X83299113Y-38931207D01*
X83386738Y-39048261D01*
X83503792Y-39135887D01*
X83503794Y-39135888D01*
X83503796Y-39135889D01*
X83562875Y-39157924D01*
X83640795Y-39186988D01*
X83640803Y-39186990D01*
X83701350Y-39193499D01*
X83701355Y-39193499D01*
X83701362Y-39193500D01*
X83701368Y-39193500D01*
X87398632Y-39193500D01*
X87398638Y-39193500D01*
X87398645Y-39193499D01*
X87398649Y-39193499D01*
X87459196Y-39186990D01*
X87459199Y-39186989D01*
X87459201Y-39186989D01*
X87596204Y-39135889D01*
X87650978Y-39094886D01*
X87713261Y-39048261D01*
X87772632Y-38968951D01*
X87829467Y-38926404D01*
X87900283Y-38921339D01*
X87962595Y-38955365D01*
X87996620Y-39017677D01*
X87999500Y-39044460D01*
X87999500Y-39725063D01*
X87979498Y-39793184D01*
X87925842Y-39839677D01*
X87855568Y-39849781D01*
X87797991Y-39825931D01*
X87695965Y-39749556D01*
X87695964Y-39749555D01*
X87559093Y-39698505D01*
X87498597Y-39692000D01*
X85604000Y-39692000D01*
X85604000Y-42058000D01*
X87498585Y-42058000D01*
X87498597Y-42057999D01*
X87559093Y-42051494D01*
X87695964Y-42000444D01*
X87695965Y-42000444D01*
X87797991Y-41924068D01*
X87864511Y-41899257D01*
X87933885Y-41914348D01*
X87984087Y-41964550D01*
X87999500Y-42024936D01*
X87999500Y-52260035D01*
X87979498Y-52328156D01*
X87925842Y-52374649D01*
X87855568Y-52384753D01*
X87797991Y-52360903D01*
X87675965Y-52269555D01*
X87539093Y-52218505D01*
X87478597Y-52212000D01*
X85584000Y-52212000D01*
X85584000Y-54578000D01*
X87478585Y-54578000D01*
X87478597Y-54577999D01*
X87539093Y-54571494D01*
X87675964Y-54520444D01*
X87675965Y-54520444D01*
X87797991Y-54429096D01*
X87864511Y-54404285D01*
X87933885Y-54419376D01*
X87984087Y-54469578D01*
X87999500Y-54529964D01*
X87999500Y-55252256D01*
X87979498Y-55320377D01*
X87925842Y-55366870D01*
X87855568Y-55376974D01*
X87790988Y-55347480D01*
X87772632Y-55327765D01*
X87693261Y-55221738D01*
X87576207Y-55134112D01*
X87576202Y-55134110D01*
X87439204Y-55083011D01*
X87439196Y-55083009D01*
X87378649Y-55076500D01*
X87378638Y-55076500D01*
X83681362Y-55076500D01*
X83681350Y-55076500D01*
X83620803Y-55083009D01*
X83620795Y-55083011D01*
X83483797Y-55134110D01*
X83483792Y-55134112D01*
X83366738Y-55221738D01*
X83279113Y-55338792D01*
X83275244Y-55345879D01*
X83225044Y-55396084D01*
X83164653Y-55411500D01*
X81607082Y-55411500D01*
X81538961Y-55391498D01*
X81517987Y-55374595D01*
X79792392Y-53649000D01*
X82722000Y-53649000D01*
X82722000Y-54118597D01*
X82728505Y-54179093D01*
X82779555Y-54315964D01*
X82779555Y-54315965D01*
X82867095Y-54432904D01*
X82984034Y-54520444D01*
X83120906Y-54571494D01*
X83181402Y-54577999D01*
X83181415Y-54578000D01*
X85076000Y-54578000D01*
X85076000Y-53649000D01*
X82722000Y-53649000D01*
X79792392Y-53649000D01*
X79284392Y-53141000D01*
X82722000Y-53141000D01*
X85076000Y-53141000D01*
X85076000Y-52212000D01*
X83181402Y-52212000D01*
X83120906Y-52218505D01*
X82984035Y-52269555D01*
X82984034Y-52269555D01*
X82867095Y-52357095D01*
X82779555Y-52474034D01*
X82779555Y-52474035D01*
X82728505Y-52610906D01*
X82722000Y-52671402D01*
X82722000Y-53141000D01*
X79284392Y-53141000D01*
X76894187Y-50750795D01*
X72169589Y-46026197D01*
X72137281Y-45993889D01*
X72117574Y-45981506D01*
X72101591Y-45971463D01*
X72095825Y-45967372D01*
X72062871Y-45941092D01*
X72062867Y-45941089D01*
X72024890Y-45922800D01*
X72018702Y-45919380D01*
X71983015Y-45896957D01*
X71983014Y-45896956D01*
X71943226Y-45883034D01*
X71936698Y-45880330D01*
X71898724Y-45862042D01*
X71898717Y-45862040D01*
X71857620Y-45852659D01*
X71850830Y-45850702D01*
X71811052Y-45836784D01*
X71811046Y-45836782D01*
X71769156Y-45832062D01*
X71762187Y-45830878D01*
X71721099Y-45821500D01*
X71721097Y-45821500D01*
X71675406Y-45821500D01*
X66888582Y-45821500D01*
X66820461Y-45801498D01*
X66773968Y-45747842D01*
X66763864Y-45677568D01*
X66793358Y-45612988D01*
X66799487Y-45606405D01*
X71210486Y-41195405D01*
X71272798Y-41161379D01*
X71299581Y-41158500D01*
X71441506Y-41158500D01*
X71466388Y-41156541D01*
X71478831Y-41155562D01*
X71638601Y-41109145D01*
X71638603Y-41109143D01*
X71638605Y-41109143D01*
X71710204Y-41066799D01*
X71781807Y-41024453D01*
X71899453Y-40906807D01*
X71899455Y-40906803D01*
X71900439Y-40905536D01*
X71901468Y-40904792D01*
X71905059Y-40901202D01*
X71905638Y-40901781D01*
X71957994Y-40863968D01*
X72028886Y-40860116D01*
X72090607Y-40895202D01*
X72099561Y-40905536D01*
X72100549Y-40906810D01*
X72218189Y-41024450D01*
X72218196Y-41024455D01*
X72361394Y-41109143D01*
X72361397Y-41109143D01*
X72361399Y-41109145D01*
X72521169Y-41155562D01*
X72528634Y-41156149D01*
X72558494Y-41158500D01*
X72558498Y-41158500D01*
X73716506Y-41158500D01*
X73741388Y-41156541D01*
X73753831Y-41155562D01*
X73913601Y-41109145D01*
X73913603Y-41109143D01*
X73913605Y-41109143D01*
X73985204Y-41066799D01*
X74056807Y-41024453D01*
X74174453Y-40906807D01*
X74216799Y-40835204D01*
X74257431Y-40766500D01*
X76767000Y-40766500D01*
X76767000Y-40900516D01*
X76777605Y-41004318D01*
X76777606Y-41004321D01*
X76833342Y-41172525D01*
X76926365Y-41323339D01*
X76926370Y-41323345D01*
X77051654Y-41448629D01*
X77051660Y-41448634D01*
X77202474Y-41541657D01*
X77370678Y-41597393D01*
X77370681Y-41597394D01*
X77474483Y-41607999D01*
X77474483Y-41608000D01*
X77746000Y-41608000D01*
X77746000Y-40766500D01*
X78254000Y-40766500D01*
X78254000Y-41608000D01*
X78525517Y-41608000D01*
X78525516Y-41607999D01*
X78629318Y-41597394D01*
X78629321Y-41597393D01*
X78797525Y-41541657D01*
X78948339Y-41448634D01*
X78948345Y-41448629D01*
X79073629Y-41323345D01*
X79073634Y-41323339D01*
X79166657Y-41172525D01*
X79181079Y-41129000D01*
X82742000Y-41129000D01*
X82742000Y-41598597D01*
X82748505Y-41659093D01*
X82799555Y-41795964D01*
X82799555Y-41795965D01*
X82887095Y-41912904D01*
X83004034Y-42000444D01*
X83140906Y-42051494D01*
X83201402Y-42057999D01*
X83201415Y-42058000D01*
X85096000Y-42058000D01*
X85096000Y-41129000D01*
X82742000Y-41129000D01*
X79181079Y-41129000D01*
X79222393Y-41004321D01*
X79222394Y-41004318D01*
X79232999Y-40900516D01*
X79233000Y-40900516D01*
X79233000Y-40766500D01*
X78254000Y-40766500D01*
X77746000Y-40766500D01*
X76767000Y-40766500D01*
X74257431Y-40766500D01*
X74259143Y-40763605D01*
X74259143Y-40763603D01*
X74259145Y-40763601D01*
X74300574Y-40621000D01*
X82742000Y-40621000D01*
X85096000Y-40621000D01*
X85096000Y-39692000D01*
X83201402Y-39692000D01*
X83140906Y-39698505D01*
X83004035Y-39749555D01*
X83004034Y-39749555D01*
X82887095Y-39837095D01*
X82799555Y-39954034D01*
X82799555Y-39954035D01*
X82748505Y-40090906D01*
X82742000Y-40151402D01*
X82742000Y-40621000D01*
X74300574Y-40621000D01*
X74305562Y-40603831D01*
X74308500Y-40566502D01*
X74308500Y-40133498D01*
X74307790Y-40124483D01*
X74305562Y-40096170D01*
X74304033Y-40090906D01*
X74259145Y-39936399D01*
X74259143Y-39936397D01*
X74259143Y-39936394D01*
X74174455Y-39793196D01*
X74174450Y-39793189D01*
X74056810Y-39675549D01*
X74056803Y-39675544D01*
X73913605Y-39590856D01*
X73753829Y-39544437D01*
X73716506Y-39541500D01*
X73716502Y-39541500D01*
X72558498Y-39541500D01*
X72558494Y-39541500D01*
X72521170Y-39544437D01*
X72361394Y-39590856D01*
X72218196Y-39675544D01*
X72211930Y-39680405D01*
X72210057Y-39677991D01*
X72160249Y-39705162D01*
X72089436Y-39700067D01*
X72032757Y-39657682D01*
X72029993Y-39654000D01*
X71779842Y-39654000D01*
X71715703Y-39636453D01*
X71638601Y-39590855D01*
X71555592Y-39566739D01*
X71478829Y-39544437D01*
X71441506Y-39541500D01*
X71441502Y-39541500D01*
X70283498Y-39541500D01*
X70283494Y-39541500D01*
X70246170Y-39544437D01*
X70086396Y-39590856D01*
X70038951Y-39618915D01*
X70009296Y-39636453D01*
X69945158Y-39654000D01*
X69695007Y-39654000D01*
X69741320Y-39813405D01*
X69744467Y-39820678D01*
X69742373Y-39821584D01*
X69756984Y-39879199D01*
X69742515Y-39928473D01*
X69744005Y-39929118D01*
X69740857Y-39936392D01*
X69694437Y-40096170D01*
X69691500Y-40133494D01*
X69691500Y-40375417D01*
X69671498Y-40443538D01*
X69654595Y-40464512D01*
X64334513Y-45784595D01*
X64272201Y-45818621D01*
X64245418Y-45821500D01*
X61771371Y-45821500D01*
X61703250Y-45801498D01*
X61656757Y-45747842D01*
X61646093Y-45708968D01*
X61641990Y-45670803D01*
X61641988Y-45670795D01*
X61590889Y-45533797D01*
X61590889Y-45533796D01*
X61590886Y-45533792D01*
X61517311Y-45435507D01*
X61492501Y-45368989D01*
X61507592Y-45299615D01*
X61517306Y-45284497D01*
X61590889Y-45186204D01*
X61641989Y-45049201D01*
X61648500Y-44988638D01*
X61648500Y-43191362D01*
X61648499Y-43191350D01*
X61641990Y-43130803D01*
X61641988Y-43130795D01*
X61590889Y-42993797D01*
X61590887Y-42993792D01*
X61517000Y-42895091D01*
X61492189Y-42828571D01*
X61507280Y-42759197D01*
X61517001Y-42744072D01*
X61590443Y-42645966D01*
X61590444Y-42645964D01*
X61641494Y-42509093D01*
X61647999Y-42448597D01*
X61648000Y-42448585D01*
X61648000Y-41804000D01*
X57132000Y-41804000D01*
X57132000Y-42448597D01*
X57138505Y-42509093D01*
X57189555Y-42645964D01*
X57189556Y-42645966D01*
X57262999Y-42744072D01*
X57287811Y-42810592D01*
X57272720Y-42879966D01*
X57263000Y-42895091D01*
X57189112Y-42993792D01*
X57189110Y-42993797D01*
X57138011Y-43130795D01*
X57138009Y-43130803D01*
X57131500Y-43191350D01*
X57131500Y-44988649D01*
X57138009Y-45049196D01*
X57138011Y-45049204D01*
X57189110Y-45186202D01*
X57189112Y-45186207D01*
X57262687Y-45284491D01*
X57287498Y-45351011D01*
X57272407Y-45420385D01*
X57262687Y-45435509D01*
X57189112Y-45533792D01*
X57189110Y-45533797D01*
X57138011Y-45670795D01*
X57138009Y-45670803D01*
X57131500Y-45731350D01*
X57131500Y-47528649D01*
X57138009Y-47589196D01*
X57138011Y-47589204D01*
X57189110Y-47726202D01*
X57189112Y-47726207D01*
X57262687Y-47824491D01*
X57287498Y-47891011D01*
X57272407Y-47960385D01*
X57262687Y-47975509D01*
X57189112Y-48073792D01*
X57189110Y-48073797D01*
X57138011Y-48210795D01*
X57138009Y-48210803D01*
X57131500Y-48271350D01*
X57131500Y-50068649D01*
X57138009Y-50129196D01*
X57138011Y-50129204D01*
X57189110Y-50266202D01*
X57189112Y-50266207D01*
X57262687Y-50364491D01*
X57287498Y-50431011D01*
X57272407Y-50500385D01*
X57262687Y-50515509D01*
X57189112Y-50613792D01*
X57189110Y-50613797D01*
X57138011Y-50750795D01*
X57138009Y-50750803D01*
X57131500Y-50811350D01*
X57131500Y-52325500D01*
X57111498Y-52393621D01*
X57057842Y-52440114D01*
X57005500Y-52451500D01*
X55863302Y-52451500D01*
X55859502Y-52451385D01*
X55848953Y-52450747D01*
X55796904Y-52447598D01*
X55735227Y-52458901D01*
X55731465Y-52459474D01*
X55669201Y-52467034D01*
X55659663Y-52470651D01*
X55637706Y-52476772D01*
X55627674Y-52478610D01*
X55627668Y-52478612D01*
X55570492Y-52504345D01*
X55566977Y-52505801D01*
X55508324Y-52528046D01*
X55508319Y-52528048D01*
X55499921Y-52533845D01*
X55480072Y-52545040D01*
X55470777Y-52549223D01*
X55470773Y-52549225D01*
X55421409Y-52587899D01*
X55418346Y-52590153D01*
X55366727Y-52625784D01*
X55366723Y-52625788D01*
X55325134Y-52672731D01*
X55322526Y-52675502D01*
X50015511Y-57982518D01*
X50012740Y-57985126D01*
X49965784Y-58026726D01*
X49930157Y-58078339D01*
X49927904Y-58081401D01*
X49889227Y-58130769D01*
X49889222Y-58130779D01*
X49885035Y-58140080D01*
X49873846Y-58159921D01*
X49868045Y-58168326D01*
X49845807Y-58226961D01*
X49844351Y-58230476D01*
X49818613Y-58287665D01*
X49818609Y-58287678D01*
X49816770Y-58297711D01*
X49810651Y-58319661D01*
X49807034Y-58329199D01*
X49799476Y-58391441D01*
X49798904Y-58395201D01*
X49787598Y-58456906D01*
X49791384Y-58519506D01*
X49791499Y-58523310D01*
X49791499Y-76354339D01*
X49771497Y-76422460D01*
X49754594Y-76443434D01*
X42283460Y-83914569D01*
X42221148Y-83948595D01*
X42150333Y-83943530D01*
X42093497Y-83900983D01*
X42068686Y-83834463D01*
X42068545Y-83832204D01*
X42068500Y-83831367D01*
X42068500Y-83831362D01*
X42066528Y-83813024D01*
X42061990Y-83770803D01*
X42061988Y-83770795D01*
X42032924Y-83692875D01*
X42010889Y-83633796D01*
X42010888Y-83633794D01*
X42010887Y-83633792D01*
X41937312Y-83535508D01*
X41912501Y-83468988D01*
X41927592Y-83399614D01*
X41937312Y-83384491D01*
X42010889Y-83286204D01*
X42061989Y-83149201D01*
X42062118Y-83148009D01*
X42068499Y-83088649D01*
X42068500Y-83088632D01*
X42068500Y-81291367D01*
X42068499Y-81291350D01*
X42061990Y-81230803D01*
X42061988Y-81230795D01*
X42010889Y-81093797D01*
X42010887Y-81093792D01*
X41937000Y-80995091D01*
X41912189Y-80928571D01*
X41927280Y-80859197D01*
X41937001Y-80844072D01*
X42010443Y-80745966D01*
X42010444Y-80745964D01*
X42061494Y-80609093D01*
X42067999Y-80548597D01*
X42068000Y-80548585D01*
X42068000Y-79904000D01*
X38226000Y-79904000D01*
X38157879Y-79883998D01*
X38111386Y-79830342D01*
X38100000Y-79778000D01*
X38100000Y-79522000D01*
X38120002Y-79453879D01*
X38173658Y-79407386D01*
X38226000Y-79396000D01*
X42068000Y-79396000D01*
X42068000Y-78751414D01*
X42067999Y-78751402D01*
X42061494Y-78690906D01*
X42010444Y-78554035D01*
X42010444Y-78554034D01*
X41937000Y-78455925D01*
X41912189Y-78389405D01*
X41927280Y-78320031D01*
X41936998Y-78304909D01*
X42010889Y-78206204D01*
X42061989Y-78069201D01*
X42068500Y-78008638D01*
X42068500Y-76211362D01*
X42068499Y-76211350D01*
X42061990Y-76150803D01*
X42061988Y-76150795D01*
X42016958Y-76030068D01*
X42010889Y-76013796D01*
X41937311Y-75915507D01*
X41912501Y-75848989D01*
X41927592Y-75779615D01*
X41937306Y-75764497D01*
X42010889Y-75666204D01*
X42061989Y-75529201D01*
X42068500Y-75468638D01*
X42068500Y-73671362D01*
X42066106Y-73649093D01*
X42061990Y-73610803D01*
X42061988Y-73610795D01*
X42016958Y-73490068D01*
X42010889Y-73473796D01*
X41937311Y-73375507D01*
X41912501Y-73308989D01*
X41927592Y-73239615D01*
X41937306Y-73224497D01*
X42010889Y-73126204D01*
X42061989Y-72989201D01*
X42068500Y-72928638D01*
X42068500Y-71131362D01*
X42068499Y-71131350D01*
X42061990Y-71070803D01*
X42061988Y-71070795D01*
X42016958Y-70950068D01*
X42010889Y-70933796D01*
X41937311Y-70835507D01*
X41912501Y-70768989D01*
X41927592Y-70699615D01*
X41937306Y-70684497D01*
X42010889Y-70586204D01*
X42061989Y-70449201D01*
X42068500Y-70388638D01*
X42068500Y-68591362D01*
X42068499Y-68591350D01*
X42061990Y-68530803D01*
X42061988Y-68530795D01*
X42016958Y-68410068D01*
X42010889Y-68393796D01*
X42010888Y-68393794D01*
X42010887Y-68393792D01*
X41937000Y-68295091D01*
X41912189Y-68228571D01*
X41927280Y-68159197D01*
X41937001Y-68144072D01*
X42010443Y-68045966D01*
X42010444Y-68045964D01*
X42061494Y-67909093D01*
X42067999Y-67848597D01*
X42068000Y-67848585D01*
X42068000Y-67204000D01*
X38226000Y-67204000D01*
X38157879Y-67183998D01*
X38111386Y-67130342D01*
X38100000Y-67078000D01*
X38100000Y-66822000D01*
X38120002Y-66753879D01*
X38173658Y-66707386D01*
X38226000Y-66696000D01*
X42068000Y-66696000D01*
X42068000Y-66051414D01*
X42067999Y-66051402D01*
X42061494Y-65990906D01*
X42010444Y-65854035D01*
X42010444Y-65854034D01*
X41937000Y-65755925D01*
X41912189Y-65689405D01*
X41927280Y-65620031D01*
X41936998Y-65604909D01*
X42010889Y-65506204D01*
X42061989Y-65369201D01*
X42067560Y-65317387D01*
X42068499Y-65308649D01*
X42068500Y-65308632D01*
X42068500Y-63511367D01*
X42068499Y-63511350D01*
X42061990Y-63450803D01*
X42061988Y-63450795D01*
X42010889Y-63313797D01*
X42010889Y-63313796D01*
X42010886Y-63313792D01*
X41937311Y-63215507D01*
X41912501Y-63148989D01*
X41927592Y-63079615D01*
X41937306Y-63064497D01*
X42010889Y-62966204D01*
X42061989Y-62829201D01*
X42067560Y-62777387D01*
X42068499Y-62768649D01*
X42068500Y-62768632D01*
X42068500Y-60971367D01*
X42068499Y-60971350D01*
X42061990Y-60910803D01*
X42061988Y-60910795D01*
X42010889Y-60773797D01*
X42010887Y-60773792D01*
X41937312Y-60675508D01*
X41912501Y-60608988D01*
X41927592Y-60539614D01*
X41937312Y-60524491D01*
X42010889Y-60426204D01*
X42061989Y-60289201D01*
X42065766Y-60254074D01*
X42068499Y-60228649D01*
X42068500Y-60228632D01*
X42068500Y-58431367D01*
X42068499Y-58431350D01*
X42061990Y-58370803D01*
X42061988Y-58370795D01*
X42030981Y-58287665D01*
X42010889Y-58233796D01*
X41937311Y-58135507D01*
X41912501Y-58068989D01*
X41927592Y-57999615D01*
X41937306Y-57984497D01*
X42010889Y-57886204D01*
X42061989Y-57749201D01*
X42068500Y-57688638D01*
X42068500Y-55891362D01*
X42068499Y-55891350D01*
X42061990Y-55830803D01*
X42061988Y-55830795D01*
X42010889Y-55693797D01*
X42010887Y-55693792D01*
X41937000Y-55595091D01*
X41912189Y-55528571D01*
X41927280Y-55459197D01*
X41937001Y-55444072D01*
X42010443Y-55345966D01*
X42010444Y-55345964D01*
X42061494Y-55209093D01*
X42067999Y-55148597D01*
X42068000Y-55148585D01*
X42068000Y-54504000D01*
X37552000Y-54504000D01*
X37552000Y-55148597D01*
X37558505Y-55209093D01*
X37609555Y-55345964D01*
X37609556Y-55345966D01*
X37682999Y-55444072D01*
X37707811Y-55510592D01*
X37692720Y-55579966D01*
X37683000Y-55595091D01*
X37609112Y-55693792D01*
X37609110Y-55693797D01*
X37558011Y-55830795D01*
X37558009Y-55830803D01*
X37551500Y-55891350D01*
X37551500Y-57688649D01*
X37558009Y-57749196D01*
X37558011Y-57749204D01*
X37609110Y-57886202D01*
X37609112Y-57886207D01*
X37682687Y-57984491D01*
X37707498Y-58051011D01*
X37692407Y-58120385D01*
X37682687Y-58135509D01*
X37609112Y-58233792D01*
X37609110Y-58233797D01*
X37558011Y-58370795D01*
X37558009Y-58370803D01*
X37551500Y-58431350D01*
X37551500Y-60228649D01*
X37558009Y-60289196D01*
X37558011Y-60289204D01*
X37609110Y-60426202D01*
X37609112Y-60426207D01*
X37682687Y-60524491D01*
X37707498Y-60591011D01*
X37692407Y-60660385D01*
X37682687Y-60675509D01*
X37609112Y-60773792D01*
X37609110Y-60773797D01*
X37558011Y-60910795D01*
X37558009Y-60910803D01*
X37551500Y-60971350D01*
X37551500Y-61035500D01*
X37531498Y-61103621D01*
X37477842Y-61150114D01*
X37425500Y-61161500D01*
X35553319Y-61161500D01*
X35549519Y-61161385D01*
X35486908Y-61157598D01*
X35486907Y-61157598D01*
X35486905Y-61157598D01*
X35425218Y-61168902D01*
X35421459Y-61169474D01*
X35413178Y-61170480D01*
X35359202Y-61177034D01*
X35359195Y-61177035D01*
X35349661Y-61180651D01*
X35327710Y-61186770D01*
X35317678Y-61188609D01*
X35317664Y-61188613D01*
X35260479Y-61214350D01*
X35256965Y-61215805D01*
X35207389Y-61234608D01*
X35198325Y-61238046D01*
X35198324Y-61238046D01*
X35198323Y-61238047D01*
X35189929Y-61243841D01*
X35170074Y-61255039D01*
X35160777Y-61259223D01*
X35160776Y-61259224D01*
X35111414Y-61297895D01*
X35108351Y-61300149D01*
X35056727Y-61335783D01*
X35056727Y-61335784D01*
X35015126Y-61382740D01*
X35012518Y-61385511D01*
X33015511Y-63382518D01*
X33012740Y-63385126D01*
X32965784Y-63426726D01*
X32930157Y-63478339D01*
X32927904Y-63481401D01*
X32889227Y-63530769D01*
X32889222Y-63530779D01*
X32885035Y-63540080D01*
X32873846Y-63559921D01*
X32868045Y-63568326D01*
X32845807Y-63626961D01*
X32844351Y-63630476D01*
X32818613Y-63687665D01*
X32818609Y-63687678D01*
X32816770Y-63697711D01*
X32810651Y-63719661D01*
X32807034Y-63729199D01*
X32799476Y-63791441D01*
X32798904Y-63795201D01*
X32787598Y-63856906D01*
X32791385Y-63919508D01*
X32791500Y-63923313D01*
X32791500Y-90876685D01*
X32791385Y-90880488D01*
X32787598Y-90943093D01*
X32795289Y-90985063D01*
X32798902Y-91004782D01*
X32799475Y-91008544D01*
X32807033Y-91070794D01*
X32807034Y-91070798D01*
X32810650Y-91080333D01*
X32816771Y-91102289D01*
X32818612Y-91112332D01*
X32844353Y-91169528D01*
X32845809Y-91173043D01*
X32859334Y-91208705D01*
X32868046Y-91231675D01*
X32873840Y-91240069D01*
X32885035Y-91259919D01*
X32889223Y-91269222D01*
X32889225Y-91269226D01*
X32913449Y-91300146D01*
X32927899Y-91318590D01*
X32930154Y-91321655D01*
X32965783Y-91373271D01*
X32965784Y-91373272D01*
X32965785Y-91373273D01*
X33012750Y-91414880D01*
X33015494Y-91417464D01*
X39482533Y-97884503D01*
X39485119Y-97887249D01*
X39526727Y-97934215D01*
X39578348Y-97969846D01*
X39581379Y-97972076D01*
X39630774Y-98010775D01*
X39640063Y-98014955D01*
X39659932Y-98026161D01*
X39668321Y-98031951D01*
X39668321Y-98031952D01*
X39668323Y-98031952D01*
X39668325Y-98031954D01*
X39713418Y-98049055D01*
X39726974Y-98054196D01*
X39730478Y-98055647D01*
X39787671Y-98081388D01*
X39797703Y-98083226D01*
X39819659Y-98089347D01*
X39829199Y-98092965D01*
X39891494Y-98100529D01*
X39895198Y-98101092D01*
X39956907Y-98112401D01*
X40019502Y-98108614D01*
X40023302Y-98108500D01*
X79376685Y-98108500D01*
X79380488Y-98108614D01*
X79443093Y-98112402D01*
X79504812Y-98101091D01*
X79508525Y-98100526D01*
X79570801Y-98092965D01*
X79580330Y-98089350D01*
X79602304Y-98083226D01*
X79602320Y-98083223D01*
X79612329Y-98081389D01*
X79669552Y-98055634D01*
X79673009Y-98054202D01*
X79731675Y-98031954D01*
X79740066Y-98026161D01*
X79759922Y-98014961D01*
X79769226Y-98010775D01*
X79818636Y-97972063D01*
X79821621Y-97969867D01*
X79873273Y-97934215D01*
X79914896Y-97887231D01*
X79917449Y-97884519D01*
X80270968Y-97531000D01*
X82742000Y-97531000D01*
X85096000Y-97531000D01*
X85096000Y-96602000D01*
X83201402Y-96602000D01*
X83140906Y-96608505D01*
X83004035Y-96659555D01*
X83004034Y-96659555D01*
X82887095Y-96747095D01*
X82799555Y-96864034D01*
X82799555Y-96864035D01*
X82748505Y-97000906D01*
X82742000Y-97061402D01*
X82742000Y-97531000D01*
X80270968Y-97531000D01*
X82096564Y-95705405D01*
X82158877Y-95671379D01*
X82185660Y-95668500D01*
X83147212Y-95668500D01*
X83215333Y-95688502D01*
X83261826Y-95742158D01*
X83265267Y-95750467D01*
X83299110Y-95841202D01*
X83299112Y-95841207D01*
X83386738Y-95958261D01*
X83503792Y-96045887D01*
X83503794Y-96045888D01*
X83503796Y-96045889D01*
X83562875Y-96067924D01*
X83640795Y-96096988D01*
X83640803Y-96096990D01*
X83701350Y-96103499D01*
X83701355Y-96103499D01*
X83701362Y-96103500D01*
X83701368Y-96103500D01*
X87398632Y-96103500D01*
X87398638Y-96103500D01*
X87398645Y-96103499D01*
X87398649Y-96103499D01*
X87459196Y-96096990D01*
X87459199Y-96096989D01*
X87459201Y-96096989D01*
X87596204Y-96045889D01*
X87651141Y-96004764D01*
X87713261Y-95958261D01*
X87772632Y-95878951D01*
X87829467Y-95836404D01*
X87900283Y-95831339D01*
X87962595Y-95865365D01*
X87996620Y-95927677D01*
X87999500Y-95954460D01*
X87999500Y-96635063D01*
X87979498Y-96703184D01*
X87925842Y-96749677D01*
X87855568Y-96759781D01*
X87797991Y-96735931D01*
X87695965Y-96659556D01*
X87695964Y-96659555D01*
X87559093Y-96608505D01*
X87498597Y-96602000D01*
X85604000Y-96602000D01*
X85604000Y-97913000D01*
X85583998Y-97981121D01*
X85530342Y-98027614D01*
X85478000Y-98039000D01*
X82742000Y-98039000D01*
X82742000Y-98508597D01*
X82748505Y-98569093D01*
X82799555Y-98705964D01*
X82799555Y-98705965D01*
X82868446Y-98797991D01*
X82893257Y-98864511D01*
X82878166Y-98933885D01*
X82827964Y-98984087D01*
X82767578Y-98999500D01*
X32126500Y-98999500D01*
X32058379Y-98979498D01*
X32011886Y-98925842D01*
X32000500Y-98873500D01*
X32000500Y-52608649D01*
X37551500Y-52608649D01*
X37558009Y-52669196D01*
X37558011Y-52669204D01*
X37609110Y-52806202D01*
X37609112Y-52806207D01*
X37682999Y-52904907D01*
X37707810Y-52971427D01*
X37692719Y-53040801D01*
X37683000Y-53055924D01*
X37609555Y-53154035D01*
X37558505Y-53290906D01*
X37552000Y-53351402D01*
X37552000Y-53996000D01*
X42068000Y-53996000D01*
X42068000Y-53351414D01*
X42067999Y-53351402D01*
X42061494Y-53290906D01*
X42010444Y-53154035D01*
X42010444Y-53154034D01*
X41937000Y-53055925D01*
X41912189Y-52989405D01*
X41927280Y-52920031D01*
X41936998Y-52904909D01*
X42010889Y-52806204D01*
X42059639Y-52675502D01*
X42061988Y-52669204D01*
X42061990Y-52669196D01*
X42068499Y-52608649D01*
X42068500Y-52608632D01*
X42068500Y-50811367D01*
X42068499Y-50811350D01*
X42061990Y-50750803D01*
X42061988Y-50750795D01*
X42010889Y-50613797D01*
X42010889Y-50613796D01*
X42010886Y-50613792D01*
X41937311Y-50515507D01*
X41912501Y-50448989D01*
X41927592Y-50379615D01*
X41937306Y-50364497D01*
X42010889Y-50266204D01*
X42061989Y-50129201D01*
X42068500Y-50068638D01*
X42068500Y-48271362D01*
X42068499Y-48271350D01*
X42061990Y-48210803D01*
X42061988Y-48210795D01*
X42010889Y-48073797D01*
X42010889Y-48073796D01*
X42010886Y-48073792D01*
X41937311Y-47975507D01*
X41912501Y-47908989D01*
X41927592Y-47839615D01*
X41937306Y-47824497D01*
X42010889Y-47726204D01*
X42061989Y-47589201D01*
X42066093Y-47551032D01*
X42068499Y-47528649D01*
X42068500Y-47528632D01*
X42068500Y-45731367D01*
X42068499Y-45731350D01*
X42061990Y-45670803D01*
X42061988Y-45670795D01*
X42010889Y-45533797D01*
X42010889Y-45533796D01*
X42010886Y-45533792D01*
X41937311Y-45435507D01*
X41912501Y-45368989D01*
X41927592Y-45299615D01*
X41937306Y-45284497D01*
X42010889Y-45186204D01*
X42061989Y-45049201D01*
X42068500Y-44988638D01*
X42068500Y-43191362D01*
X42068499Y-43191350D01*
X42061990Y-43130803D01*
X42061988Y-43130795D01*
X42010889Y-42993797D01*
X42010887Y-42993792D01*
X41937000Y-42895091D01*
X41912189Y-42828571D01*
X41927280Y-42759197D01*
X41937001Y-42744072D01*
X42010443Y-42645966D01*
X42010444Y-42645964D01*
X42061494Y-42509093D01*
X42067999Y-42448597D01*
X42068000Y-42448585D01*
X42068000Y-41804000D01*
X37552000Y-41804000D01*
X37552000Y-42448597D01*
X37558505Y-42509093D01*
X37609555Y-42645964D01*
X37609556Y-42645966D01*
X37682999Y-42744072D01*
X37707811Y-42810592D01*
X37692720Y-42879966D01*
X37683000Y-42895091D01*
X37609112Y-42993792D01*
X37609110Y-42993797D01*
X37558011Y-43130795D01*
X37558009Y-43130803D01*
X37551500Y-43191350D01*
X37551500Y-44988649D01*
X37558009Y-45049196D01*
X37558011Y-45049204D01*
X37609110Y-45186202D01*
X37609112Y-45186207D01*
X37682687Y-45284491D01*
X37707498Y-45351011D01*
X37692407Y-45420385D01*
X37682687Y-45435509D01*
X37609112Y-45533792D01*
X37609110Y-45533797D01*
X37558011Y-45670795D01*
X37558009Y-45670803D01*
X37551500Y-45731350D01*
X37551500Y-47528649D01*
X37558009Y-47589196D01*
X37558011Y-47589204D01*
X37609110Y-47726202D01*
X37609112Y-47726207D01*
X37682687Y-47824490D01*
X37707498Y-47891010D01*
X37692407Y-47960384D01*
X37682688Y-47975507D01*
X37609112Y-48073793D01*
X37609110Y-48073797D01*
X37558011Y-48210795D01*
X37558009Y-48210803D01*
X37551500Y-48271350D01*
X37551500Y-50068649D01*
X37558009Y-50129196D01*
X37558011Y-50129204D01*
X37609110Y-50266202D01*
X37609112Y-50266207D01*
X37682687Y-50364490D01*
X37707498Y-50431010D01*
X37692407Y-50500384D01*
X37682688Y-50515507D01*
X37609112Y-50613793D01*
X37609110Y-50613797D01*
X37558011Y-50750795D01*
X37558009Y-50750803D01*
X37551500Y-50811350D01*
X37551500Y-52608649D01*
X32000500Y-52608649D01*
X32000500Y-39908649D01*
X37551500Y-39908649D01*
X37558009Y-39969196D01*
X37558011Y-39969204D01*
X37609110Y-40106202D01*
X37609112Y-40106207D01*
X37682999Y-40204907D01*
X37707810Y-40271427D01*
X37692719Y-40340801D01*
X37683000Y-40355924D01*
X37609555Y-40454035D01*
X37558505Y-40590906D01*
X37552000Y-40651402D01*
X37552000Y-41296000D01*
X42068000Y-41296000D01*
X42068000Y-40651414D01*
X42067999Y-40651402D01*
X42061494Y-40590906D01*
X42010444Y-40454035D01*
X42010444Y-40454034D01*
X41937000Y-40355925D01*
X41912189Y-40289405D01*
X41927280Y-40220031D01*
X41936998Y-40204909D01*
X42010889Y-40106204D01*
X42061989Y-39969201D01*
X42063620Y-39954035D01*
X42068499Y-39908649D01*
X42068500Y-39908632D01*
X42068500Y-38111367D01*
X42068499Y-38111350D01*
X42061990Y-38050803D01*
X42061988Y-38050795D01*
X42010889Y-37913797D01*
X42010889Y-37913796D01*
X42004148Y-37904791D01*
X41937311Y-37815507D01*
X41912501Y-37748989D01*
X41927592Y-37679615D01*
X41937306Y-37664497D01*
X42010889Y-37566204D01*
X42061989Y-37429201D01*
X42062337Y-37425970D01*
X42068499Y-37368649D01*
X42068500Y-37368632D01*
X42068500Y-35571367D01*
X42068499Y-35571350D01*
X42061990Y-35510803D01*
X42061988Y-35510795D01*
X42010889Y-35373797D01*
X42010887Y-35373792D01*
X41923261Y-35256738D01*
X41806207Y-35169112D01*
X41806202Y-35169110D01*
X41669204Y-35118011D01*
X41669196Y-35118009D01*
X41608649Y-35111500D01*
X41608638Y-35111500D01*
X38011362Y-35111500D01*
X38011350Y-35111500D01*
X37950803Y-35118009D01*
X37950795Y-35118011D01*
X37813797Y-35169110D01*
X37813792Y-35169112D01*
X37696738Y-35256738D01*
X37609112Y-35373792D01*
X37609110Y-35373797D01*
X37558011Y-35510795D01*
X37558009Y-35510803D01*
X37551500Y-35571350D01*
X37551500Y-37368649D01*
X37558009Y-37429196D01*
X37558011Y-37429204D01*
X37609110Y-37566202D01*
X37609112Y-37566207D01*
X37682687Y-37664491D01*
X37707498Y-37731011D01*
X37692407Y-37800385D01*
X37682687Y-37815509D01*
X37609112Y-37913792D01*
X37609110Y-37913797D01*
X37558011Y-38050795D01*
X37558009Y-38050803D01*
X37551500Y-38111350D01*
X37551500Y-39908649D01*
X32000500Y-39908649D01*
X32000500Y-34126500D01*
X32020502Y-34058379D01*
X32074158Y-34011886D01*
X32126500Y-34000500D01*
X43863032Y-34000500D01*
X43931153Y-34020502D01*
G37*
%TD.AperFunction*%
%TA.AperFunction,Conductor*%
G36*
X77160179Y-60779595D02*
G01*
X77207351Y-60809321D01*
X79054595Y-62656565D01*
X79088621Y-62718877D01*
X79091500Y-62745660D01*
X79091500Y-72076685D01*
X79091385Y-72080488D01*
X79087598Y-72143093D01*
X79095301Y-72185130D01*
X79098902Y-72204782D01*
X79099475Y-72208544D01*
X79107033Y-72270794D01*
X79107034Y-72270798D01*
X79110650Y-72280333D01*
X79116771Y-72302289D01*
X79118612Y-72312332D01*
X79144353Y-72369528D01*
X79145809Y-72373043D01*
X79159334Y-72408705D01*
X79168046Y-72431675D01*
X79173840Y-72440069D01*
X79185035Y-72459919D01*
X79189223Y-72469222D01*
X79189225Y-72469226D01*
X79213449Y-72500146D01*
X79227899Y-72518590D01*
X79230154Y-72521655D01*
X79265783Y-72573271D01*
X79265784Y-72573272D01*
X79265785Y-72573273D01*
X79312750Y-72614880D01*
X79315494Y-72617464D01*
X82872533Y-76174503D01*
X82875126Y-76177257D01*
X82905344Y-76211367D01*
X82916727Y-76224215D01*
X82949666Y-76246951D01*
X82968355Y-76259852D01*
X82971389Y-76262083D01*
X83020775Y-76300775D01*
X83030070Y-76304958D01*
X83049933Y-76316161D01*
X83058325Y-76321954D01*
X83116986Y-76344200D01*
X83120466Y-76345642D01*
X83177671Y-76371389D01*
X83187704Y-76373227D01*
X83209662Y-76379348D01*
X83219199Y-76382965D01*
X83219201Y-76382965D01*
X83223673Y-76384661D01*
X83280276Y-76427518D01*
X83297052Y-76458442D01*
X83339110Y-76571202D01*
X83339112Y-76571207D01*
X83426738Y-76688261D01*
X83543792Y-76775887D01*
X83543794Y-76775888D01*
X83543796Y-76775889D01*
X83602875Y-76797924D01*
X83680795Y-76826988D01*
X83680803Y-76826990D01*
X83741350Y-76833499D01*
X83741355Y-76833499D01*
X83741362Y-76833500D01*
X83741368Y-76833500D01*
X87438632Y-76833500D01*
X87438638Y-76833500D01*
X87438645Y-76833499D01*
X87438649Y-76833499D01*
X87499196Y-76826990D01*
X87499199Y-76826989D01*
X87499201Y-76826989D01*
X87636204Y-76775889D01*
X87753261Y-76688261D01*
X87759084Y-76680483D01*
X87772632Y-76662385D01*
X87829468Y-76619838D01*
X87900284Y-76614774D01*
X87962596Y-76648799D01*
X87996621Y-76711111D01*
X87999500Y-76737894D01*
X87999500Y-77335120D01*
X87979498Y-77403241D01*
X87925842Y-77449734D01*
X87855568Y-77459838D01*
X87797991Y-77435988D01*
X87735965Y-77389555D01*
X87599093Y-77338505D01*
X87538597Y-77332000D01*
X85644000Y-77332000D01*
X85644000Y-79698000D01*
X87538585Y-79698000D01*
X87538597Y-79697999D01*
X87599093Y-79691494D01*
X87735964Y-79640444D01*
X87735966Y-79640443D01*
X87797990Y-79594012D01*
X87864510Y-79569200D01*
X87933884Y-79584291D01*
X87984087Y-79634492D01*
X87999500Y-79694879D01*
X87999500Y-90985063D01*
X87979498Y-91053184D01*
X87925842Y-91099677D01*
X87855568Y-91109781D01*
X87797991Y-91085931D01*
X87695965Y-91009556D01*
X87695964Y-91009555D01*
X87559093Y-90958505D01*
X87498597Y-90952000D01*
X85604000Y-90952000D01*
X85604000Y-93318000D01*
X87498585Y-93318000D01*
X87498597Y-93317999D01*
X87559093Y-93311494D01*
X87695964Y-93260444D01*
X87695965Y-93260444D01*
X87797991Y-93184068D01*
X87864511Y-93159257D01*
X87933885Y-93174348D01*
X87984087Y-93224550D01*
X87999500Y-93284936D01*
X87999500Y-93965539D01*
X87979498Y-94033660D01*
X87925842Y-94080153D01*
X87855568Y-94090257D01*
X87790988Y-94060763D01*
X87772632Y-94041049D01*
X87727884Y-93981273D01*
X87713261Y-93961739D01*
X87713259Y-93961738D01*
X87713259Y-93961737D01*
X87596207Y-93874112D01*
X87596202Y-93874110D01*
X87459204Y-93823011D01*
X87459196Y-93823009D01*
X87398649Y-93816500D01*
X87398638Y-93816500D01*
X83701362Y-93816500D01*
X83701350Y-93816500D01*
X83640803Y-93823009D01*
X83640795Y-93823011D01*
X83503797Y-93874110D01*
X83503792Y-93874112D01*
X83386738Y-93961738D01*
X83299112Y-94078792D01*
X83299110Y-94078797D01*
X83265267Y-94169533D01*
X83222720Y-94226369D01*
X83156200Y-94251179D01*
X83147212Y-94251500D01*
X81863315Y-94251500D01*
X81859511Y-94251385D01*
X81796907Y-94247598D01*
X81796906Y-94247598D01*
X81735201Y-94258904D01*
X81731441Y-94259476D01*
X81669199Y-94267034D01*
X81659661Y-94270651D01*
X81637711Y-94276770D01*
X81627678Y-94278609D01*
X81627665Y-94278613D01*
X81570476Y-94304351D01*
X81566961Y-94305807D01*
X81508326Y-94328045D01*
X81499921Y-94333846D01*
X81480080Y-94345035D01*
X81470779Y-94349222D01*
X81470769Y-94349227D01*
X81421401Y-94387904D01*
X81418339Y-94390157D01*
X81366726Y-94425784D01*
X81325126Y-94472740D01*
X81322518Y-94475511D01*
X79143435Y-96654595D01*
X79081123Y-96688620D01*
X79054340Y-96691500D01*
X78714660Y-96691500D01*
X78646539Y-96671498D01*
X78600046Y-96617842D01*
X78589942Y-96547568D01*
X78619436Y-96482988D01*
X78625565Y-96476405D01*
X78653179Y-96448790D01*
X78684517Y-96417452D01*
X78687264Y-96414866D01*
X78734215Y-96373273D01*
X78769850Y-96321644D01*
X78772071Y-96318626D01*
X78810775Y-96269226D01*
X78814961Y-96259922D01*
X78826161Y-96240066D01*
X78831954Y-96231675D01*
X78854206Y-96172998D01*
X78855633Y-96169552D01*
X78881388Y-96112330D01*
X78883224Y-96102308D01*
X78889351Y-96080329D01*
X78892965Y-96070801D01*
X78900526Y-96008520D01*
X78901094Y-96004787D01*
X78912401Y-95943093D01*
X78908614Y-95880498D01*
X78908500Y-95876696D01*
X78908500Y-92389000D01*
X82742000Y-92389000D01*
X82742000Y-92858597D01*
X82748505Y-92919093D01*
X82799555Y-93055964D01*
X82799555Y-93055965D01*
X82887095Y-93172904D01*
X83004034Y-93260444D01*
X83140906Y-93311494D01*
X83201402Y-93317999D01*
X83201415Y-93318000D01*
X85096000Y-93318000D01*
X85096000Y-92389000D01*
X82742000Y-92389000D01*
X78908500Y-92389000D01*
X78908500Y-91881000D01*
X82742000Y-91881000D01*
X85096000Y-91881000D01*
X85096000Y-90952000D01*
X83201402Y-90952000D01*
X83140906Y-90958505D01*
X83004035Y-91009555D01*
X83004034Y-91009555D01*
X82887095Y-91097095D01*
X82799555Y-91214034D01*
X82799555Y-91214035D01*
X82748505Y-91350906D01*
X82742000Y-91411402D01*
X82742000Y-91881000D01*
X78908500Y-91881000D01*
X78908500Y-86747665D01*
X78908615Y-86743860D01*
X78912401Y-86681270D01*
X78901092Y-86619561D01*
X78900529Y-86615857D01*
X78892965Y-86553562D01*
X78889347Y-86544022D01*
X78883226Y-86522066D01*
X78881388Y-86512034D01*
X78855647Y-86454841D01*
X78854196Y-86451337D01*
X78831952Y-86392684D01*
X78826161Y-86384295D01*
X78814954Y-86364424D01*
X78810775Y-86355137D01*
X78772076Y-86305742D01*
X78769846Y-86302711D01*
X78734215Y-86251090D01*
X78687249Y-86209482D01*
X78684503Y-86206896D01*
X76805255Y-84327648D01*
X76771229Y-84265336D01*
X76776294Y-84194521D01*
X76796949Y-84158622D01*
X76842595Y-84103004D01*
X76936241Y-83927804D01*
X76993908Y-83737701D01*
X77004143Y-83633792D01*
X77013380Y-83540003D01*
X77013380Y-83539996D01*
X76993909Y-83342305D01*
X76993908Y-83342303D01*
X76993908Y-83342299D01*
X76936241Y-83152196D01*
X76842595Y-82976996D01*
X76716568Y-82823432D01*
X76563004Y-82697405D01*
X76387804Y-82603759D01*
X76282571Y-82571837D01*
X76223191Y-82532923D01*
X76194275Y-82468081D01*
X76205006Y-82397900D01*
X76251976Y-82344662D01*
X76298410Y-82326981D01*
X76334507Y-82320957D01*
X76334516Y-82320955D01*
X76547369Y-82247883D01*
X76547371Y-82247882D01*
X76745300Y-82140768D01*
X76745301Y-82140767D01*
X76922902Y-82002534D01*
X77075325Y-81836958D01*
X77198419Y-81648548D01*
X77288820Y-81442456D01*
X77288823Y-81442449D01*
X77336544Y-81254000D01*
X76614844Y-81254000D01*
X76546723Y-81233998D01*
X76500230Y-81180342D01*
X76490126Y-81110068D01*
X76493947Y-81092504D01*
X76500000Y-81071888D01*
X76500000Y-80928111D01*
X76493947Y-80907496D01*
X76493948Y-80836500D01*
X76532333Y-80776774D01*
X76596914Y-80747282D01*
X76614844Y-80746000D01*
X77336544Y-80746000D01*
X77336544Y-80745999D01*
X77288823Y-80557550D01*
X77288820Y-80557543D01*
X77198419Y-80351451D01*
X77075325Y-80163041D01*
X76922902Y-79997465D01*
X76745301Y-79859232D01*
X76745300Y-79859231D01*
X76711267Y-79840814D01*
X76660876Y-79790801D01*
X76645524Y-79721484D01*
X76670085Y-79654871D01*
X76711267Y-79619186D01*
X76745300Y-79600768D01*
X76745301Y-79600767D01*
X76922902Y-79462534D01*
X77075325Y-79296958D01*
X77198419Y-79108548D01*
X77288820Y-78902456D01*
X77288823Y-78902449D01*
X77322616Y-78769000D01*
X82782000Y-78769000D01*
X82782000Y-79238597D01*
X82788505Y-79299093D01*
X82839555Y-79435964D01*
X82839555Y-79435965D01*
X82927095Y-79552904D01*
X83044034Y-79640444D01*
X83180906Y-79691494D01*
X83241402Y-79697999D01*
X83241415Y-79698000D01*
X85136000Y-79698000D01*
X85136000Y-78769000D01*
X82782000Y-78769000D01*
X77322616Y-78769000D01*
X77336544Y-78714000D01*
X76614844Y-78714000D01*
X76546723Y-78693998D01*
X76500230Y-78640342D01*
X76490126Y-78570068D01*
X76493947Y-78552504D01*
X76500000Y-78531888D01*
X76500000Y-78388111D01*
X76493947Y-78367496D01*
X76493948Y-78296500D01*
X76516763Y-78261000D01*
X82782000Y-78261000D01*
X85136000Y-78261000D01*
X85136000Y-77332000D01*
X83241402Y-77332000D01*
X83180906Y-77338505D01*
X83044035Y-77389555D01*
X83044034Y-77389555D01*
X82927095Y-77477095D01*
X82839555Y-77594034D01*
X82839555Y-77594035D01*
X82788505Y-77730906D01*
X82782000Y-77791402D01*
X82782000Y-78261000D01*
X76516763Y-78261000D01*
X76532333Y-78236774D01*
X76596914Y-78207282D01*
X76614844Y-78206000D01*
X77336544Y-78206000D01*
X77336544Y-78205999D01*
X77288823Y-78017550D01*
X77288820Y-78017543D01*
X77198419Y-77811451D01*
X77075325Y-77623041D01*
X76922902Y-77457465D01*
X76745301Y-77319232D01*
X76745300Y-77319231D01*
X76711267Y-77300814D01*
X76660876Y-77250801D01*
X76645524Y-77181484D01*
X76670085Y-77114871D01*
X76711267Y-77079186D01*
X76745300Y-77060768D01*
X76745301Y-77060767D01*
X76922902Y-76922534D01*
X77075325Y-76756958D01*
X77198419Y-76568548D01*
X77288820Y-76362456D01*
X77288823Y-76362449D01*
X77336544Y-76174000D01*
X76614844Y-76174000D01*
X76546723Y-76153998D01*
X76500230Y-76100342D01*
X76490126Y-76030068D01*
X76493947Y-76012504D01*
X76500000Y-75991888D01*
X76500000Y-75848111D01*
X76493947Y-75827496D01*
X76493948Y-75756500D01*
X76532333Y-75696774D01*
X76596914Y-75667282D01*
X76614844Y-75666000D01*
X77336544Y-75666000D01*
X77336544Y-75665999D01*
X77288823Y-75477550D01*
X77288820Y-75477543D01*
X77198419Y-75271451D01*
X77075325Y-75083041D01*
X76922902Y-74917465D01*
X76745301Y-74779232D01*
X76745300Y-74779231D01*
X76711267Y-74760814D01*
X76660876Y-74710801D01*
X76645524Y-74641484D01*
X76670085Y-74574871D01*
X76711267Y-74539186D01*
X76745300Y-74520768D01*
X76745301Y-74520767D01*
X76922902Y-74382534D01*
X77075325Y-74216958D01*
X77198419Y-74028548D01*
X77288820Y-73822456D01*
X77288823Y-73822449D01*
X77336544Y-73634000D01*
X76614844Y-73634000D01*
X76546723Y-73613998D01*
X76500230Y-73560342D01*
X76490126Y-73490068D01*
X76493947Y-73472504D01*
X76500000Y-73451888D01*
X76500000Y-73308111D01*
X76493947Y-73287496D01*
X76493948Y-73216500D01*
X76532333Y-73156774D01*
X76596914Y-73127282D01*
X76614844Y-73126000D01*
X77336544Y-73126000D01*
X77336544Y-73125999D01*
X77288823Y-72937550D01*
X77288820Y-72937543D01*
X77198419Y-72731451D01*
X77075325Y-72543041D01*
X76922902Y-72377465D01*
X76745301Y-72239232D01*
X76745300Y-72239231D01*
X76711267Y-72220814D01*
X76660876Y-72170801D01*
X76645524Y-72101484D01*
X76670085Y-72034871D01*
X76711267Y-71999186D01*
X76745300Y-71980768D01*
X76745301Y-71980767D01*
X76922902Y-71842534D01*
X77075325Y-71676958D01*
X77198419Y-71488548D01*
X77288820Y-71282456D01*
X77288823Y-71282449D01*
X77336544Y-71094000D01*
X76614844Y-71094000D01*
X76546723Y-71073998D01*
X76500230Y-71020342D01*
X76490126Y-70950068D01*
X76493947Y-70932504D01*
X76500000Y-70911888D01*
X76500000Y-70768111D01*
X76493947Y-70747496D01*
X76493948Y-70676500D01*
X76532333Y-70616774D01*
X76596914Y-70587282D01*
X76614844Y-70586000D01*
X77336544Y-70586000D01*
X77336544Y-70585999D01*
X77288823Y-70397550D01*
X77288820Y-70397543D01*
X77198419Y-70191451D01*
X77075325Y-70003041D01*
X76922902Y-69837465D01*
X76745301Y-69699232D01*
X76745300Y-69699231D01*
X76711267Y-69680814D01*
X76660876Y-69630801D01*
X76645524Y-69561484D01*
X76670085Y-69494871D01*
X76711267Y-69459186D01*
X76745300Y-69440768D01*
X76745301Y-69440767D01*
X76922902Y-69302534D01*
X77075325Y-69136958D01*
X77198419Y-68948548D01*
X77288820Y-68742456D01*
X77288823Y-68742449D01*
X77336544Y-68554000D01*
X76614844Y-68554000D01*
X76546723Y-68533998D01*
X76500230Y-68480342D01*
X76490126Y-68410068D01*
X76493947Y-68392504D01*
X76500000Y-68371888D01*
X76500000Y-68228111D01*
X76493947Y-68207496D01*
X76493948Y-68136500D01*
X76532333Y-68076774D01*
X76596914Y-68047282D01*
X76614844Y-68046000D01*
X77336544Y-68046000D01*
X77336544Y-68045999D01*
X77288823Y-67857550D01*
X77288820Y-67857543D01*
X77198419Y-67651451D01*
X77075325Y-67463041D01*
X76922902Y-67297465D01*
X76745301Y-67159232D01*
X76745300Y-67159231D01*
X76711267Y-67140814D01*
X76660876Y-67090801D01*
X76645524Y-67021484D01*
X76670085Y-66954871D01*
X76711267Y-66919186D01*
X76745300Y-66900768D01*
X76745301Y-66900767D01*
X76922902Y-66762534D01*
X77075325Y-66596958D01*
X77198419Y-66408548D01*
X77288820Y-66202456D01*
X77288823Y-66202449D01*
X77336544Y-66014000D01*
X76614844Y-66014000D01*
X76546723Y-65993998D01*
X76500230Y-65940342D01*
X76490126Y-65870068D01*
X76493947Y-65852504D01*
X76500000Y-65831888D01*
X76500000Y-65688111D01*
X76493947Y-65667496D01*
X76493948Y-65596500D01*
X76532333Y-65536774D01*
X76596914Y-65507282D01*
X76614844Y-65506000D01*
X77336544Y-65506000D01*
X77336544Y-65505999D01*
X77288823Y-65317550D01*
X77288820Y-65317543D01*
X77198419Y-65111451D01*
X77075325Y-64923041D01*
X76922902Y-64757465D01*
X76745301Y-64619232D01*
X76745300Y-64619231D01*
X76711791Y-64601097D01*
X76661401Y-64551083D01*
X76646050Y-64481766D01*
X76670612Y-64415153D01*
X76711790Y-64379472D01*
X76745576Y-64361189D01*
X76923240Y-64222906D01*
X77075722Y-64057268D01*
X77198860Y-63868791D01*
X77289296Y-63662616D01*
X77344564Y-63444368D01*
X77363156Y-63220000D01*
X77344564Y-62995632D01*
X77289296Y-62777384D01*
X77198860Y-62571209D01*
X77170954Y-62528496D01*
X77075724Y-62382734D01*
X77075720Y-62382729D01*
X76959570Y-62256558D01*
X76923240Y-62217094D01*
X76923239Y-62217093D01*
X76923237Y-62217091D01*
X76806061Y-62125889D01*
X76745576Y-62078811D01*
X76547574Y-61971658D01*
X76547572Y-61971657D01*
X76547571Y-61971656D01*
X76334639Y-61898557D01*
X76334622Y-61898553D01*
X76299487Y-61892690D01*
X76235588Y-61861748D01*
X76198561Y-61801172D01*
X76200162Y-61730193D01*
X76239883Y-61671348D01*
X76283647Y-61647836D01*
X76387804Y-61616241D01*
X76563004Y-61522595D01*
X76716568Y-61396568D01*
X76842595Y-61243004D01*
X76936241Y-61067804D01*
X76993908Y-60877701D01*
X76993909Y-60877689D01*
X76994678Y-60873830D01*
X76995638Y-60871994D01*
X76995704Y-60871778D01*
X76995744Y-60871790D01*
X77027588Y-60810921D01*
X77089284Y-60775792D01*
X77160179Y-60779595D01*
G37*
%TD.AperFunction*%
%TA.AperFunction,Conductor*%
G36*
X58875534Y-53888502D02*
G01*
X58922027Y-53942158D01*
X58932131Y-54012432D01*
X58925468Y-54038533D01*
X58887511Y-54140295D01*
X58887509Y-54140303D01*
X58881000Y-54200850D01*
X58881000Y-54299149D01*
X58887509Y-54359696D01*
X58887511Y-54359704D01*
X58938610Y-54496702D01*
X58938612Y-54496707D01*
X59026238Y-54613761D01*
X59143292Y-54701387D01*
X59143294Y-54701388D01*
X59143296Y-54701389D01*
X59202375Y-54723424D01*
X59280295Y-54752488D01*
X59280303Y-54752490D01*
X59340850Y-54758999D01*
X59340855Y-54758999D01*
X59340862Y-54759000D01*
X59340868Y-54759000D01*
X59439132Y-54759000D01*
X59439138Y-54759000D01*
X59439145Y-54758999D01*
X59439149Y-54758999D01*
X59499696Y-54752490D01*
X59499699Y-54752489D01*
X59499701Y-54752489D01*
X59636704Y-54701389D01*
X59666204Y-54679306D01*
X59753761Y-54613761D01*
X59841387Y-54496707D01*
X59841387Y-54496706D01*
X59841389Y-54496704D01*
X59892489Y-54359701D01*
X59899000Y-54299138D01*
X59899000Y-54200862D01*
X59896660Y-54179093D01*
X59892490Y-54140303D01*
X59892488Y-54140295D01*
X59854532Y-54038533D01*
X59849466Y-53967718D01*
X59883491Y-53905405D01*
X59945803Y-53871380D01*
X59972587Y-53868500D01*
X70674340Y-53868500D01*
X70742461Y-53888502D01*
X70763435Y-53905405D01*
X72088700Y-55230670D01*
X72122726Y-55292982D01*
X72121750Y-55350692D01*
X72115437Y-55375623D01*
X72115436Y-55375630D01*
X72115436Y-55375632D01*
X72096844Y-55600000D01*
X72114232Y-55809844D01*
X72115437Y-55824375D01*
X72170702Y-56042612D01*
X72170703Y-56042613D01*
X72170704Y-56042616D01*
X72261140Y-56248791D01*
X72261141Y-56248793D01*
X72384275Y-56437265D01*
X72384279Y-56437270D01*
X72536762Y-56602908D01*
X72591331Y-56645381D01*
X72714424Y-56741189D01*
X72912426Y-56848342D01*
X72912427Y-56848342D01*
X72912428Y-56848343D01*
X72935053Y-56856110D01*
X73125365Y-56921444D01*
X73160510Y-56927308D01*
X73224409Y-56958249D01*
X73261437Y-57018825D01*
X73259838Y-57089803D01*
X73220118Y-57148649D01*
X73176348Y-57172164D01*
X73072201Y-57203756D01*
X73072196Y-57203758D01*
X72896995Y-57297405D01*
X72743432Y-57423432D01*
X72617405Y-57576995D01*
X72523759Y-57752195D01*
X72466090Y-57942305D01*
X72446620Y-58139996D01*
X72446620Y-58140003D01*
X72466090Y-58337694D01*
X72523759Y-58527805D01*
X72523760Y-58527808D01*
X72553627Y-58583685D01*
X72568099Y-58653191D01*
X72542695Y-58719487D01*
X72487188Y-58760891D01*
X72468330Y-58768043D01*
X72468327Y-58768044D01*
X72459921Y-58773846D01*
X72440080Y-58785035D01*
X72430779Y-58789222D01*
X72430769Y-58789227D01*
X72381401Y-58827904D01*
X72378339Y-58830157D01*
X72326726Y-58865784D01*
X72285126Y-58912740D01*
X72282517Y-58915511D01*
X67357873Y-63840157D01*
X62453435Y-68744595D01*
X62391123Y-68778621D01*
X62364340Y-68781500D01*
X61774500Y-68781500D01*
X61706379Y-68761498D01*
X61659886Y-68707842D01*
X61648500Y-68655500D01*
X61648500Y-68591367D01*
X61648499Y-68591350D01*
X61641990Y-68530803D01*
X61641988Y-68530795D01*
X61596958Y-68410068D01*
X61590889Y-68393796D01*
X61590888Y-68393794D01*
X61590887Y-68393792D01*
X61517000Y-68295091D01*
X61492189Y-68228571D01*
X61507280Y-68159197D01*
X61517001Y-68144072D01*
X61590443Y-68045966D01*
X61590444Y-68045964D01*
X61641494Y-67909093D01*
X61647999Y-67848597D01*
X61648000Y-67848585D01*
X61648000Y-67204000D01*
X59262000Y-67204000D01*
X59193879Y-67183998D01*
X59147386Y-67130342D01*
X59136000Y-67078000D01*
X59136000Y-66822000D01*
X59156002Y-66753879D01*
X59209658Y-66707386D01*
X59262000Y-66696000D01*
X61648000Y-66696000D01*
X61648000Y-66051414D01*
X61647999Y-66051402D01*
X61641494Y-65990906D01*
X61590444Y-65854035D01*
X61590444Y-65854034D01*
X61517000Y-65755925D01*
X61492189Y-65689405D01*
X61507280Y-65620031D01*
X61516998Y-65604909D01*
X61590889Y-65506204D01*
X61641989Y-65369201D01*
X61647560Y-65317387D01*
X61648499Y-65308649D01*
X61648500Y-65308632D01*
X61648500Y-63511367D01*
X61648499Y-63511350D01*
X61641990Y-63450803D01*
X61641988Y-63450795D01*
X61590889Y-63313797D01*
X61590889Y-63313796D01*
X61590886Y-63313792D01*
X61517311Y-63215507D01*
X61492501Y-63148989D01*
X61507592Y-63079615D01*
X61517306Y-63064497D01*
X61590889Y-62966204D01*
X61641989Y-62829201D01*
X61647560Y-62777387D01*
X61648499Y-62768649D01*
X61648500Y-62768632D01*
X61648500Y-62704500D01*
X61668502Y-62636379D01*
X61722158Y-62589886D01*
X61774500Y-62578500D01*
X62160459Y-62578500D01*
X62183167Y-62580563D01*
X62226386Y-62588482D01*
X62233770Y-62590301D01*
X62271351Y-62602013D01*
X62310655Y-62604389D01*
X62318192Y-62605305D01*
X62356907Y-62612401D01*
X62396192Y-62610024D01*
X62403794Y-62610024D01*
X62443093Y-62612402D01*
X62481825Y-62605304D01*
X62489360Y-62604389D01*
X62528649Y-62602013D01*
X62539916Y-62598502D01*
X62566218Y-62590306D01*
X62573604Y-62588485D01*
X62612329Y-62581389D01*
X62648246Y-62565223D01*
X62655330Y-62562536D01*
X62692913Y-62550826D01*
X62726596Y-62530462D01*
X62733304Y-62526941D01*
X62769226Y-62510775D01*
X62800229Y-62486484D01*
X62806463Y-62482181D01*
X62840154Y-62461816D01*
X62961816Y-62340154D01*
X63731564Y-61570405D01*
X63793877Y-61536379D01*
X63820660Y-61533500D01*
X65290500Y-61533500D01*
X65358621Y-61553502D01*
X65405114Y-61607158D01*
X65416500Y-61659500D01*
X65416500Y-61723649D01*
X65423009Y-61784196D01*
X65423011Y-61784204D01*
X65474110Y-61921202D01*
X65474112Y-61921207D01*
X65561738Y-62038261D01*
X65678792Y-62125887D01*
X65678794Y-62125888D01*
X65678796Y-62125889D01*
X65737875Y-62147924D01*
X65815795Y-62176988D01*
X65815803Y-62176990D01*
X65876350Y-62183499D01*
X65876355Y-62183499D01*
X65876362Y-62183500D01*
X65876368Y-62183500D01*
X67673632Y-62183500D01*
X67673638Y-62183500D01*
X67673645Y-62183499D01*
X67673649Y-62183499D01*
X67734196Y-62176990D01*
X67734199Y-62176989D01*
X67734201Y-62176989D01*
X67871204Y-62125889D01*
X67988261Y-62038261D01*
X68075889Y-61921204D01*
X68126989Y-61784201D01*
X68133500Y-61723638D01*
X68133500Y-59926362D01*
X68133499Y-59926350D01*
X68126990Y-59865803D01*
X68126988Y-59865795D01*
X68075889Y-59728797D01*
X68075887Y-59728792D01*
X67988261Y-59611738D01*
X67871207Y-59524112D01*
X67871204Y-59524111D01*
X67755686Y-59481024D01*
X67698851Y-59438477D01*
X67674041Y-59371957D01*
X67689133Y-59302583D01*
X67707019Y-59277632D01*
X67850323Y-59121961D01*
X67973419Y-58933548D01*
X68063820Y-58727456D01*
X68063823Y-58727449D01*
X68111544Y-58539000D01*
X67389844Y-58539000D01*
X67321723Y-58518998D01*
X67275230Y-58465342D01*
X67265126Y-58395068D01*
X67268947Y-58377504D01*
X67270163Y-58373360D01*
X67275000Y-58356889D01*
X67275000Y-58213111D01*
X67268946Y-58192496D01*
X67268948Y-58121500D01*
X67307333Y-58061774D01*
X67371914Y-58032282D01*
X67389844Y-58031000D01*
X68111544Y-58031000D01*
X68111544Y-58030999D01*
X68063823Y-57842550D01*
X68063820Y-57842543D01*
X67973419Y-57636451D01*
X67850325Y-57448041D01*
X67697902Y-57282465D01*
X67520301Y-57144232D01*
X67520300Y-57144231D01*
X67486791Y-57126097D01*
X67436401Y-57076083D01*
X67421050Y-57006766D01*
X67445612Y-56940153D01*
X67486790Y-56904472D01*
X67520576Y-56886189D01*
X67698240Y-56747906D01*
X67850722Y-56582268D01*
X67973860Y-56393791D01*
X68064296Y-56187616D01*
X68119564Y-55969368D01*
X68138156Y-55745000D01*
X68119564Y-55520632D01*
X68100176Y-55444072D01*
X68064297Y-55302387D01*
X68064296Y-55302386D01*
X68064296Y-55302384D01*
X67973860Y-55096209D01*
X67965236Y-55083009D01*
X67850724Y-54907734D01*
X67850720Y-54907729D01*
X67698237Y-54742091D01*
X67568235Y-54640906D01*
X67520576Y-54603811D01*
X67322574Y-54496658D01*
X67322572Y-54496657D01*
X67322571Y-54496656D01*
X67109639Y-54423557D01*
X67109630Y-54423555D01*
X67065476Y-54416187D01*
X66887569Y-54386500D01*
X66662431Y-54386500D01*
X66514210Y-54411233D01*
X66440369Y-54423555D01*
X66440360Y-54423557D01*
X66227428Y-54496656D01*
X66227426Y-54496658D01*
X66029426Y-54603810D01*
X66029424Y-54603811D01*
X65851762Y-54742091D01*
X65699279Y-54907729D01*
X65699275Y-54907734D01*
X65576141Y-55096206D01*
X65485703Y-55302386D01*
X65485702Y-55302387D01*
X65430437Y-55520624D01*
X65430436Y-55520630D01*
X65430436Y-55520632D01*
X65424266Y-55595091D01*
X65411844Y-55745000D01*
X65430437Y-55969375D01*
X65485702Y-56187612D01*
X65485703Y-56187613D01*
X65576141Y-56393793D01*
X65699275Y-56582265D01*
X65699279Y-56582270D01*
X65851762Y-56747908D01*
X65906331Y-56790381D01*
X66029424Y-56886189D01*
X66063205Y-56904470D01*
X66113596Y-56954482D01*
X66128949Y-57023799D01*
X66104389Y-57090412D01*
X66063209Y-57126096D01*
X66029704Y-57144228D01*
X66029698Y-57144232D01*
X65852097Y-57282465D01*
X65699674Y-57448041D01*
X65576580Y-57636451D01*
X65486179Y-57842543D01*
X65486176Y-57842550D01*
X65438455Y-58030999D01*
X65438456Y-58031000D01*
X66160156Y-58031000D01*
X66228277Y-58051002D01*
X66274770Y-58104658D01*
X66284874Y-58174932D01*
X66281052Y-58192496D01*
X66275000Y-58213111D01*
X66275000Y-58356889D01*
X66279836Y-58373360D01*
X66281053Y-58377504D01*
X66281052Y-58448500D01*
X66242667Y-58508226D01*
X66178086Y-58537718D01*
X66160156Y-58539000D01*
X65438455Y-58539000D01*
X65486176Y-58727449D01*
X65486179Y-58727456D01*
X65576580Y-58933548D01*
X65699674Y-59121958D01*
X65842981Y-59277632D01*
X65874401Y-59341297D01*
X65866414Y-59411843D01*
X65821555Y-59466872D01*
X65794313Y-59481024D01*
X65678795Y-59524111D01*
X65678792Y-59524112D01*
X65561738Y-59611738D01*
X65474112Y-59728792D01*
X65474110Y-59728797D01*
X65423011Y-59865795D01*
X65423009Y-59865803D01*
X65416500Y-59926350D01*
X65416500Y-59990500D01*
X65396498Y-60058621D01*
X65342842Y-60105114D01*
X65290500Y-60116500D01*
X63498319Y-60116500D01*
X63494519Y-60116385D01*
X63431908Y-60112598D01*
X63431907Y-60112598D01*
X63431905Y-60112598D01*
X63370218Y-60123902D01*
X63366459Y-60124474D01*
X63358178Y-60125480D01*
X63304202Y-60132034D01*
X63304195Y-60132035D01*
X63294661Y-60135651D01*
X63272710Y-60141770D01*
X63262678Y-60143609D01*
X63262664Y-60143613D01*
X63205479Y-60169350D01*
X63201965Y-60170805D01*
X63152389Y-60189608D01*
X63143325Y-60193046D01*
X63143324Y-60193046D01*
X63143323Y-60193047D01*
X63134929Y-60198841D01*
X63115074Y-60210039D01*
X63105777Y-60214223D01*
X63105776Y-60214224D01*
X63056414Y-60252895D01*
X63053351Y-60255149D01*
X63001727Y-60290783D01*
X63001727Y-60290784D01*
X62960134Y-60337731D01*
X62957526Y-60340502D01*
X62173435Y-61124595D01*
X62111122Y-61158620D01*
X62084339Y-61161500D01*
X61774500Y-61161500D01*
X61706379Y-61141498D01*
X61659886Y-61087842D01*
X61648500Y-61035500D01*
X61648500Y-60971367D01*
X61648499Y-60971350D01*
X61641990Y-60910803D01*
X61641988Y-60910795D01*
X61590889Y-60773797D01*
X61590889Y-60773796D01*
X61572023Y-60748594D01*
X61517311Y-60675507D01*
X61492501Y-60608989D01*
X61507592Y-60539615D01*
X61517306Y-60524497D01*
X61590889Y-60426204D01*
X61641989Y-60289201D01*
X61645766Y-60254074D01*
X61648499Y-60228649D01*
X61648500Y-60228632D01*
X61648500Y-58431367D01*
X61648499Y-58431350D01*
X61641990Y-58370803D01*
X61641988Y-58370795D01*
X61610981Y-58287665D01*
X61590889Y-58233796D01*
X61517311Y-58135507D01*
X61492501Y-58068989D01*
X61507592Y-57999615D01*
X61517306Y-57984497D01*
X61590889Y-57886204D01*
X61641989Y-57749201D01*
X61648500Y-57688638D01*
X61648500Y-55891362D01*
X61648499Y-55891350D01*
X61641990Y-55830803D01*
X61641988Y-55830795D01*
X61590889Y-55693797D01*
X61590887Y-55693792D01*
X61503261Y-55576738D01*
X61386207Y-55489112D01*
X61386202Y-55489110D01*
X61249204Y-55438011D01*
X61249196Y-55438009D01*
X61188649Y-55431500D01*
X61188638Y-55431500D01*
X57591362Y-55431500D01*
X57591350Y-55431500D01*
X57530803Y-55438009D01*
X57530795Y-55438011D01*
X57393797Y-55489110D01*
X57393792Y-55489112D01*
X57276738Y-55576738D01*
X57189112Y-55693792D01*
X57189110Y-55693797D01*
X57138011Y-55830795D01*
X57138009Y-55830803D01*
X57131500Y-55891350D01*
X57131500Y-57688649D01*
X57138009Y-57749196D01*
X57138011Y-57749204D01*
X57189110Y-57886202D01*
X57189112Y-57886207D01*
X57262687Y-57984491D01*
X57287498Y-58051011D01*
X57272407Y-58120385D01*
X57262687Y-58135509D01*
X57189112Y-58233792D01*
X57189110Y-58233797D01*
X57138011Y-58370795D01*
X57138009Y-58370803D01*
X57131500Y-58431350D01*
X57131500Y-60228649D01*
X57138009Y-60289196D01*
X57138011Y-60289204D01*
X57189110Y-60426202D01*
X57189112Y-60426207D01*
X57262687Y-60524491D01*
X57287498Y-60591011D01*
X57272407Y-60660385D01*
X57262687Y-60675509D01*
X57189112Y-60773792D01*
X57189110Y-60773797D01*
X57138011Y-60910795D01*
X57138009Y-60910803D01*
X57131500Y-60971350D01*
X57131500Y-62768649D01*
X57138009Y-62829196D01*
X57138011Y-62829204D01*
X57189110Y-62966202D01*
X57189112Y-62966207D01*
X57262687Y-63064491D01*
X57287498Y-63131011D01*
X57272407Y-63200385D01*
X57262687Y-63215509D01*
X57189112Y-63313792D01*
X57189110Y-63313797D01*
X57138011Y-63450795D01*
X57138009Y-63450803D01*
X57131500Y-63511350D01*
X57131500Y-63591772D01*
X57111498Y-63659893D01*
X57057842Y-63706386D01*
X57026593Y-63715190D01*
X57026599Y-63715211D01*
X57025970Y-63715365D01*
X57020696Y-63716852D01*
X57019206Y-63717032D01*
X57019195Y-63717035D01*
X57009661Y-63720651D01*
X56987711Y-63726770D01*
X56977678Y-63728609D01*
X56977665Y-63728613D01*
X56920476Y-63754351D01*
X56916961Y-63755807D01*
X56858326Y-63778045D01*
X56849921Y-63783846D01*
X56830080Y-63795035D01*
X56820779Y-63799222D01*
X56820769Y-63799227D01*
X56771401Y-63837904D01*
X56768339Y-63840157D01*
X56716726Y-63875784D01*
X56675126Y-63922740D01*
X56672518Y-63925511D01*
X55015511Y-65582518D01*
X55012740Y-65585126D01*
X54965784Y-65626726D01*
X54930157Y-65678339D01*
X54927904Y-65681401D01*
X54889227Y-65730769D01*
X54889222Y-65730779D01*
X54885035Y-65740080D01*
X54873846Y-65759921D01*
X54868045Y-65768326D01*
X54845807Y-65826961D01*
X54844351Y-65830476D01*
X54818613Y-65887665D01*
X54818609Y-65887678D01*
X54816770Y-65897711D01*
X54810651Y-65919661D01*
X54807034Y-65929199D01*
X54799476Y-65991441D01*
X54798904Y-65995201D01*
X54787597Y-66056907D01*
X54791384Y-66119509D01*
X54791499Y-66123313D01*
X54791499Y-85976685D01*
X54791384Y-85980489D01*
X54788336Y-86030887D01*
X54787598Y-86043093D01*
X54798005Y-86099886D01*
X54798902Y-86104782D01*
X54799475Y-86108544D01*
X54807033Y-86170794D01*
X54807034Y-86170798D01*
X54810650Y-86180333D01*
X54816770Y-86202286D01*
X54818090Y-86209489D01*
X54818612Y-86212332D01*
X54844353Y-86269528D01*
X54845809Y-86273043D01*
X54858229Y-86305791D01*
X54868046Y-86331675D01*
X54873840Y-86340069D01*
X54885035Y-86359919D01*
X54889223Y-86369222D01*
X54889225Y-86369226D01*
X54913449Y-86400146D01*
X54927899Y-86418590D01*
X54930154Y-86421655D01*
X54959240Y-86463791D01*
X54965785Y-86473273D01*
X55012750Y-86514881D01*
X55015492Y-86517463D01*
X57082541Y-88584512D01*
X57085134Y-88587266D01*
X57114133Y-88620000D01*
X57126727Y-88634215D01*
X57149604Y-88650006D01*
X57178342Y-88669844D01*
X57181406Y-88672098D01*
X57199051Y-88685921D01*
X57230774Y-88710774D01*
X57230777Y-88710775D01*
X57230778Y-88710776D01*
X57240065Y-88714956D01*
X57259927Y-88726157D01*
X57268325Y-88731954D01*
X57309815Y-88747689D01*
X57366415Y-88790546D01*
X57390859Y-88857202D01*
X57375387Y-88926492D01*
X57324910Y-88976418D01*
X57265133Y-88991500D01*
X39845660Y-88991500D01*
X39777539Y-88971498D01*
X39756565Y-88954595D01*
X38000619Y-87198649D01*
X45701500Y-87198649D01*
X45708009Y-87259196D01*
X45708011Y-87259204D01*
X45759110Y-87396202D01*
X45759112Y-87396207D01*
X45846738Y-87513261D01*
X45963792Y-87600887D01*
X45963794Y-87600888D01*
X45963796Y-87600889D01*
X46007235Y-87617091D01*
X46100795Y-87651988D01*
X46100803Y-87651990D01*
X46161350Y-87658499D01*
X46161355Y-87658499D01*
X46161362Y-87658500D01*
X46161368Y-87658500D01*
X47958632Y-87658500D01*
X47958638Y-87658500D01*
X47958645Y-87658499D01*
X47958649Y-87658499D01*
X48019196Y-87651990D01*
X48019199Y-87651989D01*
X48019201Y-87651989D01*
X48156204Y-87600889D01*
X48254907Y-87527000D01*
X48321426Y-87502189D01*
X48390800Y-87517280D01*
X48405925Y-87527000D01*
X48504034Y-87600444D01*
X48640906Y-87651494D01*
X48701402Y-87657999D01*
X48701415Y-87658000D01*
X49346000Y-87658000D01*
X49854000Y-87658000D01*
X50498585Y-87658000D01*
X50498597Y-87657999D01*
X50559093Y-87651494D01*
X50695964Y-87600444D01*
X50695966Y-87600443D01*
X50794072Y-87527001D01*
X50860592Y-87502189D01*
X50929966Y-87517280D01*
X50945091Y-87527000D01*
X51043792Y-87600887D01*
X51043794Y-87600888D01*
X51043796Y-87600889D01*
X51087235Y-87617091D01*
X51180795Y-87651988D01*
X51180803Y-87651990D01*
X51241350Y-87658499D01*
X51241355Y-87658499D01*
X51241362Y-87658500D01*
X51241368Y-87658500D01*
X53038632Y-87658500D01*
X53038638Y-87658500D01*
X53038645Y-87658499D01*
X53038649Y-87658499D01*
X53099196Y-87651990D01*
X53099199Y-87651989D01*
X53099201Y-87651989D01*
X53236204Y-87600889D01*
X53236799Y-87600444D01*
X53353261Y-87513261D01*
X53440887Y-87396207D01*
X53440887Y-87396206D01*
X53440889Y-87396204D01*
X53491989Y-87259201D01*
X53496076Y-87221192D01*
X53498499Y-87198649D01*
X53498500Y-87198632D01*
X53498500Y-83601367D01*
X53498499Y-83601350D01*
X53491990Y-83540803D01*
X53491988Y-83540795D01*
X53440889Y-83403797D01*
X53440887Y-83403792D01*
X53353261Y-83286738D01*
X53236207Y-83199112D01*
X53236202Y-83199110D01*
X53099204Y-83148011D01*
X53099196Y-83148009D01*
X53038649Y-83141500D01*
X53038638Y-83141500D01*
X51241362Y-83141500D01*
X51241350Y-83141500D01*
X51180803Y-83148009D01*
X51180795Y-83148011D01*
X51043797Y-83199110D01*
X51043792Y-83199112D01*
X50945091Y-83273000D01*
X50878571Y-83297811D01*
X50809197Y-83282720D01*
X50794072Y-83272999D01*
X50695966Y-83199556D01*
X50695964Y-83199555D01*
X50559093Y-83148505D01*
X50498597Y-83142000D01*
X49854000Y-83142000D01*
X49854000Y-87658000D01*
X49346000Y-87658000D01*
X49346000Y-83142000D01*
X48701402Y-83142000D01*
X48640906Y-83148505D01*
X48504035Y-83199555D01*
X48405924Y-83273000D01*
X48339404Y-83297810D01*
X48270030Y-83282718D01*
X48254907Y-83272999D01*
X48156207Y-83199112D01*
X48156202Y-83199110D01*
X48019204Y-83148011D01*
X48019196Y-83148009D01*
X47958649Y-83141500D01*
X47958638Y-83141500D01*
X46161362Y-83141500D01*
X46161350Y-83141500D01*
X46100803Y-83148009D01*
X46100795Y-83148011D01*
X45963797Y-83199110D01*
X45963792Y-83199112D01*
X45846738Y-83286738D01*
X45759112Y-83403792D01*
X45759110Y-83403797D01*
X45708011Y-83540795D01*
X45708009Y-83540803D01*
X45701500Y-83601350D01*
X45701500Y-87198649D01*
X38000619Y-87198649D01*
X37945405Y-87143435D01*
X37911379Y-87081123D01*
X37908500Y-87054340D01*
X37908500Y-86214500D01*
X37928502Y-86146379D01*
X37982158Y-86099886D01*
X38034500Y-86088500D01*
X41608632Y-86088500D01*
X41608638Y-86088500D01*
X41608645Y-86088499D01*
X41608649Y-86088499D01*
X41669196Y-86081990D01*
X41669199Y-86081989D01*
X41669201Y-86081989D01*
X41806204Y-86030889D01*
X41923261Y-85943261D01*
X41987006Y-85858108D01*
X42010887Y-85826207D01*
X42010887Y-85826206D01*
X42010889Y-85826204D01*
X42061989Y-85689201D01*
X42064545Y-85665431D01*
X42068499Y-85628649D01*
X42068500Y-85628632D01*
X42068500Y-85564500D01*
X42088502Y-85496379D01*
X42142158Y-85449886D01*
X42194500Y-85438500D01*
X42446685Y-85438500D01*
X42450488Y-85438614D01*
X42513093Y-85442402D01*
X42574812Y-85431091D01*
X42578525Y-85430526D01*
X42640801Y-85422965D01*
X42650330Y-85419350D01*
X42672304Y-85413226D01*
X42682329Y-85411389D01*
X42739552Y-85385634D01*
X42743009Y-85384202D01*
X42801675Y-85361954D01*
X42810066Y-85356161D01*
X42829922Y-85344961D01*
X42839226Y-85340775D01*
X42888636Y-85302063D01*
X42891621Y-85299867D01*
X42943273Y-85264215D01*
X42984896Y-85217231D01*
X42987449Y-85214519D01*
X50984519Y-77217449D01*
X50987231Y-77214896D01*
X51034215Y-77173273D01*
X51069867Y-77121621D01*
X51072063Y-77118636D01*
X51110775Y-77069226D01*
X51114961Y-77059922D01*
X51126161Y-77040066D01*
X51131954Y-77031675D01*
X51154202Y-76973009D01*
X51155634Y-76969552D01*
X51181389Y-76912329D01*
X51183226Y-76902303D01*
X51189351Y-76880330D01*
X51191501Y-76874660D01*
X51192965Y-76870801D01*
X51200526Y-76808523D01*
X51201090Y-76804815D01*
X51212402Y-76743092D01*
X51208614Y-76680481D01*
X51208500Y-76676679D01*
X51208500Y-58845660D01*
X51228502Y-58777539D01*
X51245405Y-58756565D01*
X56096566Y-53905405D01*
X56158878Y-53871379D01*
X56185661Y-53868500D01*
X58807413Y-53868500D01*
X58875534Y-53888502D01*
G37*
%TD.AperFunction*%
%TA.AperFunction,Conductor*%
G36*
X56918032Y-65788103D02*
G01*
X56974868Y-65830650D01*
X56999679Y-65897170D01*
X57000000Y-65906159D01*
X57000000Y-68000000D01*
X57092076Y-68000000D01*
X57160197Y-68020002D01*
X57192943Y-68050490D01*
X57262999Y-68144072D01*
X57287811Y-68210592D01*
X57272720Y-68279966D01*
X57263000Y-68295091D01*
X57189112Y-68393792D01*
X57189110Y-68393797D01*
X57138011Y-68530795D01*
X57138009Y-68530803D01*
X57131500Y-68591350D01*
X57131500Y-70388649D01*
X57138009Y-70449196D01*
X57138011Y-70449204D01*
X57189110Y-70586202D01*
X57189112Y-70586207D01*
X57262687Y-70684491D01*
X57287498Y-70751011D01*
X57272407Y-70820385D01*
X57262687Y-70835509D01*
X57189112Y-70933792D01*
X57189110Y-70933797D01*
X57138011Y-71070795D01*
X57138009Y-71070803D01*
X57131500Y-71131350D01*
X57131500Y-72928649D01*
X57138009Y-72989196D01*
X57138011Y-72989204D01*
X57189110Y-73126202D01*
X57189112Y-73126207D01*
X57262687Y-73224491D01*
X57287498Y-73291011D01*
X57272407Y-73360385D01*
X57262687Y-73375509D01*
X57189112Y-73473792D01*
X57189110Y-73473797D01*
X57138011Y-73610795D01*
X57138009Y-73610803D01*
X57131500Y-73671350D01*
X57131500Y-75468649D01*
X57138009Y-75529196D01*
X57138011Y-75529204D01*
X57189110Y-75666202D01*
X57189112Y-75666207D01*
X57262687Y-75764491D01*
X57287498Y-75831011D01*
X57272407Y-75900385D01*
X57262687Y-75915509D01*
X57189112Y-76013792D01*
X57189110Y-76013797D01*
X57138011Y-76150795D01*
X57138009Y-76150803D01*
X57131500Y-76211350D01*
X57131500Y-78008649D01*
X57138009Y-78069196D01*
X57138011Y-78069204D01*
X57189110Y-78206202D01*
X57189112Y-78206207D01*
X57262999Y-78304907D01*
X57287810Y-78371427D01*
X57272719Y-78440801D01*
X57263000Y-78455924D01*
X57189555Y-78554035D01*
X57138505Y-78690906D01*
X57132000Y-78751402D01*
X57132000Y-79396000D01*
X61648000Y-79396000D01*
X61648000Y-78751414D01*
X61647999Y-78751402D01*
X61641494Y-78690906D01*
X61590444Y-78554035D01*
X61590444Y-78554034D01*
X61517000Y-78455925D01*
X61492189Y-78389405D01*
X61507280Y-78320031D01*
X61516998Y-78304909D01*
X61590889Y-78206204D01*
X61641989Y-78069201D01*
X61648500Y-78008638D01*
X61648499Y-77944500D01*
X61668502Y-77876379D01*
X61722158Y-77829886D01*
X61774500Y-77818500D01*
X64626685Y-77818500D01*
X64630488Y-77818614D01*
X64693093Y-77822402D01*
X64754812Y-77811091D01*
X64758525Y-77810526D01*
X64820801Y-77802965D01*
X64830330Y-77799350D01*
X64852304Y-77793226D01*
X64862329Y-77791389D01*
X64919552Y-77765634D01*
X64923009Y-77764202D01*
X64981675Y-77741954D01*
X64990066Y-77736161D01*
X65009922Y-77724961D01*
X65019226Y-77720775D01*
X65068636Y-77682063D01*
X65071621Y-77679867D01*
X65123273Y-77644215D01*
X65164896Y-77597231D01*
X65167449Y-77594519D01*
X71891247Y-70870721D01*
X71953557Y-70836697D01*
X72024372Y-70841762D01*
X72081208Y-70884309D01*
X72105910Y-70949412D01*
X72109146Y-70988468D01*
X72115436Y-71064368D01*
X72115436Y-71064371D01*
X72115437Y-71064373D01*
X72121750Y-71089304D01*
X72119081Y-71160250D01*
X72088700Y-71209328D01*
X61863595Y-81434434D01*
X61801283Y-81468460D01*
X61730468Y-81463395D01*
X61673632Y-81420848D01*
X61648821Y-81354328D01*
X61648500Y-81345339D01*
X61648500Y-81291367D01*
X61648499Y-81291350D01*
X61641990Y-81230803D01*
X61641988Y-81230795D01*
X61590889Y-81093797D01*
X61590887Y-81093792D01*
X61517000Y-80995091D01*
X61492189Y-80928571D01*
X61507280Y-80859197D01*
X61517001Y-80844072D01*
X61590443Y-80745966D01*
X61590444Y-80745964D01*
X61641494Y-80609093D01*
X61647999Y-80548597D01*
X61648000Y-80548585D01*
X61648000Y-79904000D01*
X57132000Y-79904000D01*
X57132000Y-80548597D01*
X57138505Y-80609093D01*
X57189555Y-80745964D01*
X57189556Y-80745966D01*
X57262999Y-80844072D01*
X57287811Y-80910592D01*
X57272720Y-80979966D01*
X57263000Y-80995091D01*
X57189112Y-81093792D01*
X57189110Y-81093797D01*
X57138011Y-81230795D01*
X57138009Y-81230803D01*
X57131500Y-81291350D01*
X57131500Y-83088649D01*
X57138009Y-83149196D01*
X57138011Y-83149204D01*
X57189110Y-83286202D01*
X57189112Y-83286207D01*
X57262687Y-83384491D01*
X57287498Y-83451011D01*
X57272407Y-83520385D01*
X57262687Y-83535509D01*
X57189112Y-83633792D01*
X57189110Y-83633797D01*
X57138011Y-83770795D01*
X57138009Y-83770803D01*
X57131500Y-83831350D01*
X57131500Y-85628649D01*
X57138009Y-85689196D01*
X57138011Y-85689204D01*
X57189110Y-85826202D01*
X57189112Y-85826207D01*
X57276738Y-85943261D01*
X57393792Y-86030887D01*
X57393794Y-86030888D01*
X57393796Y-86030889D01*
X57426516Y-86043093D01*
X57530795Y-86081988D01*
X57530803Y-86081990D01*
X57591350Y-86088499D01*
X57591355Y-86088499D01*
X57591362Y-86088500D01*
X57591368Y-86088500D01*
X61188632Y-86088500D01*
X61188638Y-86088500D01*
X61188645Y-86088499D01*
X61188649Y-86088499D01*
X61249196Y-86081990D01*
X61249199Y-86081989D01*
X61249201Y-86081989D01*
X61386204Y-86030889D01*
X61503261Y-85943261D01*
X61567006Y-85858108D01*
X61590887Y-85826207D01*
X61590887Y-85826206D01*
X61590889Y-85826204D01*
X61641989Y-85689201D01*
X61644545Y-85665431D01*
X61648499Y-85628649D01*
X61648500Y-85628632D01*
X61648500Y-85564500D01*
X61668502Y-85496379D01*
X61722158Y-85449886D01*
X61774500Y-85438500D01*
X62086685Y-85438500D01*
X62090488Y-85438614D01*
X62153093Y-85442402D01*
X62214812Y-85431091D01*
X62218525Y-85430526D01*
X62280801Y-85422965D01*
X62290330Y-85419350D01*
X62312304Y-85413226D01*
X62322329Y-85411389D01*
X62379552Y-85385634D01*
X62383009Y-85384202D01*
X62441675Y-85361954D01*
X62450066Y-85356161D01*
X62469922Y-85344961D01*
X62479226Y-85340775D01*
X62528636Y-85302063D01*
X62531621Y-85299867D01*
X62583273Y-85264215D01*
X62624896Y-85217231D01*
X62627449Y-85214519D01*
X71891247Y-75950721D01*
X71953557Y-75916697D01*
X72024372Y-75921762D01*
X72081208Y-75964309D01*
X72105910Y-76029412D01*
X72109146Y-76068468D01*
X72115436Y-76144368D01*
X72115436Y-76144371D01*
X72115437Y-76144373D01*
X72121750Y-76169304D01*
X72119081Y-76240250D01*
X72088700Y-76289328D01*
X61023435Y-87354595D01*
X60961123Y-87388621D01*
X60934340Y-87391500D01*
X57945661Y-87391500D01*
X57877540Y-87371498D01*
X57856566Y-87354595D01*
X56245405Y-85743434D01*
X56211379Y-85681122D01*
X56208500Y-85654339D01*
X56208500Y-66445659D01*
X56228502Y-66377538D01*
X56245405Y-66356564D01*
X56784905Y-65817064D01*
X56847217Y-65783038D01*
X56918032Y-65788103D01*
G37*
%TD.AperFunction*%
%TA.AperFunction,Conductor*%
G36*
X75964237Y-78960000D02*
G01*
X76035763Y-78960000D01*
X76110069Y-78949316D01*
X76180341Y-78959419D01*
X76233997Y-79005911D01*
X76254000Y-79074031D01*
X76254000Y-80385966D01*
X76233998Y-80454087D01*
X76180342Y-80500580D01*
X76110069Y-80510683D01*
X76110068Y-80510683D01*
X76035768Y-80500000D01*
X76035763Y-80500000D01*
X75964237Y-80500000D01*
X75964231Y-80500000D01*
X75889932Y-80510683D01*
X75819658Y-80500580D01*
X75766002Y-80454087D01*
X75746000Y-80385966D01*
X75746000Y-79074033D01*
X75766002Y-79005912D01*
X75819658Y-78959419D01*
X75889926Y-78949315D01*
X75964237Y-78960000D01*
G37*
%TD.AperFunction*%
%TA.AperFunction,Conductor*%
G36*
X75453277Y-78226002D02*
G01*
X75499770Y-78279658D01*
X75509874Y-78349932D01*
X75506053Y-78367496D01*
X75500000Y-78388111D01*
X75500000Y-78531888D01*
X75506053Y-78552504D01*
X75506052Y-78623500D01*
X75467667Y-78683226D01*
X75403086Y-78712718D01*
X75385156Y-78714000D01*
X74074844Y-78714000D01*
X74006723Y-78693998D01*
X73960230Y-78640342D01*
X73950126Y-78570068D01*
X73953947Y-78552504D01*
X73960000Y-78531888D01*
X73960000Y-78388111D01*
X73953947Y-78367496D01*
X73953948Y-78296500D01*
X73992333Y-78236774D01*
X74056914Y-78207282D01*
X74074844Y-78206000D01*
X75385156Y-78206000D01*
X75453277Y-78226002D01*
G37*
%TD.AperFunction*%
%TA.AperFunction,Conductor*%
G36*
X75964237Y-76420000D02*
G01*
X76035763Y-76420000D01*
X76110069Y-76409316D01*
X76180341Y-76419419D01*
X76233997Y-76465911D01*
X76254000Y-76534031D01*
X76254000Y-77845966D01*
X76233998Y-77914087D01*
X76180342Y-77960580D01*
X76110069Y-77970683D01*
X76110068Y-77970683D01*
X76035768Y-77960000D01*
X76035763Y-77960000D01*
X75964237Y-77960000D01*
X75964231Y-77960000D01*
X75889932Y-77970683D01*
X75819658Y-77960580D01*
X75766002Y-77914087D01*
X75746000Y-77845966D01*
X75746000Y-76534033D01*
X75766002Y-76465912D01*
X75819658Y-76419419D01*
X75889926Y-76409315D01*
X75964237Y-76420000D01*
G37*
%TD.AperFunction*%
%TA.AperFunction,Conductor*%
G36*
X75964237Y-73880000D02*
G01*
X76035763Y-73880000D01*
X76110069Y-73869316D01*
X76180341Y-73879419D01*
X76233997Y-73925911D01*
X76254000Y-73994031D01*
X76254000Y-75305966D01*
X76233998Y-75374087D01*
X76180342Y-75420580D01*
X76110069Y-75430683D01*
X76110068Y-75430683D01*
X76035768Y-75420000D01*
X76035763Y-75420000D01*
X75964237Y-75420000D01*
X75964231Y-75420000D01*
X75889932Y-75430683D01*
X75819658Y-75420580D01*
X75766002Y-75374087D01*
X75746000Y-75305966D01*
X75746000Y-73994033D01*
X75766002Y-73925912D01*
X75819658Y-73879419D01*
X75889926Y-73869315D01*
X75964237Y-73880000D01*
G37*
%TD.AperFunction*%
%TA.AperFunction,Conductor*%
G36*
X71311039Y-47458502D02*
G01*
X71332012Y-47475405D01*
X80583889Y-56727281D01*
X80712719Y-56856111D01*
X80748414Y-56878539D01*
X80754168Y-56882622D01*
X80787130Y-56908909D01*
X80813156Y-56921442D01*
X80825106Y-56927197D01*
X80831285Y-56930611D01*
X80866985Y-56953043D01*
X80871098Y-56954482D01*
X80906770Y-56966964D01*
X80913300Y-56969668D01*
X80951280Y-56987959D01*
X80992379Y-56997339D01*
X80999162Y-56999293D01*
X81038953Y-57013217D01*
X81080833Y-57017935D01*
X81087801Y-57019118D01*
X81128903Y-57028500D01*
X81174594Y-57028500D01*
X83164653Y-57028500D01*
X83232774Y-57048502D01*
X83275244Y-57094121D01*
X83279113Y-57101207D01*
X83366738Y-57218261D01*
X83483792Y-57305887D01*
X83483794Y-57305888D01*
X83483796Y-57305889D01*
X83542875Y-57327924D01*
X83620795Y-57356988D01*
X83620803Y-57356990D01*
X83681350Y-57363499D01*
X83681355Y-57363499D01*
X83681362Y-57363500D01*
X83681368Y-57363500D01*
X87378632Y-57363500D01*
X87378638Y-57363500D01*
X87378645Y-57363499D01*
X87378649Y-57363499D01*
X87439196Y-57356990D01*
X87439199Y-57356989D01*
X87439201Y-57356989D01*
X87576204Y-57305889D01*
X87587538Y-57297405D01*
X87693261Y-57218261D01*
X87772632Y-57112234D01*
X87829467Y-57069687D01*
X87900283Y-57064622D01*
X87962595Y-57098647D01*
X87996620Y-57160960D01*
X87999500Y-57187743D01*
X87999500Y-57910035D01*
X87979498Y-57978156D01*
X87925842Y-58024649D01*
X87855568Y-58034753D01*
X87797991Y-58010903D01*
X87675965Y-57919555D01*
X87539093Y-57868505D01*
X87478597Y-57862000D01*
X85584000Y-57862000D01*
X85584000Y-60228000D01*
X87478585Y-60228000D01*
X87478597Y-60227999D01*
X87539093Y-60221494D01*
X87675964Y-60170444D01*
X87675965Y-60170444D01*
X87797991Y-60079096D01*
X87864511Y-60054285D01*
X87933885Y-60069376D01*
X87984087Y-60119578D01*
X87999500Y-60179964D01*
X87999500Y-71685120D01*
X87979498Y-71753241D01*
X87925842Y-71799734D01*
X87855568Y-71809838D01*
X87797991Y-71785988D01*
X87735965Y-71739555D01*
X87599093Y-71688505D01*
X87538597Y-71682000D01*
X85644000Y-71682000D01*
X85644000Y-74048000D01*
X87538585Y-74048000D01*
X87538597Y-74047999D01*
X87599093Y-74041494D01*
X87735964Y-73990444D01*
X87735966Y-73990443D01*
X87797990Y-73944012D01*
X87864510Y-73919200D01*
X87933884Y-73934291D01*
X87984087Y-73984492D01*
X87999500Y-74044879D01*
X87999500Y-74642105D01*
X87979498Y-74710226D01*
X87925842Y-74756719D01*
X87855568Y-74766823D01*
X87790988Y-74737329D01*
X87772633Y-74717616D01*
X87753260Y-74691738D01*
X87636207Y-74604112D01*
X87636202Y-74604110D01*
X87499204Y-74553011D01*
X87499196Y-74553009D01*
X87438649Y-74546500D01*
X87438638Y-74546500D01*
X83741362Y-74546500D01*
X83741350Y-74546500D01*
X83680803Y-74553009D01*
X83680795Y-74553011D01*
X83543797Y-74604110D01*
X83543793Y-74604112D01*
X83495250Y-74640451D01*
X83428730Y-74665261D01*
X83359356Y-74650169D01*
X83330647Y-74628677D01*
X82889141Y-74187171D01*
X82855115Y-74124859D01*
X82860180Y-74054044D01*
X82902727Y-73997208D01*
X82969247Y-73972397D01*
X83038618Y-73987487D01*
X83044032Y-73990443D01*
X83180906Y-74041494D01*
X83241402Y-74047999D01*
X83241415Y-74048000D01*
X85136000Y-74048000D01*
X85136000Y-73119000D01*
X82782000Y-73119000D01*
X82782000Y-73588597D01*
X82788505Y-73649093D01*
X82839556Y-73785966D01*
X82842514Y-73791384D01*
X82857601Y-73860759D01*
X82832787Y-73927278D01*
X82775949Y-73969821D01*
X82705133Y-73974882D01*
X82642828Y-73940858D01*
X81945231Y-73243261D01*
X81312970Y-72611000D01*
X82782000Y-72611000D01*
X85136000Y-72611000D01*
X85136000Y-71682000D01*
X83241402Y-71682000D01*
X83180906Y-71688505D01*
X83044035Y-71739555D01*
X83044034Y-71739555D01*
X82927095Y-71827095D01*
X82839555Y-71944034D01*
X82839555Y-71944035D01*
X82788505Y-72080906D01*
X82782000Y-72141402D01*
X82782000Y-72611000D01*
X81312970Y-72611000D01*
X80545405Y-71843434D01*
X80511379Y-71781122D01*
X80508500Y-71754339D01*
X80508500Y-62423319D01*
X80508615Y-62419514D01*
X80512402Y-62356908D01*
X80501092Y-62295193D01*
X80500525Y-62291470D01*
X80492965Y-62229199D01*
X80492964Y-62229196D01*
X80489351Y-62219668D01*
X80483227Y-62197702D01*
X80481389Y-62187671D01*
X80455642Y-62130466D01*
X80454200Y-62126986D01*
X80431954Y-62068325D01*
X80426161Y-62059933D01*
X80414958Y-62040070D01*
X80410775Y-62030775D01*
X80372083Y-61981389D01*
X80369852Y-61978355D01*
X80356951Y-61959666D01*
X80334215Y-61926727D01*
X80327984Y-61921207D01*
X80287257Y-61885126D01*
X80284503Y-61882533D01*
X77700970Y-59299000D01*
X82722000Y-59299000D01*
X82722000Y-59768597D01*
X82728505Y-59829093D01*
X82779555Y-59965964D01*
X82779555Y-59965965D01*
X82867095Y-60082904D01*
X82984034Y-60170444D01*
X83120906Y-60221494D01*
X83181402Y-60227999D01*
X83181415Y-60228000D01*
X85076000Y-60228000D01*
X85076000Y-59299000D01*
X82722000Y-59299000D01*
X77700970Y-59299000D01*
X77317464Y-58915494D01*
X77314880Y-58912750D01*
X77273273Y-58865785D01*
X77273270Y-58865783D01*
X77273271Y-58865783D01*
X77221655Y-58830154D01*
X77218590Y-58827899D01*
X77200146Y-58813449D01*
X77171492Y-58791000D01*
X82722000Y-58791000D01*
X85076000Y-58791000D01*
X85076000Y-57862000D01*
X83181402Y-57862000D01*
X83120906Y-57868505D01*
X82984035Y-57919555D01*
X82984034Y-57919555D01*
X82867095Y-58007095D01*
X82779555Y-58124034D01*
X82779555Y-58124035D01*
X82728505Y-58260906D01*
X82722000Y-58321402D01*
X82722000Y-58791000D01*
X77171492Y-58791000D01*
X77169226Y-58789225D01*
X77169222Y-58789223D01*
X77159919Y-58785035D01*
X77140069Y-58773840D01*
X77134042Y-58769680D01*
X77131675Y-58768046D01*
X77108705Y-58759334D01*
X77073043Y-58745809D01*
X77069528Y-58744353D01*
X77012335Y-58718613D01*
X77005133Y-58716369D01*
X76946048Y-58677006D01*
X76917623Y-58611948D01*
X76928883Y-58541850D01*
X76931500Y-58536673D01*
X76936241Y-58527804D01*
X76993908Y-58337701D01*
X76994746Y-58329199D01*
X77013380Y-58140003D01*
X77013380Y-58139996D01*
X76993909Y-57942305D01*
X76993908Y-57942303D01*
X76993908Y-57942299D01*
X76936241Y-57752196D01*
X76842595Y-57576996D01*
X76716568Y-57423432D01*
X76563004Y-57297405D01*
X76535053Y-57282465D01*
X76387803Y-57203758D01*
X76382083Y-57201389D01*
X76382840Y-57199559D01*
X76331112Y-57165660D01*
X76302197Y-57100819D01*
X76312927Y-57030638D01*
X76359896Y-56977399D01*
X76427069Y-56958000D01*
X76898585Y-56958000D01*
X76898597Y-56957999D01*
X76959093Y-56951494D01*
X77095964Y-56900444D01*
X77095965Y-56900444D01*
X77212904Y-56812904D01*
X77300444Y-56695965D01*
X77300444Y-56695964D01*
X77351494Y-56559093D01*
X77357999Y-56498597D01*
X77358000Y-56498585D01*
X77358000Y-55854000D01*
X76614844Y-55854000D01*
X76546723Y-55833998D01*
X76500230Y-55780342D01*
X76490126Y-55710068D01*
X76493947Y-55692504D01*
X76500000Y-55671888D01*
X76500000Y-55528111D01*
X76493947Y-55507496D01*
X76493948Y-55436500D01*
X76532333Y-55376774D01*
X76596914Y-55347282D01*
X76614844Y-55346000D01*
X77358000Y-55346000D01*
X77358000Y-54701414D01*
X77357999Y-54701402D01*
X77351494Y-54640906D01*
X77300444Y-54504035D01*
X77300444Y-54504034D01*
X77212904Y-54387095D01*
X77095965Y-54299555D01*
X76959093Y-54248505D01*
X76898597Y-54242000D01*
X76254000Y-54242000D01*
X76254000Y-54985966D01*
X76233998Y-55054087D01*
X76180342Y-55100580D01*
X76110069Y-55110683D01*
X76110068Y-55110683D01*
X76035768Y-55100000D01*
X76035763Y-55100000D01*
X75964237Y-55100000D01*
X75964231Y-55100000D01*
X75889932Y-55110683D01*
X75819658Y-55100580D01*
X75766002Y-55054087D01*
X75746000Y-54985966D01*
X75746000Y-54242000D01*
X75101402Y-54242000D01*
X75040906Y-54248505D01*
X74904035Y-54299555D01*
X74904034Y-54299555D01*
X74787095Y-54387095D01*
X74699555Y-54504034D01*
X74699553Y-54504039D01*
X74655380Y-54622470D01*
X74612833Y-54679306D01*
X74546313Y-54704116D01*
X74476939Y-54689024D01*
X74444626Y-54663777D01*
X74383240Y-54597094D01*
X74383239Y-54597093D01*
X74383237Y-54597091D01*
X74263679Y-54504035D01*
X74205576Y-54458811D01*
X74007574Y-54351658D01*
X74007572Y-54351657D01*
X74007571Y-54351656D01*
X73794639Y-54278557D01*
X73794630Y-54278555D01*
X73750476Y-54271187D01*
X73572569Y-54241500D01*
X73347431Y-54241500D01*
X73286250Y-54251708D01*
X73202327Y-54265712D01*
X73131843Y-54257194D01*
X73092495Y-54230525D01*
X72510970Y-53649000D01*
X71537464Y-52675494D01*
X71534880Y-52672750D01*
X71493273Y-52625785D01*
X71493270Y-52625783D01*
X71493271Y-52625783D01*
X71441655Y-52590154D01*
X71438590Y-52587899D01*
X71420146Y-52573449D01*
X71389226Y-52549225D01*
X71389222Y-52549223D01*
X71379919Y-52545035D01*
X71360069Y-52533840D01*
X71351675Y-52528046D01*
X71328705Y-52519334D01*
X71293043Y-52505809D01*
X71289528Y-52504353D01*
X71232332Y-52478612D01*
X71232330Y-52478611D01*
X71232329Y-52478611D01*
X71222286Y-52476770D01*
X71200336Y-52470650D01*
X71190801Y-52467035D01*
X71190800Y-52467034D01*
X71190798Y-52467034D01*
X71190794Y-52467033D01*
X71138362Y-52460667D01*
X71128537Y-52459473D01*
X71124786Y-52458902D01*
X71083760Y-52451385D01*
X71063094Y-52447598D01*
X71063093Y-52447598D01*
X71000488Y-52451385D01*
X70996685Y-52451500D01*
X61774500Y-52451500D01*
X61706379Y-52431498D01*
X61659886Y-52377842D01*
X61648500Y-52325500D01*
X61648500Y-50811367D01*
X61648499Y-50811350D01*
X61641990Y-50750803D01*
X61641988Y-50750795D01*
X61590889Y-50613797D01*
X61590887Y-50613792D01*
X61517312Y-50515508D01*
X61492501Y-50448988D01*
X61507592Y-50379614D01*
X61517312Y-50364491D01*
X61590889Y-50266204D01*
X61641989Y-50129201D01*
X61648500Y-50068638D01*
X61648500Y-48271362D01*
X61648499Y-48271350D01*
X61641990Y-48210803D01*
X61641988Y-48210795D01*
X61590889Y-48073797D01*
X61590887Y-48073792D01*
X61517312Y-47975508D01*
X61492501Y-47908988D01*
X61507592Y-47839614D01*
X61517312Y-47824491D01*
X61590889Y-47726204D01*
X61641989Y-47589201D01*
X61641990Y-47589196D01*
X61646093Y-47551032D01*
X61673262Y-47485439D01*
X61731580Y-47444948D01*
X61771371Y-47438500D01*
X64541403Y-47438500D01*
X64723597Y-47438500D01*
X71242918Y-47438500D01*
X71311039Y-47458502D01*
G37*
%TD.AperFunction*%
%TA.AperFunction,Conductor*%
G36*
X75964237Y-71340000D02*
G01*
X76035763Y-71340000D01*
X76110069Y-71329316D01*
X76180341Y-71339419D01*
X76233997Y-71385911D01*
X76254000Y-71454031D01*
X76254000Y-72765966D01*
X76233998Y-72834087D01*
X76180342Y-72880580D01*
X76110069Y-72890683D01*
X76110068Y-72890683D01*
X76035768Y-72880000D01*
X76035763Y-72880000D01*
X75964237Y-72880000D01*
X75964231Y-72880000D01*
X75889932Y-72890683D01*
X75819658Y-72880580D01*
X75766002Y-72834087D01*
X75746000Y-72765966D01*
X75746000Y-71454033D01*
X75766002Y-71385912D01*
X75819658Y-71339419D01*
X75889926Y-71329315D01*
X75964237Y-71340000D01*
G37*
%TD.AperFunction*%
%TA.AperFunction,Conductor*%
G36*
X75964237Y-68800000D02*
G01*
X76035763Y-68800000D01*
X76110069Y-68789316D01*
X76180341Y-68799419D01*
X76233997Y-68845911D01*
X76254000Y-68914031D01*
X76254000Y-70225966D01*
X76233998Y-70294087D01*
X76180342Y-70340580D01*
X76110069Y-70350683D01*
X76110068Y-70350683D01*
X76035768Y-70340000D01*
X76035763Y-70340000D01*
X75964237Y-70340000D01*
X75964231Y-70340000D01*
X75889932Y-70350683D01*
X75819658Y-70340580D01*
X75766002Y-70294087D01*
X75746000Y-70225966D01*
X75746000Y-68914033D01*
X75766002Y-68845912D01*
X75819658Y-68799419D01*
X75889926Y-68789315D01*
X75964237Y-68800000D01*
G37*
%TD.AperFunction*%
%TA.AperFunction,Conductor*%
G36*
X75964237Y-66260000D02*
G01*
X76035763Y-66260000D01*
X76110069Y-66249316D01*
X76180341Y-66259419D01*
X76233997Y-66305911D01*
X76254000Y-66374031D01*
X76254000Y-67685966D01*
X76233998Y-67754087D01*
X76180342Y-67800580D01*
X76110069Y-67810683D01*
X76110068Y-67810683D01*
X76035768Y-67800000D01*
X76035763Y-67800000D01*
X75964237Y-67800000D01*
X75964231Y-67800000D01*
X75889932Y-67810683D01*
X75819658Y-67800580D01*
X75766002Y-67754087D01*
X75746000Y-67685966D01*
X75746000Y-66374033D01*
X75766002Y-66305912D01*
X75819658Y-66259419D01*
X75889926Y-66249315D01*
X75964237Y-66260000D01*
G37*
%TD.AperFunction*%
M02*
