M48
; DRILL file {KiCad 7.0.10} date Fri Oct 11 15:57:48 2024
; FORMAT={-:-/ absolute / inch / decimal}
; #@! TF.CreationDate,2024-10-11T15:57:48-04:00
; #@! TF.GenerationSoftware,Kicad,Pcbnew,7.0.10
; #@! TF.FileFunction,MixedPlating,1,2
FMAT,2
INCH
; #@! TA.AperFunction,Plated,PTH,ComponentDrill
T1C0.0394
%
G90
G05
T1
X1.4059Y-3.2047
X1.411Y-2.7965
X1.5059Y-3.2047
X1.511Y-2.7965
X1.6059Y-3.2047
X1.611Y-2.7965
X3.1012Y-2.298
X3.1012Y-2.398
X3.1012Y-2.498
X3.1012Y-2.598
X3.1012Y-2.698
X3.1012Y-2.798
X3.1012Y-2.898
X3.1012Y-2.998
X3.1012Y-3.098
X3.1012Y-3.198
X3.1012Y-3.298
X3.1012Y-3.398
X3.1012Y-3.498
X3.1012Y-3.598
X3.1012Y-3.698
X3.1012Y-3.798
X3.2012Y-2.298
X3.2012Y-2.398
X3.2012Y-2.498
X3.2012Y-2.598
X3.2012Y-2.698
X3.2012Y-2.798
X3.2012Y-2.898
X3.2012Y-2.998
X3.2012Y-3.098
X3.2012Y-3.198
X3.2012Y-3.298
X3.2012Y-3.398
X3.2012Y-3.498
X3.2012Y-3.598
X3.2012Y-3.698
X3.2012Y-3.798
M30
