M48
; DRILL file {KiCad (6.0.10)} date Wed Apr 12 11:10:31 2023
; FORMAT={-:-/ absolute / inch / decimal}
; #@! TF.CreationDate,2023-04-12T11:10:31-04:00
; #@! TF.GenerationSoftware,Kicad,Pcbnew,(6.0.10)
; #@! TF.FileFunction,Plated,1,2,PTH
FMAT,2
INCH
; #@! TA.AperFunction,Plated,PTH,ComponentDrill
T1C0.0394
%
G90
G05
T1
X2.6289Y-2.1947
X2.6289Y-2.2947
X2.6289Y-2.3947
X2.8921Y-2.189
X2.8921Y-2.289
X2.8921Y-2.389
X2.8921Y-2.489
X2.8921Y-2.589
X2.8921Y-2.689
X2.8921Y-2.789
X2.8921Y-2.889
X2.8921Y-2.989
X2.8921Y-3.089
X2.8921Y-3.189
X2.8921Y-3.289
X2.8921Y-3.389
X2.8921Y-3.489
X2.8921Y-3.589
X2.8921Y-3.689
X2.9921Y-2.189
X2.9921Y-2.289
X2.9921Y-2.389
X2.9921Y-2.489
X2.9921Y-2.589
X2.9921Y-2.689
X2.9921Y-2.789
X2.9921Y-2.889
X2.9921Y-2.989
X2.9921Y-3.089
X2.9921Y-3.189
X2.9921Y-3.289
X2.9921Y-3.389
X2.9921Y-3.489
X2.9921Y-3.589
X2.9921Y-3.689
T0
M30
