M48
; DRILL file {KiCad (6.0.10)} date Tue Jan 17 15:14:55 2023
; FORMAT={-:-/ absolute / inch / decimal}
; #@! TF.CreationDate,2023-01-17T15:14:55-05:00
; #@! TF.GenerationSoftware,Kicad,Pcbnew,(6.0.10)
; #@! TF.FileFunction,Plated,1,2,PTH
FMAT,2
INCH
; #@! TA.AperFunction,Plated,PTH,ComponentDrill
T1C0.0394
%
G90
G05
T1
X2.7559Y-2.2409
X2.7559Y-2.3409
X2.7559Y-2.4409
X2.7559Y-2.5409
X2.7559Y-2.6409
X2.7559Y-2.7409
X2.7559Y-2.8409
X2.7559Y-2.9409
X2.7559Y-3.0409
X2.7559Y-3.1409
X2.7559Y-3.2409
X2.7559Y-3.3409
X2.7559Y-3.4409
X2.7559Y-3.5409
X2.7559Y-3.6409
X2.7559Y-3.7409
X2.8559Y-2.2409
X2.8559Y-2.3409
X2.8559Y-2.4409
X2.8559Y-2.5409
X2.8559Y-2.6409
X2.8559Y-2.7409
X2.8559Y-2.8409
X2.8559Y-2.9409
X2.8559Y-3.0409
X2.8559Y-3.1409
X2.8559Y-3.2409
X2.8559Y-3.3409
X2.8559Y-3.4409
X2.8559Y-3.5409
X2.8559Y-3.6409
X2.8559Y-3.7409
T0
M30
